<?xml version="1.0" encoding="utf-8" ?>
<svg xmlns="http://www.w3.org/2000/svg" xmlns:xlink="http://www.w3.org/1999/xlink" width="1024" height="1024">
	<path fill="#FAFAFA" d="M0 0L1024 0L1024 1024L0 1024L0 0Z"/>
	<path fill="#040404" d="M602.514 281.181C675.94 304.607 736.318 346.819 781.302 409.493C769.221 409.712 756.428 409.254 747.212 418.486C745.074 420.627 742.271 424.108 741.595 427.034C741.324 427.298 740.802 427.828 740.502 428.027C738.845 429.131 736.111 424.879 735.121 423.652C732.539 420.45 730.214 417.042 727.553 413.902C718.05 402.689 706.953 392.067 695.608 382.737C649.197 344.57 600.05 324.198 540.95 314.86C541.637 314.118 542.013 313.833 542.97 313.45C551.221 310.15 559.673 308 567.837 304.235C580.927 298.198 590.899 289.322 602.514 281.181Z"/>
	<path fill="#1E1E1E" d="M741.595 427.034C747.021 419.91 753.391 412.571 762.83 411.259C774.052 409.699 786.235 410.529 797.566 410.514L859.803 410.464L916.664 410.447C926.089 410.447 936.159 409.696 945.495 410.707Q946.654 410.831 947.802 411.037Q948.949 411.243 950.079 411.531Q951.208 411.819 952.315 412.187Q953.421 412.555 954.498 413.002Q955.575 413.448 956.617 413.971Q957.659 414.493 958.661 415.089Q959.663 415.684 960.62 416.35Q961.577 417.016 962.484 417.749C968.629 422.63 973.186 430.355 974.06 438.207C974.982 446.49 974.459 455.261 974.456 463.605L974.452 508.755L974.48 554.134C974.482 563.258 975.117 573.021 973.787 582.053C972.979 587.542 970.453 593.154 967.002 597.487C961.099 604.897 953.195 608.873 943.836 609.83C933.261 610.91 921.985 610.12 911.315 610.148L844.696 610.43C842.338 609.52 795.023 609.693 793.837 610.321C793.486 610.507 793.465 610.594 793.261 610.878C791.402 609.216 774.72 609.993 770.592 609.526C766.848 609.103 763.233 608.256 759.742 606.825Q758.965 606.514 758.204 606.164Q757.443 605.814 756.702 605.425Q755.96 605.037 755.238 604.612Q754.517 604.187 753.818 603.726Q753.119 603.264 752.445 602.768Q751.77 602.272 751.122 601.743Q750.473 601.213 749.852 600.651Q749.231 600.09 748.639 599.497Q748.048 598.905 747.487 598.283Q746.926 597.662 746.397 597.012Q745.868 596.363 745.373 595.688Q744.878 595.013 744.417 594.313Q743.957 593.614 743.533 592.892Q743.108 592.171 742.721 591.428Q742.334 590.686 741.984 589.925Q741.635 589.164 741.325 588.386Q740.175 585.541 739.513 582.545Q738.85 579.549 738.693 576.485C738.086 566.137 738.477 555.574 738.482 545.202L738.479 491.202L738.468 454.992C738.462 448.882 737.945 442.366 738.621 436.315C738.989 433.019 740.316 430.056 741.595 427.034Z"/>
	<path fill="#FAFAFA" d="M947.058 463.992C949.165 464.082 950.827 464.54 952.241 466.168C953.039 467.087 953.536 468.258 953.346 469.49C953.135 470.854 952.504 471.918 951.539 472.876C945.729 478.652 938.318 483.733 931.873 488.847L885.88 524.817C890.847 529.889 896.68 534.208 902.218 538.635L933.153 563.323C938.5 567.556 944.382 571.611 949.376 576.242C950.356 577.151 951.428 578.315 951.741 579.663C952.031 580.915 951.668 582.404 950.998 583.483C950.313 584.586 949.315 585.316 947.996 585.472C945.809 585.731 943.498 584.606 941.715 583.467C935.717 579.637 930.414 574.312 924.81 569.9C908.94 557.406 892.219 544.907 877.424 531.192C872.376 534.528 861.085 544.517 855.742 545.05C849.968 545.626 837.677 534.613 832.862 530.885C810.54 548.367 790.015 568.175 767.364 585.277C766.854 585.537 766.34 585.798 765.804 586.002C764.455 586.515 763.024 586.197 761.793 585.521C760.427 584.771 759.585 583.551 759.358 582.013C759.116 580.367 760.667 578.944 761.683 577.834C767.061 571.96 773.905 566.926 780.039 561.863C794.301 550.094 810.604 537.743 823.485 524.557C813.62 516.503 763.833 477.974 760.399 471.566C760.244 470.285 760.256 469.064 761.065 467.979C761.884 466.883 762.811 466.174 764.21 466.06C766.071 465.908 768.007 467.041 769.463 468.069C776.767 473.231 783.612 479.428 790.654 484.991C811.678 501.598 832.383 518.714 854.185 534.303C863.891 529.313 873.186 521.682 881.794 514.985L924.529 481.308C931.889 475.504 939.196 469.082 947.058 463.992Z"/>
	<path fill="#1E1E1E" d="M782.135 678.908C799.847 675.067 817.082 672.996 835.211 675.072L836.058 675.331C839.946 676.492 844.146 677.004 848.116 677.891C852.805 678.938 857.453 680.531 861.967 682.162Q863.411 682.698 864.843 683.266Q866.275 683.834 867.693 684.434Q869.112 685.034 870.517 685.665Q871.922 686.297 873.313 686.959Q874.703 687.622 876.079 688.315Q877.454 689.009 878.814 689.733Q880.173 690.457 881.516 691.211Q882.859 691.965 884.186 692.749Q885.511 693.533 886.82 694.346Q888.128 695.159 889.418 696.002Q890.707 696.844 891.978 697.715Q893.248 698.586 894.499 699.485Q895.75 700.384 896.98 701.31Q898.211 702.237 899.42 703.191Q900.63 704.145 901.818 705.125Q903.006 706.106 904.171 707.113Q905.337 708.12 906.48 709.152Q907.623 710.185 908.743 711.243Q909.862 712.301 910.958 713.383Q912.054 714.466 913.125 715.573Q914.196 716.68 915.243 717.81Q916.289 718.94 917.31 720.094Q918.331 721.247 919.326 722.423Q920.321 723.599 921.289 724.797Q922.258 725.995 923.199 727.214Q924.14 728.433 925.054 729.673Q925.968 730.913 926.855 732.173Q927.741 733.433 928.599 734.713Q929.456 735.992 930.285 737.29Q931.114 738.589 931.914 739.905Q932.714 741.221 933.484 742.555Q934.255 743.889 934.995 745.24Q935.787 746.708 936.544 748.195Q937.301 749.682 938.021 751.187Q938.742 752.692 939.426 754.214Q940.109 755.735 940.756 757.273Q941.403 758.811 942.012 760.364Q942.621 761.917 943.193 763.485Q943.764 765.052 944.298 766.633Q944.831 768.214 945.326 769.808Q945.821 771.401 946.277 773.006Q946.733 774.61 947.15 776.226Q947.567 777.841 947.945 779.466Q948.323 781.091 948.661 782.725Q948.999 784.359 949.298 786Q949.597 787.642 949.856 789.29Q950.115 790.938 950.333 792.592Q950.552 794.246 950.731 795.905Q950.91 797.564 951.048 799.226Q951.187 800.889 951.285 802.554Q951.383 804.22 951.441 805.887Q951.498 807.555 951.516 809.223Q951.533 810.891 951.51 812.56Q951.487 814.228 951.424 815.895Q951.36 817.562 951.256 819.227Q951.152 820.893 951.008 822.555Q950.864 824.217 950.68 825.875Q950.495 827.533 950.271 829.186Q950.046 830.84 949.782 832.487Q949.517 834.134 949.213 835.775Q948.909 837.415 948.565 839.048Q948.221 840.68 947.837 842.304Q947.454 843.928 947.031 845.542Q946.609 847.156 946.147 848.759Q945.7 850.309 945.216 851.848Q944.732 853.386 944.209 854.913Q943.687 856.439 943.128 857.952Q942.569 859.465 941.972 860.964Q941.376 862.463 940.743 863.946Q940.11 865.43 939.441 866.898Q938.772 868.365 938.067 869.816Q937.362 871.267 936.622 872.7Q935.881 874.134 935.106 875.548Q934.331 876.963 933.521 878.358Q932.711 879.753 931.868 881.128Q931.024 882.503 930.147 883.856Q929.269 885.21 928.359 886.542Q927.449 887.874 926.506 889.183Q925.564 890.492 924.589 891.777Q923.615 893.063 922.609 894.324Q921.604 895.585 920.567 896.821Q919.531 898.057 918.465 899.268Q917.398 900.478 916.303 901.662Q915.207 902.846 914.082 904.003Q912.958 905.159 911.805 906.288Q910.653 907.416 909.473 908.516Q908.293 909.616 907.087 910.687Q905.88 911.758 904.648 912.799Q903.416 913.84 902.158 914.85Q900.901 915.86 899.619 916.839Q898.337 917.818 897.031 918.766Q895.725 919.713 894.397 920.628Q893.069 921.543 891.718 922.425Q890.368 923.307 888.996 924.156Q887.624 925.005 886.232 925.82Q884.84 926.635 883.428 927.415Q881.998 928.202 880.55 928.954Q879.101 929.706 877.634 930.421Q876.168 931.137 874.684 931.816Q873.2 932.495 871.699 933.138Q870.199 933.78 868.683 934.385Q867.167 934.99 865.637 935.557Q864.107 936.124 862.563 936.653Q861.019 937.183 859.463 937.674Q857.906 938.164 856.338 938.617Q854.77 939.069 853.191 939.482Q851.612 939.896 850.024 940.27Q848.435 940.644 846.838 940.979Q845.24 941.313 843.635 941.608Q842.03 941.904 840.418 942.159Q838.806 942.414 837.188 942.63Q835.571 942.845 833.948 943.02Q832.325 943.195 830.699 943.331Q829.073 943.466 827.443 943.561Q825.814 943.655 824.183 943.71Q822.552 943.764 820.92 943.779Q819.288 943.793 817.656 943.767Q816.024 943.74 814.394 943.674Q812.763 943.607 811.134 943.5Q809.506 943.394 807.88 943.246Q806.255 943.099 804.634 942.912Q803.012 942.725 801.396 942.497Q799.78 942.27 798.17 942.003Q796.56 941.735 794.957 941.429Q793.354 941.122 791.76 940.775Q790.165 940.428 788.579 940.043Q786.993 939.657 785.417 939.232Q783.842 938.807 782.277 938.343C763.887 932.925 748.3 923.952 733.017 912.596C731.821 904.127 732.723 894.529 732.657 885.93Q732.42 856.539 732.558 827.148C732.667 803.012 735.214 774.853 727.527 751.925C724.205 742.016 718.386 733.692 712.538 725.159C727.141 707.768 744.502 693.853 765.439 684.808C770.62 682.569 776.492 681.606 781.545 679.196L782.135 678.908Z"/>
	<path fill="#FAFAFA" d="M821.76 723.348C823.62 725.565 839.939 775.476 844.041 784.942C864.552 784.871 885.207 784.529 905.702 785.251C899.965 790.753 893.556 795.651 887.395 800.673Q871.335 813.642 855.451 826.825C861.561 845.751 866.583 865.487 871.435 884.796L822.952 851.935L821.915 851.079C821.602 851.03 821.29 850.892 820.976 850.932C819.628 851.106 777.501 880.129 772.073 883.577C776.417 864.444 780.252 845.152 785.733 826.305C769.217 812.556 752.366 799.151 735.697 785.581Q767.82 784.576 799.956 784.907C806.609 764.274 814.045 743.608 821.76 723.348Z"/>
	<path fill="#1E1E1E" d="M191.808 673.878C200.878 674.367 209.887 673.722 218.944 674.844C224.278 675.505 240.832 680.451 244.34 679.462C244.591 679.943 244.706 680.523 245.092 680.905C246.897 682.69 257.445 685.775 260.507 687.127C264.771 689.01 268.964 691.487 273.002 693.815C287.275 702.045 299.843 713.377 310.574 725.788C304.371 736.737 298.029 746.742 294.634 759.052C290.709 773.287 291.58 788.349 291.528 802.978Q291.29 838.933 291.512 874.889C291.537 885.603 292.428 900.876 291.331 910.962C276.558 926.467 253.256 937.057 232.688 941.89Q231.153 942.24 229.61 942.551Q228.067 942.862 226.516 943.135Q224.966 943.409 223.409 943.643Q221.852 943.878 220.29 944.074Q218.728 944.27 217.162 944.427Q215.596 944.585 214.026 944.703Q212.456 944.822 210.884 944.902Q209.311 944.981 207.738 945.022Q206.164 945.063 204.59 945.065Q203.015 945.066 201.442 945.029Q199.868 944.992 198.295 944.916Q196.723 944.839 195.153 944.724Q193.583 944.609 192.016 944.456Q190.449 944.302 188.887 944.109Q187.324 943.917 185.767 943.685Q184.21 943.454 182.659 943.184Q181.108 942.915 179.564 942.607Q178.02 942.299 176.484 941.953Q174.949 941.607 173.422 941.223Q171.895 940.839 170.378 940.417Q168.862 939.995 167.356 939.536Q165.85 939.077 164.356 938.581Q162.862 938.085 161.381 937.552Q159.899 937.018 158.432 936.449Q156.964 935.879 155.511 935.274Q154.058 934.668 152.62 934.027Q151.183 933.385 149.761 932.708Q148.34 932.031 146.936 931.32Q145.532 930.608 144.145 929.861Q142.759 929.115 141.392 928.335Q140.025 927.554 138.677 926.74Q137.33 925.926 136.003 925.079Q134.597 924.197 133.213 923.281Q131.829 922.365 130.469 921.415Q129.108 920.466 127.771 919.483Q126.433 918.5 125.121 917.484Q123.808 916.468 122.521 915.421Q121.234 914.373 119.973 913.294Q118.712 912.215 117.478 911.106Q116.244 909.996 115.038 908.856Q113.831 907.717 112.653 906.548Q111.475 905.379 110.327 904.181Q109.178 902.984 108.059 901.758Q106.94 900.533 105.851 899.28Q104.763 898.027 103.705 896.748Q102.648 895.469 101.622 894.165Q100.596 892.86 99.6032 891.531Q98.61 890.201 97.6498 888.847Q96.6896 887.494 95.7629 886.117Q94.8363 884.74 93.9438 883.341Q93.0514 881.942 92.1936 880.521Q91.3358 879.101 90.5132 877.659Q89.6906 876.218 88.9038 874.757Q88.1169 873.296 87.3662 871.816Q86.6155 870.336 85.9015 868.838Q85.1874 867.339 84.5104 865.824Q83.8335 864.309 83.1939 862.778Q82.5545 861.246 81.9528 859.7Q81.3512 858.153 80.7878 856.592Q80.2244 855.031 79.6995 853.457Q79.1747 851.882 78.6888 850.295Q78.2028 848.709 77.7561 847.11Q77.3093 845.512 76.902 843.903Q76.4947 842.294 76.1271 840.676C68.0853 805.091 74.0113 766.359 93.6699 735.469Q94.45 734.219 95.2581 732.986Q96.0662 731.753 96.9019 730.539Q97.7375 729.325 98.6003 728.13Q99.4631 726.936 100.353 725.76Q101.242 724.585 102.158 723.43Q103.074 722.275 104.015 721.141Q104.957 720.008 105.923 718.895Q106.89 717.783 107.882 716.692Q108.873 715.602 109.889 714.534Q110.905 713.467 111.945 712.422Q112.985 711.377 114.048 710.356Q115.111 709.336 116.197 708.339Q117.282 707.342 118.39 706.37Q119.498 705.398 120.628 704.451Q121.757 703.505 122.908 702.584Q124.058 701.662 125.229 700.767Q126.4 699.873 127.591 699.004Q128.782 698.136 129.992 697.295Q131.202 696.453 132.431 695.64Q133.66 694.826 134.907 694.04Q136.154 693.254 137.418 692.496Q138.682 691.739 139.963 691.01Q141.244 690.281 142.541 689.581Q143.838 688.881 145.151 688.21Q146.463 687.54 147.79 686.899Q149.118 686.258 150.459 685.647Q151.8 685.036 153.155 684.456Q154.51 683.876 155.877 683.326Q157.245 682.776 158.624 682.258Q160.004 681.739 161.395 681.251Q162.786 680.764 164.187 680.308Q165.589 679.851 167 679.427C175.206 676.957 183.484 675.736 191.808 673.878Z"/>
	<path fill="#FAFAFA" d="M161.12 740.649C164.246 740.179 167.769 740.204 170.921 740.468C182.593 741.444 192.731 746.933 200.199 755.848C201.753 754.268 203.305 752.665 204.981 751.212C213.642 743.702 224.68 739.697 236.164 740.528C248.901 741.45 262.49 748.518 270.825 758.154C279.101 767.723 282.29 779.666 281.266 792.146C278.594 824.697 257.226 850.226 233.241 870.389Q225.623 876.507 217.461 881.876Q209.298 887.246 200.664 891.818Q192.341 887.367 184.531 882.067C155.53 862.42 126.079 833.461 119.456 797.808C117.073 784.978 118.426 772.593 126.06 761.735C134.303 750.01 147.234 743.077 161.12 740.649Z"/>
	<path fill="#1E1E1E" d="M421.962 281.481C416.186 275.129 410.252 268.867 405.204 261.906Q403.563 259.61 402.02 257.247Q400.477 254.885 399.036 252.459Q397.594 250.033 396.256 247.548Q394.918 245.064 393.686 242.525Q392.454 239.986 391.33 237.398Q390.206 234.809 389.192 232.176Q388.179 229.542 387.277 226.868Q386.376 224.194 385.588 221.484Q384.8 218.775 384.127 216.034Q383.454 213.294 382.897 210.527Q382.34 207.761 381.901 204.973Q381.461 202.186 381.139 199.382Q380.818 196.579 380.615 193.764Q380.412 190.949 380.328 188.129Q380.244 185.308 380.279 182.486Q380.314 179.665 380.468 176.847C382.001 142.58 398.387 108.853 423.677 85.8302C450.433 61.4724 484.361 48.8516 520.583 50.6175C554.741 52.2828 588.547 68.7798 611.322 94.2298Q612.425 95.4503 613.498 96.6978Q614.571 97.9453 615.612 99.2191Q616.654 100.493 617.664 101.792Q618.673 103.091 619.65 104.415Q620.628 105.739 621.572 107.086Q622.516 108.434 623.426 109.804Q624.336 111.175 625.212 112.568Q626.088 113.96 626.93 115.374Q627.771 116.788 628.577 118.223Q629.383 119.657 630.153 121.111Q630.923 122.565 631.657 124.037Q632.391 125.51 633.088 127Q633.786 128.491 634.446 129.998Q635.106 131.505 635.728 133.028Q636.351 134.551 636.935 136.089Q637.52 137.627 638.066 139.179Q638.612 140.731 639.12 142.296Q639.627 143.861 640.096 145.438Q640.565 147.015 640.994 148.604Q641.424 150.192 641.814 151.791Q642.203 153.389 642.554 154.997Q642.904 156.604 643.214 158.22Q643.524 159.836 643.795 161.459Q644.065 163.082 644.294 164.711Q644.524 166.34 644.714 167.975Q644.903 169.609 645.052 171.248Q645.201 172.886 645.309 174.528Q645.417 176.17 645.484 177.814Q645.552 179.458 645.578 181.103Q645.605 182.748 645.591 184.393Q645.576 186.039 645.522 187.683Q645.467 189.327 645.371 190.97C643.866 216.269 634.328 242.31 618.988 262.498C613.917 269.17 608.064 274.942 602.514 281.181C590.899 289.322 580.927 298.198 567.837 304.235C559.673 308 551.221 310.15 542.97 313.45C542.013 313.833 541.637 314.118 540.95 314.86C538.442 314.539 536.216 314.762 533.725 315.086C524.709 316.26 515.954 317.194 506.84 316.682C500.01 316.299 492.954 314.896 486.135 315.249C485.437 315.285 484.742 315.314 484.044 315.359C483.569 314.735 483.239 314.435 482.524 314.054C479.397 312.387 475.122 311.432 471.719 310.27C465.78 308.242 460.054 306.047 454.394 303.311Q448.239 300.35 442.443 296.738Q436.647 293.126 431.277 288.905C428.437 286.679 425.624 283.667 422.558 281.829C422.361 281.711 422.16 281.597 421.962 281.481Z"/>
	<path fill="#FAFAFA" d="M527.497 98.6693C536.863 97.3888 546.031 98.8904 554.84 102.031Q554.971 119.536 554.85 137.042C550.603 134.992 546.109 132.848 541.288 132.843C538.208 132.84 535.338 133.844 533.165 136.07C527.127 142.255 528.432 154.685 528.491 162.63C536.867 162.828 545.266 162.693 553.645 162.682L553.536 193.015L530.821 193.179L531.033 244.018C531.047 252.787 531.741 262.166 530.807 270.869C529.529 271.785 527.42 271.49 525.879 271.479L491.638 271.505C491.325 245.383 491.643 219.217 491.677 193.091L469.613 193.093Q469.592 177.667 469.811 162.243Q480.208 162.113 490.604 162.326C490.549 146.291 489.201 128.662 499.196 115.044C506.302 105.362 515.827 100.54 527.497 98.6693Z"/>
	<path fill="#1E1E1E" d="M199.185 87.6985C199.348 87.6737 199.512 87.6442 199.676 87.6243C231.162 83.8139 268.787 96.1311 293.34 115.758Q294.671 116.825 295.975 117.923Q297.279 119.022 298.556 120.153Q299.832 121.283 301.081 122.445Q302.33 123.607 303.549 124.799Q304.769 125.99 305.959 127.212Q307.149 128.433 308.309 129.684Q309.469 130.934 310.597 132.213Q311.726 133.491 312.823 134.797Q313.92 136.103 314.984 137.435Q316.049 138.767 317.08 140.125Q318.112 141.483 319.11 142.866Q320.108 144.249 321.071 145.657Q322.035 147.064 322.963 148.494Q323.892 149.924 324.785 151.377Q325.679 152.83 326.536 154.304Q327.393 155.778 328.214 157.273Q329.035 158.768 329.819 160.282Q330.603 161.797 331.35 163.33Q332.096 164.863 332.805 166.415Q333.513 167.966 334.184 169.534Q334.854 171.102 335.486 172.686Q336.117 174.27 336.71 175.869Q337.302 177.469 337.855 179.082Q338.408 180.695 338.922 182.321Q339.435 183.948 339.908 185.586Q340.381 187.224 340.814 188.874Q341.247 190.524 341.639 192.183Q342.031 193.843 342.383 195.512Q342.734 197.181 343.044 198.857Q343.354 200.534 343.623 202.218Q343.892 203.902 344.12 205.593Q344.347 207.283 344.533 208.978Q344.727 210.677 344.879 212.38Q345.031 214.083 345.14 215.79Q345.25 217.496 345.318 219.205Q345.385 220.914 345.411 222.623Q345.436 224.333 345.419 226.043Q345.402 227.753 345.343 229.462Q345.284 231.171 345.183 232.878Q345.082 234.585 344.938 236.289Q344.795 237.993 344.609 239.693Q344.424 241.393 344.197 243.088Q343.969 244.782 343.7 246.471Q343.431 248.16 343.12 249.841Q342.81 251.523 342.458 253.196Q342.105 254.869 341.712 256.534Q341.319 258.198 340.884 259.852Q340.45 261.505 339.975 263.148Q339.5 264.791 338.984 266.421Q338.469 268.052 337.913 269.669Q337.358 271.286 336.763 272.889Q336.167 274.492 335.532 276.08Q334.898 277.668 334.224 279.239Q333.55 280.811 332.838 282.366Q332.126 283.92 331.375 285.457Q330.625 286.993 329.836 288.511Q329.048 290.028 328.223 291.526Q327.397 293.023 326.535 294.5Q325.673 295.977 324.775 297.432Q323.876 298.887 322.942 300.319Q322.008 301.751 321.039 303.16Q320.07 304.569 319.066 305.954Q318.063 307.338 317.025 308.698Q315.988 310.057 314.917 311.39C291.1 340.8 258.245 358.326 220.621 362.302C220.407 362.33 220.195 362.367 219.98 362.387C186.903 365.392 151.939 353.84 126.114 333.184Q124.783 332.114 123.479 331.012Q122.176 329.909 120.899 328.775Q119.623 327.641 118.374 326.476Q117.126 325.311 115.907 324.115Q114.688 322.92 113.498 321.695Q112.308 320.47 111.149 319.217Q109.99 317.963 108.862 316.681Q107.734 315.399 106.638 314.09Q105.542 312.781 104.478 311.445Q103.414 310.11 102.383 308.748Q101.353 307.387 100.356 306.001Q99.3587 304.615 98.3961 303.204Q97.4335 301.794 96.5057 300.361Q95.578 298.927 94.6858 297.471Q93.7935 296.015 92.9372 294.538Q92.081 293.061 91.2612 291.563Q90.4415 290.065 89.6588 288.548Q88.876 287.03 88.1308 285.494Q87.3855 283.958 86.6782 282.404Q85.9709 280.849 85.3019 279.278Q84.6329 277.707 84.0027 276.12Q83.3725 274.534 82.7815 272.932Q82.1904 271.33 81.6388 269.714Q81.0872 268.098 80.5755 266.469Q80.0638 264.84 79.5921 263.199Q79.1205 261.558 78.6894 259.906Q78.2582 258.253 77.8677 256.591Q77.4772 254.929 77.1276 253.258Q76.778 251.586 76.4695 249.907Q76.161 248.227 75.8939 246.541Q75.6267 244.855 75.4011 243.162Q75.1754 241.47 74.9913 239.772C71.0726 202.387 81.1335 166.239 105.093 137.064C128.803 108.192 162.191 91.3965 199.185 87.6985Z"/>
	<path fill="#FAFAFA" d="M204.307 124.201C205.816 124.017 207.474 124.04 208.995 124.067Q210.264 124.095 211.53 124.185Q212.796 124.274 214.056 124.425Q215.316 124.575 216.567 124.787Q217.819 124.998 219.058 125.27Q220.298 125.541 221.523 125.872Q222.748 126.203 223.956 126.593Q225.164 126.983 226.351 127.431Q227.538 127.879 228.703 128.384Q229.867 128.888 231.006 129.449Q232.145 130.009 233.255 130.624Q234.365 131.239 235.444 131.906Q236.524 132.574 237.569 133.293Q238.615 134.012 239.625 134.781Q240.634 135.55 241.606 136.366Q242.577 137.183 243.508 138.046Q244.439 138.908 245.327 139.815C253.857 148.688 258.22 161.147 257.931 173.382C257.578 188.296 250.367 200.272 239.863 210.36C252.359 213.8 267.594 217.469 277.292 226.474C284.898 233.537 287.406 242.72 287.78 252.791C288.022 259.285 287.822 265.801 287.902 272.3C287.994 279.776 289.122 288.908 287.579 296.17C286.944 299.163 285.387 301.729 283.283 303.919C268.694 319.106 233.613 322.554 213.007 323.057C190.668 323.555 163.938 320.99 143.923 310.741C138.31 307.867 131.212 303.263 129.431 296.855C128.245 292.588 128.764 250.217 129.585 244.926Q129.829 243.342 130.219 241.788Q130.608 240.234 131.141 238.722Q131.674 237.211 132.345 235.756Q133.016 234.301 133.819 232.914C142.527 217.87 160.74 213.873 176.277 209.604C166.863 200.745 159.479 190.527 158.084 177.313Q157.969 176.162 157.912 175.008Q157.854 173.853 157.854 172.696Q157.854 171.54 157.912 170.385Q157.97 169.23 158.085 168.08Q158.2 166.929 158.372 165.786Q158.544 164.643 158.773 163.509Q159.002 162.376 159.287 161.255Q159.572 160.135 159.912 159.03Q160.253 157.925 160.648 156.838Q161.043 155.751 161.492 154.685Q161.94 153.62 162.441 152.578Q162.942 151.536 163.495 150.52Q164.047 149.504 164.649 148.517Q165.252 147.53 165.902 146.574Q166.553 145.618 167.25 144.696Q167.948 143.773 168.69 142.887C177.654 132.019 190.38 125.548 204.307 124.201Z"/>
	<path fill="#1E1E1E" d="M226.279 226.053L227.113 226.204C226.824 233.238 222.622 245.745 220.672 253.061Q214.527 275.787 208.773 298.615C206.837 293.087 205.337 287.36 203.691 281.737Q196.29 254.081 188.401 226.561C202.137 229.708 212.589 229.694 226.279 226.053Z"/>
	<path fill="#1E1E1E" d="M204.332 144.618C211.351 144.065 217.861 145.43 223.755 149.44C229.955 153.657 233.82 159.9 235.081 167.233Q235.197 167.905 235.28 168.582Q235.363 169.259 235.412 169.939Q235.461 170.62 235.477 171.302Q235.492 171.984 235.474 172.665Q235.456 173.347 235.405 174.027Q235.353 174.707 235.268 175.384Q235.182 176.061 235.064 176.733Q234.945 177.404 234.794 178.069Q234.642 178.734 234.458 179.391Q234.274 180.048 234.057 180.695Q233.841 181.341 233.593 181.977Q233.345 182.612 233.066 183.235Q232.786 183.857 232.477 184.465Q232.167 185.072 231.828 185.664Q231.489 186.256 231.121 186.83Q230.753 187.405 230.357 187.96C225.385 194.798 217.896 198.018 209.802 199.328Q208.581 199.444 207.354 199.457Q206.127 199.471 204.904 199.382Q203.68 199.293 202.469 199.102Q201.257 198.911 200.065 198.62Q198.874 198.329 197.71 197.939Q196.547 197.549 195.421 197.064Q194.294 196.578 193.212 196Q192.13 195.422 191.1 194.756Q190.524 194.377 189.969 193.97Q189.413 193.563 188.878 193.129Q188.343 192.695 187.83 192.235Q187.317 191.775 186.828 191.289Q186.339 190.804 185.875 190.295Q185.41 189.786 184.972 189.254Q184.534 188.723 184.122 188.17Q183.711 187.618 183.328 187.045Q182.945 186.473 182.59 185.882Q182.236 185.291 181.912 184.683Q181.587 184.075 181.293 183.452Q181 182.829 180.738 182.191Q180.475 181.554 180.245 180.905Q180.015 180.256 179.817 179.596Q179.62 178.936 179.455 178.266Q179.291 177.597 179.16 176.921C177.832 169.917 179.607 162.377 183.686 156.56C188.706 149.403 195.957 146.086 204.332 144.618Z"/>
	<path fill="#1E1E1E" d="M803.529 87.7023C803.76 87.6723 803.99 87.6332 804.222 87.6122C836.442 84.7016 872.681 95.6824 897.951 115.767Q899.252 116.821 900.528 117.906Q901.803 118.991 903.052 120.106Q904.301 121.221 905.522 122.367Q906.744 123.512 907.938 124.686Q909.131 125.86 910.296 127.063Q911.461 128.266 912.596 129.497Q913.732 130.727 914.838 131.985Q915.943 133.242 917.018 134.526Q918.093 135.81 919.136 137.119Q920.18 138.429 921.192 139.763Q922.203 141.097 923.183 142.456Q924.162 143.814 925.108 145.195Q926.054 146.577 926.967 147.981Q927.879 149.385 928.758 150.81Q929.636 152.236 930.48 153.682Q931.323 155.128 932.132 156.595Q932.941 158.061 933.714 159.546Q934.487 161.031 935.224 162.535Q935.961 164.038 936.661 165.559Q937.362 167.08 938.025 168.618Q938.689 170.155 939.315 171.708Q939.941 173.261 940.53 174.828Q941.118 176.396 941.669 177.977Q942.22 179.558 942.732 181.153Q943.244 182.747 943.718 184.353Q944.192 185.959 944.627 187.576Q945.062 189.193 945.457 190.82Q945.853 192.447 946.209 194.083Q946.566 195.719 946.882 197.363Q947.199 199.007 947.476 200.659Q947.753 202.31 947.99 203.968Q948.227 205.625 948.424 207.288Q948.626 209.011 948.786 210.738Q948.946 212.465 949.062 214.196Q949.179 215.927 949.252 217.66Q949.326 219.393 949.356 221.127Q949.386 222.862 949.374 224.596Q949.361 226.331 949.305 228.065Q949.249 229.798 949.15 231.53Q949.051 233.262 948.909 234.991Q948.767 236.72 948.582 238.444Q948.396 240.169 948.169 241.889Q947.941 243.608 947.67 245.322Q947.399 247.035 947.086 248.741Q946.773 250.447 946.417 252.145Q946.062 253.843 945.664 255.531Q945.266 257.22 944.827 258.898Q944.387 260.576 943.906 262.242Q943.425 263.909 942.903 265.563Q942.38 267.217 941.817 268.858Q941.253 270.498 940.649 272.124Q940.045 273.75 939.401 275.361Q938.756 276.971 938.072 278.565Q937.388 280.159 936.664 281.736Q935.94 283.312 935.178 284.87Q934.415 286.428 933.614 287.967Q932.813 289.505 931.973 291.023Q931.134 292.541 930.257 294.038Q929.381 295.535 928.467 297.009Q927.553 298.484 926.603 299.935Q925.653 301.387 924.667 302.814Q923.681 304.241 922.66 305.643Q921.639 307.045 920.583 308.422Q919.527 309.798 918.438 311.148C894.613 340.677 861.59 357.781 824.121 361.9Q823.327 361.996 822.53 362.074C790.176 365.333 754.472 353.688 729.375 333.174C700.579 309.636 681.394 276.13 677.844 238.911C674.414 202.953 685.162 165.297 708.431 137.44Q709.529 136.114 710.66 134.815Q711.791 133.517 712.954 132.247Q714.117 130.977 715.31 129.736Q716.504 128.495 717.729 127.285Q718.953 126.074 720.207 124.894Q721.461 123.714 722.744 122.565Q724.027 121.417 725.338 120.301Q726.649 119.184 727.987 118.101Q729.326 117.018 730.69 115.968Q732.055 114.918 733.446 113.902Q734.836 112.887 736.251 111.906Q737.667 110.925 739.106 109.98Q740.545 109.035 742.007 108.125Q743.469 107.216 744.954 106.343Q746.438 105.47 747.943 104.635Q749.449 103.799 750.975 103.001Q752.501 102.203 754.046 101.443Q755.591 100.683 757.154 99.9619Q758.718 99.2406 760.299 98.5584Q761.88 97.8761 763.477 97.2333Q765.074 96.5905 766.687 95.9876Q768.3 95.3846 769.928 94.8219Q771.555 94.2591 773.196 93.737Q774.837 93.2148 776.49 92.7335Q778.143 92.2523 779.808 91.8122Q781.472 91.3721 783.147 90.9735Q784.823 90.5749 786.507 90.218Q788.192 89.8611 789.884 89.5461Q791.577 89.2311 793.277 88.9582Q794.977 88.6854 796.684 88.4548Q798.39 88.2242 800.102 88.0361Q801.813 87.8479 803.529 87.7023Z"/>
	<path fill="#FAFAFA" d="M804.134 130.697C804.381 130.661 804.627 130.614 804.876 130.588C827.705 128.248 852.05 135.662 870.224 149.42Q871.15 150.129 872.059 150.861Q872.968 151.593 873.859 152.346Q874.75 153.099 875.622 153.874Q876.495 154.649 877.348 155.444Q878.201 156.24 879.035 157.056Q879.869 157.872 880.683 158.708Q881.497 159.544 882.291 160.399Q883.084 161.254 883.857 162.129Q884.629 163.003 885.38 163.896Q886.132 164.788 886.861 165.699Q887.591 166.61 888.298 167.538Q889.005 168.466 889.689 169.41Q890.374 170.355 891.035 171.316Q891.697 172.277 892.335 173.254Q892.973 174.231 893.587 175.223Q894.201 176.215 894.791 177.222Q895.381 178.228 895.947 179.249Q896.513 180.269 897.053 181.303Q897.594 182.337 898.109 183.384Q898.625 184.43 899.115 185.489Q899.605 186.548 900.069 187.618Q900.534 188.689 900.972 189.77Q901.41 190.851 901.822 191.943Q902.234 193.034 902.62 194.135Q903.005 195.237 903.364 196.347Q903.723 197.457 904.055 198.576Q904.386 199.694 904.691 200.82Q904.996 201.947 905.273 203.08Q905.55 204.213 905.8 205.353Q906.05 206.493 906.272 207.638Q906.495 208.783 906.689 209.934Q906.883 211.084 907.05 212.239C910.486 237.366 904.236 263.506 888.754 283.707C872.79 304.537 849.966 317.355 824.119 320.88C800.631 323.781 774.924 316.163 756.255 301.765Q755.312 301.046 754.387 300.304Q753.463 299.561 752.557 298.796Q751.651 298.031 750.765 297.243Q749.878 296.455 749.012 295.646Q748.146 294.836 747.3 294.005Q746.454 293.173 745.629 292.321Q744.805 291.469 744.001 290.597Q743.198 289.724 742.417 288.832Q741.637 287.94 740.878 287.028Q740.12 286.116 739.385 285.186Q738.649 284.255 737.938 283.307Q737.226 282.358 736.538 281.392Q735.85 280.426 735.187 279.443Q734.524 278.46 733.885 277.461Q733.247 276.462 732.634 275.447Q732.02 274.432 731.433 273.402Q730.845 272.372 730.284 271.328Q729.722 270.283 729.187 269.225Q728.651 268.167 728.143 267.096Q727.634 266.024 727.153 264.941Q726.671 263.857 726.217 262.762Q725.763 261.666 725.336 260.56Q724.909 259.453 724.51 258.337Q724.112 257.22 723.741 256.094Q723.37 254.967 723.028 253.832Q722.685 252.697 722.372 251.553Q722.058 250.409 721.773 249.258Q721.488 248.107 721.232 246.949Q720.975 245.792 720.748 244.628Q720.521 243.464 720.324 242.295Q720.126 241.125 719.957 239.951Q719.789 238.778 719.65 237.6Q719.5 236.45 719.379 235.296Q719.258 234.143 719.165 232.987Q719.073 231.831 719.008 230.673Q718.944 229.515 718.908 228.356Q718.872 227.196 718.865 226.036Q718.857 224.877 718.878 223.717Q718.899 222.557 718.949 221.399Q718.999 220.24 719.077 219.083Q719.155 217.926 719.261 216.771Q719.368 215.616 719.503 214.464Q719.638 213.312 719.801 212.164Q719.964 211.015 720.155 209.871Q720.346 208.728 720.566 207.589Q720.785 206.45 721.032 205.317Q721.279 204.183 721.554 203.057Q721.829 201.93 722.132 200.81Q722.435 199.691 722.765 198.579Q723.095 197.467 723.452 196.364Q723.809 195.26 724.194 194.166Q724.578 193.072 724.989 191.987Q725.4 190.903 725.838 189.829Q726.275 188.754 726.739 187.691Q727.203 186.628 727.693 185.577Q728.183 184.526 728.698 183.487Q729.214 182.448 729.755 181.422Q730.295 180.396 730.861 179.384Q731.427 178.371 732.018 177.373Q732.609 176.375 733.224 175.392Q733.839 174.409 734.478 173.441Q735.117 172.473 735.779 171.521Q736.442 170.569 737.128 169.634Q737.813 168.698 738.522 167.78C755.147 146.673 777.501 133.756 804.134 130.697Z"/>
	<path fill="#040404" d="M777.952 156.974C778.291 157.274 778.104 157.048 778.245 157.801C776.497 160.639 774.136 165.363 771.254 167.14L769.634 166.379L766.604 163.431C770.196 161.019 774.157 159.055 777.952 156.974Z"/>
	<path fill="#040404" d="M770.161 282.938C772.153 285.99 777.981 292.319 778.546 295.345L777.242 295.108C773.343 292.947 769.898 290.091 766.454 287.286C767.573 285.752 768.901 284.358 770.161 282.938Z"/>
	<path fill="#040404" d="M845.324 155.72C845.459 155.758 845.595 155.791 845.727 155.834C849.099 156.93 857.938 160.81 859.58 163.892L858.613 165.034L853.993 167.826C851.352 163.576 848.419 159.642 845.324 155.72Z"/>
	<path fill="#040404" d="M852.885 283.853C854.926 285.552 856.788 287.433 858.68 289.293C855.163 291.679 851.571 293.756 847.75 295.614L841.857 297.42C846.06 293.255 849.525 288.715 852.885 283.853Z"/>
	<path fill="#040404" d="M817.951 270.371C826.305 270.692 836.213 274.92 843.614 278.678Q838.194 284.443 832.615 290.055C828.042 294.24 823.452 297.81 818.031 300.82L817.951 270.371Z"/>
	<path fill="#040404" d="M817.86 149.637C828.126 155.12 837.627 163.181 844.073 172.888L838.885 175.026C831.936 177.685 825.257 179.564 817.903 180.689L817.86 149.637Z"/>
	<path fill="#040404" d="M806.099 150.408L806.592 150.598C807.737 153.43 807.043 175.853 807.056 180.881C800.587 180.202 794.494 178.956 788.375 176.735C785.846 175.76 783.392 174.601 780.924 173.481C787.189 163.993 796.217 155.961 806.099 150.408Z"/>
	<path fill="#040404" d="M803.978 270.206C805.048 270.048 805.695 270.018 806.738 270.322C807.897 276.826 806.986 293.635 806.789 301.066C801.097 298.897 796.454 295.709 791.831 291.798C786.787 287.645 782.828 282.031 779.269 276.61C787.45 273.81 795.319 271.059 803.978 270.206Z"/>
	<path fill="#040404" d="M734.391 230.511L754.386 230.51C754.947 245.723 758.691 259.206 764.021 273.333L760.388 276.406L757.135 279.368Q756.381 278.784 755.663 278.155C743.074 267.086 735.655 246.854 734.391 230.511Z"/>
	<path fill="#040404" d="M758.054 170.357C760.366 173.055 763.399 175.16 766.193 177.336C759.585 191.463 755.756 204.406 753.994 219.922L743.172 219.884L734.317 219.97C735.689 200.467 745.07 184.315 758.054 170.357Z"/>
	<path fill="#040404" d="M868.441 170.454C883.676 185.992 888.536 198.651 891.721 219.977L883.25 220.004L870.765 220.003C869.617 204.956 866.391 191.628 859.345 178.248Q863.852 174.303 868.441 170.454Z"/>
	<path fill="#040404" d="M871.187 230.496L891.719 230.518C890.775 248.529 884.003 263.547 872.491 277.175C870.684 279.171 868.715 281.007 866.775 282.872C864.417 279.501 861.758 276.891 858.498 274.412C866.146 261.221 870.305 245.634 871.187 230.496Z"/>
	<path fill="#040404" d="M775.145 183.748C784.713 188.939 796.253 191.701 807.045 192.585L807.105 220.083L796.375 220.074L765.061 220.006C766.096 207.223 769.037 195.066 775.145 183.748Z"/>
	<path fill="#040404" d="M849.991 183.033C855.838 188.928 858.664 211.194 859.606 219.746Q843.744 219.915 827.881 219.825L817.59 219.789L817.675 192.379C829.261 190.822 839.404 188.012 849.991 183.033Z"/>
	<path fill="#040404" d="M817.682 230.549L859.342 230.577C858.234 241.577 856.01 251.77 851.995 262.082C851.06 264.277 849.907 266.38 848.813 268.5Q847.026 267.53 845.192 266.652Q843.358 265.774 841.482 264.99Q839.606 264.205 837.693 263.517Q835.78 262.828 833.835 262.237Q831.889 261.646 829.916 261.154Q827.944 260.662 825.948 260.27Q823.953 259.878 821.941 259.588Q819.928 259.297 817.904 259.109L817.682 230.549Z"/>
	<path fill="#040404" d="M765.048 230.507L807.365 230.543L807.359 259.382C805.009 259.403 802.719 259.506 800.378 259.722C791.207 260.71 782.671 263.604 774.567 267.94C768.564 256.291 766.315 243.413 765.048 230.507Z"/>
	<path fill="#040404" d="M421.962 281.481C422.16 281.597 422.361 281.711 422.558 281.829C425.624 283.667 428.437 286.679 431.277 288.905Q436.647 293.126 442.443 296.738Q448.239 300.35 454.394 303.311C460.054 306.047 465.78 308.242 471.719 310.27C475.122 311.432 479.397 312.387 482.524 314.054C483.239 314.435 483.569 314.735 484.044 315.359C465.639 318.225 447.305 321.498 429.501 327.089C374.945 344.222 318.866 382.055 284.859 428.336C283.467 430.232 281.836 432.301 280.818 434.419C283.245 439.115 284.595 444.19 285.093 449.441C285.765 456.515 285.433 463.829 285.426 470.931L285.279 509.131C285.197 529.459 286.365 550.151 285.313 570.427C285.115 574.238 284.762 577.919 283.574 581.565Q283.237 582.603 282.85 583.623Q282.462 584.642 282.024 585.642Q281.586 586.641 281.098 587.617Q280.611 588.593 280.076 589.544Q279.54 590.495 278.958 591.417Q278.376 592.34 277.749 593.233Q277.122 594.126 276.451 594.986Q275.78 595.847 275.067 596.673Q274.355 597.499 273.601 598.288Q272.848 599.078 272.057 599.829Q271.265 600.58 270.438 601.29Q269.61 602.001 268.748 602.669Q267.885 603.338 266.991 603.963Q266.096 604.588 265.172 605.167Q264.248 605.747 263.296 606.28Q262.343 606.812 261.366 607.297C250.914 612.511 240.376 611.99 229.026 611.509C230.31 634.893 236.277 657.563 244.34 679.462C240.832 680.451 224.278 675.505 218.944 674.844C209.887 673.722 200.878 674.367 191.808 673.878C186.288 658.341 181.635 631.349 180.989 614.878C180.813 614.004 180.573 613.304 180.2 612.494C176.044 610.722 169.988 612.006 165.545 612L115.25 612.085C105.314 612.075 94.4785 612.953 84.746 610.964C73.5885 608.684 63.8391 602.575 57.5752 592.994C54.5569 588.378 51.8296 582.506 51.0835 577.009C50.0563 569.44 50.4651 561.55 50.4526 553.916L50.4141 518.312L50.3467 478.59C50.2556 466.764 48.9678 453.659 51.5611 442.101C53.8292 431.993 61.8616 422.399 70.4495 416.931C76.0552 413.362 82.7579 410.888 89.3764 410.168C100.966 408.908 113.315 409.914 124.995 409.914L194.968 409.946Q208.916 410.027 222.863 409.912C229.07 409.869 236.479 409.105 242.508 410.429C254.731 393.653 267.795 377.706 282.613 363.145C321.042 325.381 370.498 297.057 421.962 281.481Z"/>
	<path fill="#FAFAFA" d="M161.727 425.755L235.896 425.304C245.4 425.291 253.904 426.381 260.941 433.495C264.614 437.208 267.63 442.032 268.934 447.115C271.167 455.817 270.016 484.236 270.025 495.251L270.036 544.454C270.031 553.581 271.187 566.104 268.97 574.808C267.681 579.865 264.446 584.617 260.772 588.244C256.8 592.165 252.425 594.507 247 595.711C238.212 597.661 228.046 596.582 219.04 596.564L173.75 596.482L119.256 596.437C109.535 596.448 98.7168 597.374 89.1285 595.808C84.1958 595.002 79.3544 593.198 75.5655 589.866C69.6937 584.701 66.3893 577.978 66.0514 570.181C65.6756 561.505 65.9633 552.727 65.9829 544.039L66.055 496.423L66.0183 466.16C66.0149 460.02 65.5832 453.471 66.5372 447.406C67.3033 442.536 70.3365 437.125 73.7377 433.558C76.9849 430.153 81.7832 427.484 86.3434 426.444C94.0274 424.692 104.947 425.751 112.993 425.754L161.727 425.755Z"/>
	<path fill="#040404" d="M149.045 533.526L178.189 533.554L178.429 558.149Q163.762 558.003 149.095 558.024L149.045 533.526Z"/>
	<path fill="#1E1E1E" d="M162.017 449.628C166.997 449.694 172.13 451.293 176.116 454.294Q176.543 454.614 176.953 454.955Q177.363 455.297 177.755 455.658Q178.148 456.019 178.522 456.4Q178.895 456.781 179.249 457.18Q179.603 457.579 179.937 457.996Q180.27 458.413 180.582 458.845Q180.894 459.278 181.184 459.726Q181.473 460.174 181.74 460.636Q182.007 461.098 182.25 461.573Q182.493 462.048 182.712 462.535Q182.931 463.021 183.125 463.518Q183.319 464.015 183.488 464.521Q183.656 465.027 183.799 465.541Q183.942 466.055 184.059 466.576Q184.176 467.097 184.267 467.622Q184.357 468.148 184.421 468.678C185.127 474.552 183.537 480.702 179.864 485.366C175.692 490.664 170.338 492.556 163.892 493.302C159.347 493.495 154.518 491.933 150.813 489.336Q150.363 489.02 149.93 488.682Q149.497 488.344 149.082 487.984Q148.666 487.624 148.269 487.244Q147.873 486.864 147.495 486.465Q147.118 486.065 146.762 485.647Q146.405 485.229 146.07 484.793Q145.735 484.358 145.422 483.906Q145.109 483.454 144.82 482.987Q144.53 482.52 144.265 482.039Q143.999 481.558 143.758 481.064Q143.517 480.57 143.301 480.065Q143.085 479.56 142.895 479.044Q142.705 478.529 142.541 478.004Q142.377 477.48 142.239 476.948Q142.102 476.416 141.992 475.877Q141.881 475.339 141.798 474.796Q141.714 474.255 141.657 473.711Q141.6 473.166 141.57 472.619Q141.54 472.073 141.538 471.525Q141.536 470.978 141.561 470.431Q141.587 469.884 141.639 469.339Q141.692 468.794 141.772 468.253Q141.852 467.711 141.959 467.174Q142.066 466.637 142.2 466.107Q142.334 465.576 142.495 465.052Q142.655 464.529 142.841 464.014Q143.028 463.499 143.24 462.995Q143.452 462.49 143.689 461.996Q143.926 461.503 144.188 461.022Q144.449 460.541 144.735 460.074Q145.02 459.607 145.329 459.154Q145.637 458.702 145.968 458.266C150.089 452.864 155.488 450.581 162.017 449.628Z"/>
	<path fill="#1E1E1E" d="M189.547 484.481C191.41 486.156 193.072 488.276 194.077 490.58C194.875 492.407 195.349 494.464 195.538 496.447C196.018 501.479 196.204 523.565 194.61 527.33C193.928 528.94 193.403 529.784 191.707 530.356C189.617 531.062 187.156 531.426 184.966 531.557C179.022 531.912 137.884 532.161 135.553 530.509C132.999 528.699 131.875 525.604 131.476 522.625C131.576 513.771 129.608 498.685 133.098 490.797C134.068 488.606 135.628 486.989 137.263 485.289Q137.766 486.231 138.332 487.136Q138.898 488.041 139.524 488.906Q140.15 489.771 140.833 490.591Q141.516 491.411 142.253 492.184Q142.99 492.956 143.778 493.676Q144.566 494.396 145.401 495.062Q146.236 495.727 147.114 496.334Q147.992 496.942 148.909 497.488Q149.512 497.842 150.132 498.165Q150.751 498.489 151.387 498.78Q152.022 499.072 152.671 499.331Q153.32 499.591 153.982 499.817Q154.643 500.044 155.315 500.236Q155.987 500.429 156.668 500.588Q157.349 500.747 158.037 500.871Q158.725 500.995 159.418 501.085Q160.111 501.174 160.808 501.229Q161.505 501.283 162.204 501.303Q162.903 501.322 163.602 501.306Q164.301 501.29 164.998 501.239Q165.695 501.189 166.389 501.103Q167.083 501.017 167.771 500.896Q168.46 500.775 169.141 500.62Q169.823 500.464 170.496 500.275C179.29 497.855 185.135 492.295 189.547 484.481Z"/>
	<path fill="#FAFAFA" d="M484.044 315.359C484.742 315.314 485.437 315.285 486.135 315.249C492.954 314.896 500.01 316.299 506.84 316.682C515.954 317.194 524.709 316.26 533.725 315.086C536.216 314.762 538.442 314.539 540.95 314.86C600.05 324.198 649.197 344.57 695.608 382.737C706.953 392.067 718.05 402.689 727.553 413.902C730.214 417.042 732.539 420.45 735.121 423.652C736.111 424.879 738.845 429.131 740.502 428.027C740.802 427.828 741.324 427.298 741.595 427.034C740.316 430.056 738.989 433.019 738.621 436.315C737.945 442.366 738.462 448.882 738.468 454.992L738.479 491.202L738.482 545.202C738.477 555.574 738.086 566.137 738.693 576.485Q738.85 579.549 739.513 582.545Q740.175 585.541 741.325 588.386Q741.635 589.164 741.984 589.925Q742.334 590.686 742.721 591.428Q743.108 592.171 743.533 592.892Q743.957 593.614 744.417 594.313Q744.878 595.013 745.373 595.688Q745.868 596.363 746.397 597.012Q746.926 597.662 747.487 598.283Q748.048 598.905 748.639 599.497Q749.231 600.09 749.852 600.651Q750.473 601.213 751.122 601.743Q751.77 602.272 752.445 602.768Q753.119 603.264 753.818 603.726Q754.517 604.187 755.238 604.612Q755.96 605.037 756.702 605.425Q757.443 605.814 758.204 606.164Q758.965 606.514 759.742 606.825C763.233 608.256 766.848 609.103 770.592 609.526C774.72 609.993 791.402 609.216 793.261 610.878C793.465 610.594 793.486 610.507 793.837 610.321C795.023 609.693 842.338 609.52 844.696 610.43C843.081 631.846 840.349 654.226 835.211 675.072C817.082 672.996 799.847 675.067 782.135 678.908L781.545 679.196C776.492 681.606 770.62 682.569 765.439 684.808C744.502 693.853 727.141 707.768 712.538 725.159C704.87 715.641 696.302 707.022 685.653 700.829C676.506 695.511 666.172 692.77 656.152 689.598L608.665 674.492C599.161 671.507 588.69 669.031 579.713 664.775C576.115 663.07 572.499 660.722 570.07 657.522C563.186 648.454 563.265 633.478 562.377 622.532C579.73 606.751 591.595 589.047 600.497 567.445C602.44 562.732 604.724 557.676 605.91 552.729C615.808 551.745 623.853 547.945 630.251 540.207C636.623 532.5 639.928 523.101 638.906 513.088C638.007 504.278 633.958 496.164 627.005 490.582C624.845 488.848 622.454 487.627 619.965 486.455C621.524 461.605 626.413 420.155 619.794 396.876C618.351 391.803 616.089 387.313 612.559 383.364C592.971 361.448 529.312 349.784 500.003 348.403C475.897 347.267 442.404 347.359 423.591 364.459C406.343 380.137 401.563 406.374 400.645 428.572C399.867 447.377 401.038 467.021 404.722 485.491C396.034 490.767 389.72 496.93 387.168 507.074Q386.961 507.927 386.797 508.789Q386.633 509.652 386.511 510.521Q386.388 511.39 386.309 512.264Q386.23 513.139 386.193 514.016Q386.157 514.893 386.164 515.771Q386.17 516.648 386.22 517.525Q386.269 518.401 386.362 519.274Q386.454 520.147 386.589 521.014Q386.724 521.882 386.901 522.741Q387.079 523.601 387.298 524.451Q387.517 525.301 387.778 526.139Q388.038 526.978 388.34 527.802Q388.641 528.626 388.982 529.435Q389.323 530.244 389.704 531.035Q390.084 531.826 390.503 532.597Q390.922 533.369 391.378 534.119Q391.82 534.825 392.296 535.508Q392.773 536.191 393.282 536.849Q393.791 537.508 394.332 538.141Q394.874 538.774 395.445 539.38Q396.017 539.985 396.617 540.562Q397.218 541.139 397.846 541.685Q398.475 542.232 399.129 542.747Q399.783 543.262 400.462 543.744Q401.141 544.226 401.843 544.674Q402.545 545.122 403.268 545.536Q403.991 545.949 404.733 546.326Q405.476 546.703 406.236 547.043Q406.996 547.383 407.772 547.686Q408.548 547.988 409.338 548.252Q410.127 548.516 410.929 548.74Q411.731 548.965 412.543 549.15C413.934 549.461 415.342 549.655 416.756 549.823C424.749 577.958 438.033 603.029 460.132 622.676C460.109 634.094 460.265 650.775 451.4 659.369C444.726 665.839 433.241 667.873 424.632 670.534C409.833 675.107 395.182 680.161 380.412 684.827C368.333 688.643 355.126 691.68 343.823 697.398C331.763 703.499 317.861 714.251 310.574 725.788C299.843 713.377 287.275 702.045 273.002 693.815C268.964 691.487 264.771 689.01 260.507 687.127C257.445 685.775 246.897 682.69 245.092 680.905C244.706 680.523 244.591 679.943 244.34 679.462C236.277 657.563 230.31 634.893 229.026 611.509C240.376 611.99 250.914 612.511 261.366 607.297Q262.343 606.812 263.296 606.28Q264.248 605.747 265.172 605.167Q266.096 604.588 266.991 603.963Q267.885 603.338 268.748 602.669Q269.61 602.001 270.438 601.29Q271.265 600.58 272.057 599.829Q272.848 599.078 273.601 598.288Q274.354 597.499 275.067 596.673Q275.78 595.847 276.451 594.986Q277.122 594.126 277.749 593.233Q278.376 592.34 278.958 591.417Q279.54 590.495 280.076 589.544Q280.611 588.593 281.098 587.617Q281.586 586.641 282.024 585.642Q282.462 584.642 282.85 583.623Q283.237 582.603 283.574 581.565C284.762 577.919 285.115 574.238 285.313 570.427C286.365 550.151 285.197 529.459 285.279 509.131L285.426 470.931C285.433 463.829 285.765 456.515 285.093 449.441C284.595 444.19 283.245 439.115 280.818 434.419C281.836 432.301 283.467 430.232 284.859 428.336C318.866 382.055 374.945 344.222 429.501 327.089C447.305 321.498 465.639 318.225 484.044 315.359Z"/>
	<path fill="#040404" d="M793.261 610.878C793.465 610.594 793.486 610.507 793.837 610.321C795.023 609.693 842.338 609.52 844.696 610.43C843.081 631.846 840.349 654.226 835.211 675.072C817.082 672.996 799.847 675.067 782.135 678.908C788.752 658.942 790.904 631.939 793.261 610.878Z"/>
	<path fill="#040404" d="M404.722 485.491C401.038 467.021 399.867 447.377 400.645 428.572C401.563 406.374 406.343 380.137 423.591 364.459C442.404 347.359 475.897 347.267 500.003 348.403C529.312 349.784 592.971 361.448 612.559 383.364C616.089 387.313 618.351 391.803 619.794 396.876C626.413 420.155 621.524 461.605 619.965 486.455C622.454 487.627 624.845 488.848 627.005 490.582C633.958 496.164 638.007 504.278 638.906 513.088C639.928 523.101 636.623 532.5 630.251 540.207C623.853 547.945 615.808 551.745 605.91 552.729C604.724 557.676 602.44 562.732 600.497 567.445C591.595 589.047 579.73 606.751 562.377 622.532C563.265 633.478 563.186 648.454 570.07 657.522C572.499 660.722 576.115 663.07 579.713 664.775C588.69 669.031 599.161 671.507 608.665 674.492L656.152 689.598C666.172 692.77 676.506 695.511 685.653 700.829C696.302 707.022 704.87 715.641 712.538 725.159C718.386 733.692 724.205 742.016 727.527 751.925C735.214 774.853 732.667 803.012 732.558 827.148Q732.42 856.539 732.657 885.93C732.723 894.529 731.821 904.127 733.017 912.596C732.91 917.467 732.001 921.958 729.051 925.964C719.289 939.22 693.353 932.076 678.943 933.987C671.372 934.991 661.777 940.502 654.572 943.63Q645.259 947.726 635.713 951.245C609.723 960.874 581.796 967.453 554.323 971.031C498.475 978.306 443.138 970.493 390.214 951.8C382.023 948.907 373.758 945.775 365.788 942.312C359.283 939.486 352.205 935.272 345.329 933.705C331.165 930.476 311.425 937.796 299.335 928.047C294.027 923.767 291.922 917.534 291.331 910.962C292.428 900.876 291.537 885.603 291.512 874.889Q291.29 838.934 291.528 802.978C291.58 788.349 290.709 773.287 294.634 759.052C298.029 746.742 304.371 736.737 310.574 725.788C317.861 714.251 331.763 703.499 343.823 697.398C355.126 691.68 368.333 688.643 380.412 684.827C395.182 680.161 409.833 675.107 424.632 670.534C433.241 667.873 444.726 665.839 451.4 659.369C460.265 650.775 460.109 634.094 460.132 622.676C438.033 603.029 424.749 577.958 416.756 549.823C415.342 549.655 413.934 549.461 412.543 549.15Q411.731 548.965 410.929 548.74Q410.127 548.516 409.338 548.252Q408.548 547.988 407.772 547.686Q406.996 547.383 406.236 547.043Q405.476 546.703 404.733 546.326Q403.991 545.949 403.268 545.536Q402.545 545.122 401.843 544.674Q401.141 544.226 400.462 543.744Q399.783 543.262 399.129 542.747Q398.475 542.232 397.846 541.685Q397.218 541.139 396.617 540.562Q396.017 539.985 395.445 539.38Q394.874 538.774 394.333 538.141Q393.791 537.508 393.282 536.849Q392.773 536.191 392.296 535.508Q391.82 534.825 391.378 534.119Q390.922 533.369 390.503 532.598Q390.084 531.826 389.704 531.035Q389.323 530.244 388.982 529.435Q388.641 528.626 388.34 527.802Q388.038 526.978 387.778 526.139Q387.517 525.301 387.298 524.451Q387.079 523.601 386.901 522.741Q386.724 521.882 386.589 521.014Q386.454 520.147 386.362 519.274Q386.269 518.401 386.22 517.525Q386.17 516.648 386.164 515.771Q386.157 514.893 386.193 514.016Q386.23 513.139 386.309 512.264Q386.389 511.39 386.511 510.521Q386.633 509.652 386.797 508.789Q386.961 507.927 387.168 507.074C389.72 496.93 396.034 490.767 404.722 485.491Z"/>
	<path fill="#FAFAFA" d="M546.394 633.014C547.774 635.353 547.545 642.188 548.163 645.201C549.132 649.922 550.482 654.578 552.481 658.97C557.177 669.289 564.401 675.759 574.951 679.681C566.599 681.941 557.303 682.665 548.7 683.415C522.758 685.674 496.068 686.094 470.121 683.68C462.72 682.98 455.242 682.357 447.992 680.66C452.821 677.928 457.71 675.217 461.799 671.417C472.29 661.668 475.167 647.224 475.597 633.482Q479.007 634.894 482.481 636.139C504.238 644.013 525.517 642.775 546.394 633.014Z"/>
	<path fill="#FAFAFA" d="M570.102 413.346C573.591 417.531 576.197 423.267 578.967 427.978C583.224 435.218 587.766 442.767 590.259 450.831C594.028 463.021 593.126 494.119 594.024 508.78C596.77 505.831 599.429 503.012 603.204 501.37Q603.803 501.105 604.426 500.902Q605.048 500.699 605.689 500.56Q606.329 500.421 606.98 500.349Q607.631 500.276 608.286 500.27Q608.941 500.264 609.593 500.324Q610.245 500.385 610.888 500.511Q611.531 500.638 612.157 500.829Q612.783 501.021 613.387 501.275C617.755 503.085 621.13 507.033 622.71 511.439C624.424 516.218 623.921 521.519 621.598 526.007C619.151 530.733 614.622 534.447 609.526 535.976C604.49 537.486 600.322 536.002 595.939 533.595C589.581 556.37 581.548 579.131 565.865 597.331C552.462 612.886 535.272 623.571 514.432 624.937C495.397 626.185 478.876 618.239 464.829 605.959C444.196 586.027 434.437 560.79 428.284 533.373C426.126 533.903 423.987 534.395 421.762 534.535C416.461 534.868 410.996 533.641 406.978 530.004C403.144 526.532 400.908 521.198 400.733 516.066Q400.7 515.181 400.756 514.297Q400.812 513.414 400.956 512.54Q401.1 511.666 401.33 510.811Q401.56 509.956 401.874 509.128Q402.188 508.3 402.583 507.508Q402.979 506.715 403.451 505.966Q403.923 505.217 404.468 504.519Q405.012 503.82 405.624 503.18C408.069 500.658 411.442 498.973 414.994 498.954C420.263 498.925 424.609 502.333 428.092 505.929C428.127 492.619 428.558 479.287 428.731 465.975C441.218 471.868 453.775 476.661 467.629 478.132C495.049 481.043 524.177 473.284 545.736 455.88C560.915 443.626 568.02 432.789 570.102 413.346Z"/>
	<path fill="#FAFAFA" d="M430.126 685.005C433.413 686.094 503.786 759.798 511.418 767.329C538.2 740.205 564.444 712.557 591.526 685.729Q616.181 693.462 640.735 701.511C652.477 705.292 665.207 708.462 676.151 714.222C683.004 717.83 688.918 722.652 694.319 728.179C703.725 737.808 711.097 749.867 714.364 763.002C717.165 774.262 716.808 786.039 716.852 797.556L716.893 829.331L716.726 917.028L674.375 917.142L392.232 917.103L339.825 917.134C333.528 917.144 316.374 918.22 311.303 916.548C309.676 916.011 308.037 914.311 307.358 912.764C305.777 909.162 306.666 781.982 307.581 773.76Q307.975 770.436 308.658 767.158Q309.342 763.881 310.309 760.676Q311.276 757.471 312.52 754.363Q313.764 751.255 315.275 748.267C331.539 715.576 353.668 709.802 385.559 699.607Q407.892 692.457 430.126 685.005Z"/>
</svg>
