<?xml version="1.0" encoding="utf-8" ?>
<svg xmlns="http://www.w3.org/2000/svg" xmlns:xlink="http://www.w3.org/1999/xlink" width="1024" height="1024">
	<path fill="#FEFEFE" d="M0 0L1024 0L1024 1024L0 1024L0 0Z"/>
	<path fill="#0B0B0B" d="M935.256 854.508C935.916 854.445 936.584 854.378 937.247 854.362C938.945 854.323 940.039 854.707 941.235 855.885C941.236 857.234 941.104 857.43 940.399 858.597C939.699 858.69 938.993 858.786 938.288 858.834C936.679 858.943 935.541 858.697 934.325 857.646C934.151 856.031 934.444 855.856 935.256 854.508Z"/>
	<path fill="#0B0B0B" d="M916.079 862.447C919.43 862.242 923.396 861.506 926.491 863.045C927.309 864.314 927.295 864.395 927.207 865.909C923.929 866.235 920.531 866.969 917.355 865.889C916.064 864.599 916.252 864.21 916.079 862.447Z"/>
	<path fill="#0B0B0B" d="M947.48 739.439C948.724 739.529 949.611 739.75 950.451 740.765C952.275 742.973 952.545 748.139 951.901 750.848C951.436 752.802 950.637 754.004 948.941 755.049C947.112 755.498 945.536 754.778 943.806 754.226C941.727 753.306 938.639 752.18 937.58 749.97C936.965 748.688 936.956 747.687 937.505 746.378C938.946 742.944 944.308 740.897 947.48 739.439Z"/>
	<path fill="#FEFEFE" d="M946.533 744.47C947.18 745.162 947.171 745.882 947.298 746.813C947.494 748.249 947.336 749.131 946.47 750.282L945.128 749.951C943.944 749.1 943.269 748.812 942.669 747.461C943.266 746.011 945.206 745.228 946.533 744.47Z"/>
	<path fill="#0B0B0B" d="M801.256 738.904C801.423 738.911 801.59 738.911 801.757 738.923C806.715 739.309 813.344 743.904 816.633 747.499C814.521 749.491 812.17 751.164 809.843 752.892C808.4 753.912 806.829 755.069 805.116 755.582C803.904 755.945 802.587 755.842 801.525 755.116C799.694 753.864 798.995 751.348 798.878 749.242C798.695 745.961 799.153 741.469 801.256 738.904Z"/>
	<path fill="#FEFEFE" d="M803.773 744.12C804.893 744.697 806.515 745.323 807.47 746.123C808.488 746.976 808.535 747.217 808.671 748.439L807.356 749.87C805.994 750.517 805.364 751.164 803.881 750.745C802.949 748.997 803.606 746.069 803.773 744.12Z"/>
	<path fill="#0B0B0B" d="M878.59 854.528C894.076 854.533 909.777 854 925.237 854.562C926.877 854.622 927.762 854.542 928.91 855.752C929.134 857.098 928.705 857.766 928.152 858.958C922.588 859.036 880.452 859.53 879.007 858.712C878.588 858.475 878.287 858.073 877.927 857.753C877.748 856.339 878.071 855.831 878.59 854.528Z"/>
	<path fill="#0B0B0B" d="M99.7718 280.552C102.015 280.456 104.052 280.62 106.149 281.499C109.291 282.816 111.768 285.305 112.911 288.536Q113.101 289.065 113.238 289.61Q113.374 290.156 113.456 290.712Q113.537 291.268 113.563 291.83Q113.589 292.391 113.559 292.952Q113.529 293.514 113.443 294.069Q113.357 294.625 113.217 295.169Q113.076 295.713 112.882 296.241Q112.688 296.768 112.442 297.274C110.612 300.994 107.571 302.735 103.791 304.046C101.313 304.185 99.1724 304.033 96.8756 303.007Q96.3461 302.776 95.8431 302.493Q95.3401 302.209 94.8688 301.876Q94.3975 301.542 93.9629 301.162Q93.5282 300.782 93.1349 300.359Q92.7416 299.936 92.3936 299.475Q92.0457 299.014 91.7469 298.52Q91.4481 298.026 91.2015 297.504Q90.9549 296.982 90.7631 296.437Q90.5571 295.856 90.4115 295.258Q90.2658 294.659 90.1819 294.049Q90.098 293.438 90.0768 292.822Q90.0555 292.207 90.0972 291.592Q90.1388 290.977 90.2429 290.37Q90.347 289.763 90.5125 289.169Q90.6779 288.576 90.903 288.002Q91.1281 287.429 91.4105 286.881C93.2705 283.312 96.0433 281.696 99.7718 280.552Z"/>
	<path fill="#FEFEFE" d="M100.046 284.517C100.988 284.518 101.881 284.62 102.802 284.818C105.148 285.324 107.283 286.561 108.551 288.652C109.558 290.313 109.776 292.298 109.243 294.157C108.377 297.177 106.113 298.614 103.477 299.997C102.301 300.103 101.093 300.232 99.9323 299.952C97.8893 299.459 95.9552 297.998 94.9531 296.15C93.8855 294.181 93.792 291.896 94.5244 289.794C95.4853 287.036 97.5324 285.724 100.046 284.517Z"/>
	<path fill="#0B0B0B" d="M897.365 365.575C899.897 365.447 902.471 365.954 904.659 367.276C908.406 369.539 909.633 373.38 910.627 377.361C910.21 379.449 909.721 381.571 908.653 383.436C906.618 386.993 903.64 388.384 899.842 389.498C897.709 389.527 895.696 389.342 893.723 388.457Q893.145 388.203 892.597 387.89Q892.05 387.576 891.538 387.206Q891.027 386.836 890.558 386.414Q890.089 385.991 889.667 385.521Q889.246 385.052 888.877 384.54Q888.508 384.028 888.195 383.479Q887.883 382.931 887.63 382.353Q887.378 381.774 887.188 381.172Q887.002 380.594 886.876 380Q886.751 379.405 886.688 378.801Q886.626 378.197 886.626 377.59Q886.627 376.982 886.691 376.378Q886.754 375.774 886.881 375.18Q887.007 374.586 887.194 374.008Q887.382 373.431 887.628 372.875Q887.875 372.32 888.178 371.794C890.325 368.093 893.391 366.675 897.365 365.575Z"/>
	<path fill="#FEFEFE" d="M897.973 369.609C899.062 369.746 900.075 369.892 901.101 370.304C903.149 371.128 904.879 372.765 905.654 374.85C906.414 376.892 906.227 379.109 905.254 381.048C903.843 383.861 901.71 384.881 898.853 385.861C897.656 385.533 896.484 385.16 895.372 384.596Q894.992 384.401 894.634 384.17Q894.276 383.938 893.943 383.672Q893.609 383.406 893.304 383.108Q892.999 382.81 892.725 382.483Q892.452 382.156 892.212 381.804Q891.972 381.451 891.768 381.076Q891.565 380.701 891.4 380.308Q891.235 379.915 891.11 379.507C890.505 377.599 890.647 375.7 891.63 373.943C893.022 371.453 895.35 370.375 897.973 369.609Z"/>
	<path fill="#0B0B0B" d="M804.599 382.58C807.071 382.377 809.382 382.411 811.7 383.413C814.633 384.682 816.964 387.002 818.104 390.003Q818.314 390.552 818.469 391.119Q818.624 391.686 818.723 392.266Q818.821 392.846 818.861 393.433Q818.902 394.019 818.884 394.607Q818.867 395.195 818.791 395.778Q818.716 396.361 818.583 396.934Q818.45 397.507 818.261 398.064Q818.073 398.62 817.83 399.156C816.052 403.021 813.163 404.77 809.292 406.162C807.31 406.453 805.316 406.499 803.383 405.893Q802.834 405.727 802.305 405.506Q801.776 405.285 801.271 405.012Q800.767 404.739 800.293 404.416Q799.819 404.093 799.38 403.724Q798.941 403.355 798.542 402.944Q798.142 402.532 797.786 402.083Q797.43 401.633 797.122 401.15Q796.813 400.666 796.555 400.154Q796.271 399.587 796.048 398.993Q795.825 398.399 795.666 397.785Q795.507 397.17 795.414 396.543Q795.321 395.915 795.295 395.281Q795.268 394.647 795.309 394.014Q795.35 393.381 795.458 392.756Q795.565 392.13 795.738 391.52Q795.911 390.91 796.148 390.321C797.789 386.244 800.75 384.325 804.599 382.58Z"/>
	<path fill="#FEFEFE" d="M806.106 386.519C807.418 386.604 808.833 386.862 810.052 387.376C811.914 388.161 813.496 389.798 814.268 391.657Q814.404 391.982 814.507 392.319Q814.611 392.656 814.68 393.002Q814.75 393.348 814.785 393.698Q814.82 394.049 814.82 394.402Q814.821 394.754 814.787 395.105Q814.752 395.456 814.684 395.802Q814.615 396.148 814.513 396.485Q814.41 396.822 814.275 397.148C813.105 399.958 811.083 400.929 808.384 401.989C806.986 402.071 805.671 402.106 804.332 401.628C802.483 400.968 800.839 399.596 800.019 397.796C799.115 395.813 799.231 393.548 800.082 391.565C801.272 388.795 803.45 387.623 806.106 386.519Z"/>
	<path fill="#0B0B0B" d="M786.139 663.105C788.529 663.261 790.694 663.453 792.859 664.555C796.025 666.167 798.41 668.88 799.482 672.277C800.493 675.478 800.186 679.085 798.463 681.988C796.323 685.595 793.232 687.055 789.297 687.992C786.735 688.034 784.485 687.755 782.171 686.574C779.251 685.083 777.066 682.587 776.072 679.453Q775.886 678.856 775.761 678.242Q775.637 677.629 775.575 677.007Q775.513 676.384 775.515 675.758Q775.517 675.133 775.582 674.51Q775.647 673.888 775.775 673.276Q775.903 672.663 776.093 672.067Q776.282 671.471 776.531 670.897Q776.78 670.323 777.086 669.777C779.116 666.127 782.279 664.324 786.139 663.105Z"/>
	<path fill="#FEFEFE" d="M785.079 667.571C786.463 667.447 788.023 667.246 789.393 667.514C791.529 667.932 793.63 669.514 794.8 671.319C796.065 673.271 796.403 675.605 795.814 677.847C794.998 680.953 792.836 682.508 790.171 683.995C789.088 684.152 787.96 684.333 786.865 684.206C784.684 683.952 782.454 682.799 781.113 681.043C779.676 679.163 779.278 676.78 779.669 674.481C780.252 671.065 782.326 669.404 785.079 667.571Z"/>
	<path fill="#0B0B0B" d="M278.607 914.54C281.204 914.4 283.466 914.285 285.939 915.293C289.112 916.587 291.65 918.989 292.953 922.177Q293.195 922.771 293.377 923.386Q293.558 924.002 293.676 924.633Q293.793 925.263 293.847 925.903Q293.9 926.542 293.888 927.184Q293.877 927.825 293.8 928.462Q293.724 929.099 293.583 929.725Q293.442 930.351 293.239 930.96Q293.036 931.568 292.772 932.153C290.962 936.153 287.993 938.144 284.034 939.713C281.706 939.958 279.631 939.967 277.393 939.177C274.056 938.001 271.39 935.728 269.877 932.51Q269.6 931.932 269.385 931.328Q269.169 930.724 269.018 930.101Q268.867 929.478 268.781 928.842Q268.696 928.207 268.677 927.566Q268.658 926.925 268.707 926.286Q268.755 925.646 268.869 925.015Q268.984 924.384 269.163 923.769Q269.343 923.153 269.586 922.56C271.314 918.322 274.559 916.265 278.607 914.54Z"/>
	<path fill="#FEFEFE" d="M279.013 919.051C280.337 918.935 281.794 918.762 283.104 919.043C285.45 919.547 287.625 921.203 288.746 923.317C289.838 925.376 289.923 927.812 289.152 929.993C288.165 932.785 286.107 934.261 283.577 935.567C282.098 935.599 280.469 935.722 279.045 935.261C276.88 934.56 274.922 932.85 273.895 930.828Q273.707 930.467 273.557 930.088Q273.407 929.709 273.296 929.317Q273.185 928.925 273.114 928.524Q273.044 928.122 273.015 927.716Q272.985 927.31 272.998 926.902Q273.01 926.495 273.063 926.091Q273.117 925.687 273.211 925.291Q273.306 924.895 273.44 924.51C274.454 921.603 276.361 920.364 279.013 919.051Z"/>
	<path fill="#0B0B0B" d="M116.664 650.145C120.17 650.076 124.035 649.484 127.486 649.763C128.979 649.884 130.475 650.482 131.354 651.75C132.414 653.277 131.717 656.274 131.518 658.042C134.367 658.823 137.143 659.673 139.921 660.676C141.325 658.744 142.891 655.959 145.581 655.84C148.899 655.692 152.785 660.421 155.075 662.605C153.841 664.417 152.398 666.111 151.038 667.83C152.791 670.035 154.825 672.086 156.73 674.165C158.795 673.268 161.815 671.538 164.048 672.633C167.412 674.282 168.452 681.044 169.449 684.442L161.849 687.181C162.396 691.937 162.747 696.525 162.173 701.295C163.702 701.637 165.537 701.898 166.96 702.556C167.825 702.955 168.554 703.795 168.819 704.71C169.754 707.935 166.49 713.147 165.13 716.106C162.906 715.45 160.719 714.636 158.527 713.877C156.502 717.276 154.345 720.535 152.087 723.784C153.612 724.926 154.975 726.277 156.368 727.573C154.625 729.993 152.095 732.459 149.851 734.44C148.503 735.63 146.435 736.684 144.577 736.385C142.461 736.045 141.343 733.584 140.307 731.918L132.271 735.366C132.481 736.936 133.111 739.493 132.723 741.045C132.325 742.636 131.961 742.674 130.602 743.402C127.589 743.506 120.87 744.661 118.434 742.786C116.359 741.191 116.688 737.742 116.57 735.377L107.43 733.192C106.594 734.761 105.831 736.164 104.649 737.5C103.689 737.968 103.086 738.224 101.99 738.221C98.7966 738.213 94.3369 733.381 92.1476 731.246L96.0183 726.448C92.2113 722.226 88.9502 717.913 86.0041 713.044C84.828 713.766 83.5343 714.522 82.244 715.016C81.6321 715.25 80.581 715.552 80.005 715.173C77.8801 713.773 76.5643 708.111 76.0016 705.632C75.633 704.009 75.1369 702.124 76.0605 700.671C78.1379 699.674 80.3733 699.521 82.6327 699.216L83.0968 687.9C81.0379 686.944 77.0449 685.64 76.0906 683.571C77.0066 680.163 79.6036 672.462 82.4541 670.402C84.9042 670.697 87.3388 672.548 89.4551 673.774C91.5849 671.139 93.9469 668.649 96.2041 666.12C95.3704 664.337 94.1556 662.339 94.7131 660.298C95.6534 656.854 100.759 655.281 103.665 653.949C105.238 655.804 106.489 657.863 107.799 659.907C110.525 658.927 113.384 658.281 116.185 657.547C116.106 655 115.898 652.612 116.664 650.145Z"/>
	<path fill="#FEFEFE" d="M119.518 653.508L128.04 653.587L128.174 660.199C132.65 661.311 137.016 662.487 141.377 664.009C142.828 662.542 144.047 660.83 145.312 659.202L150.532 662.378L147.06 666.982C149.919 671.13 153.189 674.28 155.083 679.068L162.253 675.465C163.325 677.709 164.231 680.048 165.193 682.342C162.999 683.36 160.677 683.895 158.347 684.513C159.49 691.036 159.635 697.519 158.927 704.092Q162.218 704.681 165.499 705.32C164.841 707.709 163.923 709.945 162.992 712.235L156.753 710.016C154.154 714.941 151.182 719.33 147.697 723.672C148.824 725.033 149.883 726.463 150.969 727.858C149.19 729.729 147.25 731.418 145.326 733.137L142.047 727.894C137.279 729.917 132.722 731.977 127.697 733.312L128.618 739.844L121.938 740.039L121.097 739.667C120.439 737.708 120.771 735.258 120.824 733.202C115.509 732.416 110.926 731.367 106.053 729.062C104.868 730.927 103.785 732.864 102.669 734.771C100.617 733.524 98.7317 732.065 96.8135 730.625C98.0173 729.177 99.1315 727.635 100.279 726.141C98.5558 723.77 96.294 721.733 94.3896 719.494C91.6738 716.301 89.6376 712.818 87.6048 709.166C85.601 709.846 83.6791 710.677 81.7364 711.511L79.4659 703.092L85.5777 701.722C85.7214 696.392 86.13 691.119 86.5949 685.811L80.2736 682.638C81.3167 679.791 82.5363 677.128 83.8848 674.415L90.8985 678.314C93.4351 673.606 96.3574 670.07 100.591 666.793C99.8293 665.32 98.41 663.175 98.7034 661.515C98.9338 660.212 99.3672 659.504 100.379 658.697C101.233 658.599 101.772 658.581 102.584 658.968C104.753 660.003 105.049 662.069 105.628 664.184C110.599 662.004 114.542 660.612 119.962 660.145L119.518 653.508Z"/>
	<path fill="#0B0B0B" d="M121.237 667.181Q122.419 667.142 123.6 667.193Q124.781 667.245 125.954 667.386Q127.128 667.528 128.287 667.759Q129.447 667.989 130.585 668.308Q131.724 668.627 132.834 669.031Q133.945 669.436 135.022 669.924Q136.098 670.413 137.134 670.982Q138.17 671.551 139.16 672.198Q139.76 672.603 140.34 673.038Q140.919 673.472 141.475 673.936Q142.032 674.399 142.564 674.89Q143.097 675.381 143.604 675.898Q144.111 676.415 144.591 676.957Q145.072 677.499 145.524 678.065Q145.976 678.63 146.4 679.218Q146.823 679.806 147.216 680.414Q147.609 681.022 147.971 681.65Q148.333 682.277 148.663 682.922Q148.993 683.566 149.29 684.227Q149.587 684.888 149.85 685.562Q150.113 686.237 150.342 686.924Q150.571 687.611 150.765 688.309Q150.958 689.007 151.117 689.713Q151.275 690.42 151.398 691.134C152.762 698.742 151.451 706.435 146.943 712.83C141.686 720.287 134.719 723.92 125.854 725.514C118.448 725.627 112.12 724.686 105.929 720.292C99.4692 715.707 94.7567 708.135 93.6459 700.276C92.5767 692.712 94.5838 684.651 99.2761 678.601C104.661 671.659 112.679 668.158 121.237 667.181Z"/>
	<path fill="#FEFEFE" d="M120.121 672.119C124.954 671.616 129.843 672.34 134.195 674.571C140.181 677.641 144.448 683.298 146.278 689.722Q146.454 690.32 146.599 690.927Q146.743 691.534 146.856 692.147Q146.969 692.761 147.05 693.38Q147.131 693.998 147.179 694.62Q147.228 695.242 147.244 695.865Q147.26 696.489 147.244 697.112Q147.228 697.736 147.179 698.358Q147.131 698.98 147.05 699.598Q146.969 700.217 146.857 700.83Q146.744 701.444 146.599 702.051Q146.455 702.657 146.279 703.256Q146.103 703.854 145.896 704.443Q145.689 705.031 145.452 705.608Q145.215 706.185 144.949 706.749Q144.682 707.313 144.386 707.862Q144.091 708.412 143.767 708.945C139.707 715.686 133.502 719.297 126.044 721.059C120.151 721.293 114.931 720.513 109.82 717.303Q109.279 716.963 108.755 716.596Q108.232 716.228 107.728 715.835Q107.224 715.441 106.74 715.022Q106.257 714.603 105.796 714.16Q105.335 713.718 104.897 713.252Q104.459 712.786 104.045 712.298Q103.631 711.81 103.243 711.302Q102.855 710.794 102.493 710.267Q102.131 709.74 101.797 709.195Q101.463 708.65 101.157 708.088Q100.85 707.527 100.573 706.95Q100.296 706.374 100.049 705.784Q99.8018 705.195 99.5849 704.593Q99.3681 703.991 99.1822 703.38Q98.9964 702.768 98.842 702.147Q98.6876 701.527 98.5651 700.899C97.3583 694.698 98.4422 688.039 102.023 682.78C106.317 676.473 112.853 673.457 120.121 672.119Z"/>
	<path fill="#0B0B0B" d="M623.127 61.6383C627.156 61.4764 630.807 61.7051 634.601 63.2835Q635.121 63.499 635.629 63.74Q636.138 63.9811 636.634 64.2472Q637.13 64.5133 637.612 64.8037Q638.093 65.0942 638.56 65.4083Q639.027 65.7223 639.478 66.0593Q639.929 66.3962 640.362 66.7552Q640.795 67.1141 641.21 67.4942Q641.625 67.8743 642.021 68.2745Q642.416 68.6748 642.792 69.0943Q643.167 69.5137 643.52 69.9514Q643.874 70.389 644.206 70.8437Q644.537 71.2983 644.846 71.769Q645.154 72.2396 645.439 72.725Q645.723 73.2104 645.984 73.7094Q646.244 74.2083 646.479 74.7196Q646.714 75.2309 646.923 75.7533C649.305 81.631 648.969 87.9852 646.513 93.7788C645.185 96.9133 642.594 99.6648 640.322 102.166C631.763 111.588 622.429 120.426 613.495 129.496L579.232 164.907L558.577 186.465C554.777 190.389 550.887 194.757 546.573 198.108C541.361 202.157 529.851 205.491 523.365 208.176C517.719 210.413 511.752 213.993 505.872 215.353C504.847 214.964 504.444 214.782 503.982 213.672C503.503 212.522 504.038 210.798 504.315 209.609C505.6 204.091 516.813 165.248 518.66 162.463C522.815 156.196 529.477 150.605 534.71 145.126Q554.248 124.662 574.022 104.426L596.23 81.4191C600.83 76.6015 605.453 70.9866 610.72 66.9095C614.566 63.9327 618.417 62.5072 623.127 61.6383Z"/>
	<path fill="#FEFEFE" d="M614.013 99.2598C615.141 99.395 616.02 99.646 616.836 100.484C617.453 101.118 617.238 100.891 617.182 101.943C614.662 105.546 611.254 108.663 608.231 111.851L593.3 127.642L570.2 151.804C565.535 156.697 560.965 162.062 555.798 166.42C555.452 166.494 555.112 166.596 554.748 166.518C553.438 166.238 553.12 165.813 552.494 164.763C552.612 163.431 553.172 162.732 553.982 161.724C560.479 153.644 568.445 146.35 575.645 138.875Q594.661 118.905 614.013 99.2598Z"/>
	<path fill="#FEFEFE" d="M519.295 166.106C530.029 170.208 539.214 175.572 544.651 186.127C545.704 188.171 548.16 192.657 547.196 194.921C545.835 198.118 538.078 200.042 534.874 201.229C530.324 202.94 525.902 204.897 521.462 206.872C518.185 202.669 514.914 199.59 510.684 196.317C512.511 189.233 515.971 171.592 519.295 166.106Z"/>
	<path fill="#0B0B0B" d="M888.737 668.517C894.91 671.155 901.274 673.291 907.471 675.868C906.657 686.322 904.749 696.759 903.726 707.215C913.362 703.086 923.462 700.102 932.945 695.627C937.865 702.022 943.159 708.437 947.389 715.304C937.944 724.347 927.878 733.21 917.942 741.722C918.266 744.121 918.831 747.066 918.535 749.461C918.505 749.704 918.466 749.945 918.431 750.188L918.565 750.227C929.097 759.079 938.737 769.553 947.997 779.726C944.07 785.897 939.971 791.971 935.957 798.087C924.088 793.683 912.804 787.864 901.296 782.631C903.508 792.804 907.111 802.766 908.809 813.03C903.001 816.347 896.684 819.148 890.393 821.404C884.605 813.858 879.625 805.322 874.371 797.373C869.163 806.358 864.197 815.903 858.184 824.352C851.536 821.523 845.015 818.109 838.608 814.767C841.808 804.466 845.239 794.163 847.43 783.591C836.613 786.912 827.065 793.564 816.324 796.836C812.999 790.85 808.245 785.715 804.436 780.023C813.062 770.034 822.637 759.868 832.175 750.748C832.198 747.034 832.467 743.465 832.931 739.781C830.497 740.866 827.884 742.354 825.148 741.827L825.039 740.988C826.085 739.49 827.318 738.605 828.785 737.536L805.072 715.654C809.114 709.356 813.195 702.843 817.967 697.072C828.228 700.624 838.127 705.734 848.289 709.669C845.968 698.824 842.813 688.086 840.331 677.257C846.952 674.634 853.502 671.828 860.203 669.412Q867.033 679.968 874.226 690.281C879.172 683.101 883.735 675.666 888.737 668.517Z"/>
	<path fill="#FEFEFE" d="M874.612 696.383C877.273 699.596 879.978 702.682 882.891 705.669L877.544 705.352L868.591 705.584C870.478 702.424 872.508 699.403 874.612 696.383Z"/>
	<path fill="#FEFEFE" d="M898.031 785.173C899.367 787.098 903.76 807.052 904.733 810.904C900.56 813.212 896.084 815.206 891.674 817.009L888.557 812.248C884.487 805.534 879.021 799.013 875.764 791.919C884.31 791.235 890.572 789.511 898.031 785.173Z"/>
	<path fill="#FEFEFE" d="M851.023 784.593C858.228 787.903 864.87 790.645 872.78 791.727C869.146 799.323 864.506 806.627 860.311 813.938L856.904 819.724C852.249 817.718 847.667 815.67 843.15 813.363C846.05 803.896 848.85 794.251 851.023 784.593Z"/>
	<path fill="#FEFEFE" d="M858.223 673.968C859.35 674.241 870.107 690.814 872.104 693.491C869.496 696.992 867.307 700.722 865.327 704.604C862.558 705.416 860.102 706.481 857.508 707.72L852.344 710.751C850.098 700.257 847.159 689.949 844.672 679.513C849.267 677.799 853.78 676.057 858.223 673.968Z"/>
	<path fill="#FEFEFE" d="M890.162 673.243Q896.932 675.436 903.538 678.08C902.279 689.294 899.843 700.684 899.413 711.938C897.712 710.843 895.969 709.905 894.174 708.972L888.788 707.34C885.039 702.551 880.417 698.563 877.018 693.495C881.101 686.596 885.64 679.865 890.162 673.243Z"/>
	<path fill="#FEFEFE" d="M832.801 754.889C835.32 765.143 838.68 772.433 845.81 780.318C837.159 783.447 828.912 787.365 820.631 791.349L819.481 791.78C816.139 791.18 811.031 783.057 808.95 780.386Q821.067 767.817 832.801 754.889Z"/>
	<path fill="#FEFEFE" d="M818.911 701.863C828.964 705.231 838.651 710.003 848.6 713.738C842.804 719.071 838.308 724.573 835.11 731.805L833.419 737.225C826.056 729.425 817.762 722.43 809.905 715.126C812.734 710.614 815.902 706.259 818.911 701.863Z"/>
	<path fill="#FEFEFE" d="M918.357 754.805C925.211 759.668 937.026 773.554 943.315 780.105C940.752 784.518 937.749 789.305 934.463 793.204C933.089 793.48 931.753 792.565 930.541 791.989C921.888 787.79 912.933 784.235 904.296 779.984C911.742 772.704 915.96 764.905 918.357 754.805Z"/>
	<path fill="#FEFEFE" d="M930.718 700.415L931.497 700.486C934.936 703.047 939.548 711.068 942.26 714.897C935.726 721.236 924.996 732.046 917.871 736.748C916.575 735.745 916.349 734.747 915.697 733.263C911.735 724.168 907.737 718.896 900.136 712.462C910.208 708.207 920.544 704.435 930.718 700.415Z"/>
	<path fill="#FEFEFE" d="M871.137 715.123C878.736 714.26 886.081 715.315 892.668 719.366C900.361 724.097 906.022 732.166 908.1 740.93C910.152 749.583 908.509 758.562 903.826 766.097C898.508 774.653 890.533 779.062 880.947 781.373C872.266 782.569 864.012 781.083 856.702 776.085Q856.023 775.623 855.367 775.127Q854.711 774.632 854.081 774.105Q853.45 773.578 852.847 773.021Q852.243 772.464 851.667 771.877Q851.092 771.291 850.546 770.677Q850 770.063 849.485 769.422Q848.97 768.782 848.487 768.117Q848.004 767.453 847.554 766.765Q847.105 766.077 846.689 765.368Q846.274 764.659 845.895 763.93Q845.515 763.201 845.172 762.455Q844.828 761.708 844.522 760.945Q844.216 760.183 843.948 759.406Q843.68 758.63 843.45 757.841Q843.221 757.052 843.03 756.252Q842.84 755.453 842.689 754.645Q842.53 753.808 842.413 752.965Q842.295 752.121 842.219 751.273Q842.143 750.425 842.109 749.574Q842.074 748.723 842.082 747.871Q842.09 747.019 842.139 746.169Q842.188 745.319 842.28 744.472Q842.371 743.625 842.503 742.784Q842.636 741.943 842.81 741.109Q842.984 740.275 843.198 739.451Q843.413 738.627 843.668 737.814Q843.922 737.001 844.217 736.202Q844.511 735.403 844.845 734.619Q845.178 733.835 845.549 733.069Q845.921 732.303 846.33 731.555Q846.738 730.808 847.183 730.082Q847.628 729.356 848.108 728.652C853.664 720.641 861.784 716.868 871.137 715.123Z"/>
	<path fill="#0B0B0B" d="M721.779 91.1975C738.388 89.6093 755.228 94.5723 769.031 103.794C786.047 115.164 796.64 131.309 800.542 151.388C804.542 171.966 800.607 193.103 788.774 210.442C775.994 229.169 756.093 240.333 734.116 244.431Q732.414 244.574 730.708 244.636Q729.001 244.698 727.293 244.679Q725.585 244.661 723.88 244.561Q722.176 244.462 720.477 244.281Q718.779 244.101 717.091 243.841Q715.403 243.581 713.73 243.241Q712.056 242.901 710.4 242.482Q708.745 242.063 707.111 241.567Q705.477 241.07 703.868 240.496Q702.26 239.923 700.68 239.274Q699.1 238.625 697.553 237.902Q696.006 237.179 694.495 236.383Q692.983 235.588 691.511 234.722Q690.04 233.855 688.61 232.921Q687.181 231.986 685.798 230.984Q684.414 229.983 683.08 228.917Q682.322 228.31 681.579 227.684Q680.837 227.059 680.11 226.415Q679.383 225.771 678.672 225.109Q677.962 224.447 677.268 223.767Q676.574 223.088 675.897 222.392Q675.22 221.695 674.561 220.982Q673.902 220.269 673.26 219.54Q672.619 218.811 671.996 218.066Q671.373 217.321 670.768 216.561Q670.164 215.801 669.579 215.026Q668.993 214.251 668.428 213.462Q667.862 212.673 667.316 211.87Q666.77 211.067 666.244 210.25Q665.718 209.434 665.213 208.605Q664.707 207.775 664.223 206.934Q663.738 206.092 663.274 205.239Q662.811 204.386 662.369 203.521Q661.926 202.657 661.506 201.781Q661.085 200.906 660.686 200.02Q660.288 199.135 659.911 198.24Q659.535 197.345 659.18 196.441Q658.826 195.536 658.495 194.624Q658.163 193.711 657.854 192.79Q657.546 191.869 657.26 190.941Q656.974 190.013 656.711 189.078Q656.449 188.143 656.209 187.202Q655.97 186.261 655.754 185.314Q655.538 184.367 655.346 183.416Q655.154 182.464 654.985 181.507Q654.817 180.551 654.672 179.591Q654.527 178.63 654.407 177.667Q654.286 176.703 654.189 175.737C652.154 156.075 658.13 134.207 670.682 118.831Q671.265 118.104 671.866 117.391Q672.467 116.678 673.086 115.981Q673.704 115.283 674.34 114.601Q674.976 113.919 675.629 113.254Q676.282 112.588 676.951 111.939Q677.62 111.29 678.305 110.657Q678.99 110.025 679.691 109.41Q680.391 108.795 681.107 108.197Q681.823 107.6 682.553 107.021Q683.284 106.441 684.028 105.881Q684.773 105.32 685.532 104.777Q686.29 104.235 687.062 103.712Q687.834 103.189 688.618 102.686Q689.403 102.182 690.2 101.698Q690.997 101.214 691.805 100.75Q692.614 100.287 693.434 99.8432Q694.254 99.3997 695.085 98.9768Q695.916 98.5539 696.757 98.1519Q697.598 97.7499 698.449 97.369Q699.3 96.9881 700.16 96.6286Q701.021 96.269 701.889 95.9311Q702.758 95.5931 703.635 95.2769Q704.512 94.9608 705.397 94.6666Q706.282 94.3725 707.173 94.1005Q708.065 93.8285 708.964 93.5788Q709.862 93.3292 710.766 93.102Q711.67 92.8748 712.58 92.6703Q713.489 92.4658 714.404 92.2841Q715.318 92.1023 716.237 91.9435Q717.156 91.7846 718.078 91.6487Q719 91.5128 719.926 91.4Q720.851 91.2872 721.779 91.1975Z"/>
	<path fill="#FEFEFE" d="M671.467 210.908L671.371 209.944C671.889 209.228 672.305 208.927 673.067 208.459C675.001 207.275 679.365 204.752 681.63 205.302L682.096 206.433C680.683 208.587 676.48 210.482 673.99 210.876C673.162 211.007 672.3 210.966 671.467 210.908Z"/>
	<path fill="#FEFEFE" d="M689.447 201.906C692.476 200.927 698.096 198.378 701.03 199.786C701.293 200.472 701.582 201.16 701.808 201.858Q694.864 204.415 687.858 206.799L685.932 207.177C685.385 206.049 685.039 205.232 684.858 203.972C685.964 202.611 687.787 202.412 689.447 201.906Z"/>
	<path fill="#BFBEBE" d="M682.096 206.433C688.671 217.928 693.129 225.682 702.603 235.198C693.562 231.286 686.497 226.87 679.666 219.695C676.907 216.797 674.389 213.642 671.467 210.908C672.3 210.966 673.162 211.007 673.99 210.876C676.48 210.482 680.683 208.587 682.096 206.433Z"/>
	<path fill="#BFBEBE" d="M773.298 202.913C777.373 204.286 781.044 206.388 784.785 208.473C783.992 209.597 783.01 210.668 782.139 211.739C781.008 213.007 779.862 214.585 778.544 215.64C771.323 224.21 762.014 230.578 751.775 234.949C761.67 225.959 767.624 214.837 773.298 202.913Z"/>
	<path fill="#BFBEBE" d="M778.544 215.64C777.164 214.025 774.899 214.053 773.697 212.232C774.313 211.054 774.433 210.973 775.598 210.321C776.516 210.314 777.13 210.284 777.955 210.734C779.392 211.517 780.005 211.823 781.688 211.764C781.838 211.759 781.988 211.747 782.139 211.739C781.008 213.007 779.862 214.585 778.544 215.64Z"/>
	<path fill="#FEFEFE" d="M703.393 100.094L703.712 100.308C691.619 111.317 684.776 120.891 679.323 136.405L672.571 133.022L668.173 129.97C675.544 116.141 689.052 105.814 703.393 100.094Z"/>
	<path fill="#FEFEFE" d="M748.326 98.4525C765.418 103.317 779.124 115.461 788.485 130.186C787.109 131.071 785.641 131.837 784.212 132.635C781.355 134.086 778.394 135.32 775.455 136.594C769.034 119.627 762.195 110.121 748.326 98.4525Z"/>
	<path fill="#BFBEBE" d="M687.858 206.799Q694.864 204.415 701.808 201.858C705.003 215.167 709.754 229.325 718.363 240.181C702.894 235.391 694.062 222.624 686.776 208.82Q686.343 208.004 685.932 207.177L687.858 206.799Z"/>
	<path fill="#FEFEFE" d="M701.953 147.4C709.572 147.853 717.08 148.726 724.733 148.989C724.762 155.82 725.147 162.922 724.514 169.717L700.575 169.65C700.476 162.256 701.044 154.736 701.953 147.4Z"/>
	<path fill="#FEFEFE" d="M657.899 172.43C663.569 172.284 669.269 172.395 674.942 172.402C675.266 182.508 677.424 192.085 680.414 201.699C679.252 202.397 677.943 202.918 676.713 203.493L669.126 207.062C662.466 195.775 659.307 185.397 657.899 172.43Z"/>
	<path fill="#FEFEFE" d="M677.744 172.479C684.488 172.335 691.261 172.463 698.009 172.47Q698.778 184.015 700.195 195.499C699.457 196.706 698.699 196.599 697.393 196.973C692.611 198.114 687.88 199.615 683.152 200.967C679.791 191.846 678.279 182.15 677.744 172.479Z"/>
	<path fill="#FEFEFE" d="M681.28 140.476C687.179 142.765 693.045 144.935 699.076 146.857C698.31 152.183 699.038 165.953 697.405 169.534L696.125 169.821L677.654 169.76Q677.627 166.06 677.842 162.366Q678.056 158.672 678.511 155Q678.966 151.327 679.659 147.693Q680.352 144.058 681.28 140.476Z"/>
	<path fill="#FEFEFE" d="M779.569 172.488L797.648 172.51C796.114 183.443 793.702 193.087 788.471 202.903L786.115 206.308C782.213 203.76 778.554 201.915 774.117 200.451C776.913 191.125 779.197 182.289 779.569 172.488Z"/>
	<path fill="#FEFEFE" d="M727.485 172.466C735.58 172.385 743.683 172.479 751.779 172.494C751.792 179.71 751.141 186.754 750.332 193.912L750.124 194.42C747.675 195.411 731.73 193.961 727.48 193.844L727.485 172.466Z"/>
	<path fill="#FEFEFE" d="M748.524 146.692L749.912 146.652C752.239 150.322 751.558 164.81 751.59 169.818L730.375 169.853C729.634 169.834 728.982 169.704 728.256 169.565C726.281 166.24 727.474 153.349 727.534 148.952C734.603 148.52 741.524 147.73 748.524 146.692Z"/>
	<path fill="#FEFEFE" d="M700.631 172.431Q712.749 172.302 724.867 172.433C724.88 175.912 725.598 192.267 723.969 193.953Q713.52 194.628 703.1 195.666C701.425 188.106 700.838 180.149 700.631 172.431Z"/>
	<path fill="#FEFEFE" d="M754.5 172.48L776.829 172.506C776.381 180.696 774.802 188.401 772.587 196.271C772.243 197.492 772.062 198.543 771.073 199.42C765.219 198.942 758.675 196.454 752.828 195.235C753.603 187.682 754.391 180.076 754.5 172.48Z"/>
	<path fill="#BFBEBE" d="M751.669 199.871L752.31 198.564C755.726 197.442 766.122 200.168 769.234 201.781C769.531 201.935 769.919 202.221 770.177 202.4L770.297 203.073C767.783 208.002 765.248 212.994 762.351 217.714C756.311 227.556 749.09 236.578 737.451 239.329C745.014 227.751 749.929 213.566 751.669 199.871Z"/>
	<path fill="#FEFEFE" d="M751.669 199.871L752.31 198.564C755.726 197.442 766.122 200.168 769.234 201.781C769.531 201.935 769.919 202.221 770.177 202.4L770.297 203.073C766.312 204.508 762.342 202.184 759.083 205.411C758.957 205.536 758.846 205.675 758.727 205.806C757.556 204.403 758.367 203.149 757.433 201.589C756.265 201.849 756.839 202.778 755.837 203.545C754.527 202.162 753.195 201.01 751.669 199.871Z"/>
	<path fill="#FEFEFE" d="M666.685 132.706C670.336 135.25 674.432 137.176 678.378 139.22C676.033 149.189 675.279 159.053 674.796 169.239C673.655 170.116 672.251 169.876 670.884 169.858L657.727 169.869C658.156 156.485 660.969 144.821 666.685 132.706Z"/>
	<path fill="#FEFEFE" d="M772.272 140.518C772.686 140.482 773.1 140.676 773.495 140.796C776.549 146.88 777.012 162.693 776.853 169.667L758.607 169.76C757.441 169.794 756.385 169.663 755.233 169.508C754.093 168.139 753.618 149.01 753.405 145.774C759.765 144.337 766.016 142.348 772.272 140.518Z"/>
	<path fill="#FEFEFE" d="M789.299 132.998C789.724 133.009 789.681 132.935 790.013 133.252C790.995 134.187 791.659 136.394 792.166 137.679C796.289 148.125 797.656 158.801 797.658 169.954L785.865 169.918L779.704 169.853C779.821 159.393 778.563 149.534 776.302 139.333C780.789 137.451 785.022 135.301 789.299 132.998Z"/>
	<defs>
		<linearGradient id="gradient_0" gradientUnits="userSpaceOnUse" x1="710.01654" y1="235.74353" x2="719.48706" y2="196.53081">
			<stop offset="0" stop-color="#B3B2B2"/>
			<stop offset="1" stop-color="#D9D9D9"/>
		</linearGradient>
	</defs>
	<path fill="url(#gradient_0)" d="M719.413 196.709C721.214 196.476 723.109 196.545 724.927 196.502Q724.625 209.823 724.81 223.147C724.864 228.415 725.679 234.947 724.63 240.072L723.842 240.463C720.923 239.143 718.783 235.632 716.948 233.096C710.406 222.296 706.759 210.759 703.573 198.632C708.812 197.565 714.097 197.168 719.413 196.709Z"/>
	<path fill="#FEFEFE" d="M714.751 98.4335L715.389 98.6414C715.274 101.256 710.199 108.978 708.947 112.076C704.742 122.482 701.685 132.957 699.442 143.943C695.668 142.915 692.029 141.718 688.366 140.349C686.22 139.534 684.117 138.582 682.005 137.682C682.574 135.379 683.454 133.176 684.362 130.989C690.324 116.63 700.188 104.433 714.751 98.4335Z"/>
	<path fill="#FEFEFE" d="M738.304 96.8548C739.679 97.2894 741.02 97.8853 742.31 98.5251C757.499 106.058 766.924 121.51 772.296 137.02C771.55 138.061 770.101 138.189 768.892 138.568Q761.016 141.001 753.081 143.236C750.725 126.586 747.242 111.387 738.304 96.8548Z"/>
	<path fill="#BFBEBE" d="M727.472 196.422C735.024 196.366 742.396 196.718 749.899 197.632C747.817 208.956 744.707 219.749 739.663 230.124C737.874 233.539 735.82 236.708 733.37 239.682C731.498 240.227 729.578 240.611 727.676 241.039C727.206 226.201 727.502 211.271 727.472 196.422Z"/>
	<path fill="#FEFEFE" d="M724.341 95.4287C725.891 97.7008 724.842 140.327 724.717 146.361Q714.579 146.359 704.539 144.957C703.504 144.673 703.602 144.816 702.806 143.927C702.68 142.026 702.974 140.252 703.377 138.4C706.18 125.502 713.063 102.778 724.341 95.4287Z"/>
	<path fill="#FEFEFE" d="M727.87 95.236C728.834 95.2804 729.819 95.3176 730.771 95.4817C734.043 96.0455 736.661 99.6027 738.3 102.25C742.958 109.77 751.627 135.485 749.64 143.626L748.263 144.237C741.395 145.338 734.465 145.905 727.528 146.345Q727.394 120.788 727.87 95.236Z"/>
	<path fill="#0B0B0B" d="M855.272 880.738C863.951 880.675 879.77 879.389 887.604 881.246C891.326 882.129 894.948 884.122 896.833 887.566C900.391 894.066 900.423 918.487 898.066 925.546C896.836 929.229 894.653 932.536 891.034 934.184C889.086 935.071 887.3 935.435 885.167 935.49C865.241 936.002 845.178 935.469 825.237 935.441L712.266 935.394L634.827 935.413C621.31 935.433 607.394 936.172 593.93 935.345C587.582 934.955 580.551 931.451 574.623 929.251C557.55 922.621 540.229 916.731 523.267 909.803C539.361 904.171 555.234 897.628 571.029 891.198C578.082 888.327 586.76 883.747 594.102 882.148C600.925 880.662 609.736 881.65 616.725 881.663L659.479 881.668L777.241 881.594C803.264 881.545 829.263 881.745 855.272 880.738Z"/>
	<path fill="#FEFEFE" d="M594.257 913.694C595.542 913.694 596.423 913.701 597.649 914.156C600.029 916.885 599.067 923.146 599.667 926.674C600.048 928.908 600.906 930.923 601.82 932.979L594.663 933.003C594.085 926.557 594.057 920.153 594.257 913.694Z"/>
	<path fill="#FEFEFE" d="M602.547 884.403C599.061 890.311 599.164 896.371 598.99 903.015C598.441 904.151 598.3 904.266 597.234 904.952C595.976 904.974 595.843 904.928 594.772 904.267C592.793 901.185 594.163 888.433 594.821 884.507L602.547 884.403Z"/>
	<path fill="#FEFEFE" d="M845.516 884.131C848.775 884.031 852.051 884.067 855.313 884.038C855.738 899.978 855.393 916.019 855.42 931.971L845.746 931.972Q845.407 908.052 845.516 884.131Z"/>
	<path fill="#FEFEFE" d="M618.601 912.126C629.721 911.623 641.017 912.01 652.158 912.011L714.535 912.028L787.493 912.043C800.501 912.038 813.615 911.677 826.61 912.074C828.947 912.145 830.947 911.953 832.631 913.744C832.744 915.244 832.635 915.372 831.876 916.689Q831.204 916.755 830.531 916.799C818.077 917.482 805.253 916.829 792.761 916.788L727.603 916.819L656.291 916.778C644.608 916.768 632.594 917.331 620.945 916.718C619.44 916.639 618.709 916.609 617.575 915.596C617.39 914.183 617.966 913.326 618.601 912.126Z"/>
	<path fill="#FEFEFE" d="M620.536 894.251C666.467 893.662 712.445 894.6 758.386 894.422L804.347 894.203C812.271 894.163 823.513 892.99 831.122 894.849C831.992 895.892 831.971 895.921 832.01 897.285C831.27 898.543 831.175 898.691 829.88 899.345C777.05 900.002 724.1 899.594 671.266 899.405L634.861 899.268C630.699 899.253 625.215 900.017 621.248 899.088C619.528 898.685 618.347 898.03 617.42 896.533L617.719 895.462C618.653 894.794 619.432 894.547 620.536 894.251Z"/>
	<path fill="#FEFEFE" d="M858.648 884.098C865.812 884.083 885.324 882.23 890.589 886.108C893.529 888.273 894.849 891.82 895.346 895.319C896.109 900.696 896.134 918.915 894.929 923.737C894.419 925.777 893.491 927.27 892.244 928.937C886.226 933.951 866.615 931.991 858.688 931.975L858.648 884.098Z"/>
	<path fill="#0B0B0B" d="M163.35 775.716L164.156 775.654C184.326 774.299 206.09 783.397 221.128 796.433C237.225 810.387 246.718 830.835 248.233 851.964C249.736 872.938 241.646 894.546 227.827 910.2C214.226 925.607 194.562 936.312 173.907 937.641C152.785 939.009 132.874 932.507 116.712 918.795Q115.941 918.149 115.186 917.484Q114.432 916.819 113.693 916.136Q112.955 915.453 112.234 914.752Q111.512 914.051 110.808 913.333Q110.104 912.615 109.418 911.879Q108.732 911.144 108.064 910.392Q107.396 909.64 106.747 908.872Q106.097 908.104 105.467 907.32Q104.836 906.536 104.225 905.737Q103.614 904.939 103.023 904.125Q102.432 903.311 101.86 902.483Q101.289 901.656 100.738 900.814Q100.188 899.972 99.6576 899.117Q99.1275 898.263 98.6186 897.395Q98.1096 896.528 97.6221 895.648Q97.1345 894.768 96.6686 893.877Q96.2027 892.985 95.7588 892.083Q95.3148 891.18 94.8931 890.267Q94.4714 889.354 94.0721 888.431Q93.6729 887.508 93.2963 886.575Q92.9198 885.642 92.5662 884.701Q92.2126 883.759 91.8821 882.809Q91.5517 881.859 91.2446 880.901Q90.9374 879.944 90.6539 878.979Q90.3703 878.014 90.1104 877.042Q89.8505 876.07 89.6145 875.093Q89.3785 874.115 89.1664 873.132Q88.9544 872.148 88.7665 871.16Q88.5786 870.172 88.4149 869.18Q88.2512 868.187 88.1119 867.191Q87.9726 866.195 87.8577 865.196Q87.7427 864.197 87.6523 863.195C85.8848 841.182 92.3095 820.427 106.705 803.594C121.111 786.749 141.413 777.351 163.35 775.716Z"/>
	<path fill="#FEFEFE" d="M166.291 819.402C167.842 819.397 169.321 819.279 170.606 820.314C171.566 821.087 172.102 822.204 172.036 823.445C171.949 825.09 170.942 826.203 169.878 827.334C168.73 827.447 167.496 827.577 166.436 827.02C165.351 826.45 164.641 825.443 164.454 824.238C164.13 822.148 165.041 820.892 166.291 819.402Z"/>
	<path fill="#FEFEFE" d="M166.291 852.383C167.97 852.417 169.841 852.456 171.081 853.775C171.937 854.686 172.185 855.719 171.955 856.937C171.673 858.43 170.418 859.426 169.335 860.36C167.925 860.316 166.451 860.317 165.358 859.261C164.423 858.357 164.018 857.33 164.104 856.031C164.208 854.448 165.247 853.429 166.291 852.383Z"/>
	<path fill="#FEFEFE" d="M132.689 885.36C134.228 885.554 135.675 885.854 136.721 887.114C137.523 888.082 137.818 889.255 137.585 890.484C137.266 892.167 136.342 892.951 135.075 893.986C133.806 893.857 132.476 893.749 131.406 892.982C130.459 892.304 129.924 891.352 129.925 890.18C129.927 888.015 131.266 886.772 132.689 885.36Z"/>
	<path fill="#FEFEFE" d="M200.33 852.345C201.857 852.407 203.585 852.316 204.74 853.506C205.697 854.491 205.953 855.351 205.928 856.703C205.899 858.314 204.671 859.613 203.629 860.691C202.468 860.577 201.074 860.555 200.091 859.856C199.058 859.121 198.279 858.25 198.14 856.938C197.929 854.932 199.064 853.679 200.33 852.345Z"/>
	<path fill="#FEFEFE" d="M131.461 819.402C133.216 819.301 135.06 819.335 136.434 820.609C137.343 821.451 137.74 822.463 137.618 823.703C137.467 825.239 136.258 826.214 135.177 827.143C133.876 827.307 132.757 827.426 131.56 826.749C130.454 826.122 129.793 825.192 129.618 823.928C129.339 821.921 130.239 820.804 131.461 819.402Z"/>
	<path fill="#FEFEFE" d="M165.969 886.004C167.512 885.9 169.381 885.653 170.687 886.665C171.71 887.458 172.214 888.371 172.193 889.682C172.168 891.25 171.135 892.448 170.188 893.582C168.536 893.634 166.799 893.843 165.429 892.704C164.488 891.922 164.036 891.023 164.043 889.801C164.052 888.254 165.053 887.131 165.969 886.004Z"/>
	<path fill="#FEFEFE" d="M200.598 818.95C201.845 819 203.314 818.987 204.361 819.781C205.403 820.57 206.101 821.467 206.157 822.822C206.241 824.857 205.086 825.993 203.733 827.269C202.288 827.408 200.671 827.538 199.528 826.429C198.663 825.59 198.438 824.748 198.379 823.594C198.273 821.572 199.345 820.371 200.598 818.95Z"/>
	<path fill="#FEFEFE" d="M132.482 851.925C133.675 852.073 134.86 852.161 135.863 852.899C136.811 853.597 137.339 854.591 137.322 855.773C137.291 857.89 136.012 859.215 134.577 860.589C133.172 860.534 131.642 860.295 130.548 859.333C129.678 858.567 129.282 857.58 129.372 856.428C129.541 854.258 130.941 853.199 132.482 851.925Z"/>
	<path fill="#FEFEFE" d="M200.918 885.451C202.579 885.733 204.115 885.944 205.334 887.215C206.182 888.1 206.512 889.35 206.282 890.546C205.972 892.16 204.771 893.087 203.55 894.029C202.024 893.972 200.537 893.745 199.33 892.714C198.409 891.927 197.897 890.886 197.965 889.664C198.079 887.601 199.445 886.624 200.918 885.451Z"/>
	<path fill="#0B0B0B" d="M266.622 445.785C266.535 445.586 266.452 445.387 266.363 445.19C263.132 437.998 258.19 431.328 253.879 424.733Q243.466 408.931 233.256 392.997L140.91 248.182C132.991 235.525 117.256 214.44 112.196 201.306C109.576 194.506 109.316 187.225 111.926 180.365C113.497 176.238 115.98 173.012 119.438 170.274C126.165 164.947 134.297 160.568 141.595 156.025L188.962 126.886Q218.379 108.458 248.09 90.5067C258.155 84.3263 268.533 76.624 279.379 71.9657C287.86 68.3236 297.731 67.918 306.338 71.4112C311.125 73.3539 315.062 76.4615 318.307 80.4651C322.802 86.0104 326.458 92.5377 330.267 98.5849L350.226 130.605L394.163 200.77C404.717 217.684 415.074 235.083 426.369 251.499C434.197 251.512 442.038 251.619 449.864 251.486C460.027 241.136 474.36 224.451 474.109 208.918C474.022 203.515 472.425 198.356 470.128 193.503C463.047 178.545 442.508 153.778 430.883 140.962C426.933 143.239 407.507 155.441 404.319 155.316C403.354 153.671 403.116 151.901 402.921 150.024C402.406 145.067 400.956 102.755 401.678 100.358C401.882 99.6795 401.934 99.6577 402.257 99.1438C403.53 99.1232 404.394 99.6338 405.475 100.243C412.769 104.354 419.807 110.187 426.656 115.05C433.141 119.656 440.864 124.089 446.566 129.586C447.431 130.42 447.176 130.108 447.641 131.166C444.796 134.357 439.405 136.597 435.632 138.678C448.193 154.108 469.804 178.394 476.387 196.383Q477.121 198.369 477.627 200.425Q478.133 202.482 478.404 204.582Q478.675 206.682 478.708 208.799Q478.741 210.916 478.535 213.024C477.156 227.575 465.558 240.653 456.513 251.413L640.865 251.558L688.233 251.498C698.834 251.48 710.13 250.756 720.585 252.558C728.178 253.866 736.001 258.171 741.381 263.662C753.937 276.474 753.036 292.18 753.003 308.778L752.93 337.337L810.47 337.4C821.708 337.39 834.698 338.654 845.681 336.11Q846.984 335.816 848.263 335.432Q849.542 335.048 850.792 334.576Q852.041 334.104 853.254 333.546Q854.468 332.988 855.639 332.347Q856.811 331.706 857.935 330.985Q859.059 330.264 860.131 329.466Q861.202 328.668 862.215 327.798Q863.228 326.928 864.178 325.989C874.15 315.972 876.451 303.262 876.301 289.67L876.255 286.584C858.839 285.309 843.75 278.992 832.223 265.538Q831.246 264.394 830.327 263.204Q829.408 262.013 828.549 260.778Q827.69 259.544 826.893 258.268Q826.095 256.993 825.362 255.68Q824.628 254.367 823.961 253.019Q823.293 251.671 822.693 250.292Q822.092 248.913 821.561 247.506Q821.029 246.099 820.568 244.667Q820.106 243.236 819.716 241.783Q819.325 240.331 819.007 238.861Q818.689 237.391 818.444 235.907Q818.199 234.423 818.027 232.928Q817.855 231.434 817.757 229.933Q817.66 228.432 817.636 226.928Q817.612 225.424 817.663 223.921Q817.713 222.418 817.838 220.919C819.092 205.548 826.002 190.061 838.001 180.089C850.182 169.967 865.447 165.094 881.21 166.692C897.887 168.383 912.683 176.792 923.158 189.851Q924.076 190.996 924.937 192.184Q925.798 193.373 926.599 194.602Q927.401 195.832 928.141 197.099Q928.881 198.366 929.558 199.668Q930.235 200.97 930.848 202.304Q931.46 203.638 932.007 205Q932.553 206.362 933.032 207.749Q933.511 209.136 933.921 210.545Q934.331 211.954 934.672 213.382Q935.012 214.809 935.282 216.252Q935.553 217.694 935.752 219.148Q935.951 220.602 936.078 222.064Q936.206 223.526 936.262 224.993Q936.317 226.459 936.301 227.927Q936.285 229.394 936.196 230.859Q936.108 232.324 935.948 233.783C934.055 249.754 926.367 263.848 913.626 273.762C904.12 281.158 892.421 285.426 880.484 286.601C880.608 302.61 879.085 316.847 867.231 328.853C858.159 338.042 846.862 341.595 834.203 341.587L752.856 341.545L752.942 439.282L796.72 439.436C804.775 439.449 813.087 439.062 821.105 439.765C818.054 443.813 814.398 448.122 813.572 453.286C812.151 462.167 812.956 472.047 812.935 481.071L812.896 535.268L812.798 572.521C812.777 579.125 812.197 586.38 813.137 592.909Q813.216 593.445 813.321 593.976Q813.427 594.507 813.558 595.033Q813.689 595.558 813.846 596.076Q814.003 596.595 814.185 597.105Q814.367 597.615 814.574 598.115Q814.781 598.616 815.013 599.105Q815.244 599.595 815.499 600.073Q815.754 600.55 816.032 601.015Q816.311 601.48 816.612 601.93Q816.912 602.38 817.235 602.815Q817.557 603.25 817.901 603.669Q818.245 604.088 818.608 604.489Q818.972 604.89 819.355 605.273Q819.738 605.656 820.139 606.02Q820.54 606.384 820.959 606.727Q821.378 607.07 821.813 607.393Q822.793 608.116 823.855 608.712Q824.917 609.308 826.045 609.768Q827.173 610.227 828.349 610.544Q829.525 610.86 830.731 611.028C836.341 611.824 842.399 611.463 848.067 611.476L875.857 611.52C886.186 611.531 910.073 612.678 919.099 610.954C923.507 610.112 927.875 606.492 930.241 602.776C931.976 600.051 932.941 596.905 933.225 593.699C933.738 587.92 933.325 581.849 933.302 576.038L933.216 542.432L933.369 489.316C933.417 480.451 934.702 465.238 932.613 457.195C931.361 452.377 927.477 447.659 923.121 445.306C920.322 443.793 917.119 443.006 913.968 442.701C904.316 441.767 894.041 442.606 884.323 442.595C871.148 442.581 857.65 441.867 844.52 442.604Q841.264 442.759 838.135 443.669C833.297 445.125 830.091 448.219 827.899 452.735C826.552 455.511 826.323 458.27 826.179 461.293C825.331 479.075 826.213 497.25 826.184 515.07C826.169 524.262 825.066 590.828 826.551 595.398C827.139 597.208 828.512 598.889 829.814 600.247C829.226 569.166 830.024 537.991 829.994 506.895L829.824 477.356C829.77 471.318 829.257 464.792 830.167 458.811C830.652 455.625 832.159 452.926 834.428 450.663C836.62 448.478 838.762 447.32 841.809 446.728C850.201 445.1 864.401 446.229 873.593 446.27C885.243 446.322 896.93 445.939 908.571 446.17C914.495 446.288 920.647 446.909 924.943 451.482C927.523 454.229 928.626 457.408 929.06 461.09C929.905 468.235 929.346 475.776 929.241 482.975Q929.003 499.109 929.017 515.243L929.011 565.35C929.03 573.928 929.541 582.819 929.012 591.372C928.726 595.993 927.428 600.784 923.83 603.943C921.416 606.064 918.391 607.082 915.242 607.468C910.638 608.032 905.743 607.614 901.104 607.558Q891.358 607.484 881.612 607.527L851.241 607.557C845.905 607.559 840.291 607.907 834.986 607.375C829.235 606.799 824.482 605.194 820.789 600.544C818.663 597.867 817.429 594.613 817.072 591.225C816.263 583.554 816.835 575.296 816.842 567.555L816.887 522.931L816.862 479.755C816.851 471.393 816.209 462.328 817.501 454.085C818.27 449.184 821.664 443.562 825.752 440.723C828.49 438.822 831.911 437.788 835.203 437.44C840.397 436.892 845.829 437.225 851.053 437.261L879.191 437.44C889.518 437.475 911.895 436.204 920.372 437.924C926.809 439.229 931.818 442.536 935.357 448.096C937.428 451.349 938.757 455.012 939.077 458.862C939.771 467.211 939.21 475.96 939.182 484.357L939.089 530.869L939.018 577.792C939.024 585.287 940.146 597.397 938.398 604.281C936.94 610.028 932.591 615.439 927.434 618.392C924.591 620.02 919.997 620.389 916.726 620.553C909.49 620.917 902.129 620.635 894.881 620.617L855.376 620.525L752.284 620.942C751.753 662.048 752.016 703.182 752.005 744.291L751.997 776.153C751.995 784.639 752.542 793.438 750.84 801.795C749.328 809.217 744.783 817.087 739.396 822.4C734.188 827.536 726.999 831.363 719.909 833.097C713.24 834.729 706.349 834.463 699.539 834.459L668.958 834.415C663.536 834.409 657.681 834.006 652.311 834.634C647.939 836.559 643.767 838.799 639.311 840.558C625.034 846.193 596.656 854.574 581.429 854.175L580.868 854.405C565.341 860.93 474.258 909.563 468.062 908.826C467.259 907.665 467.175 907.6 467.206 906.201C467.969 904.964 468.913 904.269 470.175 903.592C477.513 899.656 485.54 896.436 493.065 892.809C506.617 886.277 519.985 879.394 533.479 872.749C545.067 867.043 556.915 861.625 568.167 855.274C564.266 854.544 559.604 855.019 555.615 854.973Q542.596 854.828 529.584 854.394C499.376 853.11 448.778 845.998 420.948 834.512C414.067 834.201 407.177 834.363 400.292 834.45C404.505 842.78 415.046 858.689 417.249 866.485C419.336 873.875 419.39 886.058 420.087 894.028C421.238 907.184 422.76 920.095 424.812 933.139C425.569 937.943 429.355 956.579 428.427 960.259C428.158 961.328 427.576 962.21 426.523 962.641C425.184 963.189 423.753 962.615 422.632 961.86C419.454 959.718 416.492 956.943 413.532 954.501Q403.723 946.297 393.707 938.348C379.866 927.569 365.053 917.83 350.646 907.822C345.187 896.864 339.078 886.228 333.289 875.442C329.551 868.476 319.107 847.438 314.332 842.451C311.664 839.664 306.863 838.556 303.541 836.693C296.425 832.702 282.644 820.856 279.951 812.815C278.258 807.764 283.789 795.98 284.839 790.225C284.889 789.947 284.947 789.669 284.999 789.391L285.089 788.889C281.381 781.027 276.302 773.56 271.939 766.026C266.224 756.157 260.9 746.08 255.244 736.183C251.066 738.366 246.967 740.887 242.693 742.85C232.911 723.925 221.983 705.571 211.757 686.881Q181.86 631.041 150.935 575.764C147.611 586.135 142.964 594.192 132.985 599.334C125.054 603.422 115.463 604.317 106.976 601.457Q106.146 601.17 105.33 600.844Q104.515 600.516 103.717 600.15Q102.919 599.783 102.14 599.378Q101.361 598.972 100.602 598.529Q99.844 598.085 99.1084 597.605Q98.3728 597.125 97.6617 596.61Q96.9506 596.094 96.2657 595.544Q95.5808 594.994 94.9238 594.411Q94.2668 593.828 93.6392 593.214Q93.0117 592.599 92.4151 591.954Q91.8185 591.31 91.2543 590.636Q90.6901 589.963 90.1597 589.263Q89.6293 588.563 89.134 587.838Q88.6386 587.112 88.1795 586.363Q87.7205 585.615 87.2987 584.844Q86.877 584.073 86.4937 583.283Q86.1322 582.554 85.8083 581.807Q85.4843 581.06 85.1986 580.297Q84.913 579.535 84.6664 578.759Q84.4198 577.983 84.2129 577.196Q84.006 576.409 83.8393 575.612Q83.6726 574.815 83.5466 574.01Q83.4206 573.206 83.3356 572.396Q83.2505 571.587 83.2067 570.774Q83.1628 569.961 83.1603 569.147Q83.1578 568.333 83.1966 567.52Q83.2354 566.706 83.3154 565.896Q83.3954 565.086 83.5164 564.281Q83.6375 563.476 83.7992 562.678Q83.9609 561.88 84.1629 561.091Q84.3649 560.303 84.6067 559.526Q84.8485 558.748 85.1294 557.984C86.3379 554.605 88.0567 551.162 90.362 548.397C95.3972 542.357 102.695 537.626 108.899 532.826Q120.249 523.994 131.69 515.282C127.933 508.627 111.924 482.509 110.811 477.524C111.81 474.868 111.591 474.236 110.425 471.647C106.7 463.384 102.315 455.387 97.9854 447.43C90.3103 433.327 83.6847 421.913 89.7954 405.509Q90.0801 404.726 90.4045 403.958Q90.7288 403.191 91.092 402.441Q91.4551 401.691 91.8561 400.961Q92.2571 400.23 92.6949 399.521Q93.1326 398.812 93.606 398.127Q94.0795 397.441 94.5873 396.78Q95.0951 396.12 95.636 395.486Q96.177 394.852 96.7495 394.247Q97.3221 393.642 97.9249 393.066Q98.5277 392.491 99.159 391.947Q99.7904 391.404 100.449 390.893Q101.107 390.382 101.791 389.906Q102.474 389.429 103.181 388.988Q103.888 388.547 104.617 388.143Q105.345 387.739 106.094 387.372Q106.842 387.006 107.608 386.678C115.604 383.175 124.587 382.709 132.75 385.942C138.299 388.14 143.95 391.825 147.915 396.313C154.73 404.027 163.988 426.195 169.068 436.453C169.456 437.236 171.405 441.401 172.011 441.651C172.527 441.863 173.464 441.403 173.947 441.223C176.786 442.318 199.877 481.448 203.728 487.355Q215.376 479.996 226.812 472.311Q195.473 426.507 164.608 380.385L138.914 342.846C136.073 338.691 132.857 334.718 130.186 330.457C129.226 328.927 127.874 326.846 128.099 324.977C128.19 324.218 128.202 324.42 128.867 323.952C130.47 324.574 131.465 325.835 132.496 327.157C139.551 336.204 145.669 346.447 152.22 355.919Q177.064 391.947 201.288 428.396C210.603 442.314 219.698 456.685 229.626 470.159C242.389 463.294 254.868 454.281 266.622 445.785Z"/>
	<path fill="#FEFEFE" d="M772.768 444.077C773.846 444.074 774.592 443.834 775.458 444.528C774.563 447.194 770.866 449.926 768.825 451.924C768.547 452.205 768.129 452.301 767.767 452.459C766.832 451.653 766.949 451.565 766.615 450.449C767.2 448.476 771.148 445.557 772.768 444.077Z"/>
	<path fill="#FEFEFE" d="M141.049 514.353C142.83 514.998 144.175 515.633 145.706 516.754L140.277 523.081L137.654 518.479L141.049 514.353Z"/>
	<path fill="#FEFEFE" d="M803.449 517.365C803.947 517.849 804.098 518.265 804.201 518.972C804.618 521.866 798.4 527.422 796.435 529.558L795.974 529.281L796.018 528.123L795.04 527.18L794.438 527.088C797.401 524.136 800.692 521.326 803.092 517.888L803.449 517.365Z"/>
	<path fill="#FEFEFE" d="M259.581 294.75L260.893 295.203L261.184 296.193C259.14 302.054 255.254 307.875 252.24 313.344C251.392 312.905 251.288 312.807 250.787 311.993C251.534 306.451 256.757 299.586 259.581 294.75Z"/>
	<path fill="#FEFEFE" d="M803.445 501.422C804.012 502.025 804.109 502.671 804.122 503.511C804.176 506.86 794.147 515.634 791.494 518.247C791.071 517.27 790.828 516.528 790.73 515.466C794.925 510.736 799.359 506.255 803.445 501.422Z"/>
	<path fill="#FEFEFE" d="M243.027 200.284C243.75 200.389 244.325 200.493 244.938 200.931C247.856 203.016 258.185 214.257 258.602 217.698C255.63 217.043 252.621 213.016 250.525 210.783C248.365 208.482 242.929 203.462 243.027 200.284Z"/>
	<path fill="#FEFEFE" d="M779.29 444.067C780.653 444.015 781.779 444.011 783.13 444.268C779.935 448.853 774.675 452.863 770.886 457.114C770.607 457.452 770.207 457.673 769.849 457.924L768.904 457.407L768.815 455.781C770.371 451.74 776.204 447.265 779.29 444.067Z"/>
	<path fill="#FEFEFE" d="M803.518 508.908L803.926 509.337C804.12 510.179 804.408 511.165 804.203 512.036C803.253 516.068 797.084 522.157 793.615 524.302L793.199 523.673C793.653 522.418 794.73 521.565 795.658 520.646L796.811 519.77L796.827 519.385C795.382 519.972 793.927 520.464 792.444 520.943L792.041 520.32L792.231 519.442C797.261 516.502 800.01 513.479 803.518 508.908Z"/>
	<path fill="#FEFEFE" d="M218.652 236.6C223.155 237.237 237.956 238.345 240.807 240.81L240.805 242.485C240.675 242.485 240.545 242.491 240.415 242.486C237.389 242.382 220.146 239.91 218.569 238.214L218.652 236.6Z"/>
	<path fill="#FEFEFE" d="M354.197 223.901L355.245 224.486L355.36 225.42C352.746 228.916 339.576 233.95 335.157 235.831L334.141 235.824L333.932 234.996C336.253 231.928 349.895 225.977 354.197 223.901Z"/>
	<path fill="#FEFEFE" d="M282.512 183.572L284.094 184.248C285.963 188.649 285.074 201.849 284.949 207.104C284.207 206.875 283.617 206.626 282.925 206.289C281.29 202.172 281.966 188.335 282.512 183.572Z"/>
	<path fill="#FEFEFE" d="M241.434 270.429C242.317 271.099 242.309 270.898 242.641 272.065C240.438 275.272 228.319 280.343 224.26 282.393L223.231 281.936L222.845 280.853C225.989 277.192 236.782 272.704 241.434 270.429Z"/>
	<path fill="#FEFEFE" d="M326.243 195.273C326.777 195.699 327.158 196.212 327.592 196.736C327.208 200.093 317.096 211.265 314.396 214.722C313.422 214.342 313.487 214.514 312.868 213.549C313.767 209.521 323.216 199.015 326.243 195.273Z"/>
	<path fill="#FEFEFE" d="M803.2 493.848C803.766 494.381 803.897 494.941 803.954 495.735C804.221 499.504 792.873 510.258 789.991 513.437C789.715 513.205 789.609 512.824 789.434 512.509C790.797 505.733 798.82 499.086 803.2 493.848Z"/>
	<path fill="#FEFEFE" d="M852.713 510.581L853.928 511.141C855.145 514.597 848.714 533.368 846.883 537.279C845.995 536.733 845.979 536.82 845.422 535.828C845.812 530.256 850.396 515.899 852.713 510.581Z"/>
	<path fill="#FEFEFE" d="M803.374 486.353C803.509 486.87 803.609 487.174 803.644 487.737C803.944 492.539 792.41 502.254 789.084 506.064C789.952 506.657 790.031 506.464 790.283 507.557L788.496 510.329C788.157 509.411 787.626 508.202 787.607 507.224C787.473 500.546 799.184 491.439 803.374 486.353Z"/>
	<path fill="#FEFEFE" d="M786.418 444.067L790.253 444.223C789.898 445.654 776.194 458.681 774.044 460.845C773.543 461.547 773.169 462.139 772.43 462.616C771.806 463.019 771.528 462.757 770.851 462.6C770.817 462.437 770.768 462.276 770.747 462.11C770.603 460.957 771.037 460.003 771.645 459.047C773.811 455.645 782.641 448.557 786.093 444.46L786.418 444.067Z"/>
	<path fill="#FEFEFE" d="M803.297 478.911L803.686 479.341C804.833 486.864 787.872 495.237 786.64 503.938L785.098 499.034C790.828 492.058 797.815 486.025 803.297 478.911Z"/>
	<path fill="#FEFEFE" d="M802.034 467.178C802.852 467.437 802.993 467.604 803.574 468.198L803.223 469.46C795.753 475.72 789.527 483.337 782.653 490.214C782.11 490.286 781.562 490.258 781.015 490.258L781.176 490.467C781.386 489.74 781.555 488.98 781.911 488.307C781.997 488.143 782.106 487.991 782.192 487.826C784.683 483.07 797.445 469.739 802.034 467.178Z"/>
	<path fill="#FEFEFE" d="M803.379 471.367C803.484 472.156 803.591 472.958 803.61 473.755C803.634 474.731 803.487 475.283 802.934 476.093C799.996 480.388 795.405 484.031 791.898 487.899C789.388 490.665 787.314 493.755 784.753 496.489L783.205 495.657C783.91 494.815 784.78 494.153 785.509 493.336C786.173 492.592 786.688 492.071 786.581 491.045L785.754 490.643C786.219 487.724 800.42 475.022 803.379 471.367Z"/>
	<path fill="#FEFEFE" d="M795.817 443.698C796.368 443.965 796.794 444.292 797.283 444.655C794.916 449.129 779.084 463.254 774.349 467.966L773.572 467.732C773.174 466.656 772.886 466.257 773.438 465.139C774.795 462.394 789.815 447.586 792.963 445.11C793.854 444.408 794.756 444.061 795.817 443.698Z"/>
	<path fill="#FEFEFE" d="M803.32 456.359C803.472 457.448 803.792 459.552 803.396 460.579C801.836 464.627 787.027 478.011 783.25 482.299C782.218 483.469 781.596 484.767 780.718 486.03C780.583 486.225 780.443 486.416 780.305 486.609C779.923 485.14 779.455 483.695 779.008 482.245C787.267 473.752 795.927 465.646 803.32 456.359Z"/>
	<path fill="#FEFEFE" d="M803.256 448.365C803.61 450.045 803.429 451.896 803.411 453.613C795.593 462.972 786.5 471.342 777.856 479.932C777.742 479.479 777.621 479.027 777.534 478.568C777.42 477.966 777.173 477.358 777.252 476.75C777.42 475.467 784.046 469.76 785.17 468.663C791.756 462.243 797.907 455.896 803.256 448.365Z"/>
	<path fill="#FEFEFE" d="M801.07 443.759C802.377 443.954 802.562 443.838 803.426 444.807C802.972 448.302 781.438 468.433 777.365 473.187L776.963 473.664C776.717 473.871 776.353 473.869 776.044 473.955L775.281 472.152C775.382 471.216 775.466 470.603 775.995 469.795C778.101 466.577 782.467 463.286 785.23 460.514Q793.412 452.384 801.07 443.759Z"/>
	<path fill="#FEFEFE" d="M842.545 589.231C860.536 589.155 878.605 588.718 896.588 589.167C897.358 590.052 897.031 590.485 896.963 591.613C889.558 591.635 845.762 592.745 843.335 591.831C843.031 591.716 842.833 591.417 842.581 591.211L842.545 589.231Z"/>
	<path fill="#FEFEFE" d="M843.169 567.625C849.74 567.625 894.731 566.601 896.953 568.274L896.976 570.222C889.228 570.239 846.284 571.296 843.515 569.988L843.169 567.625Z"/>
	<path fill="#FEFEFE" d="M842.314 579.465C848.727 579.387 894.019 578.699 896.158 579.567C896.481 579.697 896.67 580.038 896.926 580.274L896.874 582.26C879.124 582.292 861.239 582.837 843.505 582.278C842.37 581.414 842.56 580.804 842.314 579.465Z"/>
	<path fill="#FEFEFE" d="M843.737 485.472C852.788 485.479 909.342 484.713 912.094 486.494L912.335 488.263C904.312 488.596 846.189 488.991 844.235 487.824L843.737 485.472Z"/>
	<path fill="#FEFEFE" d="M844.11 477.236L844.617 477.215C851.44 477.001 910.837 476.457 912.072 476.984C912.405 477.126 912.601 477.479 912.865 477.726L912.819 479.603C900.173 480.266 887.333 479.915 874.665 479.939C864.789 479.958 854.601 480.481 844.759 479.788C844.18 478.959 844.234 478.236 844.11 477.236Z"/>
	<path fill="#FEFEFE" d="M843.335 467.077C850.113 466.702 909.589 466.474 911.684 467.583L912.351 469.893C907.972 470.296 847.49 470.688 844.783 469.903C843.714 469.593 843.62 468.029 843.335 467.077Z"/>
	<path fill="#FEFEFE" d="M636.786 275.017C649.704 274.352 662.853 274.808 675.796 274.783C683.219 274.769 692.169 273.809 699.426 275.128C700.267 276.308 700.035 277.007 700.021 278.431C686.648 278.788 673.216 278.55 659.836 278.552C652.803 278.554 644.647 279.376 637.764 278.182C636.784 277.019 636.917 276.5 636.786 275.017Z"/>
	<path fill="#FEFEFE" d="M343.597 269.575C345.1 269.423 346.639 269.267 348.141 269.506C350.685 269.91 353.092 271.592 354.486 273.737Q354.745 274.141 354.961 274.57Q355.177 274.999 355.348 275.447Q355.519 275.896 355.643 276.36Q355.767 276.823 355.842 277.297Q355.918 277.771 355.945 278.251Q355.972 278.73 355.949 279.209Q355.926 279.689 355.855 280.164Q355.783 280.638 355.663 281.103C354.808 284.467 352.818 286.183 349.98 287.957C348.168 288.096 346.314 288.209 344.529 287.779C342.003 287.17 339.612 285.498 338.318 283.226Q338.099 282.841 337.92 282.435Q337.741 282.03 337.604 281.609Q337.466 281.188 337.372 280.755Q337.278 280.322 337.227 279.882Q337.177 279.441 337.171 278.998Q337.165 278.555 337.204 278.114Q337.242 277.672 337.325 277.237Q337.408 276.802 337.534 276.377C338.505 272.993 340.68 271.284 343.597 269.575Z"/>
	<path fill="#FEFEFE" d="M380.991 269.555C382.934 269.334 384.865 269.147 386.785 269.641C389.327 270.295 391.65 272.133 392.851 274.467C393.899 276.505 394.132 278.994 393.393 281.172C392.345 284.26 390.133 286.1 387.334 287.559C385.515 287.879 383.8 288.045 381.97 287.665C379.66 287.186 377.54 285.788 376.266 283.791C374.859 281.585 374.589 278.961 375.216 276.45C376.065 273.055 378.123 271.321 380.991 269.555Z"/>
	<path fill="#BFBEBE" d="M581.429 854.175C587.281 850.856 616.826 835.736 621.729 834.95C630.925 833.476 642.841 834.562 652.311 834.634C647.939 836.559 643.767 838.799 639.311 840.558C625.034 846.193 596.656 854.574 581.429 854.175Z"/>
	<path fill="#FEFEFE" d="M281.468 214.654C284.193 214.291 287.193 214.271 289.936 214.437Q290.913 214.492 291.885 214.596Q292.858 214.7 293.824 214.853Q294.79 215.005 295.748 215.205Q296.705 215.405 297.652 215.652Q298.598 215.9 299.531 216.194Q300.464 216.488 301.381 216.829Q302.298 217.169 303.197 217.554Q304.096 217.94 304.975 218.369Q305.854 218.799 306.71 219.272Q307.566 219.745 308.398 220.26Q309.23 220.775 310.035 221.33Q310.84 221.886 311.617 222.481Q312.393 223.076 313.139 223.708Q313.885 224.341 314.598 225.01Q315.312 225.68 315.991 226.383Q316.67 227.087 317.314 227.824C321.966 233.119 327.309 242.979 326.896 250.181C326.014 250.789 325.895 250.591 324.871 250.516C322.759 247.633 321.972 241.691 320.176 238.062C315.876 229.372 307.976 222.293 298.737 219.274Q297.902 219.002 297.055 218.772Q296.207 218.542 295.35 218.354Q294.492 218.166 293.626 218.02Q292.76 217.874 291.888 217.772Q291.016 217.669 290.14 217.61Q289.264 217.55 288.386 217.534Q287.508 217.518 286.63 217.545Q285.752 217.572 284.877 217.642Q284.002 217.712 283.131 217.826Q282.26 217.939 281.396 218.096Q280.532 218.252 279.677 218.451Q278.822 218.649 277.977 218.89Q277.133 219.131 276.301 219.413Q275.47 219.695 274.653 220.017Q273.836 220.34 273.037 220.703Q272.237 221.065 271.456 221.467C261.869 226.369 256.195 234.67 252.901 244.669C251.673 250.885 251.597 257.044 253.433 263.15C256.044 271.829 262.694 280.145 271.031 283.916C273.767 285.153 277.135 285.571 279.693 287.065C280.802 287.713 280.894 287.901 281.219 289.065C280.597 290.061 280.396 290.05 279.29 290.5C274.531 289.89 269.109 287.426 265.128 284.757C256.99 279.3 250.816 270.078 248.993 260.433Q248.817 259.477 248.689 258.514Q248.561 257.551 248.48 256.582Q248.4 255.614 248.368 254.643Q248.335 253.671 248.351 252.7Q248.367 251.728 248.431 250.758Q248.495 249.789 248.607 248.823Q248.718 247.858 248.878 246.9Q249.037 245.941 249.244 244.991Q249.451 244.042 249.705 243.104Q249.958 242.166 250.258 241.241Q250.558 240.317 250.903 239.409Q251.248 238.5 251.637 237.61Q252.027 236.72 252.46 235.85Q252.894 234.98 253.369 234.133Q253.845 233.285 254.362 232.463Q254.88 231.64 255.437 230.844C261.779 221.846 270.734 216.535 281.468 214.654Z"/>
	<path fill="#FEFEFE" d="M405.962 106.231C410.955 108.799 415.696 112.906 420.258 116.235Q430.282 123.551 440.51 130.578C436.637 132.786 432.669 134.852 428.75 136.98C421.53 140.679 414.528 144.979 407.48 149.004C407.317 134.844 407.247 120.326 405.962 106.231Z"/>
	<path fill="#BFBEBE" d="M440.361 301.529C476.552 301.303 512.947 300.759 549.121 301.574C539.338 302.268 529.319 301.974 519.51 301.988L469.609 301.858C460.624 301.813 451.469 301.473 442.504 302.109C436.089 308.519 428.192 314.023 420.996 319.576C407.796 329.763 394.478 339.704 381.548 350.233C376.908 354.011 370.71 358.019 366.973 362.65C365.482 362.734 363.781 362.562 362.594 363.58C362.003 364.915 362.077 366.062 362.105 367.482C348.792 374.651 336.382 385.145 324.447 394.442C319.829 398.039 314.663 403.021 309.451 405.624L309.461 399.639C326.174 385.924 343.787 373.371 360.889 360.156C387.372 339.691 412.182 319.86 440.361 301.529Z"/>
	<path fill="#FEFEFE" d="M287.279 230.648C292.163 230.516 296.738 231.605 300.797 234.402C306.695 238.468 309.679 244.429 310.816 251.328C299.248 254.199 291.565 260.557 285.355 270.612L283.562 274.476C280.199 273.391 276.925 272.476 274.001 270.404Q273.57 270.105 273.156 269.784Q272.741 269.464 272.343 269.122Q271.945 268.78 271.566 268.419Q271.186 268.057 270.825 267.677Q270.465 267.296 270.124 266.897Q269.784 266.499 269.464 266.083Q269.144 265.668 268.847 265.236Q268.549 264.805 268.273 264.359Q267.998 263.912 267.746 263.453Q267.494 262.993 267.266 262.521Q267.038 262.049 266.834 261.566Q266.631 261.082 266.452 260.589Q266.274 260.096 266.121 259.595Q265.968 259.094 265.841 258.585Q265.714 258.076 265.614 257.562Q265.513 257.047 265.439 256.528Q265.367 255.984 265.322 255.437Q265.277 254.89 265.259 254.341Q265.242 253.793 265.251 253.244Q265.261 252.695 265.298 252.147Q265.335 251.6 265.399 251.055Q265.463 250.51 265.554 249.968Q265.645 249.427 265.763 248.891Q265.881 248.355 266.025 247.825Q266.17 247.296 266.34 246.774Q266.511 246.253 266.707 245.74Q266.903 245.227 267.125 244.725Q267.346 244.223 267.593 243.732Q267.839 243.242 268.109 242.764Q268.379 242.287 268.673 241.823Q268.967 241.359 269.283 240.911Q269.6 240.462 269.938 240.03C274.327 234.318 280.326 231.627 287.279 230.648Z"/>
	<path fill="#FEFEFE" d="M517.135 778.157C521.255 777.992 525.662 779.346 529.062 781.652Q529.48 781.938 529.884 782.245Q530.288 782.551 530.676 782.877Q531.064 783.203 531.435 783.548Q531.807 783.893 532.161 784.256Q532.515 784.619 532.85 784.998Q533.186 785.378 533.502 785.774Q533.819 786.17 534.115 786.581Q534.412 786.993 534.688 787.418Q534.963 787.843 535.218 788.282Q535.472 788.72 535.704 789.171Q535.937 789.621 536.147 790.083Q536.357 790.544 536.543 791.015Q536.73 791.486 536.893 791.966Q537.057 792.446 537.196 792.934Q537.335 793.421 537.45 793.914Q537.565 794.408 537.656 794.907C538.628 800.164 537.301 805.489 534.142 809.78C530.403 814.859 525.404 817.176 519.361 818.219C514.317 818.17 509.675 817.23 505.514 814.219Q505.108 813.93 504.718 813.619Q504.327 813.309 503.953 812.979Q503.58 812.649 503.224 812.3Q502.867 811.951 502.53 811.584Q502.192 811.217 501.874 810.833Q501.556 810.449 501.259 810.049Q500.961 809.649 500.685 809.234Q500.408 808.819 500.154 808.391Q499.899 807.962 499.667 807.521Q499.435 807.079 499.227 806.626Q499.018 806.173 498.833 805.71Q498.648 805.247 498.488 804.775Q498.327 804.303 498.192 803.824Q498.056 803.344 497.945 802.858Q497.834 802.371 497.749 801.88Q497.664 801.389 497.604 800.894Q497.547 800.399 497.514 799.902Q497.482 799.406 497.474 798.908Q497.466 798.41 497.483 797.912Q497.5 797.414 497.542 796.918Q497.584 796.422 497.65 795.928Q497.716 795.435 497.807 794.945Q497.897 794.456 498.012 793.971Q498.127 793.487 498.265 793.008Q498.404 792.53 498.566 792.059Q498.729 791.589 498.914 791.126Q499.099 790.664 499.307 790.212Q499.515 789.759 499.746 789.318Q499.976 788.876 500.228 788.447Q500.48 788.017 500.753 787.601Q501.026 787.184 501.319 786.782Q501.612 786.379 501.925 785.992C505.866 781.07 511.061 778.952 517.135 778.157Z"/>
	<path fill="#FEFEFE" d="M172.007 444.885L172.52 444.969C176.112 447.745 182.972 461.262 185.716 465.957C178.406 470.661 170.329 474.548 162.72 478.774Q145.546 488.335 128.751 498.547L127.571 498.98C123.574 496.193 117.105 482.406 114.884 477.613C119.87 473.634 126.001 470.625 131.542 467.477C144.955 459.854 158.772 452.795 172.007 444.885Z"/>
	<path fill="#FEFEFE" d="M278.279 447.662C279.407 447.544 279.269 447.383 280.31 448.047C280.918 458.612 280.496 469.373 280.509 479.964L280.41 544.376C274.349 535.264 268 526.349 261.919 517.25C251.764 503.113 242.3 488.422 232.374 474.115C238.932 469.696 245.655 465.512 252.233 461.12C258.331 457.048 264.603 451.935 271.399 449.168C273.566 448.285 275.977 448.005 278.279 447.662Z"/>
	<path fill="#FEFEFE" d="M411.818 871.685C413.004 871.572 413.197 871.314 414.219 872.015C415.365 878.496 415.641 885.28 416.267 891.841C417.219 901.826 418.349 911.794 419.099 921.797C411.786 926.795 404.318 931.776 396.579 936.087C390.334 930.87 383.428 926.239 376.77 921.564C368.915 915.981 360.608 910.67 353.183 904.537C355.312 902.26 357.423 899.9 359.882 897.97C367.716 891.818 392.296 877.695 401.316 874.186C404.807 872.828 408.122 872.172 411.818 871.685Z"/>
	<path fill="#BFBEBE" d="M420.948 834.512L610.29 834.58Q596.132 841.38 582.073 848.382C577.72 850.566 572.759 853.807 568.167 855.274C564.266 854.544 559.604 855.019 555.615 854.973Q542.596 854.828 529.584 854.394C499.376 853.11 448.778 845.998 420.948 834.512Z"/>
	<path fill="#FEFEFE" d="M865.985 170.633C866.508 170.582 867.031 170.527 867.556 170.5C871.661 170.282 875.722 171.44 878.776 174.282C882.598 177.841 883.956 183.274 884.075 188.331C884.321 198.781 879.729 209.66 872.542 217.173C864.495 225.586 853.927 230.787 842.272 231.084C838.462 230.623 835.548 229.74 832.284 227.653C828.144 225.004 825.268 220.877 824.365 216.031C822.887 208.092 826.84 199.762 831.2 193.351Q831.959 192.257 832.77 191.201Q833.58 190.145 834.441 189.129Q835.302 188.113 836.21 187.14Q837.119 186.167 838.073 185.239Q839.028 184.311 840.026 183.43Q841.024 182.549 842.063 181.717Q843.103 180.885 844.181 180.104Q845.259 179.323 846.374 178.595Q847.489 177.867 848.637 177.194Q849.786 176.52 850.965 175.903Q852.145 175.286 853.353 174.726Q854.561 174.166 855.794 173.665Q857.028 173.165 858.284 172.724Q859.54 172.283 860.816 171.903Q862.093 171.524 863.385 171.206Q864.678 170.888 865.985 170.633Z"/>
	<path fill="#FEFEFE" d="M446.125 269.657C474.659 269.004 503.325 269.536 531.874 269.543L563.102 269.636C570.523 269.586 578.118 269.16 585.522 269.568C587.895 269.698 590.313 270.084 592.449 271.179C594.517 272.24 596.099 273.91 596.742 276.174C597.519 278.906 596.988 282.09 595.469 284.473C593.752 287.168 591.395 288.408 588.38 289.164C580.62 289.81 572.577 289.454 564.786 289.466L523.146 289.504L474.195 289.496C465.486 289.486 456.597 289.821 447.908 289.294C445.695 289.159 443.902 288.917 441.961 287.752C439.696 286.392 437.842 284.22 437.228 281.613C436.647 279.145 437.187 276.303 438.615 274.209C440.463 271.5 443.028 270.355 446.125 269.657Z"/>
	<path fill="#FEFEFE" d="M133.488 519.433C136.285 521.499 149.896 546.202 152.359 550.676C148.485 552.772 145.255 555.042 142.166 558.194C143.376 561.883 145.372 565.4 147.101 568.874C145.572 578.35 142.922 586.761 134.832 592.764C127.965 597.861 120.013 599.156 111.694 597.951C105.141 596.279 99.3353 593.148 94.9533 587.897C89.9081 581.851 87.2929 573.268 88.1041 565.433Q88.1978 564.495 88.3586 563.566Q88.5194 562.637 88.7464 561.721Q88.9734 560.806 89.2655 559.91Q89.5576 559.013 89.9132 558.14Q90.2688 557.267 90.6862 556.421Q91.1035 555.576 91.5804 554.762Q92.0573 553.949 92.5914 553.172Q93.1254 552.395 93.7138 551.658C98.9658 545.047 107.5 539.854 114.18 534.761C120.722 529.774 127.096 524.609 133.488 519.433Z"/>
	<path fill="#FEFEFE" d="M229.246 476.05C233.258 480.107 240.269 491.935 243.891 497.262Q261.894 523.983 280.376 550.374C281.088 574.619 280.566 599.022 280.813 623.293L272.507 608.091C265.668 596.16 259.148 584.049 252.279 572.136Q228.742 531.895 205.983 491.209L229.246 476.05Z"/>
	<path fill="#BFBEBE" d="M325.64 301.727Q379.882 302.002 434.123 301.64C412.108 315.571 391.956 331.44 371.512 347.512C350.89 362.832 329.185 378.969 309.58 395.526L309.536 344.868C309.533 336.039 308.802 326.442 309.816 317.699C310.183 314.535 310.827 311.243 312.724 308.615C315.739 304.436 320.684 302.385 325.64 301.727Z"/>
	<path fill="#FEFEFE" d="M145.729 492.57C160.529 517.156 173.591 542.849 187.61 567.883L278.372 729.773C294.709 759.011 310.713 788.454 327.372 817.51Q339.498 838.632 351.338 859.915C356.821 869.678 362.675 879.488 367.39 889.638C361.319 893.177 356.649 896.27 352.156 901.831L347.884 894.511C350.679 892.276 353.581 890.137 355.915 887.406C352.859 889.044 350.077 891.435 347.437 893.669C346.513 892.015 345.561 890.37 344.671 888.697C347.451 886.071 350.404 883.501 352.824 880.535C349.496 882.54 346.863 885.183 344.216 887.987L341.166 882.249C343.961 879.687 346.511 877.011 349.032 874.181C345.964 876.033 343.32 878.771 340.812 881.313C339.868 879.533 338.817 877.755 337.972 875.928C340.667 873.388 343.555 870.901 345.759 867.911C342.75 870.009 340.147 872.584 337.437 875.044L334.691 870.049C337.372 867.482 340.441 864.933 342.728 862.021C339.664 864.297 336.937 866.732 334.202 869.392L331.525 864.898C333.89 862.505 336.498 860.16 338.368 857.353C335.834 859.492 333.479 861.722 331.148 864.08L328.543 859.275C330.452 857.393 332.454 855.565 334.103 853.447C331.914 855.021 330.089 856.695 328.197 858.602L325.346 853.795C327.456 851.742 329.688 849.782 331.32 847.316C329.05 849.163 326.921 851.084 324.808 853.106L322.355 848.41C324.577 846.29 326.842 844.265 328.57 841.707L326.782 842.008L327.179 842.795C325.421 844.446 323.566 846.057 321.96 847.857L316.108 837.381C318.863 834.873 321.484 832.407 323.862 829.533C320.883 831.605 318.365 834.326 315.718 836.799L312.979 831.661C315.917 828.733 319.107 825.863 321.622 822.56C318.402 825.147 315.552 827.964 312.676 830.925L309.487 825.216C311.353 823.694 314.613 821.301 315.371 818.997C313.172 820.723 311.273 822.569 309.333 824.573C308.444 822.951 307.532 821.338 306.677 819.698C309.229 816.939 312.478 814.032 314.408 810.831C311.379 813.133 308.825 816.121 306.22 818.884L303.437 813.939C305.985 811.284 308.834 808.637 310.935 805.616Q306.821 809.237 303.017 813.182L300.255 808.557C302.89 805.705 305.615 802.902 307.883 799.742C305.041 802.335 302.431 805.091 299.818 807.913L297.19 803.131C300.071 800.282 302.961 797.507 305.393 794.25C302.336 796.802 299.589 799.591 296.817 802.445L293.97 797.506C296.091 795.503 299.645 792.607 300.767 789.915C298.193 792.095 295.943 794.441 293.679 796.938C292.67 795.114 291.616 793.311 290.787 791.396C293.244 788.699 295.943 786.033 297.878 782.931C295.085 785.227 292.686 787.963 290.226 790.603L287.242 785.055C290.081 782.587 292.52 779.945 294.977 777.1C291.885 778.932 289.253 781.921 286.754 784.481L283.766 778.969C286.765 775.913 290.035 772.915 292.687 769.556C289.248 772.046 286.22 774.982 283.232 777.988L280.381 773.302C283.25 770.315 286.302 767.387 288.706 764.004C285.45 766.372 282.567 769.502 279.866 772.48L276.799 767.052C279.634 764.139 282.825 761.262 285.257 758.009C281.877 760.426 279.036 763.225 276.294 766.333L273.063 760.753C275.592 757.693 278.639 754.932 280.848 751.648C277.737 754.008 274.92 756.664 272.532 759.765L269.659 754.631Q273.579 749.905 277.404 745.103C274.136 747.354 271.561 750.333 268.991 753.32L266.181 748.28C268.871 745.176 271.639 742.113 274.035 738.773C270.914 741.213 268.281 744.391 265.594 747.297Q264.155 744.69 262.753 742.062C265.571 739.04 268.517 736.071 270.928 732.707C267.72 735.159 264.888 738.299 262.206 741.309L259.382 736.486L267.254 727.659C264.098 729.965 261.403 732.957 258.787 735.843Q255.898 730.388 252.813 725.04C255.655 721.957 258.606 718.925 261.162 715.597C257.909 718.141 255.089 721.079 252.436 724.234L249.572 719.216C252.332 716.242 255.356 713.312 257.656 709.964C254.569 712.437 251.722 715.321 249.068 718.251L246.08 713.194C248.946 710.42 251.75 707.693 254.249 704.579C251.113 706.538 248.301 709.736 245.692 712.368C244.78 710.849 243.829 709.343 242.959 707.8C245.57 704.953 248.413 701.956 250.243 698.529C247.564 701.264 244.794 703.952 242.388 706.933L239.305 701.566C241.822 698.828 244.341 696.124 246.599 693.164C243.708 695.329 241.274 698.034 238.773 700.626L236.377 696.335C238.99 693.475 241.615 690.673 243.818 687.476L243.539 687.38C240.904 689.979 238.447 692.691 236.005 695.471L233.306 690.541C235.771 687.68 238.412 684.858 240.418 681.651Q236.52 685.498 232.776 689.495L230.106 684.522C232.446 682.235 234.928 680.042 236.676 677.25C235.353 677.362 230.882 682.565 229.697 683.805L227.174 679.209C229.066 677.258 231.072 675.402 232.455 673.044C230.318 674.551 228.542 676.644 226.747 678.539L224.309 674.317C226.646 671.96 228.785 669.703 230.65 666.948C228.215 668.805 226.109 671.328 223.993 673.543L221.54 669.117C223.897 666.577 226.444 664.076 228.384 661.202C225.556 662.492 223.854 666.965 220.897 667.512C219.873 666.488 219.328 665.439 218.682 664.169C220.878 661.388 223.34 658.608 225.007 655.479C222.504 657.908 220.377 660.524 218.226 663.266L215.506 658.375C218.212 655.284 221.234 652.221 223.458 648.763C220.465 651.402 217.638 654.447 215.153 657.57L212.598 652.852C214.648 650.509 216.752 648.255 218.281 645.524C216.005 647.554 214.15 649.764 212.236 652.126L209.737 647.387C210.82 646.047 212.277 644.599 213.07 643.086C211.614 643.946 210.401 646.107 208.806 645.877L208.048 645C208.148 643.641 208.817 642.863 209.584 641.802C207.994 641.764 208.664 642.987 206.879 642.169C206.235 640.993 205.594 639.826 205.026 638.61C206.48 637.108 208.314 635.561 209.182 633.643C207.38 634.733 206.055 636.301 204.621 637.82L201.943 633.301C204.338 630.839 206.521 628.351 208.618 625.631C205.921 627.486 203.666 630.055 201.42 632.423L198.789 627.615C200.563 625.545 203.391 622.967 204.517 620.548C202.189 622.503 200.235 624.544 198.249 626.84L192.254 616.153C194.509 613.766 196.891 611.453 198.653 608.664C196.077 610.537 194.048 613.068 191.854 615.36L189.243 610.61C191.542 607.896 194.105 605.19 195.962 602.156C193.432 604.527 191.063 606.981 188.732 609.547L185.968 604.596C187.983 602.467 190.288 600.365 191.914 597.923C189.488 599.699 187.515 601.606 185.459 603.792L182.761 598.926C184.726 596.98 186.67 595.177 188.095 592.78C186.027 593.791 183.781 596.537 182.207 598.218L179.396 593.367C181.514 591.118 183.775 588.928 185.549 586.394C183.036 588.18 181.005 590.366 178.882 592.583L175.987 587.323L183.745 578.623C180.707 580.788 178.016 583.531 175.533 586.308C174.58 584.639 173.607 582.978 172.677 581.295C174.616 578.915 176.614 576.565 178.432 574.091L178.25 573.511L179.216 572.703C176.5 574.857 174.403 577.781 172.227 580.462L169.44 575.425C170.838 573.751 173.812 570.927 174.475 568.967C172.444 570.768 170.752 572.56 169.048 574.673L166.691 570.575L174.381 562.74C171.364 564.945 168.768 566.846 166.558 569.909C165.701 568.464 164.784 567.03 163.98 565.556C166.088 563.258 168.302 561.053 169.915 558.369C167.712 560.433 165.57 562.511 163.501 564.711L160.878 560.12C162.963 557.08 165.172 554.162 167.432 551.25C164.647 553.591 162.292 556.166 160.409 559.292L157.253 553.357C159.488 550.541 161.87 547.777 163.554 544.585C160.9 546.761 158.855 549.886 156.877 552.672L154.396 547.639L154.745 547.016C156.552 543.855 158.803 541.142 160.901 538.188L160.665 538.177L160.929 538.884L160.944 538.817L159.795 538.872C157.717 541.334 155.722 543.78 153.893 546.435C152.877 544.985 151.93 543.545 151.048 542.01Q154.359 537.998 157.727 534.034C155.058 536.124 152.902 538.591 150.654 541.111C149.771 539.626 148.815 538.154 148.057 536.602C149.252 535.292 153.324 531.541 153.474 530.036L153.358 529.912C151.34 531.706 149.486 533.861 147.593 535.799L145.008 531.329C146.264 529.841 147.426 528.368 148.486 526.733C146.978 527.331 145.644 529.228 144.533 530.418L142.502 526.77C141.976 525.992 141.681 525.245 141.359 524.366C142.091 521 145.704 517.533 147.936 514.996L147.8 514.74L145.706 516.754C144.175 515.633 142.83 514.998 141.049 514.353C142.14 513.112 143.615 511.756 144.173 510.199C141.75 512.537 139.525 514.884 137.404 517.501C136.466 515.978 135.5 514.472 134.693 512.875Q137.949 508.587 141.389 504.445L141.19 503.877C138.835 506.484 136.808 509.368 134.151 511.684C133.158 510.735 132.695 509.73 132.113 508.515C132.745 506.169 134.349 504.246 135.668 502.238L135.313 501.955C133.56 503.079 132.52 505.5 131.633 507.352C130.624 505.815 129.593 504.314 128.795 502.653Q137.177 497.469 145.729 492.57Z"/>
	<path fill="#FEFEFE" d="M187.465 469.411L188.199 469.444C191.268 471.773 201.535 491.531 204.376 496.378Q290.71 646.032 374.471 797.14L402.016 845.696C406.005 852.798 411.429 860.633 414.015 868.342C408.169 869.192 403.041 870.169 397.557 872.376C396.393 873.141 395.557 873.631 394.19 873.999C389.586 870.924 256.379 630.268 241.185 603.205L192.659 516.988C185.45 504.158 178.002 491.469 171.017 478.514C176.458 475.413 181.984 472.443 187.465 469.411Z"/>
	<path fill="#FEFEFE" d="M166.989 480.401C169.127 481.042 170.833 485.722 171.951 487.696L292.401 701.701Q321.089 754.008 350.533 805.894C363.683 829.328 376.61 853.079 390.55 876.049Q381.237 881.423 372.103 887.098L370.771 887.432C369.576 886.523 346.5 844.229 343.892 839.551L251.582 673.745L179.331 545.056C169.17 526.886 158.375 509.024 148.731 490.568C154.705 487.023 160.93 483.811 166.989 480.401Z"/>
	<path fill="#FEFEFE" d="M288.767 73.5873C292.772 73.215 296.86 73.3158 300.778 74.272Q301.766 74.5029 302.734 74.8102Q303.701 75.1174 304.641 75.4991Q305.582 75.8808 306.489 76.3347Q307.397 76.7886 308.267 77.3118Q309.136 77.8351 309.963 78.4245Q310.789 79.014 311.566 79.6661Q312.344 80.3181 313.069 81.0289Q313.793 81.7396 314.46 82.5046C319.563 88.3784 323.412 95.8776 327.498 102.511Q336.406 116.914 345.479 131.214Q383.556 191.063 420.772 251.451L408.364 251.53C381.711 208.523 353.745 166.355 327.352 123.184C316.154 128.631 305.233 136.227 294.617 142.758L231.304 182.291L183.931 211.747C172.639 218.74 160.981 225.688 150.336 233.629C154.808 241.837 160.494 249.666 165.505 257.582L197.236 307.549C209.674 326.393 221.555 345.595 233.739 364.6C238.24 371.621 243.062 378.435 247.545 385.468C253.527 394.85 262.364 412.127 269.601 419.491C273.517 417.69 277.228 415.455 280.968 413.317Q281.062 424.51 281.044 435.703C277.343 438.413 273.487 440.869 269.629 443.346C264.043 433.176 257.547 423.53 251.311 413.754L223.707 370.608L144.759 247.102C136.855 234.55 117.986 209.187 115.125 196.103C113.784 189.975 114.365 183.268 117.889 177.95C119.451 175.595 121.363 173.746 123.683 172.144C132.109 166.328 141.232 161.193 149.948 155.797L201.277 124.109L247.052 96.052C257.201 89.8023 267.375 83.073 277.91 77.5091C281.446 75.6419 284.848 74.3919 288.767 73.5873Z"/>
	<path fill="#0B0B0B" d="M207.053 163.827C207.766 163.99 208.226 164.294 208.852 164.659C209.111 165.25 209.445 165.582 209.22 166.236C208.897 167.173 208.246 167.835 207.463 168.408C201.109 173.049 193.552 176.883 186.833 181.058C171.825 190.383 156.936 199.886 141.702 208.844C141.534 208.841 141.36 208.878 141.197 208.836C140 208.528 139.884 208.045 139.412 207.027C139.86 205.645 140.323 205.179 141.489 204.313C149.68 198.231 159.249 193.145 167.954 187.759C180.909 179.745 193.761 171.259 207.053 163.827Z"/>
	<path fill="#0B0B0B" d="M284.748 95.5695C287.651 95.3886 290.225 95.3287 292.986 96.4044Q293.672 96.6641 294.327 96.9932Q294.982 97.3224 295.599 97.7175Q296.217 98.1126 296.791 98.5694Q297.364 99.0261 297.887 99.5397Q298.41 100.053 298.878 100.618Q299.345 101.183 299.752 101.793Q300.158 102.403 300.499 103.052Q300.841 103.701 301.113 104.382C302.678 108.331 302.423 112.949 300.531 116.74C298.508 120.795 295.09 123.062 290.905 124.458C288.025 124.797 285.271 124.706 282.559 123.586Q281.88 123.305 281.233 122.958Q280.585 122.612 279.975 122.203Q279.365 121.794 278.798 121.327Q278.231 120.861 277.712 120.34Q277.194 119.82 276.729 119.251Q276.265 118.682 275.858 118.07Q275.452 117.458 275.108 116.81Q274.764 116.161 274.485 115.481Q274.188 114.774 273.966 114.039Q273.745 113.305 273.602 112.551Q273.459 111.797 273.397 111.033Q273.334 110.268 273.352 109.501Q273.37 108.734 273.468 107.973Q273.567 107.213 273.745 106.466Q273.923 105.72 274.178 104.997Q274.434 104.273 274.764 103.581C276.865 99.2033 280.38 97.1397 284.748 95.5695Z"/>
	<path fill="#FEFEFE" d="M285.941 105.397C287.68 105.405 289.257 105.529 290.619 106.746C291.566 107.593 292.055 108.68 291.942 109.961C291.797 111.613 290.87 112.585 289.763 113.705C287.867 113.762 285.737 113.73 284.321 112.254C283.445 111.341 283.191 110.292 283.354 109.057C283.564 107.465 284.839 106.418 285.941 105.397Z"/>
	<path fill="#FEFEFE" d="M549.121 301.574L724.468 301.526L724.467 604.671L724.515 700.034L724.526 730.378C724.524 735.856 724.843 741.539 724.332 746.984C724.084 749.631 722.656 751.969 720.826 753.846C718.51 756.222 714.616 756.301 711.428 756.498C698.204 757.317 684.519 756.666 671.251 756.691L591.231 756.739L356.628 756.827L324.119 700.214C319.277 691.729 314.716 682.938 309.531 674.665C310.072 648.253 309.419 621.745 309.394 595.319L309.451 405.624C314.663 403.021 319.829 398.039 324.447 394.442C336.382 385.145 348.792 374.651 362.105 367.482C362.077 366.062 362.003 364.915 362.594 363.58C363.781 362.562 365.482 362.734 366.973 362.65C370.71 358.019 376.908 354.011 381.548 350.233C394.478 339.704 407.796 329.763 420.996 319.576C428.192 314.023 436.089 308.519 442.504 302.109C451.469 301.473 460.624 301.813 469.609 301.858L519.51 301.988C529.319 301.974 539.338 302.268 549.121 301.574Z"/>
	<path fill="#0B0B0B" d="M605.915 542.594C611.96 542.008 641.875 540.924 645.538 544.511C645.925 544.89 646.36 545.542 646.295 546.118C646.094 547.895 644.288 549.297 642.927 550.226C638.143 550.896 614.536 550.976 609.421 550.425C607.93 550.265 605.754 549.861 604.544 548.904C603.648 548.196 603.281 547.194 603.456 546.073C603.685 544.615 604.898 543.547 605.915 542.594Z"/>
	<path fill="#0B0B0B" d="M540.686 542.518C547.277 542.181 585.888 541.17 589.211 543.55C590.185 544.249 590.668 545.186 590.654 546.384C590.631 548.379 589.658 549.271 588.274 550.468C582.014 550.647 543.118 551.47 540.184 549.893C539.355 549.447 538.68 548.355 538.598 547.436C538.414 545.368 539.384 544.002 540.686 542.518Z"/>
	<path fill="#0B0B0B" d="M615.147 362.733C622.707 362.759 661.199 361.833 665.245 363.057C666.511 363.44 667.633 364.28 668.126 365.545C668.542 366.611 668.411 367.875 667.816 368.847C666.966 370.234 665.888 370.493 664.442 370.897C656.662 370.912 617.231 371.788 613.11 370.42C611.547 369.901 610.87 369.21 610.096 367.797C610.183 366.463 610.373 365.405 611.211 364.306C612.072 363.177 613.842 362.999 615.147 362.733Z"/>
	<path fill="#0B0B0B" d="M464.547 501.457L500.883 501.491C506.869 501.488 513.239 501.034 519.165 501.692C520.5 501.84 521.939 502.014 522.943 503.01C523.807 503.865 524.044 505.087 523.936 506.266C523.805 507.702 523.274 508.491 522.295 509.479C516.981 510.418 467.186 510.818 464.369 509.147C463.508 508.636 462.563 507.404 462.415 506.438C462.086 504.293 463.295 503.006 464.547 501.457Z"/>
	<path fill="#0B0B0B" d="M464.494 542.542L502.118 542.489C508.244 542.484 515.062 541.911 521.115 542.762C522.52 542.959 523.286 543.424 524.358 544.324C524.803 545.115 525.159 545.699 525.127 546.646C525.061 548.571 524.01 549.46 522.638 550.557C515.469 550.934 467.022 551.966 463.874 550.151C462.976 549.633 462.251 548.521 462.178 547.501C462.021 545.329 463.088 544.049 464.494 542.542Z"/>
	<path fill="#0B0B0B" d="M526.162 363.051L527.129 362.933C535.966 361.934 546.873 362.8 555.945 362.804C568.312 362.809 581.471 361.919 593.758 363.058C595.403 363.211 596.467 363.354 597.775 364.392C598.214 365.21 598.56 365.58 598.551 366.542C598.533 368.676 597.761 369.627 596.324 371.017C584.377 371.679 572.053 371.071 560.065 371.096C549.769 371.118 538.775 371.901 528.553 370.984C526.97 370.842 525.993 370.683 524.736 369.689C524.07 368.452 523.747 367.926 523.964 366.456C524.206 364.821 525.017 364.081 526.162 363.051Z"/>
	<path fill="#0B0B0B" d="M526.871 385.53C544.657 385.043 562.581 385.482 580.379 385.481C591.27 385.481 603.006 384.618 613.796 385.741C615.381 385.906 616.319 386.247 617.608 387.17C618.251 388.266 618.576 388.701 618.329 390.038C618.032 391.644 616.861 392.469 615.662 393.398L556.583 393.386C547.416 393.415 537.605 394.24 528.496 393.417C526.887 393.271 525.93 392.931 524.647 391.908C524.081 390.685 523.733 389.89 524.117 388.524C524.557 386.956 525.592 386.35 526.871 385.53Z"/>
	<path fill="#0B0B0B" d="M466.604 523.172C477.765 523.64 489.036 523.334 500.211 523.371L559.042 523.652C569.24 523.695 581.156 522.586 591.146 523.671C593.334 523.909 595.643 524.295 597.076 526.113C597.158 526.735 597.36 527.243 597.081 527.832C596.167 529.76 594.929 530.753 592.982 531.493C563.585 530.993 534.116 531.319 504.712 531.376C493.679 531.398 474.663 532.501 464.392 530.917C463.423 530.323 462.713 529.641 462.307 528.539C461.886 527.396 462.245 526.171 462.91 525.203C463.872 523.802 465.064 523.518 466.604 523.172Z"/>
	<path fill="#0B0B0B" d="M526.212 406.117C535.387 405.638 544.721 405.981 553.918 405.988L602.434 405.991L639.136 405.992C646.5 405.941 654.141 405.442 661.476 405.95C664.109 406.132 666.426 406.466 668.62 408.011C668.906 408.516 669.362 409.006 669.286 409.615C669.067 411.382 667.213 412.989 665.898 414.022C643.991 414.877 621.753 414.147 599.809 414.188C576.503 414.232 552.983 415.02 529.7 414.303C528.394 414.263 526.527 414.29 525.438 413.466C524.475 412.737 523.878 411.854 523.829 410.619C523.746 408.516 524.759 407.411 526.212 406.117Z"/>
	<path fill="#0B0B0B" d="M526.016 426.123C534.498 425.71 543.114 425.963 551.614 425.942L599.623 425.916L640.429 425.941C647.888 425.948 655.471 425.672 662.91 426.132C664.712 426.244 666.049 426.356 667.527 427.435C668.156 428.445 668.428 428.782 668.403 430.013C668.361 432.002 667.269 433.095 665.944 434.407C647.052 435.358 627.706 434.525 608.772 434.532C582.695 434.542 556.486 435.114 530.421 434.534C529.068 434.504 526.844 434.632 525.749 433.863C524.552 433.023 524.173 432.229 524.054 430.782C523.897 428.86 524.773 427.465 526.016 426.123Z"/>
	<path fill="#0B0B0B" d="M460.913 354.05C462.266 353.938 463.674 353.788 465.025 353.965C469.24 354.518 471.756 357.297 474.184 360.508Q475.495 360.906 476.772 361.4C487.903 365.63 497.403 374.024 502.278 384.976C506.816 395.171 506.719 407.56 502.665 417.898C498.911 427.475 492.617 432.485 485.701 439.531C483.643 441.627 481.742 444.817 478.949 445.899C476.261 446.941 473.023 445.636 470.543 444.632C470.116 444.305 469.719 443.955 469.334 443.578C467.083 441.377 466.012 438.537 466.079 435.38C466.143 432.393 467.398 429.676 469.599 427.661C472.027 425.439 473.944 425.451 477.057 425.591C479.945 425.722 482.187 423.882 484.218 421.943C490.095 416.328 492.339 409.241 492.573 401.317C489.475 399.997 487.447 398.804 485.887 395.692C483.965 391.858 484.495 387.862 485.771 383.962C481.239 378.646 477.124 375.744 470.786 372.904C467.934 373.62 464.824 374.024 461.96 373.187C458.682 372.229 455.807 370.181 454.291 367.058C453.325 365.068 453.104 362.727 453.924 360.642C455.177 357.456 457.933 355.458 460.913 354.05Z"/>
	<path fill="#0B0B0B" d="M366.973 362.65C384.769 363.144 402.639 362.976 420.442 362.902C425.932 362.879 431.73 361.61 437.147 362.199C439.722 362.479 442.246 363.358 444.113 365.209C446.19 367.269 447.417 370.507 447.389 373.418Q447.38 373.897 447.321 374.372Q447.263 374.847 447.156 375.313Q447.049 375.78 446.896 376.233Q446.742 376.687 446.542 377.122Q446.343 377.557 446.1 377.969Q445.857 378.382 445.573 378.767Q445.288 379.152 444.966 379.506Q444.645 379.861 444.288 380.18C438.694 385.101 431.792 378.773 429.873 396.029Q429.784 396.768 429.733 397.51Q429.682 398.252 429.667 398.996Q429.653 399.74 429.676 400.483Q429.699 401.227 429.759 401.969Q429.82 402.71 429.917 403.448Q430.014 404.185 430.148 404.917Q430.282 405.649 430.453 406.373Q430.623 407.097 430.829 407.812Q431.036 408.527 431.278 409.23Q431.52 409.934 431.797 410.624Q432.074 411.315 432.385 411.991Q432.696 412.667 433.04 413.326Q433.385 413.985 433.762 414.627Q434.139 415.268 434.548 415.89Q434.957 416.511 435.396 417.112Q435.835 417.712 436.304 418.29Q437.785 420.119 439.494 421.737L440.092 421.443C443.333 419.879 446.94 418.954 450.459 420.31C452.658 421.157 454.25 422.877 455.152 425.035C456.36 427.926 456.378 431.349 455.14 434.231C453.979 436.936 451.759 439.258 448.938 440.21C446.058 441.182 443.124 440.455 440.498 439.107C430.239 433.841 421.778 423.089 418.516 412.112C414.402 398.263 417.894 386.531 424.586 374.273C426.068 371.559 426.79 369.361 427.441 366.356C406.926 366.107 386.298 365.901 365.789 366.377Q365.557 396.488 365.675 426.599C365.68 440.869 365.411 455.209 365.727 469.472L606.498 469.08C614.044 469.077 664.698 468.402 667.393 469.216C667.788 469.336 668.098 469.643 668.451 469.856L668.642 470.96C667.498 472.331 665.699 472.467 664.021 472.636C653.375 473.709 641.486 472.742 630.692 472.746L561.441 472.817L431.41 472.98C408.464 473.009 385.469 473.362 362.529 473.002C361.894 460.065 362.308 446.963 362.27 434.001L362.105 367.482C362.077 366.062 362.003 364.915 362.594 363.58C363.781 362.562 365.482 362.734 366.973 362.65Z"/>
	<path fill="#0B0B0B" d="M362.684 487.411L448.236 487.515C449.147 520.666 448.39 554.025 448.498 587.202L600.466 587.434L643.647 587.409C650.847 587.399 658.287 586.964 665.456 587.416C667.062 587.517 667.663 587.581 668.953 588.525C669.072 589.778 668.969 589.946 668.399 591.084C657.837 591.435 647.157 591.057 636.581 591.042L577.767 591.129L362.556 591.162C362.04 583.696 362.375 576.011 362.334 568.515Q362.185 545.147 362.297 521.778C362.309 513.93 361.229 494.025 362.684 487.411Z"/>
	<path fill="#BFBEBE" d="M365.893 491.192C386.346 490.783 406.857 491.084 427.317 490.994C419.698 497.711 412.931 505.629 405.776 512.855Q386.289 532.634 365.814 551.388L365.893 491.192Z"/>
	<path fill="#FEFEFE" d="M427.317 490.994Q436.06 490.77 444.804 490.901L445.035 587.409L365.789 587.344C365.775 575.362 365.661 563.368 365.814 551.388Q386.289 532.634 405.776 512.855C412.931 505.629 419.698 497.711 427.317 490.994Z"/>
	<path fill="#0B0B0B" d="M363.748 607.686C374.152 608.721 385.267 607.937 395.764 607.93L456.873 607.937L669.292 607.959C669.597 630.852 669.38 653.778 669.376 676.673C669.375 688.947 670.156 701.784 669.313 714.002C669.212 715.464 668.942 715.919 667.825 716.811C645.638 717.142 623.414 716.79 601.222 716.8L458.471 716.825L395.552 716.888C385.111 716.907 373.409 717.934 363.119 716.446C362.382 714.84 362.283 713.12 362.22 711.372C361.983 704.746 362.299 698.027 362.296 691.392L362.195 652.173L362.239 624.512C362.251 619.986 361.978 615.213 362.353 610.711C362.481 609.184 362.545 608.645 363.748 607.686Z"/>
	<path fill="#BFBEBE" d="M586.447 611.423L653.556 611.376C645.641 621.008 636.691 629.647 627.868 638.431L586.478 679.139L586.447 611.423Z"/>
	<path fill="#FEFEFE" d="M365.692 611.495Q386.134 611.317 406.575 611.478L406.511 713.509L365.566 713.558L365.692 611.495Z"/>
	<path fill="#FEFEFE" d="M653.556 611.376C657.679 611.395 661.845 611.287 665.96 611.491L665.936 713.474L586.483 713.378L586.478 679.139L627.868 638.431C636.691 629.647 645.641 621.008 653.556 611.376Z"/>
	<path fill="#FEFEFE" d="M498.557 611.506L583.024 611.468L583.047 713.367L498.498 713.39L498.557 611.506Z"/>
	<path fill="#FEFEFE" d="M410.065 611.534L495.099 611.505L495.144 713.411L410.02 713.463L410.065 611.534Z"/>
</svg>
