<?xml version="1.0" encoding="utf-8" ?>
<svg xmlns="http://www.w3.org/2000/svg" xmlns:xlink="http://www.w3.org/1999/xlink" width="1024" height="1024">
	<path fill="white" d="M0 0L1024 0L1024 1024L0 1024L0 0Z"/>
	<path d="M892.544 465.654C898.352 466.056 904.22 465.922 910.041 465.944L910.124 483.09Q901.327 483.105 892.53 483.217L892.544 465.654Z"/>
	<path fill="white" d="M138.846 806.953C140.184 807.088 141.624 807.176 142.656 808.158C145.229 810.605 144.24 818.285 144.378 821.756C148.627 821.751 153.255 821.302 157.274 822.897C158.946 823.56 159.933 824.4 160.63 826.051C160.414 826.852 160.241 827.362 159.595 827.941C155.935 831.225 149.092 830.564 144.468 830.589C144.433 833.358 144.653 836.135 144.539 838.903C144.41 842.018 143.797 843.685 141.512 845.805C139.818 845.624 138.662 845.398 137.457 844.104C134.865 841.32 135.937 833.977 136.027 830.492C131.993 830.446 124.352 831.679 121.013 829.354C120.065 828.693 119.36 827.688 119.333 826.496C119.303 825.162 119.875 824.209 120.835 823.355C123.612 820.884 132.193 821.921 135.766 821.98C135.795 818.28 135.227 813.972 136.07 810.387C136.527 808.442 137.234 807.905 138.846 806.953Z"/>
	<path fill="white" d="M787.058 92.923C788.572 93.1897 789.854 93.4014 790.98 94.5533C793.509 97.1429 792.162 104.064 792.009 107.477C795.657 107.492 802.248 106.244 805.237 108.742C806.272 109.607 806.633 110.828 806.606 112.128C806.579 113.462 806.209 114.559 805.122 115.417C802.293 117.648 795.922 116.696 792.517 116.603C792.455 119.79 793.138 123.959 792.212 126.99C791.622 128.917 790.604 129.352 788.969 130.285C787.589 130.012 785.931 129.785 784.829 128.844C782.212 126.609 783.378 119.778 783.442 116.647C779.219 116.679 774.75 117.099 770.829 115.238C769.355 114.538 768.377 113.701 767.82 112.141C768.1 111.133 768.041 110.962 768.829 110.171C772.407 106.58 778.475 107.336 783.11 107.45C783.099 104.117 782.405 100.117 783.274 96.8998C783.881 94.6508 785.135 93.9626 787.058 92.923Z"/>
	<path d="M788.584 187.906C772.979 175.457 757.332 163.21 740.637 152.224C704.782 128.63 662.414 108.947 621.087 97.305C616.969 96.1451 610.047 94.8597 607.373 91.2435C606.59 90.1844 606.426 89.6003 606.68 88.339C607.831 87.4502 608.84 87.1264 610.275 87.013C617.183 86.4669 631.315 92.1821 638.192 94.4792Q643.676 96.3136 649.113 98.2815Q654.551 100.249 659.938 102.35Q665.326 104.45 670.66 106.682Q675.995 108.913 681.273 111.275Q686.552 113.636 691.771 116.126Q696.99 118.616 702.146 121.232Q707.303 123.849 712.394 126.591Q717.485 129.333 722.508 132.199Q727.53 135.065 732.481 138.052Q737.432 141.04 742.308 144.148Q747.184 147.256 751.983 150.482Q756.782 153.709 761.5 157.052Q766.219 160.394 770.854 163.851Q775.489 167.309 780.038 170.878Q784.588 174.448 789.048 178.127Q793.509 181.807 797.878 185.595C795.289 186.374 791.227 188.136 788.584 187.906Z"/>
	<path fill="white" d="M839.163 137.742Q842.871 150.528 846.295 163.393C847.674 168.483 849.402 173.776 850.246 178.977L894.659 190.053Q872.344 196.74 850.208 204C848.819 210.325 847.17 216.716 846.182 223.11C844.905 226.637 842.786 235.714 839.972 237.868L838.874 237.428C838.271 234.888 836.95 232.244 836.046 229.78C834.49 225.536 833.313 221.328 832.362 216.911C832.742 214.512 830.982 210.501 830.247 208.163C830.504 206.766 830.674 206.429 830.144 205.137C825.215 202.374 817.559 201.274 812.034 199.615C801.268 196.381 790.47 192.898 779.769 189.444C782.673 188.798 785.654 188.428 788.584 187.906C791.227 188.136 795.289 186.374 797.878 185.595C808.183 183.591 818.525 181.568 828.709 179.011C832.078 165.322 834.973 151.187 839.163 137.742Z"/>
	<path d="M830.247 208.163C830.982 210.501 832.742 214.512 832.362 216.911C833.313 221.328 834.49 225.536 836.046 229.78C836.95 232.244 838.271 234.888 838.874 237.428L839.972 237.868C842.786 235.714 844.905 226.637 846.182 223.11C846.26 223.26 846.336 223.41 846.416 223.558C851.015 232.041 859.203 239.578 865.25 247.163C875.921 260.548 886.176 275.067 894.85 289.834C911.811 318.707 926.503 348.63 937.138 380.446C959.106 446.166 963.448 521.255 951.825 589.482C948.899 606.653 944.635 623.376 939.852 640.116C932.116 667.196 920.208 693.897 907.01 718.727C903.818 724.734 900.494 731.654 896.163 736.889C893.859 735.66 891.512 734.491 889.355 733.012C901.982 711.069 913.429 689.02 922.52 665.328Q923.989 661.415 925.382 657.474Q926.774 653.533 928.089 649.565Q929.405 645.598 930.642 641.605Q931.88 637.613 933.039 633.597Q934.199 629.581 935.279 625.544Q936.36 621.506 937.362 617.448Q938.364 613.39 939.286 609.313Q940.208 605.236 941.051 601.142Q941.893 597.048 942.656 592.938Q943.418 588.829 944.1 584.705Q944.782 580.581 945.383 576.445Q945.985 572.308 946.505 568.161Q947.026 564.014 947.465 559.857Q947.904 555.7 948.262 551.536Q948.62 547.371 948.897 543.201Q949.174 539.03 949.369 534.855Q949.565 530.679 949.678 526.501Q949.792 522.323 949.824 518.143Q949.856 513.963 949.807 509.784Q949.757 505.604 949.626 501.427Q949.495 497.249 949.282 493.074Q949.069 488.9 948.775 484.73Q948.481 480.561 948.106 476.398Q947.73 472.235 947.273 468.08Q946.817 463.925 946.279 459.78Q945.741 455.635 945.122 451.501Q944.504 447.368 943.805 443.247Q943.106 439.126 942.326 435.019Q941.547 430.913 940.687 426.822Q939.827 422.732 938.888 418.659Q937.949 414.586 936.93 410.532Q935.912 406.478 934.814 402.445Q932.415 393.649 929.636 384.966Q926.858 376.283 923.703 367.728Q920.549 359.174 917.026 350.765Q913.503 342.357 909.617 334.109Q905.731 325.862 901.49 317.791Q897.249 309.72 892.661 301.842Q888.073 293.963 883.147 286.291Q878.221 278.62 872.965 271.17Q865.684 260.702 857.786 250.692C854.421 246.442 850.676 242.313 847.642 237.827C842.848 243.445 837.583 248.636 832.401 253.893C841.441 273.921 843.713 294.249 835.791 315.19C828.594 334.214 813.125 349.357 794.689 357.595Q793.103 358.318 791.483 358.96Q789.862 359.602 788.212 360.162Q786.561 360.722 784.884 361.198Q783.208 361.674 781.509 362.065Q779.811 362.457 778.095 362.762Q776.379 363.067 774.649 363.286Q772.92 363.505 771.182 363.636Q769.444 363.767 767.702 363.811Q765.959 363.855 764.217 363.811Q762.474 363.767 760.736 363.636Q758.998 363.505 757.269 363.286Q755.54 363.067 753.824 362.762Q752.108 362.457 750.409 362.065Q748.711 361.674 747.034 361.198Q745.358 360.722 743.707 360.162Q742.056 359.602 740.436 358.96Q738.774 358.314 737.146 357.587Q735.518 356.859 733.928 356.052Q732.339 355.244 730.791 354.359Q729.244 353.474 727.742 352.512Q726.24 351.551 724.788 350.517Q723.336 349.482 721.937 348.376Q720.538 347.271 719.196 346.097Q717.853 344.924 716.571 343.685Q715.289 342.446 714.07 341.145Q712.85 339.844 711.697 338.484Q710.544 337.124 709.46 335.708Q708.376 334.292 707.364 332.825Q706.352 331.357 705.413 329.841Q704.475 328.324 703.613 326.763Q702.752 325.202 701.969 323.601Q701.186 321.999 700.483 320.36Q699.806 318.765 699.207 317.139Q698.609 315.513 698.09 313.86Q697.572 312.207 697.135 310.531Q696.698 308.854 696.344 307.158Q695.989 305.462 695.718 303.751Q695.447 302.04 695.26 300.317Q695.073 298.595 694.97 296.865Q694.867 295.136 694.849 293.403Q694.831 291.671 694.898 289.94Q694.964 288.208 695.116 286.482Q695.267 284.756 695.502 283.04Q695.738 281.323 696.057 279.62Q696.376 277.917 696.778 276.232Q697.18 274.547 697.663 272.883Q698.147 271.219 698.712 269.581Q699.276 267.943 699.92 266.335C706.529 250.069 720.691 234.993 737.067 228.323C752.871 221.885 771.685 220.087 787.869 226.278L782.696 231.886C763.069 228.358 745.557 229.788 728.849 241.476Q727.571 242.363 726.339 243.313Q725.107 244.263 723.923 245.273Q722.74 246.283 721.608 247.35Q720.476 248.417 719.399 249.54Q718.322 250.662 717.301 251.837Q716.281 253.012 715.321 254.235Q714.36 255.459 713.462 256.729Q712.563 257.999 711.729 259.313Q710.895 260.626 710.127 261.979Q709.359 263.332 708.66 264.722Q707.96 266.111 707.331 267.534Q706.701 268.956 706.143 270.409Q705.585 271.861 705.099 273.339Q704.614 274.817 704.203 276.318Q703.792 277.818 703.456 279.337Q703.12 280.856 702.86 282.39C700 298.828 704.273 315.545 713.975 329.03Q714.935 330.363 715.96 331.647Q716.985 332.931 718.074 334.161Q719.162 335.392 720.31 336.567Q721.459 337.742 722.664 338.857Q723.87 339.973 725.13 341.027Q726.39 342.082 727.702 343.071Q729.013 344.061 730.372 344.984Q731.731 345.907 733.135 346.761Q734.538 347.614 735.983 348.397Q737.427 349.179 738.909 349.889Q740.391 350.598 741.906 351.232Q743.422 351.866 744.967 352.424Q746.513 352.982 748.084 353.461Q749.655 353.941 751.249 354.341Q752.842 354.742 754.453 355.062Q756.065 355.382 757.69 355.621C764.728 356.723 771.255 356.336 778.247 355.154C774.515 350.969 769.456 345.485 767.744 340.044C767.538 339.39 767.154 339.272 766.621 338.861Q763.04 338.811 759.477 338.455C747.635 337.24 736.792 330.727 729.387 321.538C721.87 312.209 717.958 300.058 719.299 288.083C720.629 276.203 726.674 264.489 736.05 257Q736.938 256.296 737.859 255.636Q738.781 254.977 739.734 254.363Q740.687 253.749 741.669 253.183Q742.65 252.617 743.659 252.1Q744.667 251.583 745.7 251.117Q746.733 250.65 747.787 250.234Q748.841 249.819 749.915 249.456Q750.988 249.093 752.078 248.783Q753.168 248.473 754.272 248.217Q755.376 247.961 756.491 247.759Q757.607 247.558 758.73 247.412Q759.854 247.265 760.984 247.174Q762.113 247.084 763.246 247.048Q764.379 247.013 765.512 247.034Q766.645 247.054 767.776 247.13Q768.906 247.206 770.032 247.338C767.89 249.521 765.796 251.615 764.242 254.277C755.379 254.912 747.157 257.621 740.224 263.299Q739.507 263.891 738.82 264.517Q738.134 265.144 737.479 265.804Q736.825 266.465 736.204 267.157Q735.583 267.849 734.998 268.571Q734.413 269.294 733.865 270.045Q733.316 270.795 732.806 271.572Q732.296 272.35 731.825 273.151Q731.354 273.953 730.925 274.777Q730.495 275.602 730.106 276.446Q729.718 277.291 729.373 278.154Q729.027 279.017 728.725 279.897Q728.423 280.776 728.166 281.669Q727.908 282.563 727.696 283.468Q727.483 284.373 727.316 285.287Q727.149 286.202 727.028 287.124Q726.907 288.045 726.832 288.972Q726.752 289.938 726.719 290.907Q726.686 291.876 726.7 292.845Q726.715 293.814 726.777 294.782Q726.839 295.749 726.948 296.713Q727.057 297.676 727.214 298.633Q727.37 299.589 727.573 300.537Q727.775 301.485 728.024 302.422Q728.273 303.359 728.568 304.283Q728.862 305.206 729.202 306.114Q729.541 307.022 729.924 307.913Q730.308 308.803 730.734 309.674Q731.161 310.544 731.629 311.393Q732.098 312.242 732.607 313.066Q733.117 313.891 733.666 314.69Q734.215 315.489 734.803 316.26Q735.39 317.031 736.015 317.772C742.425 325.266 752.14 330.191 761.967 331.016C762.733 330.999 763.51 331.001 764.273 330.945C765.644 330.844 765.684 330.925 766.557 329.934C766.429 327.288 763.919 324.257 762.5 321.939C762.409 319.066 762.57 316.195 762.682 313.324C759.319 312.482 756.248 311.377 753.387 309.372Q752.988 309.096 752.603 308.801Q752.218 308.506 751.849 308.192Q751.479 307.879 751.125 307.547Q750.772 307.215 750.435 306.866Q750.098 306.516 749.779 306.151Q749.461 305.785 749.161 305.405Q748.86 305.024 748.579 304.628Q748.299 304.233 748.038 303.824Q747.777 303.415 747.537 302.994Q747.297 302.572 747.078 302.139Q746.859 301.707 746.662 301.263Q746.465 300.82 746.291 300.368Q746.116 299.915 745.964 299.455Q745.812 298.994 745.684 298.527Q745.555 298.059 745.45 297.585Q745.344 297.112 745.263 296.634Q745.168 296.118 745.099 295.598Q745.031 295.078 744.988 294.555Q744.946 294.032 744.931 293.508Q744.915 292.983 744.926 292.459Q744.937 291.935 744.975 291.411Q745.013 290.888 745.077 290.367Q745.142 289.847 745.233 289.33Q745.323 288.814 745.44 288.302Q745.557 287.791 745.7 287.286Q745.843 286.781 746.011 286.284Q746.179 285.787 746.372 285.3Q746.566 284.812 746.784 284.335Q747.001 283.858 747.243 283.392Q747.485 282.927 747.75 282.474Q748.016 282.021 748.303 281.583Q748.591 281.144 748.901 280.721C753.121 274.958 758.779 272.943 765.518 271.823C786.736 250.258 808.866 229.572 830.247 208.163Z"/>
	<path fill="white" d="M762.682 313.324C769.433 313.858 775.112 313.608 780.504 308.922C785.094 304.932 787.359 299.462 791.221 294.931C795.991 289.336 801.746 284.327 806.848 279.016C809.265 290.847 807.914 301.712 801.175 311.931C794.841 321.538 785.433 328.335 774.092 330.599C770.23 331.37 765.836 331.847 761.967 331.016C762.733 330.999 763.51 331.001 764.273 330.945C765.644 330.844 765.684 330.925 766.557 329.934C766.429 327.288 763.919 324.257 762.5 321.939C762.409 319.066 762.57 316.195 762.682 313.324Z"/>
	<path fill="white" d="M813.175 273.079L826.336 259.286C833.984 275.217 835.457 293.415 829.516 310.199Q828.938 311.801 828.283 313.373Q827.629 314.945 826.898 316.483Q826.168 318.022 825.365 319.523Q824.561 321.024 823.685 322.485Q822.81 323.945 821.865 325.362Q820.919 326.778 819.907 328.147Q818.894 329.516 817.816 330.835Q816.738 332.153 815.598 333.418Q814.458 334.683 813.257 335.891Q812.057 337.099 810.8 338.247Q809.542 339.396 808.231 340.482Q806.92 341.568 805.557 342.589Q804.194 343.611 802.784 344.565Q801.374 345.519 799.919 346.404Q798.464 347.289 796.968 348.103Q795.472 348.916 793.938 349.656C788.89 352.044 783.613 353.654 778.247 355.154C774.515 350.969 769.456 345.485 767.744 340.044C767.538 339.39 767.154 339.272 766.621 338.861C781.449 337.564 794.041 332.293 803.827 320.761Q804.626 319.825 805.377 318.85Q806.129 317.875 806.83 316.863Q807.532 315.852 808.182 314.807Q808.833 313.762 809.43 312.685Q810.027 311.609 810.57 310.504Q811.112 309.399 811.599 308.269Q812.086 307.138 812.515 305.985Q812.945 304.831 813.316 303.658Q813.688 302.484 814 301.293Q814.312 300.103 814.565 298.898Q814.817 297.693 815.009 296.477Q815.201 295.262 815.332 294.038Q815.463 292.814 815.532 291.585Q815.602 290.356 815.61 289.125Q815.618 287.894 815.564 286.664Q815.511 285.435 815.396 284.209C815.077 280.458 814.283 276.676 813.175 273.079Z"/>
	<path d="M832.362 216.911C833.313 221.328 834.49 225.536 836.046 229.78C836.95 232.244 838.271 234.888 838.874 237.428C836.272 238.75 791.599 283.441 786.215 289.502C782.743 293.41 780.657 298.805 777.085 302.332Q776.469 302.945 775.78 303.477Q775.092 304.008 774.343 304.448Q773.593 304.889 772.794 305.232Q771.996 305.576 771.16 305.816C767.077 307.015 762.69 306.312 759.062 304.135C755.662 302.096 752.971 298.794 752.11 294.881C751.441 291.837 751.944 288.735 753.653 286.115C757.488 280.236 763.381 279.84 769.529 278.359C775.465 272.783 780.965 266.667 786.727 260.905C794.506 253.128 802.522 245.591 810.298 237.806C817.399 230.697 824.351 223.002 832.362 216.911Z"/>
	<path d="M388.949 173.648C391.976 140.722 406.843 111.525 432.269 90.3432Q433.444 89.354 434.642 88.3942Q435.841 87.4344 437.063 86.5047Q438.285 85.5749 439.53 84.6758Q440.775 83.7767 442.042 82.9088Q443.309 82.0409 444.597 81.2046Q445.885 80.3684 447.193 79.5644Q448.501 78.7604 449.829 77.9891Q451.157 77.2179 452.503 76.4798Q453.85 75.7417 455.215 75.0373Q456.579 74.3329 457.961 73.6625Q459.342 72.9922 460.74 72.3563Q462.138 71.7205 463.551 71.1195Q464.964 70.5186 466.392 69.9529Q467.819 69.3872 469.26 68.8571Q470.702 68.327 472.156 67.8328Q473.61 67.3387 475.075 66.8808Q476.541 66.4228 478.018 66.0014Q479.494 65.58 480.981 65.1954Q482.468 64.8108 483.963 64.4632Q485.459 64.1156 486.963 63.8053Q488.467 63.4949 489.978 63.222Q491.489 62.949 493.007 62.7137Q494.524 62.4783 496.047 62.2807Q497.57 62.0831 499.097 61.9234Q500.624 61.7636 502.155 61.6418Q503.686 61.52 505.219 61.4363Q506.753 61.3525 508.288 61.3068Q509.822 61.2611 511.358 61.2536Q512.894 61.246 514.429 61.2766Q515.964 61.3071 517.498 61.3758Q519.032 61.4444 520.564 61.5511Q522.096 61.6578 523.625 61.8025Q525.133 61.9562 526.637 62.1466Q528.14 62.3371 529.639 62.5642Q531.138 62.7913 532.63 63.055Q534.123 63.3186 535.609 63.6186Q537.094 63.9186 538.572 64.2548Q540.05 64.591 541.519 64.9631Q542.989 65.3353 544.448 65.7432Q545.908 66.1512 547.358 66.5946Q548.807 67.0381 550.245 67.5168Q551.683 67.9955 553.109 68.5091Q554.535 69.0228 555.948 69.5712Q557.362 70.1195 558.761 70.7022Q560.16 71.2848 561.545 71.9015Q562.929 72.5182 564.298 73.1685Q565.667 73.8187 567.02 74.5023Q568.373 75.1858 569.709 75.9021Q571.045 76.6185 572.362 77.3672Q573.68 78.116 574.979 78.8967Q576.279 79.6774 577.558 80.4895Q578.838 81.3017 580.098 82.1449Q581.357 82.9881 582.596 83.8618Q583.834 84.7355 585.051 85.6391Q586.268 86.5428 587.463 87.4759Q588.657 88.409 589.828 89.371Q591 90.333 592.147 91.3233Q593.295 92.3136 594.418 93.3316Q595.541 94.3497 596.638 95.3948Q597.736 96.44 598.808 97.5116Q599.88 98.5832 600.925 99.6807Q601.971 100.778 602.989 101.901Q604.007 103.024 604.998 104.171Q605.989 105.318 606.951 106.489Q608.429 108.289 609.839 110.143Q611.249 111.997 612.588 113.902Q613.927 115.808 615.194 117.762Q616.461 119.716 617.654 121.717Q618.847 123.717 619.964 125.761Q621.082 127.804 622.122 129.888Q623.162 131.972 624.123 134.094Q625.084 136.215 625.965 138.371Q626.846 140.527 627.646 142.715Q628.446 144.902 629.163 147.118Q629.88 149.334 630.514 151.575Q631.148 153.816 631.697 156.08Q632.247 158.343 632.711 160.625Q633.176 162.908 633.554 165.206Q633.933 167.504 634.225 169.814Q634.517 172.125 634.723 174.445C657.466 181.499 680.274 192.771 701.378 203.742C706.09 206.191 711.731 208.538 715.816 211.924C743.069 197.516 767.304 194.762 796.779 203.882C799.652 204.77 802.116 205.606 804.026 208.034C804.296 209.331 804.287 209.413 803.759 210.629C802.044 211.982 800.286 212.454 798.097 212.103C795.804 211.735 793.349 210.487 791.106 209.764Q786.126 208.212 781.006 207.217C758.882 202.776 736.012 207.753 717.18 220.134C697.469 233.092 683.847 252.726 679.209 275.838C674.822 297.7 679.342 321.738 691.905 340.248C705.353 360.062 727.277 375.085 750.907 379.448C773.494 383.618 798.411 378.067 817.229 364.964C830.95 355.41 843.473 340.518 849.94 325.043C851.734 320.751 853.679 310.838 858.702 309.586C859.863 310.256 860.152 310.879 860.471 312.192C862.807 321.814 850.684 339.383 845.663 347.437C851.171 358.62 857.02 369.628 861.912 381.105C866.706 392.354 870.465 404.116 873.925 415.833C876.403 424.227 878.814 432.656 880.039 441.339L887.438 441.38L887.457 459.481C887.185 468.373 890.036 481.914 888.001 489.805C887.586 495.787 887.975 501.751 887.684 507.716C886.509 561.977 875.664 616.91 852.29 666.046C849.88 671.111 848.043 676.409 845.261 681.293L844.076 682.063C854.979 697.774 867.377 712.627 878.804 727.981C884.882 736.147 890.429 744.692 896.379 752.951C905.756 765.966 915.534 778.728 925.097 791.611C932.139 801.096 939.371 810.43 946.346 819.967C949.349 824.073 953.039 828.413 955.284 832.965C956.598 835.628 956.75 840.403 956.554 843.273Q956.515 843.872 956.445 844.468Q956.375 845.064 956.276 845.656Q956.176 846.247 956.046 846.833Q955.917 847.419 955.758 847.998Q955.599 848.577 955.41 849.146Q955.222 849.716 955.005 850.276Q954.788 850.835 954.543 851.383Q954.298 851.931 954.026 852.466Q953.753 853 953.454 853.521Q953.155 854.041 952.83 854.545Q952.504 855.05 952.154 855.537Q951.803 856.024 951.429 856.493Q951.054 856.962 950.656 857.411Q950.258 857.86 949.838 858.289Q949.418 858.717 948.977 859.124Q948.535 859.53 948.074 859.914C943.197 863.985 936.798 865.579 930.529 864.765Q929.789 864.671 929.058 864.526Q928.327 864.38 927.607 864.185Q926.888 863.989 926.184 863.743Q925.48 863.498 924.795 863.204Q924.11 862.91 923.447 862.569Q922.784 862.228 922.146 861.842Q921.508 861.456 920.899 861.026Q920.29 860.596 919.712 860.125C912.348 854.218 901.266 837.534 894.986 829.348C894.724 841.512 895.038 853.703 894.672 865.864C894.501 871.532 893.46 877.397 889.041 881.345Q887.906 882.362 886.624 883.187Q885.342 884.011 883.946 884.622C881.627 885.643 879.046 885.927 876.542 886.114C865.918 886.907 854.885 886.374 844.211 886.379L779.707 886.405C774.168 886.442 767.607 885.186 762.245 886.217C756.527 887.316 736.721 900.253 730.428 903.766Q720.758 909.078 710.856 913.945Q704.617 917.045 698.283 919.95Q691.95 922.854 685.53 925.56Q679.109 928.266 672.608 930.769Q666.106 933.273 659.529 935.574Q652.952 937.873 646.307 939.967Q639.662 942.061 632.954 943.947Q626.247 945.832 619.484 947.507Q612.721 949.183 605.91 950.647Q599.098 952.11 592.244 953.361Q585.389 954.611 578.5 955.647Q571.61 956.683 564.691 957.504Q557.772 958.325 550.831 958.93Q543.89 959.534 536.933 959.922Q529.977 960.31 523.012 960.48Q516.047 960.651 509.079 960.604Q502.112 960.558 495.15 960.294C393.978 956.26 294.364 917.731 220.249 847.921Q202.529 831.291 186.886 812.693C181.104 805.755 175.965 798.081 169.804 791.495L169.293 790.953L101.287 791.135C90.8359 791.172 80.828 791.233 72.9063 783.248C69.0926 779.404 66.0379 774.226 65.0484 768.852C64.0518 763.439 64.5076 757.206 64.4899 751.696L64.4572 722.703L64.2671 626.621C64.3038 616.901 66.9622 609.672 73.8953 602.814C71.4578 584.274 68.0708 566.19 66.7667 547.463C60.0933 451.632 82.742 355.841 137.178 276.057C147.999 260.198 160.104 245.508 172.686 231.047C172.693 224.883 171.322 192.034 174.054 189.191C180.832 186.931 208.047 188.014 216.939 188.005Q221.368 184.027 225.903 180.17Q230.438 176.313 235.075 172.58Q239.713 168.848 244.45 165.242Q249.187 161.636 254.02 158.159Q258.853 154.683 263.778 151.339Q268.703 147.995 273.717 144.785Q278.731 141.575 283.83 138.502Q288.928 135.429 294.109 132.495Q299.289 129.562 304.546 126.769Q309.804 123.976 315.135 121.327Q320.467 118.678 325.868 116.174Q331.269 113.67 336.736 111.313Q342.203 108.956 347.731 106.748Q353.26 104.54 358.846 102.483Q364.432 100.425 370.072 98.5192Q375.712 96.6135 381.402 94.8611C387.231 93.1016 411.112 84.9157 415.797 87.794C416.567 88.2666 416.452 88.5008 416.683 89.2951C415.493 93.7634 409.468 95.0991 405.586 96.0758C340.09 112.553 280.673 144.571 229.084 187.966L281.994 187.994C290.052 187.988 310.141 186.882 316.808 188.764C319.175 192.248 318.084 201.886 318.137 206.076C325.825 204.002 335.647 196.986 343.169 193.273C358.005 185.95 373.369 179.22 388.949 173.648Z"/>
	<path d="M286.975 783.318C288.021 782.478 288.105 782.059 289.495 782.073C289.602 782.476 289.758 782.893 289.767 783.309C289.297 785.807 289.754 788.026 290.144 790.499L286.596 790.839C287.076 788.31 287.007 785.877 286.975 783.318Z"/>
	<path fill="white" d="M839.668 689.411C839.875 689.606 840.091 689.791 840.289 689.995C841.21 690.949 841.656 691.471 841.654 692.778C834.547 700.739 825.119 707.628 816.926 714.54C815.883 713.65 815.511 713.476 815.11 712.189C816.787 709.887 819.877 707.958 822.095 706.14C828.245 701.1 834.938 695.85 839.668 689.411Z"/>
	<path d="M774.406 723.9C780.57 723.388 786.571 722.658 792.63 721.361L792.674 746.528L778.616 746.481C778.823 739.331 779.679 731.463 778.8 724.396C777.391 723.884 775.895 723.965 774.406 723.9Z"/>
	<path d="M761.728 722.715C765.963 723.4 770.125 723.686 774.406 723.9C775.895 723.965 777.391 723.884 778.8 724.396C779.679 731.463 778.823 739.331 778.616 746.481Q770.102 746.518 761.591 746.259Q761.563 734.486 761.728 722.715Z"/>
	<path d="M795.158 578.836C813.134 583.711 827.768 595.391 837.09 611.549C844.399 624.217 845.595 636.816 844.987 651.091L844.224 652.029C842.58 648 841.866 640.854 840.539 636.233C835.423 618.425 826.121 603.987 812.584 591.353C809.904 588.851 807.004 586.114 803.941 584.103C801.519 582.513 796.683 581.08 795.158 578.836Z"/>
	<path fill="white" d="M807.516 715.934C810.717 716.565 827.754 741.927 830.892 746.554L823.978 746.498L800.662 746.458L800.684 719.449C803.053 718.443 805.268 717.181 807.516 715.934Z"/>
	<path fill="white" d="M501.572 410.51L501.506 344.304C501.48 331.78 500.98 319.043 501.617 306.543C502.656 305.687 503.762 305.955 505.077 305.918L507.456 306.683C508.576 309.023 508.113 396.145 508.418 407.568C506.147 408.826 504.028 409.692 501.572 410.51Z"/>
	<path fill="white" d="M654.392 434.183C657.887 435.724 661.244 437.505 664.373 439.705C678.419 449.578 684.386 463.478 687.323 479.886L654.277 479.989C654.69 464.758 654.359 449.426 654.392 434.183Z"/>
	<path fill="white" d="M687.323 479.886C688.044 494.153 682.972 509.046 673.337 519.645Q672.348 520.751 671.301 521.801Q670.253 522.85 669.149 523.841Q668.045 524.832 666.888 525.76Q665.731 526.688 664.525 527.552Q663.319 528.415 662.068 529.211Q660.816 530.007 659.523 530.733Q658.229 531.459 656.898 532.113Q655.566 532.766 654.201 533.346C654.343 515.621 653.539 497.669 654.277 479.989L687.323 479.886Z"/>
	<path fill="white" d="M505.077 305.918Q513.607 306.469 522.113 305.623Q522.536 353.084 522.461 400.547L508.418 407.568C508.113 396.145 508.576 309.023 507.456 306.683L505.077 305.918Z"/>
	<path fill="white" d="M646.133 352.895C647.252 366.344 646.395 380.569 646.408 394.094L646.47 473.334L646.276 579.565C646.17 594.6 646.818 609.96 645.935 624.952C643.909 627.6 642.218 629.34 638.776 629.785C636.55 630.072 634.359 629.788 632.629 628.242C629.395 625.352 629.651 619.979 629.618 616.003C629.425 593.129 629.958 570.2 629.414 547.335C633.16 547.779 636.843 548.348 640.549 549.054C641.529 539.82 642.722 530.555 643.918 521.345C644.56 516.398 645.539 511.408 645.819 506.43C646.569 493.044 646.084 479.342 646.114 465.923C646.199 428.304 645.155 390.491 646.133 352.895Z"/>
	<path fill="white" d="M275.945 728.74L296.986 728.602C296.988 735.61 298.805 752.474 293.884 757.359C288.53 762.675 276.991 760.945 270.065 760.8L248.415 760.745L248.415 728.905L275.945 728.74Z"/>
	<path fill="white" d="M248.383 646.086L296.975 646.103Q297.091 661.896 296.874 677.688L248.406 677.711L248.383 646.086Z"/>
	<path fill="white" d="M71.8381 645.992L121.372 645.955L121.386 677.475C104.932 677.809 88.409 677.488 71.948 677.484C71.8028 666.992 71.8727 656.486 71.8381 645.992Z"/>
	<path fill="white" d="M108.482 728.746Q114.89 728.728 121.297 728.785L121.439 760.715L85.75 760.85Q78.8798 760.874 72.0108 760.74L72.0028 728.928L108.482 728.746Z"/>
	<path fill="white" d="M189.025 645.946C206.495 645.706 224.004 645.84 241.475 645.945L241.463 677.713Q215.239 677.769 189.015 677.521L189.025 645.946Z"/>
	<path fill="white" d="M189.328 729.018C206.631 728.788 223.951 728.916 241.256 728.893Q241.396 744.902 241.324 760.912L189.188 760.985C188.955 750.375 188.913 739.622 189.328 729.018Z"/>
	<path fill="white" d="M127.91 645.963L182.504 645.998L182.49 677.591L127.998 677.503L127.91 645.963Z"/>
	<path fill="white" d="M128.049 728.728C146.184 728.56 164.341 728.772 182.478 728.799L182.485 760.91L127.972 760.87Q127.837 744.798 128.049 728.728Z"/>
	<path fill="white" d="M620.411 715.31C623.281 715.296 644.316 714.362 645.715 715.914C646.925 717.256 647.142 719.943 647.278 721.67C647.7 727.022 647.354 732.591 647.358 737.966Q647.336 754.212 647.506 770.457C638.055 777.063 629.463 784.634 620.333 791.648C619.134 784.143 620.005 775.171 620.03 767.534Q619.979 741.42 620.411 715.31Z"/>
	<path fill="white" d="M248.358 684.878L296.94 684.91L296.991 721.727C280.829 722.052 264.592 721.696 248.422 721.664L248.358 684.878Z"/>
	<path fill="white" d="M784.887 576.223C788.364 576.815 791.927 577.355 795.158 578.836C796.683 581.08 801.519 582.513 803.941 584.103C807.004 586.114 809.904 588.851 812.584 591.353C826.121 603.987 835.423 618.425 840.539 636.233C841.866 640.854 842.58 648 844.224 652.029L844.987 651.091C841.468 673.046 832.653 689.722 814.402 702.879C809.816 706.185 804.995 709.126 799.706 711.157C797.027 712.186 794.053 712.959 791.495 714.226C789.26 710.214 787.205 706.195 785.314 702.01C792.732 700.391 799.715 697.792 806.163 693.728C819.274 685.464 827.448 672.4 830.801 657.408Q831.127 655.99 831.382 654.557Q831.636 653.124 831.819 651.68Q832.001 650.236 832.11 648.785Q832.219 647.333 832.255 645.878Q832.291 644.423 832.253 642.968Q832.216 641.514 832.105 640.062Q831.994 638.611 831.811 637.167Q831.627 635.724 831.371 634.291Q831.115 632.858 830.787 631.44Q830.459 630.022 830.06 628.623Q829.661 627.223 829.192 625.845Q828.723 624.467 828.185 623.115Q827.648 621.763 827.042 620.439Q826.437 619.115 825.766 617.824Q825.095 616.532 824.36 615.276Q823.625 614.02 822.827 612.803C813.745 598.684 800.283 590.859 784.167 587.265L784.82 586.683C785.3 583.277 784.985 579.661 784.887 576.223Z"/>
	<path fill="white" d="M333.367 465.01L365.156 465.049L365.045 522.02L333.438 522.047Q333.247 493.529 333.367 465.01Z"/>
	<path d="M342.665 489.456C346.957 489.379 356.666 488.125 359.969 490.57C360.525 490.981 361.127 491.736 361.241 492.442C361.559 494.407 360.603 496.454 359.466 497.991C355.746 498.178 344.617 499.477 341.794 497.102C341.075 496.498 340.666 496.046 340.536 495.112C340.222 492.851 341.444 491.234 342.665 489.456Z"/>
	<path d="M354.653 505.742C355.82 505.717 357.49 505.545 358.549 506.089C359.868 506.768 361.121 509.147 361.255 510.589C361.353 511.644 361.094 512.595 360.292 513.33C357.764 515.648 350.286 514.708 346.875 514.669C345.215 514.705 343.927 514.85 342.449 513.947C341.536 512.847 340.551 511.633 340.43 510.14C340.335 508.973 340.776 507.96 341.634 507.181C344.127 504.918 351.328 505.73 354.653 505.742Z"/>
	<path d="M342.808 472.175C348.72 472.069 354.732 471.911 360.628 472.383C360.847 475.556 361.527 478.635 359.378 481.245C355.275 481.577 345.163 482.685 342.113 480.142C341.503 479.634 341.002 478.892 340.896 478.102C340.606 475.93 341.692 473.949 342.808 472.175Z"/>
	<path fill="white" d="M72.0129 684.094C88.4419 683.773 104.94 684.168 121.369 684.454Q121.564 703.072 121.348 721.69Q96.6823 721.93 72.0182 721.563L72.0129 684.094Z"/>
	<path fill="white" d="M241.974 603.73C251.488 603.722 275.219 602.699 283.113 604.343Q284.321 604.584 285.482 604.995Q286.643 605.405 287.734 605.977Q288.825 606.549 289.823 607.27Q290.822 607.991 291.707 608.847C298.771 615.811 296.716 629.905 296.653 639.112C273.808 639.032 250.689 640.041 227.883 639.144C232.526 638.786 237.345 639.036 242.009 639.028L241.974 603.73Z"/>
	<path fill="white" d="M189.246 684.726C206.629 684.397 224.069 684.553 241.455 684.661L241.404 721.743Q215.313 721.94 189.222 721.827Q189.084 703.276 189.246 684.726Z"/>
	<path fill="white" d="M127.849 684.491Q155.145 684.376 182.439 684.625L182.401 721.712Q155.151 721.961 127.901 721.673C127.721 709.287 127.858 696.879 127.849 684.491Z"/>
	<path d="M838.456 707.398C841.469 704.774 844.529 702.189 847.467 699.481C858.434 712.982 868.212 727.613 878.485 741.657C889.781 757.1 901.605 772.177 913.011 787.547L933.705 815.229C938.419 821.415 943.757 827.502 947.591 834.281C948.952 836.686 949.448 839.258 949.181 842.007C948.795 845.988 946.892 849.377 944.723 852.637C939.675 839.479 925.115 823.88 916.467 812.274L854.707 730.4C849.074 722.961 844.446 714.518 838.456 707.398Z"/>
	<path fill="white" d="M184.235 550.403C200.459 565.894 217.129 580.845 233.206 596.507L182.398 596.39L133.577 596.641C149.456 580.512 167.087 565.169 184.235 550.403Z"/>
	<path d="M181.754 196.299C189.947 195.82 198.254 196.061 206.462 196.066L246.45 196.1L286.431 196.072C294.416 196.063 302.503 195.813 310.474 196.242L310.802 338.377C310.768 370.234 310.339 402.178 310.975 434.025L299.705 434.067L300.64 196.58C282.527 196.613 264.22 197.223 246.13 196.52C224.749 195.662 203.168 196.519 181.754 196.299Z"/>
	<path d="M791.495 714.226C783.677 715.842 775.883 716.971 767.904 716.036C748.656 713.781 731.612 703.856 719.737 688.617Q718.669 687.252 717.669 685.837Q716.669 684.421 715.74 682.959Q714.81 681.496 713.954 679.989Q713.097 678.483 712.315 676.936Q711.533 675.39 710.828 673.806Q710.123 672.223 709.496 670.608Q708.869 668.992 708.322 667.348Q707.775 665.703 707.309 664.034Q706.843 662.365 706.46 660.675Q706.076 658.985 705.776 657.278Q705.475 655.571 705.259 653.852Q705.042 652.132 704.91 650.404Q704.778 648.676 704.731 646.944Q704.684 645.211 704.722 643.479Q704.759 641.746 704.882 640.017Q705.004 638.289 705.211 636.568Q705.421 634.877 705.714 633.198Q706.007 631.519 706.382 629.857Q706.758 628.194 707.215 626.552Q707.672 624.911 708.21 623.293Q708.747 621.676 709.364 620.088Q709.981 618.499 710.676 616.943Q711.37 615.386 712.141 613.866Q712.912 612.346 713.756 610.866Q714.601 609.386 715.518 607.949Q716.435 606.513 717.422 605.123Q718.408 603.734 719.462 602.395Q720.516 601.055 721.635 599.77Q722.754 598.485 723.935 597.256Q725.117 596.027 726.357 594.859Q727.597 593.69 728.894 592.584Q730.19 591.478 731.54 590.437C747.324 578.189 765.201 573.828 784.887 576.223C784.985 579.661 785.3 583.277 784.82 586.683L784.167 587.265C768.802 584.939 753.183 587.962 740.534 597.269Q739.361 598.147 738.231 599.081Q737.102 600.014 736.02 601.002Q734.937 601.99 733.904 603.029Q732.871 604.068 731.89 605.157Q730.909 606.245 729.982 607.38Q729.055 608.515 728.184 609.693Q727.313 610.872 726.501 612.092Q725.689 613.311 724.937 614.569Q724.185 615.827 723.496 617.12Q722.806 618.413 722.18 619.738Q721.554 621.063 720.994 622.417Q720.433 623.771 719.939 625.15Q719.445 626.53 719.019 627.932Q718.593 629.334 718.235 630.755Q717.878 632.176 717.59 633.613Q717.302 635.05 717.085 636.499C714.855 651.871 718.846 668.368 728.244 680.796C737.215 692.66 751.447 700.705 766.169 702.658C772.273 703.468 779.305 703.421 785.314 702.01C787.205 706.195 789.26 710.214 791.495 714.226Z"/>
	<path d="M591.795 862.052Q609.961 878.97 627.798 896.235C632.873 901.12 639.432 906.283 643.534 911.95C642.931 913.044 642.235 913.24 641.07 913.566C634.202 915.483 625.043 914.493 617.955 914.516L583.144 914.614C559.57 914.676 535.783 915.561 512.23 914.849C520.955 913.347 533.537 914.666 542.787 914.346C546.035 909.04 551.004 904.458 555.346 900.028C566.444 888.705 582.806 874.432 591.795 862.052Z"/>
	<path d="M629.414 547.335C628.875 507.297 629.482 467.165 629.598 427.117L629.952 376.873C629.991 369.57 629.475 362.008 629.839 354.749C629.929 352.942 630.459 351.139 631.441 349.612Q631.68 349.239 631.955 348.892Q632.23 348.544 632.538 348.225Q632.845 347.907 633.183 347.62Q633.52 347.333 633.884 347.08Q634.248 346.828 634.635 346.612Q635.022 346.397 635.429 346.221Q635.835 346.044 636.257 345.909Q636.679 345.773 637.112 345.68C638.999 345.28 640.98 345.551 642.585 346.653C644.726 348.124 645.641 350.444 646.133 352.895C645.155 390.491 646.199 428.304 646.114 465.923C646.084 479.342 646.569 493.044 645.819 506.43C645.539 511.408 644.56 516.398 643.918 521.345C642.722 530.555 641.529 539.82 640.549 549.054C636.843 548.348 633.16 547.779 629.414 547.335Z"/>
	<path fill="white" d="M469.05 544.227C451.791 543.766 434.483 544.025 417.218 544.03C408.72 544.032 399.478 544.762 391.081 543.423Q390.557 543.343 390.039 543.237Q389.52 543.13 389.007 542.997Q388.495 542.865 387.99 542.705Q387.484 542.546 386.988 542.362Q386.492 542.177 386.005 541.967Q385.519 541.757 385.044 541.523Q384.57 541.288 384.108 541.029Q383.645 540.771 383.197 540.489Q382.749 540.207 382.316 539.902Q381.882 539.598 381.465 539.271Q381.048 538.945 380.648 538.598Q380.249 538.25 379.867 537.883Q379.486 537.515 379.124 537.129Q378.762 536.742 378.42 536.338Q378.078 535.933 377.757 535.512Q377.437 535.09 377.138 534.653C374.954 531.521 374.009 527.735 373.487 524.003C372.192 514.745 373.078 502.925 373.022 493.395C372.963 483.246 371.82 463.681 373.36 454.483C373.659 472.077 373.445 489.71 373.536 507.309Q421.305 506.957 469.072 507.505Q469.214 525.866 469.05 544.227Z"/>
	<path d="M838.456 707.398C844.446 714.518 849.074 722.961 854.707 730.4L916.467 812.274C925.115 823.88 939.675 839.479 944.723 852.637C944.239 853.112 943.768 853.568 943.231 853.983C939.76 856.666 935.804 858.031 931.412 857.29C928.792 856.848 925.788 855.665 923.824 853.842C914.868 845.528 902.318 826.681 894.254 816.193C883.579 802.309 873.358 788.108 862.752 774.178C849.246 756.44 835.408 738.983 822.143 721.06C827.637 716.579 833.024 711.954 838.456 707.398Z"/>
	<path d="M436.857 800.782C437.987 790.725 435.334 734.004 437.258 730.121L437.452 878.215C401.324 869.816 366.232 857.208 333.95 838.75C337.723 838.186 342.297 838.767 346.163 838.817Q361.173 838.907 376.173 839.487Q386.913 829.183 397.525 818.747C400.808 815.523 404.248 811.445 407.919 808.716C410.241 806.99 413.039 805.676 415.527 804.185L415.662 803.645L413.268 803.235C420.044 800.073 429.526 800.835 436.857 800.782Z"/>
	<path d="M646.885 781.498C648.309 783.859 647.115 889.85 646.896 903.299C634.808 892.212 623.204 880.541 611.25 869.298Q594.297 853.052 576.905 837.276C582.615 831.671 589.579 826.812 595.848 821.794C612.765 808.251 630.247 795.376 646.885 781.498Z"/>
	<path d="M445.278 776.661C458.136 788.36 471.764 799.231 485.113 810.362C495.766 819.246 506.143 828.501 517.03 837.092C505.418 848.813 493.373 860.103 481.607 871.671C469.526 883.616 457.031 895.213 445.381 907.582C444.355 864.026 444.804 820.225 445.278 776.661Z"/>
	<path fill="white" d="M409.559 551.657C424.304 551.462 439.083 551.623 453.831 551.714C453.78 596.024 463.528 630.743 481.306 670.951L440.388 671.007C422.68 633.962 409.204 593.179 409.559 551.657Z"/>
	<path d="M862.288 787.312C870.733 798.141 879.536 809.063 887.505 820.241C887.48 820.426 887.453 820.61 887.43 820.795C886.16 831.105 889.737 870.642 883.396 875.875C881.371 877.547 878.294 878.175 875.75 878.417C868.335 879.123 860.389 878.488 852.91 878.449L807.322 878.309L762.961 878.306C755.082 878.321 746.499 879.015 738.707 877.996C735.927 877.633 733.577 876.578 731.814 874.324C728.765 870.427 729.262 864.702 729.332 860.043L776.736 860.086C788.741 860.119 801.905 861.275 813.619 858.365C823.233 855.976 832.726 850.646 840.077 844.047C851.506 833.788 859.687 819.332 861.525 803.994C862.185 798.485 861.988 792.853 862.288 787.312Z"/>
	<path d="M634.723 174.445C657.466 181.499 680.274 192.771 701.378 203.742C706.09 206.191 711.731 208.538 715.816 211.924C688.258 230.438 676.288 250.608 669.809 282.814C652.749 269.725 633.298 260.552 613.339 252.848C630.325 230.747 636.147 201.718 634.723 174.445Z"/>
	<path d="M570.531 842.041C577.875 848.437 584.834 855.247 591.795 862.052C582.806 874.432 566.444 888.705 555.346 900.028C551.004 904.458 546.035 909.04 542.787 914.346C533.537 914.666 520.955 913.347 512.23 914.849L475.167 914.897C466.873 914.904 458.414 915.276 450.166 914.326C456.088 907.335 463.55 901.018 470.046 894.495Q496.455 867.952 523.662 842.227C529.377 847.043 536.131 854.166 543.811 855.284C553.984 856.765 563.146 847.786 570.531 842.041Z"/>
	<path fill="white" d="M71.8795 639.143C71.7706 634.51 71.6254 629.868 71.6166 625.234C71.6052 619.208 72.9264 613.445 77.3963 609.127C79.96 606.65 83.3468 604.811 86.8959 604.303C92.4435 603.509 98.4155 603.919 104.029 603.903L132.585 603.714L241.974 603.73L242.009 639.028C237.345 639.036 232.526 638.786 227.883 639.144C210.337 639.834 192.472 639.167 174.885 639.18Q123.382 639.472 71.8795 639.143Z"/>
	<path fill="white" d="M303.98 648.972C310.247 649.045 317.48 648.741 322.206 653.636C324.709 656.228 325.459 658.94 325.924 662.408C327.328 672.876 326.204 689.342 326.189 700.571C326.163 719.003 327.031 737.738 326.136 756.133C325.774 763.563 322.508 771.663 316.908 776.734C309.777 783.19 300.292 784.075 291.133 783.425Q290.449 783.376 289.767 783.309C289.758 782.893 289.602 782.476 289.495 782.073C288.105 782.059 288.021 782.478 286.975 783.318C272.24 783.812 257.392 783.456 242.646 783.465L160.186 783.507L114.143 783.547C105.833 783.564 96.9242 784.191 88.6731 783.157C85.2004 782.722 81.6293 780.392 79.1699 778.002C76.1419 775.059 74.1515 771.548 72.7258 767.607L223.375 767.923L265.33 768.064C272.539 768.091 280.314 768.683 287.457 767.828C291.901 767.297 296.147 765.389 299.318 762.192C302.397 759.088 303.371 755.48 303.948 751.272C305.245 741.817 304.23 728.374 304.2 718.492L303.98 648.972Z"/>
	<path fill="white" d="M303.938 624.561C317.073 624.696 328.855 625.729 338.607 635.538Q339.489 636.422 340.308 637.365Q341.126 638.308 341.878 639.306Q342.629 640.303 343.31 641.35Q343.99 642.397 344.597 643.489Q345.203 644.581 345.733 645.712Q346.262 646.843 346.712 648.008Q347.162 649.173 347.53 650.366Q347.898 651.559 348.183 652.775C350.645 663.232 349.405 675.421 349.393 686.166L349.322 735.735C349.311 744.969 348.6 754.964 349.991 764.091C353.939 789.999 374.544 801.511 397.731 807.746C389.863 815.067 380.49 822.681 374.307 831.457C359.469 831.463 344.576 831.725 329.747 831.298C322.719 830.786 315.251 829.091 309.136 825.462C297.269 818.421 293.664 803.266 290.467 790.832C293.877 790.879 297.228 790.885 300.63 790.609C309.547 790.319 317.741 786.65 323.846 780.104Q324.646 779.246 325.385 778.336Q326.125 777.425 326.801 776.467Q327.477 775.509 328.086 774.506Q328.696 773.504 329.236 772.463Q329.776 771.422 330.244 770.346Q330.712 769.271 331.106 768.166Q331.499 767.062 331.817 765.933Q332.135 764.804 332.376 763.656C334.834 751.961 333.565 731.053 333.562 718.294C333.558 699.646 334.157 680.759 333.433 662.137C333.225 656.78 330.536 651.429 326.573 647.851C320.27 642.16 311.997 641.449 303.927 641.603L303.938 624.561Z"/>
	<path d="M318.137 206.076C325.825 204.002 335.647 196.986 343.169 193.273C358.005 185.95 373.369 179.22 388.949 173.648C388.214 201.318 393.656 226.522 408.721 250C380.99 260.357 337.651 285.699 318.493 308.198Q318.607 257.136 318.137 206.076Z"/>
	<path fill="white" d="M373.36 454.483C374.151 447.555 376.954 441.784 382.507 437.405C385.379 435.141 388.957 433.232 392.575 432.594C401.599 431.004 411.954 432.066 421.154 432.11L468.953 432.116L469.072 507.505Q421.305 506.957 373.536 507.309C373.445 489.71 373.659 472.077 373.36 454.483Z"/>
	<path fill="white" d="M476.992 509.031C492.572 512.366 507.923 516.619 523.314 520.721Q556.231 529.572 589.236 538.081C600.026 540.911 610.776 544.041 621.632 546.596C621.224 568.405 621.622 590.304 621.62 612.121C608.286 606.685 595.347 600.257 582.257 594.265L514.44 563.032C501.99 557.197 489.715 550.743 476.992 545.529L476.992 509.031Z"/>
	<path d="M228.327 442.046L286.144 442.051C282.813 444.345 279.636 463.792 278.808 468.276Q278.217 471.422 277.714 474.582Q277.21 477.743 276.794 480.916Q276.378 484.09 276.049 487.273Q275.721 490.457 275.481 493.648Q275.241 496.84 275.089 500.037Q274.937 503.234 274.873 506.434Q274.81 509.634 274.835 512.834Q274.86 516.034 274.973 519.233Q275.086 522.432 275.288 525.626Q275.49 528.82 275.779 532.007Q276.069 535.195 276.447 538.373Q276.825 541.551 277.29 544.718Q277.755 547.884 278.308 551.036Q278.861 554.189 279.501 557.325Q280.14 560.461 280.866 563.578Q281.592 566.695 282.404 569.791C284.058 576.35 286.211 582.772 288.314 589.197C289.402 592.523 290.855 595.982 291.348 599.451C281.421 594.553 255.832 596.476 243.745 596.538C238.765 590.876 231.182 586.259 227.209 579.966C223.974 574.842 223.52 565.85 222.663 559.899C216.614 517.927 219.302 483.124 228.327 442.046Z"/>
	<path d="M706.487 367.46C727.831 381.802 745.171 388.824 771.299 388.427C797.914 445.169 808.224 508.736 797.306 570.692C777.859 566.219 763.817 566.838 744.842 573.44C744.999 568.781 746.086 563.905 746.597 559.25C747.431 551.653 747.8 543.952 748.185 536.319Q748.379 532.65 748.475 528.977Q748.571 525.304 748.57 521.63Q748.568 517.955 748.469 514.283Q748.37 510.61 748.173 506.941Q747.977 503.272 747.682 499.609Q747.388 495.947 746.997 492.293Q746.605 488.64 746.117 484.999Q745.629 481.357 745.044 477.73Q744.459 474.102 743.778 470.492Q743.096 466.881 742.32 463.29Q741.543 459.699 740.67 456.13Q739.798 452.56 738.832 449.016Q737.865 445.471 736.804 441.953Q735.744 438.435 734.59 434.947Q733.436 431.458 732.19 428.002Q730.944 424.545 729.607 421.123Q725.09 409.923 720.074 398.938C716.607 391.421 707.004 375.173 706.487 367.46Z"/>
	<path d="M172.713 365.404L172.754 365.9C173.214 372.138 172.823 378.616 172.769 384.883L172.538 419.154C172.522 424.611 172.088 430.495 172.752 435.906C173.016 438.06 173.403 439.905 174.686 441.676C177.919 442.988 213.936 441.96 219.875 441.96C210.193 486.185 209.896 525.851 216.253 570.529C205.831 560.303 194.635 550.873 184.278 540.612C170.939 552.39 156.64 563.88 144.216 576.588C140.873 547.585 138.853 518.754 141.046 489.579C141.491 483.65 141.74 477.604 142.725 471.739C142.276 468.203 141.57 464.664 140.982 461.146C132.488 459.026 124.124 456.54 115.7 454.169C109.107 452.313 102.375 450.688 95.9437 448.332C110.818 446.406 125.473 443.094 140.328 441.042L149.696 394.47C151.863 402.163 153.254 410.057 155.513 417.719C156.9 412.982 157.885 408.144 159.251 403.401C161.443 395.785 164.166 388.274 166.747 380.781C168.525 375.622 170.221 370.268 172.713 365.404Z"/>
	<path fill="white" d="M149.696 394.47C151.863 402.163 153.254 410.057 155.513 417.719C157.403 425.343 158.85 433.075 160.779 440.689C168.567 442.19 176.157 444.474 183.843 446.402C190.496 448.071 197.67 449.324 204.014 451.971C189.837 456.232 175.005 458.973 160.469 461.718C157.53 475.691 154.516 489.771 150.726 503.539C148.176 493.193 146.617 481.607 142.725 471.739C142.276 468.203 141.57 464.664 140.982 461.146C132.488 459.026 124.124 456.54 115.7 454.169C109.107 452.313 102.375 450.688 95.9437 448.332C110.818 446.406 125.473 443.094 140.328 441.042L149.696 394.47Z"/>
	<path d="M785.314 702.01C779.305 703.421 772.273 703.468 766.169 702.658C751.447 700.705 737.215 692.66 728.244 680.796C718.846 668.368 714.855 651.871 717.085 636.499Q717.302 635.05 717.59 633.613Q717.878 632.176 718.235 630.755Q718.593 629.334 719.019 627.932Q719.445 626.53 719.939 625.15Q720.433 623.771 720.994 622.417Q721.554 621.063 722.18 619.738Q722.806 618.413 723.496 617.12Q724.185 615.827 724.937 614.569Q725.689 613.311 726.501 612.092Q727.313 610.872 728.184 609.693Q729.055 608.515 729.982 607.38Q730.909 606.245 731.89 605.157Q732.871 604.068 733.904 603.029Q734.937 601.99 736.02 601.002Q737.102 600.014 738.231 599.081Q739.361 598.147 740.534 597.269C753.183 587.962 768.802 584.939 784.167 587.265C800.283 590.859 813.745 598.684 822.827 612.803Q823.625 614.02 824.36 615.276Q825.095 616.532 825.766 617.824Q826.437 619.115 827.042 620.439Q827.648 621.763 828.185 623.115Q828.723 624.467 829.192 625.845Q829.661 627.223 830.06 628.623Q830.459 630.022 830.787 631.44Q831.115 632.858 831.371 634.291Q831.627 635.724 831.811 637.167Q831.994 638.611 832.105 640.062Q832.216 641.514 832.253 642.968Q832.291 644.423 832.255 645.878Q832.219 647.333 832.11 648.785Q832.001 650.236 831.819 651.68Q831.636 653.124 831.382 654.557Q831.127 655.99 830.801 657.408C827.448 672.4 819.274 685.464 806.163 693.728C799.715 697.792 792.732 700.391 785.314 702.01Z"/>
	<path fill="white" d="M786.764 596.087C800.997 600.588 811.731 607.961 818.768 621.447Q819.335 622.533 819.848 623.645Q820.36 624.757 820.818 625.893Q821.275 627.029 821.676 628.186Q822.077 629.344 822.42 630.519Q822.764 631.695 823.049 632.886Q823.334 634.077 823.56 635.28Q823.787 636.484 823.953 637.697Q824.12 638.91 824.227 640.13Q824.334 641.35 824.38 642.574Q824.427 643.798 824.414 645.022Q824.4 646.247 824.326 647.47Q824.252 648.692 824.118 649.909Q823.985 651.127 823.791 652.336Q823.597 653.545 823.344 654.743Q823.092 655.942 822.78 657.126Q822.469 658.31 822.099 659.478Q821.72 660.685 821.282 661.872Q820.844 663.06 820.347 664.224Q819.851 665.388 819.298 666.526Q818.744 667.664 818.135 668.773Q817.526 669.882 816.863 670.96Q816.2 672.038 815.484 673.081Q814.769 674.125 814.002 675.132Q813.236 676.139 812.42 677.106Q811.605 678.074 810.743 679Q809.881 679.927 808.974 680.809Q808.067 681.692 807.117 682.528Q806.168 683.364 805.178 684.153Q804.188 684.941 803.161 685.68Q802.133 686.418 801.07 687.105Q800.008 687.792 798.912 688.425Q797.817 689.059 796.691 689.637Q791.698 692.097 786.341 693.605C784.713 679.277 785.816 663.871 786.018 649.441L780.315 649.385L780.333 639.258C782.291 638.788 784.442 638.934 786.449 638.918C786.265 624.707 785.458 610.251 786.764 596.087Z"/>
	<path d="M802.499 639.487L812.066 639.494L812.029 649.483L802.48 649.484L802.499 639.487Z"/>
	<path d="M780.333 639.258C783.634 639.514 786.902 639.511 790.211 639.483C790.261 642.392 790.91 646.058 789.757 648.733C788.463 649.693 787.602 649.431 786.018 649.441L780.315 649.385L780.333 639.258Z"/>
	<path fill="white" d="M786.341 693.605C778.556 695.326 770.439 695.685 762.617 693.979C750.211 691.272 738.852 682.795 732.163 672.08C724.892 660.432 722.741 645.82 725.875 632.486Q726.161 631.297 726.505 630.124Q726.85 628.951 727.251 627.795Q727.652 626.64 728.11 625.506Q728.567 624.372 729.079 623.262Q729.592 622.152 730.158 621.068Q730.724 619.984 731.342 618.929Q731.961 617.874 732.63 616.851Q733.299 615.828 734.018 614.839Q734.737 613.849 735.503 612.896Q736.269 611.943 737.081 611.029Q737.893 610.115 738.749 609.241Q739.605 608.368 740.502 607.538Q741.4 606.707 742.337 605.922Q743.274 605.136 744.249 604.398Q745.223 603.659 746.232 602.969Q747.242 602.279 748.284 601.639C760.233 594.448 773.323 592.814 786.764 596.087C785.458 610.251 786.265 624.707 786.449 638.918C784.442 638.934 782.291 638.788 780.333 639.258L780.315 649.385L786.018 649.441C785.816 663.871 784.713 679.277 786.341 693.605Z"/>
	<path d="M759.283 639.432L768.676 639.428L768.712 649.425L759.18 649.415L759.283 639.432Z"/>
	<path d="M737.235 639.577L747.451 639.577L747.483 649.455L737.182 649.453L737.235 639.577Z"/>
	<path d="M729.332 860.043C729.779 839.128 729.514 818.145 729.452 797.224C729.424 787.824 728.523 777.48 729.658 768.217C729.827 766.839 730.335 765.786 731.268 764.762C735.953 759.618 746.733 755.342 753.511 754.239C760.832 753.047 769.497 754.122 776.937 754.167C796.766 754.286 817.068 755.003 836.849 753.773C840.389 757.996 843.596 762.568 847.008 766.904C852.213 773.521 857.951 780.095 862.288 787.312C861.988 792.853 862.185 798.485 861.525 803.994C859.687 819.332 851.506 833.788 840.077 844.047C832.726 850.646 823.233 855.976 813.619 858.365C801.905 861.275 788.741 860.119 776.736 860.086L729.332 860.043Z"/>
	<path fill="white" d="M445.443 765.945Q445.462 756.232 445.379 746.519C445.341 738.981 443.431 725.13 449.282 719.502C451.547 717.324 454.076 716.007 457.186 715.597C463.125 714.815 469.687 715.279 475.696 715.263L509.798 715.216L620.411 715.31Q619.978 741.421 620.03 767.534C620.005 775.171 619.134 784.143 620.333 791.648Q596.607 811.113 572.324 829.878C565.972 834.784 559.819 840.357 553.133 844.771C551.293 845.985 549.271 847.277 547.023 847.451C545.295 847.585 543.886 847.306 542.421 846.379C537.908 843.523 533.699 839.685 529.541 836.334C519.224 828.022 509.169 819.458 499.078 810.876C481.31 795.766 463.045 781.271 445.443 765.945Z"/>
	<path d="M507.912 800.246C516.208 800.121 572.952 798.985 577.955 801.116C578.631 801.404 579.007 801.487 579.22 802.239C579.684 803.873 579.386 805.09 578.53 806.503C577.227 807.495 575.921 807.268 574.376 807.216C559.158 806.716 543.77 807.024 528.541 807.14C521.598 807.193 510.981 808.361 504.401 806.647C502.853 806.244 501.773 805.72 500.918 804.304C501.117 802.862 501.435 802.079 502.571 801.077C503.764 800.023 506.347 800.274 507.912 800.246Z"/>
	<path d="M502.859 735.072C510.94 734.616 519.153 734.844 527.249 734.828L566.399 734.844C572.658 734.881 578.925 735.011 585.183 734.972C588.132 734.954 591.273 734.49 594.198 734.755C595.475 734.871 596.397 735.184 597.47 735.91C598.069 737.018 598.337 737.747 598.13 739.035C597.877 740.61 597.68 740.624 596.411 741.471L534.79 741.221C525.962 741.206 510.377 742.263 502.338 740.484C501.258 739.622 501.108 739.563 500.719 738.255C501.1 736.781 501.824 736.108 502.859 735.072Z"/>
	<path d="M503.446 759.167C513.921 759.12 593.15 758.068 597.461 759.479C598.155 760.585 598.31 761.507 598.148 762.792C597.925 764.554 597.844 764.927 596.445 766.019L535.849 765.493C526.654 765.424 517.316 765.829 508.14 765.408C506.508 765.333 504.133 765.359 502.757 764.41C501.606 763.615 501.541 763.037 501.295 761.778C501.934 760.296 502.133 760.121 503.446 759.167Z"/>
	<path d="M502.57 779.674C522.608 778.993 542.917 779.615 562.984 779.691C573.112 779.73 586.875 778.84 596.607 780.2C597.652 781.055 598.011 781.311 598.238 782.74C598.437 783.987 598.037 785.499 597.385 786.54L534.899 786.507C528.482 786.501 508.253 787.466 503.308 785.823C502.634 785.599 502.043 785.381 501.734 784.717C500.958 783.048 501.916 781.225 502.57 779.674Z"/>
	<path d="M845.663 347.437C851.171 358.62 857.02 369.628 861.912 381.105C866.706 392.354 870.465 404.116 873.925 415.833C876.403 424.227 878.814 432.656 880.039 441.339L887.438 441.38L887.457 459.481C887.185 468.373 890.036 481.914 888.001 489.805C887.586 495.787 887.975 501.751 887.684 507.716C886.509 561.977 875.664 616.91 852.29 666.046C849.88 671.111 848.043 676.409 845.261 681.293L844.076 682.063L843.958 681.604C844.171 681.173 844.39 680.745 844.587 680.306C853.849 659.671 856.469 637.974 848.009 616.494C840.279 596.866 823.828 581.451 804.68 573.148C806.624 565.837 807.536 557.917 808.311 550.396Q808.958 543.473 809.3 536.529Q809.641 529.584 809.676 522.631Q809.711 515.678 809.44 508.731Q809.168 501.783 808.591 494.854Q808.013 487.925 807.13 481.028Q806.248 474.132 805.062 467.28Q803.876 460.429 802.389 453.637Q800.903 446.845 799.118 440.125C794.273 421.966 787.52 404.426 780.28 387.111C808.101 382.116 828.864 370.506 845.663 347.437Z"/>
	<path d="M845.333 465.777L862.928 465.797L862.814 483.41Q854.117 483.063 845.413 483.004C845.311 477.266 845.356 471.517 845.333 465.777Z"/>
	<path d="M880.039 441.339L887.438 441.38L887.457 459.481C881.511 459.444 875.585 459.404 869.647 459.062L869.589 441.352C873.071 441.384 876.557 441.346 880.039 441.339Z"/>
	<path d="M869.536 489.645C875.678 489.852 881.854 489.77 888.001 489.805C887.586 495.787 887.975 501.751 887.684 507.716L869.574 507.619L869.536 489.645Z"/>
	<path fill="white" d="M476.995 430.841C482.305 427.677 488.406 425.326 494.031 422.748L526.758 407.73C534.196 404.267 541.458 400.434 548.87 396.914Q585.583 379.853 621.907 361.98L621.614 469.194C621.661 494.974 622.119 520.824 621.632 546.596C610.776 544.041 600.026 540.911 589.236 538.081Q556.231 529.572 523.314 520.721C507.923 516.619 492.572 512.366 476.992 509.031Q476.602 469.935 476.995 430.841Z"/>
	<path fill="white" d="M172.817 243.321L172.713 365.404C170.221 370.268 168.525 375.622 166.747 380.781C164.166 388.274 161.443 395.785 159.251 403.401C157.885 408.144 156.9 412.982 155.513 417.719C153.254 410.057 151.863 402.163 149.696 394.47L140.328 441.042C125.473 443.094 110.818 446.406 95.9437 448.332C102.375 450.688 109.107 452.313 115.7 454.169C124.124 456.54 132.488 459.026 140.982 461.146C141.57 464.664 142.276 468.203 142.725 471.739C141.74 477.604 141.491 483.65 141.046 489.579C138.853 518.754 140.873 547.585 144.216 576.588C137.376 583.548 129.863 589.925 122.693 596.548C112.676 596.542 90.8381 594.948 82.259 598.19C77.2428 583.404 75.2235 553.45 74.3775 537.509C68.7811 432.051 101.592 322.669 172.817 243.321Z"/>
	<path fill="white" d="M290.144 790.499C293.629 790.525 297.151 790.446 300.63 790.609C297.228 790.885 293.877 790.879 290.467 790.832C293.664 803.266 297.269 818.421 309.136 825.462C315.251 829.091 322.719 830.786 329.747 831.298C327.969 831.669 327.778 831.472 326.704 833.037L326.84 833.74C328.126 834.101 329.468 834.403 330.711 834.888L320.406 834.888C324.308 836.276 329.768 836.266 333.08 838.495L333.95 838.75C366.232 857.208 401.324 869.816 437.452 878.215C437.565 889.275 434.592 908.905 442.167 917.265C446.066 921.569 450.006 922.49 455.56 922.617C496.679 923.558 537.995 922.603 579.13 922.567L619.557 922.553C626.377 922.55 633.932 923.142 640.675 922.081C644.192 921.528 647.511 919.672 650.012 917.166C652.46 914.711 653.779 911.407 654.445 908.048C655.639 902.029 655.079 895.295 655.052 889.168Q654.975 872.326 654.641 855.486C662.046 851.369 669.66 847.71 676.908 843.297C692.309 833.918 706.673 823.42 721.515 813.243L721.505 849.507C721.474 856.193 720.76 863.612 721.901 870.174C722.545 873.884 723.986 877.391 726.548 880.193C731.533 885.645 738.447 885.897 745.301 886.073C658.328 938.497 560.747 961.212 459.63 949.491Q455.235 948.976 450.852 948.367Q446.469 947.758 442.1 947.057Q437.731 946.355 433.378 945.561Q429.025 944.767 424.69 943.88Q420.354 942.994 416.039 942.015Q411.724 941.037 407.43 939.967Q403.136 938.898 398.866 937.737Q394.596 936.576 390.352 935.325Q386.107 934.074 381.89 932.733Q377.673 931.392 373.486 929.962Q369.298 928.532 365.142 927.013Q360.986 925.494 356.863 923.888Q352.74 922.281 348.652 920.587Q344.564 918.893 340.513 917.113Q336.462 915.333 332.449 913.467Q328.437 911.601 324.465 909.65Q320.493 907.7 316.564 905.665Q312.634 903.63 308.749 901.513Q304.864 899.395 301.024 897.196Q297.184 894.996 293.392 892.716Q289.6 890.435 285.858 888.074Q282.115 885.714 278.423 883.274Q274.731 880.835 271.092 878.317Q267.453 875.8 263.868 873.206Q260.283 870.612 256.754 867.942Q253.225 865.273 249.754 862.529Q246.282 859.785 242.87 856.967Q239.458 854.15 236.106 851.261Q232.754 848.373 229.464 845.413Q226.174 842.454 222.948 839.425Q219.722 836.397 216.561 833.3Q213.4 830.204 210.305 827.041C199.324 815.748 189.519 803.347 179.747 791.012Q232.646 790.453 285.545 790.961L286.596 790.839L290.144 790.499Z"/>
	<path fill="white" d="M290.144 790.499C293.629 790.525 297.151 790.446 300.63 790.609C297.228 790.885 293.877 790.879 290.467 790.832C293.664 803.266 297.269 818.421 309.136 825.462C315.251 829.091 322.719 830.786 329.747 831.298C327.969 831.669 327.778 831.472 326.704 833.037L326.84 833.74C328.126 834.101 329.468 834.403 330.711 834.888L320.406 834.888C324.308 836.276 329.768 836.266 333.08 838.495C324.98 840.319 316.489 840.117 308.983 844.221C292.593 853.183 293.61 873.919 288.811 889.356L288.598 890.024C285.865 878.071 284.214 863.471 277.383 853.064C268.616 839.709 248.918 838.6 234.576 835.527C245.496 832.548 257.668 831.379 267.473 825.312C279.216 818.044 282.679 803.507 285.545 790.961L286.596 790.839L290.144 790.499Z"/>
	<path d="M181.754 196.299C203.168 196.519 224.749 195.662 246.13 196.52C264.22 197.223 282.527 196.613 300.64 196.58L299.705 434.067L275.499 434.018L246.676 434.021L181.056 434.058L181.283 291.211C181.213 260.671 180.383 229.972 181.021 199.446C181.049 198.082 180.831 197.337 181.754 196.299Z"/>
	<path d="M246.955 405.581C252.481 405.554 262.351 403.841 266.436 407.932C267.698 409.195 268.581 410.933 268.379 412.764C268.204 414.358 267.166 415.582 265.844 416.39C261.223 419.214 252.12 417.797 246.724 417.842C240.909 417.898 231.553 419.277 226.377 416.699C224.75 415.888 223.546 414.585 223.147 412.762C222.782 411.091 223.091 409.586 224.187 408.272C227.786 403.955 241.553 405.521 246.955 405.581Z"/>
	<path fill="white" d="M268.646 376.419C255.49 374.778 211.056 378.646 202.972 374.361C201.564 373.615 200.977 372.868 200.563 371.358C200.911 370.228 201.377 369.55 202.183 368.713C203.185 367.673 204.238 367.113 205.679 366.95C211.775 366.261 218.715 366.9 224.883 366.894C241.135 366.876 257.421 367.231 273.667 366.881L273.983 366.825C275.361 367.707 276.538 368.59 276.817 370.35C277.082 372.03 276.242 373.56 275.179 374.779C274.559 375.49 273.838 375.939 273.047 376.437L268.646 376.419Z"/>
	<path d="M247.802 261.342C242.648 260.456 238.162 259.52 233.977 256.069C229.478 252.36 226.634 246.699 226.156 240.905C225.671 235.031 227.777 229.221 231.586 224.768C235.831 219.803 241.64 217.366 248.033 216.757C248.196 223.181 247.96 258.891 248.849 261.12L249.349 261.379L247.802 261.342Z"/>
	<path fill="white" d="M246.837 350.217C258.728 350.3 273.403 351.32 284.956 350.159C287.024 350.92 287.907 351.504 288.835 353.596C289.294 354.631 289.415 355.377 289.335 356.52C288.768 357.775 288.058 358.445 286.791 358.971C282.927 360.577 277.934 360.035 273.847 359.94L246.806 359.898C237.794 359.614 207.285 361.836 201.336 357.788C200.904 357.036 200.786 356.589 200.707 355.7C200.583 354.296 201.044 353.198 201.976 352.158C203.012 351.002 204.674 350.55 206.154 350.359C210.609 349.786 215.47 350.17 219.972 350.176L246.837 350.217Z"/>
	<path d="M247.045 392.968C255.868 392.555 265.113 392.407 273.928 393.028C276.707 396.597 275.513 427.688 275.499 434.018L246.676 434.021Q246.837 425.932 246.724 417.842C252.12 417.797 261.223 419.214 265.844 416.39C267.166 415.582 268.204 414.358 268.379 412.764C268.581 410.933 267.698 409.195 266.436 407.932C262.351 403.841 252.481 405.554 246.955 405.581C247.455 401.486 246.985 397.115 247.045 392.968Z"/>
	<path d="M248.091 315.599L274.399 315.558Q274.591 332.759 274.436 349.96C277.885 349.923 281.548 349.652 284.956 350.159C273.403 351.32 258.728 350.3 246.837 350.217Q247.022 339.452 246.901 328.686C246.882 324.994 246.482 320.809 246.996 317.169C247.156 316.035 247.247 316.242 248.091 315.599Z"/>
	<path d="M247.08 315.535Q245.676 315.658 244.268 315.695C239.552 315.796 209.129 316.849 206.663 315.351C206.308 315.135 206.058 314.78 205.756 314.494C204.894 312.181 204.915 310.069 204.892 307.636C204.773 295.047 204.617 282.552 214.264 273.085C223.757 263.77 235.215 264.714 247.497 264.917L247.589 274.007C252.567 274.93 256.754 276.727 259.769 281.028C262.236 284.546 262.984 288.898 262.094 293.077C261.182 297.358 258.725 301.083 255.001 303.425C252.399 305.061 249.958 305.615 246.936 305.901L247.08 315.535Z"/>
	<path fill="white" d="M247.589 274.007C252.567 274.93 256.754 276.727 259.769 281.028C262.236 284.546 262.984 288.898 262.094 293.077C261.182 297.358 258.725 301.083 255.001 303.425C252.399 305.061 249.958 305.615 246.936 305.901C243.978 305.497 241.321 304.729 238.836 303.012C235.262 300.541 232.849 296.872 232.115 292.581Q231.974 291.78 231.916 290.968Q231.859 290.156 231.886 289.343Q231.913 288.53 232.025 287.724Q232.136 286.918 232.331 286.128Q232.526 285.337 232.802 284.572Q233.077 283.806 233.431 283.074Q233.785 282.341 234.213 281.649Q234.641 280.957 235.139 280.313C238.335 276.215 242.634 274.675 247.589 274.007Z"/>
	<path d="M246.13 196.52C264.22 197.223 282.527 196.613 300.64 196.58L299.705 434.067L275.499 434.018C275.513 427.688 276.707 396.597 273.928 393.028C274.218 392.73 274.507 392.434 274.781 392.12C276.097 390.614 276.777 388.754 276.535 386.746C276.359 385.281 275.673 384.381 274.533 383.493C268.84 383.556 251.455 384.701 247.139 383.041L246.632 381.627C246.808 379.85 246.752 378.36 246.51 376.593C253.856 376.625 261.319 376.913 268.646 376.419L273.047 376.437C273.838 375.939 274.559 375.49 275.179 374.779C276.242 373.56 277.082 372.03 276.817 370.35C276.538 368.59 275.361 367.707 273.983 366.825L273.667 366.881C269.207 365.359 252.673 366.393 246.843 366.437L246.806 359.898L273.847 359.94C277.934 360.035 282.927 360.577 286.791 358.971C288.058 358.445 288.768 357.775 289.335 356.52C289.415 355.377 289.294 354.631 288.835 353.596C287.907 351.504 287.024 350.92 284.956 350.159C281.548 349.652 277.885 349.923 274.436 349.96Q274.591 332.759 274.399 315.558L248.091 315.599L247.08 315.535L246.936 305.901C249.958 305.615 252.399 305.061 255.001 303.425C258.725 301.083 261.182 297.358 262.094 293.077C262.984 288.898 262.236 284.546 259.769 281.028C256.754 276.727 252.567 274.93 247.589 274.007L247.497 264.917L252.761 264.9C251.321 264.772 249.895 264.63 248.465 264.421C247.547 263.304 247.792 262.755 247.802 261.342L249.349 261.379L248.849 261.12C247.96 258.891 248.196 223.181 248.033 216.757L248.791 216.657C248.196 216.571 247.562 216.379 246.975 216.238C245.094 212.363 246.249 201.182 246.13 196.52Z"/>
	<path d="M248.791 216.657C255.933 218.204 261.83 220.672 265.993 227.067C269.434 232.353 270.372 238.794 268.851 244.893Q268.722 245.42 268.567 245.94Q268.411 246.46 268.229 246.971Q268.046 247.482 267.838 247.983Q267.629 248.484 267.395 248.973Q267.161 249.463 266.902 249.94Q266.643 250.416 266.359 250.879Q266.076 251.342 265.769 251.789Q265.462 252.237 265.132 252.668Q264.803 253.099 264.451 253.512Q264.1 253.926 263.727 254.32Q263.355 254.715 262.963 255.09Q262.571 255.465 262.159 255.819Q261.748 256.173 261.319 256.506Q260.891 256.838 260.445 257.148Q260 257.458 259.539 257.744Q259.078 258.031 258.603 258.293Q257.532 258.893 256.409 259.389Q255.286 259.885 254.122 260.274Q252.957 260.662 251.762 260.939Q250.566 261.216 249.349 261.379L248.849 261.12C247.96 258.891 248.196 223.181 248.033 216.757L248.791 216.657Z"/>
	<path d="M252.761 264.9C263.547 264.939 273.283 265.934 281.295 273.988C291.081 283.825 290.382 295.844 290.233 308.743Q290.191 312.182 289.985 315.616L274.399 315.558L248.091 315.599L247.08 315.535L246.936 305.901C249.958 305.615 252.399 305.061 255.001 303.425C258.725 301.083 261.182 297.358 262.094 293.077C262.984 288.898 262.236 284.546 259.769 281.028C256.754 276.727 252.567 274.93 247.589 274.007L247.497 264.917L252.761 264.9Z"/>
	<path fill="white" d="M500.671 69.6869C500.908 69.6403 501.141 69.5798 501.38 69.5469C505.282 69.0097 509.831 69.2036 513.765 69.2712Q516.088 69.3142 518.408 69.4508Q520.727 69.5874 523.039 69.8174Q525.352 70.0474 527.653 70.3704Q529.954 70.6933 532.24 71.1088Q534.526 71.5243 536.793 72.0315Q539.061 72.5388 541.306 73.1371Q543.551 73.7353 545.771 74.4236Q547.99 75.1118 550.18 75.889Q552.369 76.6661 554.526 77.5309Q556.683 78.3957 558.803 79.3467Q560.923 80.2977 563.003 81.3334Q565.083 82.369 567.119 83.4877Q569.156 84.6064 571.146 85.8062Q573.135 87.0061 575.075 88.2851Q577.015 89.5642 578.902 90.9204Q580.788 92.2766 582.619 93.7078C607.736 113.557 622.68 140.741 626.37 172.479C629.975 203.482 620.361 231.67 601.048 255.771Q600.155 256.871 599.234 257.949Q598.314 259.027 597.368 260.082Q596.421 261.137 595.449 262.168Q594.477 263.2 593.479 264.206Q592.482 265.213 591.46 266.195Q590.438 267.177 589.392 268.134Q588.346 269.09 587.277 270.021Q586.208 270.951 585.116 271.855Q584.025 272.759 582.911 273.635Q581.797 274.512 580.662 275.361Q579.527 276.209 578.371 277.03Q577.216 277.851 576.04 278.642Q574.865 279.434 573.67 280.197Q572.475 280.959 571.262 281.692Q570.049 282.425 568.818 283.127Q567.587 283.83 566.339 284.502Q565.092 285.174 563.828 285.815Q562.564 286.456 561.284 287.066Q560.005 287.676 558.711 288.254Q557.417 288.831 556.109 289.377Q554.801 289.923 553.479 290.436Q552.158 290.95 550.825 291.43Q549.492 291.911 548.147 292.359Q546.802 292.806 545.447 293.221Q544.091 293.635 542.726 294.016Q541.361 294.396 539.987 294.743Q538.613 295.09 537.23 295.403Q535.848 295.716 534.458 295.994Q533.069 296.273 531.673 296.517Q530.277 296.762 528.875 296.972Q527.473 297.181 526.067 297.356Q524.66 297.532 523.25 297.672C523.012 297.714 522.775 297.764 522.536 297.797C494.035 301.768 462.681 290.794 440.384 273.343C416.124 254.357 401.325 226.66 397.673 196.207Q397.497 194.85 397.354 193.489Q397.212 192.128 397.103 190.764Q396.994 189.4 396.919 188.033Q396.844 186.667 396.803 185.299Q396.762 183.931 396.755 182.563Q396.748 181.194 396.775 179.826Q396.801 178.458 396.862 177.091Q396.923 175.724 397.018 174.359Q397.112 172.993 397.241 171.631Q397.369 170.269 397.531 168.91Q397.694 167.551 397.889 166.197Q398.085 164.842 398.315 163.493Q398.544 162.144 398.807 160.801Q399.07 159.458 399.366 158.122Q399.662 156.786 399.991 155.458Q400.32 154.129 400.682 152.81Q401.043 151.49 401.438 150.18Q401.832 148.869 402.259 147.569Q402.686 146.269 403.145 144.98Q403.604 143.691 404.095 142.413Q404.586 141.136 405.108 139.871Q405.63 138.606 406.184 137.354Q406.737 136.103 407.322 134.866Q407.906 133.628 408.521 132.406Q409.136 131.183 409.781 129.976Q410.426 128.769 411.1 127.579Q411.775 126.388 412.479 125.215Q413.183 124.041 413.916 122.886Q414.649 121.73 415.411 120.593Q416.172 119.456 416.961 118.338Q417.751 117.22 418.567 116.122Q419.384 115.024 420.228 113.947C440.194 88.7452 468.848 73.4178 500.671 69.6869Z"/>
	<path d="M502.859 78.6999C503.085 78.6558 503.309 78.5979 503.537 78.5676C526.86 75.4613 556.877 86.584 574.914 101.081Q575.966 101.913 576.997 102.771Q578.028 103.628 579.038 104.511Q580.047 105.394 581.035 106.301Q582.022 107.209 582.987 108.14Q583.952 109.072 584.894 110.027Q585.835 110.982 586.753 111.96Q587.671 112.938 588.564 113.938Q589.457 114.938 590.326 115.96Q591.194 116.982 592.037 118.025Q592.88 119.069 593.697 120.132Q594.514 121.196 595.304 122.279Q596.095 123.363 596.858 124.465Q597.622 125.568 598.358 126.689Q599.094 127.81 599.802 128.949Q600.51 130.088 601.19 131.244Q601.87 132.4 602.521 133.573Q603.172 134.745 603.794 135.933Q604.416 137.121 605.008 138.325Q605.601 139.528 606.164 140.745Q606.726 141.963 607.259 143.194Q607.791 144.424 608.293 145.668Q608.795 146.912 609.266 148.167Q609.737 149.423 610.177 150.69Q610.617 151.957 611.026 153.234Q611.434 154.512 611.811 155.799Q612.188 157.086 612.533 158.382Q612.878 159.678 613.191 160.982Q613.504 162.286 613.785 163.597Q614.066 164.909 614.314 166.227Q614.562 167.545 614.778 168.868Q614.994 170.192 615.177 171.521Q615.36 172.849 615.51 174.182Q615.645 175.463 615.749 176.746Q615.853 178.03 615.925 179.316Q615.997 180.602 616.037 181.889Q616.077 183.176 616.086 184.464Q616.094 185.752 616.07 187.04Q616.047 188.327 615.992 189.614Q615.936 190.901 615.849 192.186Q615.762 193.471 615.643 194.753Q615.524 196.035 615.374 197.314Q615.223 198.593 615.041 199.868Q614.859 201.143 614.646 202.413Q614.432 203.683 614.187 204.948Q613.943 206.212 613.667 207.47Q613.391 208.728 613.084 209.979Q612.777 211.23 612.439 212.472Q612.101 213.715 611.732 214.949Q611.364 216.183 610.965 217.408Q610.566 218.632 610.137 219.847Q609.708 221.061 609.249 222.264Q608.791 223.468 608.302 224.659Q607.814 225.851 607.296 227.03Q606.778 228.209 606.231 229.376Q605.685 230.542 605.109 231.694Q604.534 232.846 603.93 233.984Q603.326 235.121 602.695 236.243Q602.063 237.366 601.404 238.472Q600.745 239.579 600.058 240.668Q599.372 241.758 598.659 242.831Q597.946 243.903 597.206 244.958Q596.467 246.012 595.702 247.048Q594.937 248.084 594.146 249.1Q593.355 250.117 592.54 251.114C574.017 273.548 548.664 285.586 520.122 288.373C494.015 289.335 470.357 283.951 449.038 268.217Q448.001 267.451 446.983 266.66Q445.965 265.869 444.967 265.053Q443.968 264.237 442.99 263.397Q442.012 262.557 441.055 261.694Q440.098 260.83 439.162 259.943Q438.226 259.057 437.312 258.147Q436.398 257.238 435.506 256.307Q434.615 255.375 433.746 254.423Q432.878 253.47 432.033 252.496Q431.188 251.522 430.367 250.528Q429.546 249.534 428.749 248.52Q427.953 247.506 427.182 246.473Q426.41 245.44 425.664 244.389Q424.918 243.337 424.198 242.268Q423.478 241.198 422.785 240.112Q422.091 239.025 421.424 237.922Q420.757 236.818 420.117 235.699Q419.477 234.58 418.865 233.445Q418.253 232.31 417.668 231.161Q417.084 230.012 416.528 228.849Q415.972 227.686 415.444 226.509Q414.916 225.333 414.418 224.144Q413.919 222.955 413.45 221.755Q412.98 220.554 412.54 219.342Q412.1 218.13 411.69 216.908Q411.279 215.686 410.899 214.454Q410.519 213.222 410.169 211.981Q409.819 210.74 409.499 209.491Q409.179 208.242 408.89 206.986Q408.601 205.729 408.343 204.466Q408.084 203.203 407.857 201.934Q407.629 200.665 407.433 199.391Q407.231 198.103 407.061 196.811Q406.892 195.519 406.754 194.223Q406.617 192.927 406.511 191.628Q406.406 190.329 406.333 189.028Q406.261 187.726 406.22 186.424Q406.18 185.121 406.172 183.818Q406.164 182.514 406.188 181.211Q406.213 179.908 406.27 178.606Q406.327 177.304 406.416 176.004Q406.505 174.704 406.627 173.406Q406.749 172.109 406.903 170.814Q407.057 169.52 407.243 168.23Q407.429 166.94 407.647 165.656Q407.865 164.371 408.115 163.092Q408.366 161.812 408.647 160.54Q408.929 159.268 409.243 158.003Q409.556 156.738 409.901 155.481Q410.246 154.224 410.622 152.976Q410.998 151.728 411.405 150.49Q411.812 149.252 412.25 148.024Q412.688 146.797 413.156 145.58Q413.624 144.364 414.122 143.16Q414.62 141.956 415.149 140.764Q415.677 139.573 416.234 138.395Q416.792 137.217 417.379 136.053Q417.966 134.889 418.581 133.74Q419.197 132.592 419.841 131.459Q420.485 130.325 421.157 129.209Q421.829 128.092 422.528 126.992Q423.228 125.893 423.955 124.811Q424.681 123.729 425.435 122.666Q426.188 121.602 426.968 120.558C446.09 95.2265 472.067 83.0661 502.859 78.6999Z"/>
	<path fill="white" d="M567.174 105.508C586.23 117.7 601.322 141.859 606.043 163.747Q606.298 164.9 606.526 166.06Q606.753 167.219 606.951 168.384Q607.15 169.548 607.32 170.717Q607.49 171.886 607.632 173.059Q607.774 174.232 607.886 175.408Q607.999 176.584 608.083 177.762Q608.167 178.941 608.223 180.121Q608.278 181.301 608.304 182.482Q608.33 183.663 608.328 184.844Q608.325 186.026 608.294 187.207Q608.263 188.387 608.202 189.567Q608.142 190.747 608.053 191.925Q607.964 193.103 607.846 194.279Q607.728 195.454 607.582 196.626Q607.435 197.798 607.26 198.967Q607.085 200.135 606.881 201.299Q606.677 202.462 606.445 203.621Q606.213 204.779 605.953 205.931Q605.692 207.084 605.404 208.229Q605.115 209.375 604.799 210.513Q604.483 211.651 604.139 212.782Q603.795 213.912 603.423 215.033Q603.051 216.154 602.652 217.266Q602.254 218.378 601.828 219.48Q601.402 220.582 600.949 221.673Q600.496 222.764 600.017 223.844Q599.537 224.924 599.032 225.992Q598.526 227.059 597.995 228.114Q597.463 229.169 596.906 230.211Q596.349 231.253 595.766 232.281Q595.184 233.308 594.576 234.322Q593.969 235.335 593.337 236.333C579.69 257.469 556.988 273.736 532.26 278.855C507.401 284.002 480.545 279.471 459.328 265.385Q457.845 264.414 456.493 263.268C459.954 262.87 466.438 265.654 470.282 266.263C477.264 267.37 485.217 267.083 492.211 266.106C509.98 263.622 527.521 253.636 538.333 239.209C540.913 241.372 545.928 246.709 549.601 246.488C552.011 246.343 553.636 244.869 555.085 243.061Q555.809 242.143 556.488 241.191C558.878 238.685 560.916 235.298 562.657 232.31C579.198 203.927 582.728 166.618 575.795 134.822C573.61 124.803 569.821 115.376 567.174 105.508Z"/>
	<path fill="white" d="M456.493 263.268C454.332 262.228 452.171 260.379 450.289 258.89Q449.363 258.162 448.456 257.411Q447.549 256.66 446.66 255.887Q445.772 255.114 444.903 254.319Q444.034 253.524 443.185 252.707Q442.336 251.891 441.507 251.054Q440.679 250.217 439.871 249.36Q439.064 248.502 438.278 247.625Q437.492 246.748 436.728 245.852Q435.964 244.955 435.222 244.04Q434.48 243.125 433.762 242.192Q433.043 241.259 432.348 240.308Q431.653 239.358 430.981 238.39Q430.31 237.423 429.662 236.439Q429.015 235.455 428.392 234.455Q427.769 233.455 427.172 232.441Q426.574 231.426 426.002 230.396Q425.429 229.367 424.882 228.324Q424.336 227.281 423.815 226.224Q423.294 225.168 422.8 224.099Q422.306 223.03 421.838 221.949Q421.37 220.868 420.93 219.776Q420.489 218.683 420.076 217.581Q419.662 216.478 419.276 215.365Q418.89 214.252 418.532 213.13Q418.173 212.009 417.843 210.878Q417.513 209.748 417.21 208.609Q416.908 207.471 416.634 206.325Q416.36 205.18 416.115 204.028Q415.869 202.876 415.652 201.718Q415.436 200.561 415.248 199.398Q415.06 198.236 414.9 197.069Q414.741 195.902 414.611 194.731Q414.472 193.526 414.363 192.319Q414.255 191.111 414.176 189.901Q414.097 188.691 414.048 187.479Q414 186.268 413.981 185.055Q413.963 183.843 413.975 182.631Q413.986 181.418 414.028 180.206Q414.07 178.994 414.142 177.784Q414.214 176.574 414.316 175.365Q414.418 174.157 414.551 172.952Q414.683 171.746 414.845 170.545Q415.007 169.343 415.199 168.146Q415.391 166.948 415.612 165.756Q415.834 164.564 416.085 163.378Q416.336 162.192 416.617 161.012Q416.898 159.832 417.208 158.66Q417.518 157.488 417.857 156.324Q418.196 155.159 418.564 154.004Q418.932 152.849 419.328 151.703Q419.725 150.557 420.149 149.421Q420.574 148.285 421.027 147.161Q421.48 146.036 421.961 144.923Q422.442 143.81 422.95 142.709Q423.459 141.608 423.994 140.52Q424.53 139.432 425.093 138.358Q425.655 137.284 426.244 136.224Q426.833 135.164 427.449 134.119Q428.064 133.074 428.705 132.045Q429.346 131.016 430.012 130.003Q430.679 128.99 431.37 127.994Q432.062 126.998 432.778 126.019Q433.494 125.041 434.234 124.08Q434.974 123.12 435.738 122.178Q436.502 121.255 437.289 120.351Q438.075 119.448 438.883 118.563Q439.692 117.678 440.521 116.813Q441.35 115.949 442.2 115.104Q443.05 114.26 443.92 113.436Q444.79 112.612 445.68 111.81Q446.57 111.008 447.479 110.227Q448.388 109.447 449.316 108.688Q450.243 107.93 451.189 107.194Q452.135 106.458 453.098 105.746Q454.061 105.033 455.041 104.344Q456.022 103.655 457.018 102.99Q458.015 102.325 459.027 101.684Q460.039 101.043 461.067 100.427Q462.095 99.8107 463.137 99.2195Q464.179 98.6284 465.235 98.0627Q466.292 97.497 467.361 96.957Q468.431 96.417 469.513 95.903Q470.595 95.389 471.69 94.9014Q472.784 94.4138 473.89 93.9528Q474.996 93.4918 476.113 93.0577Q477.23 92.6236 478.357 92.2167Q479.484 91.8097 480.62 91.4302Q481.756 91.0506 482.902 90.6987Q484.047 90.3467 485.201 90.0226Q486.354 89.6985 487.515 89.4024Q488.676 89.1063 489.844 88.8383Q491.012 88.5704 492.186 88.3308Q493.36 88.0912 494.539 87.8801Q495.718 87.669 496.903 87.4864Q498.087 87.3039 499.275 87.1501Q500.463 86.9963 501.655 86.8713C523.879 84.6698 549.737 91.2271 567.174 105.508C569.821 115.376 573.61 124.803 575.795 134.822C582.728 166.618 579.198 203.927 562.657 232.31C560.916 235.298 558.878 238.685 556.488 241.191Q555.809 242.143 555.085 243.061C553.636 244.869 552.011 246.343 549.601 246.488C545.928 246.709 540.913 241.372 538.333 239.209C527.521 253.636 509.98 263.622 492.211 266.106C485.217 267.083 477.264 267.37 470.282 266.263C466.438 265.654 459.954 262.87 456.493 263.268Z"/>
	<path d="M493.284 160.538C495.845 153.224 505.137 122.05 510.564 119.192C511.765 118.559 512.426 118.44 513.673 119.012C515.748 119.962 517.475 122.943 518.473 124.867C520.372 128.528 521.507 132.765 522.867 136.662C525.688 144.739 528.359 152.909 531.555 160.846C541.18 161.415 560.256 161.589 568.687 163.516C570.777 163.994 573.353 164.947 574.715 166.706C575.771 168.069 576.032 170.98 575.547 172.634C574.31 176.852 548.822 194.305 543.416 198.688C547.174 213.061 551.105 227.333 556.488 241.191Q555.809 242.143 555.085 243.061C553.636 244.869 552.011 246.343 549.601 246.488C545.928 246.709 540.913 241.372 538.333 239.209C529.463 233.042 520.655 226.736 511.671 220.739Q501.182 227.929 490.939 235.466C486.699 238.555 482.433 242.23 477.788 244.665C476.358 245.415 474.619 246.254 472.954 245.841C471.743 245.54 470.979 244.584 470.51 243.482C469.584 241.308 469.678 238.528 470.055 236.244C470.802 231.713 472.541 227.121 473.852 222.711C476.242 214.673 478.482 206.536 481.464 198.693L462.993 184.616C459.306 181.849 454.99 179.199 451.744 175.928C449.888 174.057 448.24 171.743 447.815 169.085C447.6 167.744 447.754 166.414 448.671 165.341C452.606 160.732 485.503 161.562 493.284 160.538Z"/>
	<path fill="white" d="M512.138 130.773C516.304 134.859 521.662 162.565 525.575 167.074C526.252 167.855 526.937 168.027 527.913 168.208C531.865 168.94 536.348 168.848 540.385 169.084C549.458 169.615 558.621 169.978 567.642 171.075C558.216 177.737 541.823 188.451 534.07 196.154C537.906 209.061 541.283 222.101 545.539 234.88C537.453 228.865 520.237 215.584 511.813 211.602C502.322 216.408 487.99 228.008 478.908 234.549C482.923 221.623 486.304 208.469 490.212 195.499C483.094 188.492 473.538 182.716 465.399 176.865C462.313 174.646 458.913 172.527 456.241 169.817C470.162 169.595 484.719 169.642 498.518 167.845C504.185 156.102 506.761 142.748 512.138 130.773Z"/>
	<path d="M413.48 256.933C435.131 283.554 459.605 299.691 494.088 304.961L494.404 414.001C487.308 417.248 478.714 422.425 471.071 423.838C465.87 424.8 460.06 424.317 454.779 424.291L416.393 424.103C408.392 424.067 399.399 423.21 391.534 424.932Q389.479 425.38 387.493 426.07Q385.506 426.759 383.616 427.68Q381.725 428.601 379.958 429.741Q378.19 430.88 376.571 432.222C368.731 438.754 365.765 447.189 364.801 457.067L325.476 457.003L325.448 500.535C325.445 507.926 324.847 515.907 325.718 523.238C325.933 525.047 326.421 526.897 327.72 528.248C328.625 529.19 329.589 529.537 330.835 529.735C335.085 530.41 339.875 529.983 344.18 529.966L365.66 529.979C367.486 534.6 369.893 538.849 373.439 542.369C381.476 550.349 391.101 551.584 401.901 551.635C401.967 588.21 411.618 626.12 426.439 659.406C429.308 665.847 432.157 672.439 435.851 678.455C444.025 678.944 486.792 679.503 491.806 677.739C493.607 674.378 489.554 668.751 488.003 665.763C468.981 629.118 462.266 592.886 461.865 551.983C465.792 551.965 469.575 551.745 473.343 553.033C486.163 557.413 499.408 565.048 511.882 570.697C548.519 587.289 584.796 604.79 621.604 620.982C622.018 625.503 622.739 628.858 625.83 632.431Q626.358 633.041 626.947 633.594Q627.535 634.146 628.178 634.635Q628.82 635.123 629.51 635.543Q630.2 635.962 630.929 636.308Q631.659 636.653 632.42 636.921Q633.182 637.19 633.966 637.378Q634.752 637.566 635.552 637.671Q636.352 637.777 637.159 637.799Q637.574 637.813 637.99 637.805Q638.405 637.797 638.82 637.768Q639.234 637.739 639.647 637.688Q640.059 637.638 640.469 637.565Q640.878 637.493 641.283 637.4Q641.688 637.307 642.088 637.193Q642.487 637.079 642.88 636.944Q643.273 636.81 643.659 636.655Q644.045 636.5 644.422 636.326Q644.799 636.151 645.167 635.957Q645.534 635.763 645.891 635.55Q646.248 635.338 646.594 635.107Q646.939 634.876 647.272 634.627Q647.605 634.379 647.925 634.113Q648.245 633.848 648.55 633.566Q648.856 633.284 649.146 632.987C651.78 630.315 653.169 626.965 653.749 623.298C654.921 615.883 653.944 606.329 653.953 598.697L654.049 541.485C655.619 540.93 657.194 540.371 658.73 539.724C672.819 533.795 684.502 521.474 690.277 507.393C696.394 492.475 696.2 474.197 689.976 459.353C683.238 443.284 670.14 432.027 654.234 425.488L654.005 378.879C654.027 370.371 654.708 361.454 653.989 353.002C653.766 350.377 653.102 347.736 651.836 345.413Q651.455 344.719 651.005 344.069Q650.554 343.418 650.039 342.818Q649.523 342.218 648.948 341.674Q648.373 341.13 647.745 340.649Q647.117 340.168 646.442 339.754Q645.767 339.341 645.054 338.999Q644.34 338.658 643.594 338.392Q642.849 338.126 642.08 337.939Q641.299 337.744 640.503 337.632Q639.706 337.519 638.902 337.49Q638.097 337.461 637.295 337.516Q636.492 337.57 635.699 337.708Q634.906 337.846 634.132 338.066Q633.358 338.286 632.611 338.585Q631.864 338.884 631.152 339.259Q630.44 339.634 629.771 340.081C625.088 343.202 623.228 347.382 622.182 352.746C611.301 359.224 599.224 364.414 587.827 369.931C568.78 379.153 549.653 388.521 530.203 396.857C529.691 366.156 530.353 335.329 530.334 304.615C563.298 298.696 585.786 284.646 607.886 259.808C626.362 264.039 654.136 281.223 669.674 292.658Q669.836 297.741 670.36 302.8C673.168 328.776 686.227 351.227 706.487 367.46C707.004 375.173 716.607 391.421 720.074 398.938Q725.09 409.923 729.607 421.123Q730.944 424.545 732.19 428.002Q733.436 431.458 734.59 434.947Q735.744 438.435 736.804 441.953Q737.865 445.471 738.832 449.016Q739.798 452.56 740.67 456.13Q741.543 459.699 742.32 463.29Q743.096 466.881 743.778 470.492Q744.459 474.102 745.044 477.73Q745.629 481.357 746.117 484.999Q746.606 488.64 746.997 492.294Q747.388 495.947 747.683 499.609Q747.977 503.272 748.173 506.941Q748.37 510.61 748.469 514.283Q748.568 517.955 748.57 521.63Q748.571 525.304 748.475 528.977Q748.379 532.65 748.185 536.319C747.8 543.952 747.431 551.653 746.597 559.25C746.086 563.905 744.999 568.781 744.842 573.44C724.78 582.822 708.957 596.824 701.318 618.182C694.164 638.18 696.012 661.409 705.206 680.413C715.085 700.834 731.56 713.816 752.797 721.062L753.79 721.398Q753.946 733.539 753.917 745.681C744.91 747.963 728.999 752.812 723.8 761.175C720.084 767.153 721.571 793.516 721.609 801.795C700.966 818.493 679.038 833.907 655.083 845.541L654.975 759.767C654.969 746.362 655.798 732.279 654.759 718.953C654.571 716.55 654.332 712.661 652.68 710.842C651.005 708.998 648.492 708.089 646.091 707.785C639.769 706.986 632.907 707.518 626.514 707.512L587.877 707.478C546.319 707.428 504.696 706.962 463.144 707.477C455.388 707.574 448.673 708.232 442.988 714.264C438.709 718.804 437.403 724.06 437.258 730.121C435.334 734.004 437.987 790.725 436.857 800.782C429.526 800.835 420.044 800.073 413.268 803.235C398.639 801.285 378.802 795.5 368.248 784.757C363.348 779.77 359.843 773.862 358.233 767.04C355.59 755.845 356.926 741.857 356.919 730.259L356.975 670.552C357.043 654.867 355.763 641.926 344.041 630.271C332.436 618.733 319.355 617.382 303.788 617.479C301.35 609.224 298.072 604.745 291.348 599.451C290.855 595.982 289.402 592.523 288.314 589.197C286.211 582.772 284.058 576.35 282.404 569.791Q281.592 566.695 280.866 563.578Q280.14 560.461 279.501 557.325Q278.861 554.189 278.308 551.036Q277.755 547.884 277.29 544.718Q276.825 541.551 276.447 538.373Q276.069 535.195 275.779 532.007Q275.49 528.82 275.288 525.626Q275.086 522.432 274.973 519.233Q274.86 516.034 274.835 512.834Q274.81 509.634 274.873 506.434Q274.937 503.234 275.089 500.037Q275.241 496.84 275.481 493.648Q275.721 490.457 276.049 487.273Q276.378 484.09 276.794 480.916Q277.21 477.743 277.714 474.582Q278.217 471.422 278.808 468.276C279.636 463.792 282.813 444.345 286.144 442.051L318.137 442.03C318.698 427.975 318.339 413.78 318.367 399.71L318.618 318.79C344.798 291.959 378.265 269.811 413.48 256.933Z"/>
</svg>
