<?xml version="1.0" encoding="utf-8" ?>
<svg xmlns="http://www.w3.org/2000/svg" xmlns:xlink="http://www.w3.org/1999/xlink" width="1024" height="1024">
	<path fill="#FBF1EC" d="M0 0L1024 0L1024 1024L0 1024L0 0Z"/>
	<path fill="#F6B15A" d="M713.758 350.563C714.809 353.154 717.95 358.224 717.892 360.747C717.225 361.445 717.166 361.561 716.964 362.506C715.925 361.715 714.761 361.101 713.635 360.443C713.591 359.162 713.717 357.811 713.019 356.69C712.319 357.924 711.638 359.79 710.347 360.33L709.226 359.434C710.721 356.478 712.152 353.46 713.758 350.563Z"/>
	<path fill="#F6B15A" d="M709.226 359.434L710.347 360.33C711.638 359.79 712.319 357.924 713.019 356.69C713.717 357.811 713.591 359.162 713.635 360.443C714.761 361.101 715.925 361.715 716.964 362.506C717.166 361.561 717.225 361.445 717.892 360.747C719.959 361.894 722.157 361.909 724.446 362.286C725.815 362.511 727.423 362.792 728.249 363.947C726.558 366.906 720.661 366.039 718.009 367.997C715.413 369.915 715.876 375.439 713.275 377.537C711.414 375.575 711.553 371.943 711.325 369.332C708.032 367.533 702.923 366.21 700.241 363.717L700.328 362.917C702.742 361.151 705.843 361.361 708.412 359.917C708.687 359.762 708.955 359.595 709.226 359.434Z"/>
	<path fill="#FBF1EC" d="M713.635 360.443C714.761 361.101 715.925 361.715 716.964 362.506C717.088 364.078 717.087 364.62 716.225 366.03C714.955 366.791 714.715 366.839 713.23 366.855C712.134 366.088 712.048 366.012 711.574 364.766C711.604 362.896 712.549 361.895 713.635 360.443Z"/>
	<path fill="#F6B15A" d="M401.306 300.7L403.197 301.103C405.667 303.509 405.319 308.787 405.544 312.019C407.666 311.97 409.846 311.86 411.963 312.026C414.105 312.194 416.017 312.842 417.438 314.508L417.264 315.407C414.496 317.474 408.836 317.277 405.376 317.68C405.184 321.226 405.163 324.89 404.327 328.352C403.399 328.408 402.897 328.338 402.009 328.139C399.54 325.417 399.997 320.568 399.822 317.057C396.428 317.008 391.999 317.543 389.38 314.96L389.427 313.977C392.399 311.475 396.173 311.911 399.86 311.778C399.927 308.085 399.769 304.13 401.306 300.7Z"/>
	<path fill="#F6B15A" d="M558.965 103.152C561.295 100.883 562.464 98.0638 564.332 95.4731C565.091 94.4208 565.576 93.7529 566.88 93.4783C568.44 95.2582 568.028 98.525 568.034 100.772Q568.316 102.856 568.639 104.934C571.601 106.639 575.719 108.453 577.952 111.032L577.931 111.871C576.031 112.833 573.538 112.873 571.437 113.129C570.773 113.226 570.111 113.325 569.456 113.475C565.674 114.343 562.439 122.169 560.493 125.454C559.271 120.625 558.623 115.815 556.67 111.197C554.262 109.826 551.245 108.533 549.505 106.353L549.808 105.554C552.708 104.285 555.92 104.057 558.965 103.152Z"/>
	<path fill="#1791C6" d="M865.104 503.768C871.745 504.864 877.89 506.244 884.698 505.456C888.56 505.009 892.535 503.263 896.414 503.625C891.928 513.585 885.668 522.624 880.822 532.405C875.45 522.934 870.661 513.129 865.104 503.768Z"/>
	<path fill="#F6B15A" d="M247.318 251.985C275.435 255.797 293.835 264.118 315.536 282.283C307.117 292.319 298.005 301.984 289.018 311.52C284.488 316.326 278.251 321.484 274.843 327.134L268.255 319.966C253.303 305.416 245.596 302.507 227.441 293.828C237.763 281.558 244.469 267.801 247.318 251.985Z"/>
	<path fill="#F6B15A" d="M315.536 282.283C336.664 303.544 349.955 329.012 352.742 359.114L352.134 360.193C346.439 361.681 338.918 360.983 332.887 361.294Q313.359 362.367 293.846 363.688L292.453 363.535C290.319 360.849 289.333 353.743 287.795 350.037C284.31 341.639 280.266 334.401 274.843 327.134C278.251 321.484 284.488 316.326 289.018 311.52C298.005 301.984 307.117 292.319 315.536 282.283Z"/>
	<path fill="#304996" d="M903.861 723.576C905.912 721.394 907.934 719.297 910.23 717.366C909.761 752.386 910.265 787.457 910.324 822.482C910.351 838.061 911.859 863.877 908.559 878.391C906.616 886.94 901.55 895.163 895.283 901.236C889.026 907.299 880.877 911.825 872.244 913.305C862.952 914.898 852.807 914.149 843.387 914.139L797.599 914.166L699.864 914.334C682.923 914.356 665.888 914.74 648.954 914.338C646.085 914.27 643.233 914.247 640.555 913.09L640.478 908.005C660.062 907.394 679.844 907.92 699.451 907.917L838.019 907.86C834.422 905.395 830.884 902.594 827.796 899.51C821.854 893.576 817.907 886.366 816.183 878.147C814.399 869.645 814.903 860.754 814.918 852.109L814.944 825.076L814.99 719.861C816.793 719.772 818.712 719.465 820.367 720.304C821.66 721.908 821.299 724.538 821.39 726.521L821.195 783.024L821.034 836.496C821.008 849.167 819.503 867.138 822.719 879.233C824.316 885.239 828.272 891.123 832.65 895.478Q833.391 896.214 834.166 896.912Q834.942 897.611 835.75 898.271Q836.559 898.931 837.399 899.551Q838.238 900.171 839.107 900.749Q839.976 901.328 840.872 901.863Q841.768 902.398 842.689 902.889Q843.611 903.38 844.554 903.826Q845.498 904.272 846.463 904.671Q847.427 905.07 848.41 905.422Q849.393 905.773 850.391 906.077Q851.39 906.38 852.403 906.635Q853.415 906.889 854.438 907.094Q855.462 907.299 856.494 907.454Q857.526 907.608 858.565 907.713Q859.603 907.817 860.646 907.871Q861.688 907.924 862.732 907.927Q863.757 907.925 864.781 907.871Q865.804 907.818 866.824 907.713Q867.844 907.609 868.857 907.454Q869.87 907.298 870.875 907.093Q871.879 906.887 872.872 906.632Q873.864 906.376 874.843 906.071Q875.822 905.767 876.784 905.413Q877.746 905.06 878.69 904.659Q879.633 904.258 880.556 903.811Q881.478 903.364 882.377 902.871Q883.275 902.378 884.148 901.841Q885.021 901.304 885.867 900.724Q886.712 900.144 887.527 899.522Q888.342 898.901 889.125 898.239Q889.908 897.578 890.658 896.878Q891.407 896.178 892.12 895.442C897.681 889.703 901.495 882.731 903.064 874.894C904.79 866.277 904.343 857.207 904.357 848.458L904.286 815.251C904.139 784.718 904.545 754.097 903.861 723.576Z"/>
	<path fill="#F0585D" d="M525.377 255.589L525.905 255.478C529.379 259.936 531.737 263.029 536.562 266.219C539.419 268.107 545.147 268.349 548.499 268.533C569.474 269.689 590.996 268.786 612.024 268.767L706.561 268.886C708.782 275.75 711.051 282.426 714.548 288.777L677.996 288.551C682.692 302.774 687.443 316.892 693.874 330.437C688.105 326.982 682.522 322.646 677.01 318.764Q663.33 309.127 649.532 299.66C644.439 296.151 638.804 291.448 633.011 289.233C629.522 287.899 625.326 288.454 621.669 288.526C605.618 288.844 589.525 288.531 573.468 288.618C564.202 288.668 549.737 289.894 540.931 288.112C537.204 287.358 533.869 285.339 531.196 282.663C523.716 275.177 525.325 265.23 525.377 255.589Z"/>
	<path fill="#304996" d="M580.494 416.7L714.365 416.731L748.668 416.629C755.071 416.597 762.089 415.991 768.414 417.021C773.387 417.83 778.323 421.11 781.865 424.633C789.253 431.982 789.66 439.568 789.602 449.273L789.511 459.42C788.656 458.234 787.776 457.089 786.724 456.067C779.495 449.038 768.043 447.991 758.496 448.012L593.386 447.946C593.428 447.661 593.465 447.375 593.511 447.09C594.124 443.255 594.269 439.753 592.949 436.021C590.731 429.752 585.629 426.68 580.001 423.894C580.671 421.748 580.431 418.954 580.494 416.7Z"/>
	<path fill="#304996" d="M229.974 112.638L479.61 112.721C479.162 156.138 479.604 199.595 479.684 243.017L397.472 242.969C378.779 257.416 360.7 272.908 341.642 286.849L341.695 243.003L252.411 242.886C251.268 242.815 250.233 242.853 249.238 242.212C248.083 240.092 248.777 236.873 248.929 234.471L471.017 234.723L471.044 122.129L239.017 122.022L238.928 196.453C236.131 192.193 233.265 188.09 230.059 184.124C230.073 177.505 230.169 170.875 229.9 164.26L229.974 112.638Z"/>
	<path fill="#304996" d="M758.496 448.012C768.043 447.991 779.495 449.038 786.724 456.067C787.776 457.089 788.656 458.234 789.511 459.42Q790.248 514.216 789.916 569.016L790.012 719.803C779.571 719.247 769.007 719.715 758.543 719.528L758.496 448.012Z"/>
	<path fill="#304996" d="M466.531 347.728C467.197 338.644 468.216 330.415 474.578 323.315C479.217 318.137 485.844 314.816 492.429 312.857C525.531 303.004 550.595 331.11 578.902 341.777C587.585 345.049 594.685 345.758 603.899 345.28C603.944 348.789 603.944 352.335 603.736 355.839C602.622 374.635 594.366 388.552 580.548 400.804C576.847 402.553 572.136 403.566 568.775 405.63C565.274 406.377 560.946 406.736 557.609 407.882C554.234 407.958 550.843 408.048 547.47 407.896C518.074 406.567 497.363 394.47 477.902 373.191L473.815 375.698C462.641 384.035 455.663 395.965 453.63 409.733C453.012 413.922 452.738 418.187 452.446 422.41C450.085 422.491 447.668 422.467 445.321 422.726L444.345 422.443C443.25 420.178 443.129 417.601 442.813 415.129C439.543 403.782 436.22 391.645 436.808 379.754C437.276 370.317 440.297 360.166 447.622 353.754C452.948 349.091 459.572 347.223 466.531 347.728Z"/>
	<path fill="#F6B15A" d="M473.815 375.698L477.902 373.191C497.363 394.47 518.074 406.567 547.47 407.896C550.843 408.048 554.234 407.958 557.609 407.882C560.946 406.736 565.274 406.377 568.775 405.63C572.136 403.566 576.847 402.553 580.548 400.804L580.494 416.7C580.431 418.954 580.671 421.748 580.001 423.894C585.629 426.68 590.731 429.752 592.949 436.021C594.269 439.753 594.124 443.255 593.511 447.09C593.465 447.375 593.428 447.661 593.386 447.946C590.144 454.004 586.573 459.45 579.647 461.666C577.529 462.344 575.342 462.573 573.134 462.712C561.403 482.52 555.444 486.694 534.973 496.017C518.829 500.661 504.022 500.567 487.962 495.583C484.896 493.74 481.07 492.491 477.857 490.728C464.263 483.267 458.373 475.801 450.263 462.914C444.892 461.612 438.164 459.85 434.638 455.298C433.146 453.373 432.121 451.156 430.705 449.202C429.723 447.848 429.695 447.939 428.086 447.696L429.274 447.526C430.892 445.347 429.505 437.417 431.371 433.538C434.191 427.674 439.489 424.846 445.321 422.726C447.668 422.467 450.085 422.491 452.446 422.41C452.738 418.187 453.012 413.922 453.63 409.733C455.663 395.965 462.641 384.035 473.815 375.698Z"/>
	<path fill="#F0585D" d="M507.864 452.058C506.205 450.525 504.683 448.113 504.63 445.775C504.609 444.858 504.965 444.387 505.343 443.577C506.658 442.551 507.823 442.277 509.468 442.477C512.128 442.801 514.494 444.817 516.513 446.423C516.553 449.532 516.468 452.699 516.67 455.798C513.216 455.142 510.888 453.708 507.864 452.058Z"/>
	<path fill="#F0585D" d="M451.045 430.861L451.504 431.01C452.758 432.776 452.009 445.987 451.776 449.036L451.051 449.542C449.353 449.538 448.103 448.737 446.643 447.972C445.845 447.107 445.163 446.294 444.612 445.245C443.357 442.858 443.067 440.03 443.977 437.477C445.271 433.844 447.661 432.343 451.045 430.861Z"/>
	<path fill="#F0585D" d="M569.882 430.167C572.224 431.095 574.66 432.073 576.657 433.644C578.501 435.095 580.156 437.017 580.356 439.448C580.598 442.372 579.018 444.547 577.217 446.655C576.202 447.481 574.653 448.892 573.386 449.253C572.154 449.605 571.882 449.361 570.906 448.722C568.774 444.506 569.916 435.192 569.882 430.167Z"/>
	<path fill="#304996" d="M539.016 426.429C539.982 426.478 540.986 426.506 541.931 426.721C543.887 427.164 545.853 428.597 546.902 430.299Q547.088 430.601 547.242 430.92Q547.396 431.239 547.516 431.573Q547.637 431.906 547.722 432.25Q547.808 432.594 547.857 432.945Q547.907 433.297 547.92 433.651Q547.933 434.005 547.91 434.359Q547.887 434.713 547.828 435.062Q547.768 435.411 547.673 435.753C546.916 438.546 544.976 439.939 542.565 441.275C541.686 441.36 540.909 441.398 540.032 441.289C538.093 441.046 536.226 439.878 535.131 438.263C533.905 436.457 533.621 434.136 534.124 432.035C534.817 429.137 536.558 427.864 539.016 426.429Z"/>
	<path fill="#304996" d="M481.106 426.494C481.946 426.537 482.815 426.576 483.639 426.755C485.566 427.175 487.444 428.59 488.436 430.281C489.455 432.018 489.611 434.058 489.075 435.982C488.257 438.918 486.43 440.143 483.858 441.501C482.936 441.52 481.986 441.452 481.083 441.253C479.155 440.829 477.336 439.516 476.329 437.819C475.177 435.879 475.046 433.703 475.75 431.577C476.648 428.864 478.661 427.673 481.106 426.494Z"/>
	<path fill="#304996" d="M580.548 400.804L580.494 416.7C580.431 418.954 580.671 421.748 580.001 423.894C576.659 422.769 573.297 422.667 569.812 422.579C569.311 416.955 569.109 411.269 568.775 405.63C572.136 403.566 576.847 402.553 580.548 400.804Z"/>
	<path fill="#F0585D" d="M507.864 452.058C510.888 453.708 513.216 455.142 516.67 455.798C516.733 459.928 515.718 464.302 512.758 467.367C512.528 467.604 512.285 467.826 512.048 468.056C510.344 469.174 508.705 469.89 506.661 470.139C504.739 470.374 502.97 469.893 501.501 468.608C499.271 466.657 498.062 463.333 497.932 460.432C497.838 458.328 498.355 456.925 499.748 455.384C501.2 454.792 501.273 455.011 502.778 455.544C504.736 455.327 506.558 453.432 507.864 452.058Z"/>
	<path fill="#F0585D" d="M473.815 375.698L477.902 373.191C497.363 394.47 518.074 406.567 547.47 407.896C550.843 408.048 554.234 407.958 557.609 407.882C557.127 408.391 557.123 408.446 556.446 408.881C550.592 412.647 528.195 410.804 521.186 409.386C501.828 405.47 484.605 391.998 473.815 375.698Z"/>
	<path fill="#48BDD9" d="M865.104 503.768C864.892 503.623 864.682 503.474 864.468 503.333C860.388 500.65 854.328 499.59 849.785 497.343C833.496 489.284 821.435 473.163 817.259 455.592Q816.907 454.101 816.63 452.594Q816.352 451.088 816.149 449.569Q815.947 448.051 815.82 446.524Q815.693 444.997 815.641 443.466Q815.59 441.935 815.614 440.403Q815.639 438.871 815.739 437.342Q815.84 435.814 816.016 434.292Q816.192 432.77 816.443 431.259Q816.694 429.747 817.019 428.25Q817.345 426.753 817.744 425.274Q818.144 423.795 818.616 422.338Q819.088 420.881 819.632 419.448Q820.176 418.016 820.79 416.612Q821.404 415.209 822.086 413.837Q822.769 412.466 823.519 411.13Q824.269 409.794 825.084 408.497C834.585 393.314 847.958 383.058 865.563 379.139C883.053 375.247 901.507 378.077 916.582 387.84C930.329 396.742 939.8 410.285 943.164 426.352C946.706 443.268 943.922 461.15 934.36 475.632C925.539 488.994 912.232 497.587 897.415 502.994C896.654 503.271 896.928 503.099 896.414 503.625C892.535 503.263 888.56 505.009 884.698 505.456C877.89 506.244 871.745 504.864 865.104 503.768Z"/>
	<path fill="#F0585D" d="M846.516 476.512C837.298 468.265 831.332 455.595 830.67 443.259C829.979 430.374 835.051 417.014 843.752 407.563Q844.579 406.652 845.451 405.783Q846.322 404.914 847.236 404.09Q848.149 403.265 849.103 402.487Q850.057 401.71 851.048 400.98Q852.039 400.251 853.065 399.572Q854.091 398.892 855.15 398.265Q856.209 397.638 857.297 397.064Q858.386 396.491 859.502 395.972Q860.618 395.453 861.758 394.991Q862.899 394.528 864.061 394.123Q865.223 393.718 866.403 393.371Q867.584 393.025 868.781 392.737Q869.977 392.449 871.187 392.222Q872.396 391.994 873.615 391.827Q874.834 391.66 876.06 391.554Q877.286 391.448 878.516 391.403C892.44 390.881 905.011 395.841 915.101 405.434C924.683 414.544 930.726 426.556 930.948 439.889C931.199 454.97 924.167 465.812 914.578 476.719C914.195 477.406 913.76 478.378 913.216 478.936C912.98 479.178 912.308 479.709 911.926 479.848C908.838 480.973 856.626 480.102 849.099 480.162L846.516 476.512Z"/>
	<path fill="#FBF1EC" d="M872.339 446.193C866.783 441.15 861.489 435.947 861.19 427.912C860.992 422.583 863.179 417.439 866.878 413.643C870.865 409.551 876.277 407.203 882.008 407.321Q882.954 407.338 883.893 407.447Q884.833 407.557 885.757 407.759Q886.681 407.962 887.581 408.254Q888.481 408.547 889.347 408.927Q890.213 409.307 891.038 409.77Q891.862 410.234 892.637 410.777Q893.412 411.32 894.129 411.937Q894.846 412.553 895.499 413.238C899.116 417.012 901.594 422.778 901.357 428.045C901.095 433.859 897.875 439.298 893.561 443.073C892.241 444.227 890.733 445.205 889.33 446.254C898.88 459.806 914.382 454.35 914.578 476.719C914.195 477.406 913.76 478.378 913.216 478.936C912.98 479.178 912.308 479.709 911.926 479.848C908.838 480.973 856.626 480.102 849.099 480.162L846.516 476.512C846.349 470.845 847.482 466.222 851.591 462.041C857.929 455.59 867.476 454.271 872.339 446.193Z"/>
	<path fill="#48BDD9" d="M840.673 716.451C851.623 727.395 862.382 737.035 875.423 745.505C885.653 738.952 894.864 731.74 903.861 723.576C904.545 754.097 904.139 784.718 904.286 815.251L904.357 848.458C904.343 857.207 904.79 866.277 903.064 874.894C901.495 882.731 897.681 889.703 892.12 895.442Q891.407 896.178 890.658 896.878Q889.908 897.578 889.125 898.239Q888.342 898.901 887.527 899.522Q886.712 900.144 885.867 900.724Q885.021 901.304 884.148 901.841Q883.275 902.378 882.377 902.871Q881.478 903.364 880.556 903.811Q879.633 904.258 878.69 904.659Q877.746 905.06 876.784 905.413Q875.822 905.767 874.843 906.071Q873.864 906.376 872.872 906.632Q871.879 906.887 870.875 907.093Q869.87 907.298 868.857 907.454Q867.844 907.609 866.824 907.713Q865.804 907.818 864.781 907.871Q863.757 907.925 862.732 907.927Q861.688 907.924 860.646 907.871Q859.603 907.817 858.565 907.713Q857.526 907.608 856.494 907.454Q855.462 907.299 854.438 907.094Q853.415 906.889 852.402 906.635Q851.39 906.38 850.391 906.077Q849.393 905.773 848.41 905.422Q847.427 905.07 846.463 904.671Q845.498 904.272 844.554 903.826Q843.61 903.38 842.689 902.889Q841.768 902.398 840.872 901.863Q839.976 901.328 839.107 900.749Q838.238 900.171 837.398 899.551Q836.559 898.931 835.75 898.271Q834.942 897.611 834.166 896.912Q833.391 896.214 832.65 895.478C828.272 891.123 824.316 885.239 822.719 879.233C819.503 867.138 821.008 849.167 821.034 836.496L821.195 783.024L821.39 726.521C828.446 724.591 834.743 720.629 840.673 716.451Z"/>
	<path fill="#F6B15A" d="M194.791 316.585C207.719 311.03 217.633 303.853 227.441 293.828C245.596 302.507 253.303 305.416 268.255 319.966L274.843 327.134C280.266 334.401 284.31 341.639 287.795 350.037C289.333 353.743 290.319 360.849 292.453 363.535L293.846 363.688Q313.359 362.367 332.887 361.294C338.918 360.983 346.439 361.681 352.134 360.193L352.742 359.114C355.534 378.437 350.224 397.637 343.823 415.64C327.21 415.574 310.325 416.325 293.746 415.496C286.698 415.739 267.721 414.488 262.255 416.797C261.626 417.063 260.997 417.325 260.371 417.599C259.865 417.821 260.083 417.772 259.67 417.814C259.615 417.662 259.588 417.497 259.506 417.358Q244.375 391.569 230.774 364.942C220.557 370.451 210.006 375.366 199.601 380.514C187.411 386.546 175.231 392.819 162.736 398.194C154.208 381.896 147.315 362.697 145.915 344.297C145.502 338.868 146.622 328.085 145.032 323.537L146.439 322.592C149.047 321.279 164.791 323.195 170.243 322.679C178.842 321.864 186.68 319.385 194.791 316.585Z"/>
	<path fill="#F6B15A" d="M194.791 316.585C207.719 311.03 217.633 303.853 227.441 293.828C245.596 302.507 253.303 305.416 268.255 319.966C264.643 323.794 259.567 326.74 255.266 329.726C245.345 336.613 234.326 343.527 225.556 351.78C220.355 340.291 205.904 322.928 194.791 316.585Z"/>
	<path fill="#F6B15A" d="M119.608 310.525C124.21 312.189 128.523 314.99 133.033 316.979C136.228 318.388 144.14 320.405 146.439 322.592L145.032 323.537C146.622 328.085 145.502 338.868 145.915 344.297C147.315 362.697 154.208 381.896 162.736 398.194C175.231 392.819 187.411 386.546 199.601 380.514C210.006 375.366 220.557 370.451 230.774 364.942Q244.375 391.569 259.506 417.358C259.588 417.497 259.615 417.662 259.67 417.814C250.113 417.975 243.331 419.076 235.971 425.612C227.5 436.014 229.395 448.211 229.482 460.774L229.469 501.499C204.122 501.858 177.203 492.319 157.035 477.161C138.18 464.085 123.884 443.514 114.731 422.712L114.546 422.146C105.824 399.274 101.216 368.092 108.225 344.139C110.297 332.525 114.86 321.269 119.608 310.525Z"/>
	<path fill="#F6B15A" d="M203.057 445.338C203.169 444.924 203.111 444.993 203.488 444.579C206.736 441.018 226.331 429.288 231.584 426.792C233.004 426.117 234.422 425.816 235.971 425.612C227.5 436.014 229.395 448.211 229.482 460.774C221.756 458.77 210.784 449.323 203.057 445.338Z"/>
	<path fill="#1791C6" d="M119.608 310.525C124.21 312.189 128.523 314.99 133.033 316.979C136.228 318.388 144.14 320.405 146.439 322.592L145.032 323.537Q126.485 333.583 108.225 344.139C110.297 332.525 114.86 321.269 119.608 310.525Z"/>
	<path fill="#F6B15A" d="M114.546 422.146C130.55 414.406 146.754 407.025 162.427 398.633C172.948 416.205 185.767 432.654 202.279 444.993C192.717 452.625 182.132 459.194 171.995 466.05C167.067 469.382 160.94 472.669 157.035 477.161C138.18 464.085 123.884 443.514 114.731 422.712L114.546 422.146Z"/>
	<path fill="#48BDD9" d="M582.135 853.707C581.893 868.439 584.862 881.802 595.362 892.763C604.765 902.58 618.199 907.946 631.706 908.16C634.627 908.206 637.558 908.097 640.478 908.005L640.555 913.09C632.945 912.037 624.303 912.68 616.584 912.651L566.721 912.579L397.893 912.626L345.188 912.689C335.557 912.705 325.578 913.267 316.008 912.426C319.936 910.037 323.839 909.355 327.285 905.93Q327.886 905.331 328.444 904.693Q329.001 904.054 329.514 903.379Q330.026 902.703 330.491 901.994Q330.955 901.284 331.369 900.544Q331.784 899.804 332.146 899.037Q332.508 898.271 332.816 897.481Q333.124 896.691 333.377 895.881Q333.63 895.072 333.826 894.247C335.896 885.726 334.594 863.854 334.52 853.982L582.135 853.707Z"/>
	<path fill="#F0585D" d="M829.137 703.023C823.909 697.096 819.624 689.026 815.875 682.019C805.189 662.051 799.613 638.113 806.507 615.92C811.227 600.727 822.264 589.61 836.173 582.317Q837.109 581.827 838.058 581.36Q839.006 580.893 839.966 580.45Q840.926 580.007 841.896 579.588Q842.867 579.169 843.847 578.775Q844.828 578.38 845.818 578.011Q846.809 577.641 847.808 577.296Q848.807 576.951 849.814 576.631Q850.822 576.312 851.837 576.017Q852.852 575.723 853.874 575.453Q854.897 575.184 855.925 574.941Q856.954 574.698 857.988 574.48Q859.023 574.263 860.062 574.071Q861.102 573.879 862.146 573.714Q863.19 573.548 864.238 573.409Q865.285 573.269 866.336 573.156Q867.387 573.043 868.441 572.956Q869.494 572.869 870.549 572.809Q871.605 572.748 872.661 572.714Q873.718 572.68 874.775 572.672Q875.832 572.665 876.889 572.683Q877.946 572.702 879.002 572.747Q880.058 572.793 881.112 572.864Q882.167 572.936 883.219 573.034Q884.272 573.132 885.322 573.256Q886.371 573.38 887.417 573.531Q888.464 573.681 889.506 573.858Q890.548 574.034 891.586 574.237Q892.623 574.439 893.655 574.668Q894.687 574.896 895.713 575.15Q896.739 575.405 897.759 575.684Q898.778 575.964 899.79 576.269Q900.802 576.575 901.806 576.905C917.441 581.922 932.172 592.234 939.689 607.133C946.337 620.309 949.324 639.648 944.697 653.891C940.359 678.662 925.641 698.399 910.23 717.366C907.934 719.297 905.912 721.394 903.861 723.576C894.864 731.74 885.653 738.952 875.423 745.505C862.382 737.035 851.623 727.395 840.673 716.451C836.712 712.055 832.826 707.653 829.137 703.023Z"/>
	<path fill="#F0585D" d="M829.137 703.023C829.489 702.856 830.36 702.584 830.731 702.636C833.849 703.076 838.277 705.956 841.392 707.206Q849.263 710.372 857.588 712.006C891.704 718.377 918.213 696.189 935.286 668.834C937.091 665.942 941.946 655.464 944.118 654.194C944.306 654.084 944.504 653.992 944.697 653.891C940.359 678.662 925.641 698.399 910.23 717.366C907.934 719.297 905.912 721.394 903.861 723.576C894.864 731.74 885.653 738.952 875.423 745.505C862.382 737.035 851.623 727.395 840.673 716.451C836.712 712.055 832.826 707.653 829.137 703.023Z"/>
	<path fill="#FBF1EC" d="M874.728 624.612C876.181 621.534 877.856 618.828 880.36 616.48C884.637 612.468 890.363 610.06 896.271 610.341C902.552 610.639 908.394 613.799 912.629 618.355Q913.114 618.879 913.573 619.427Q914.032 619.974 914.463 620.544Q914.894 621.114 915.297 621.704Q915.699 622.294 916.071 622.904Q916.444 623.514 916.786 624.141Q917.128 624.768 917.438 625.412Q917.748 626.055 918.026 626.713Q918.304 627.372 918.549 628.043Q918.794 628.714 919.005 629.396Q919.216 630.079 919.394 630.771Q919.571 631.463 919.714 632.163Q919.856 632.863 919.964 633.569Q920.072 634.275 920.144 634.986Q920.217 635.697 920.254 636.41Q920.291 637.124 920.293 637.838Q920.295 638.552 920.261 639.266C919.49 652.734 906.775 663.484 897.385 671.972Q887.475 681.361 876.224 689.091C875.115 688.535 874.034 687.943 872.953 687.336C859.704 679.906 833.753 658.31 829.803 643.236Q829.625 642.577 829.482 641.909Q829.338 641.241 829.228 640.567Q829.119 639.893 829.045 639.214Q828.97 638.535 828.931 637.853Q828.891 637.171 828.887 636.488Q828.882 635.805 828.913 635.123Q828.943 634.441 829.009 633.761Q829.075 633.081 829.175 632.406Q829.275 631.73 829.41 631.061Q829.545 630.391 829.714 629.729Q829.883 629.068 830.086 628.416Q830.289 627.763 830.525 627.123Q830.761 626.482 831.03 625.854Q831.299 625.226 831.599 624.613Q831.9 623.999 832.232 623.402Q832.563 622.805 832.925 622.226C836.828 616.051 843.381 612.167 850.379 610.605C853.353 610.394 856.194 610.454 859.1 611.206C866.694 613.17 870.988 618.127 874.728 624.612Z"/>
	<path fill="#48BDD9" d="M119.608 310.525C118.056 308.961 115.709 307.663 113.94 306.299C109.528 302.897 105.358 299.308 101.508 295.276Q100.796 294.536 100.102 293.777Q99.4089 293.019 98.7346 292.244Q98.0603 291.469 97.4057 290.677Q96.751 289.885 96.1163 289.078Q95.4816 288.27 94.8673 287.446Q94.2531 286.623 93.6596 285.784Q93.0661 284.945 92.4937 284.092Q91.9214 283.239 91.3706 282.372Q90.8198 281.504 90.2908 280.624Q89.7618 279.743 89.2551 278.849Q88.7483 277.955 88.264 277.049Q87.7798 276.143 87.3183 275.225Q86.8569 274.307 86.4185 273.378Q85.9802 272.449 85.5652 271.509Q85.1502 270.569 84.7589 269.619Q84.3676 268.669 84.0001 267.71Q83.6326 266.75 83.2893 265.782Q82.9459 264.814 82.6269 263.837Q82.3078 262.861 82.0133 261.876Q81.7188 260.892 81.449 259.901Q81.1792 258.909 80.9343 257.912Q80.6894 256.914 80.4695 255.91Q80.2495 254.907 80.0548 253.898Q79.8601 252.889 79.6906 251.876Q79.5212 250.862 79.3771 249.845Q79.2331 248.828 79.1145 247.807Q78.9959 246.787 78.9029 245.764Q78.8099 244.741 78.7425 243.715Q78.6751 242.69 78.6334 241.664Q78.5916 240.637 78.5756 239.61Q78.5595 238.582 78.5691 237.555Q78.5788 236.528 78.6141 235.501C79.3396 212.171 88.9275 191.455 105.98 175.556Q106.76 174.829 107.557 174.122Q108.355 173.414 109.17 172.726Q109.985 172.039 110.816 171.372Q111.648 170.704 112.495 170.058Q113.343 169.411 114.206 168.786Q115.07 168.16 115.948 167.556Q116.827 166.952 117.72 166.37Q118.614 165.788 119.521 165.229Q120.428 164.669 121.349 164.131Q122.27 163.594 123.204 163.08Q124.138 162.565 125.084 162.074Q126.03 161.583 126.988 161.115Q127.946 160.648 128.916 160.204Q129.885 159.76 130.865 159.34Q131.845 158.92 132.835 158.525Q133.825 158.129 134.825 157.758Q135.824 157.388 136.833 157.041Q137.841 156.695 138.858 156.374Q139.874 156.053 140.899 155.757Q141.923 155.461 142.954 155.19Q143.985 154.92 145.023 154.675Q146.061 154.43 147.104 154.21Q148.147 153.991 149.196 153.797Q150.244 153.604 151.297 153.436Q152.35 153.269 153.407 153.127Q154.463 152.986 155.523 152.87Q156.583 152.755 157.645 152.665Q158.708 152.576 159.772 152.513Q160.836 152.45 161.902 152.413Q162.967 152.377 164.034 152.366Q165.1 152.356 166.166 152.372Q167.232 152.388 168.297 152.43C192.993 153.429 213.273 165.851 229.635 183.645C229.646 177.19 229.522 170.705 229.9 164.26C230.169 170.875 230.073 177.505 230.059 184.124C233.265 188.09 236.131 192.193 238.928 196.453C244.027 211.494 247.416 217.65 248.929 234.471C248.777 236.873 248.083 240.092 249.238 242.212C250.233 242.853 251.268 242.815 252.411 242.886C251.077 242.989 249.611 242.73 248.737 243.935C247.364 245.827 247.831 249.663 247.318 251.985C244.469 267.801 237.763 281.558 227.441 293.828C217.633 303.853 207.719 311.03 194.791 316.585C186.68 319.385 178.842 321.864 170.243 322.679C164.791 323.195 149.047 321.279 146.439 322.592C144.14 320.405 136.228 318.388 133.033 316.979C128.523 314.99 124.21 312.189 119.608 310.525Z"/>
	<path fill="#FBF1EC" d="M163.485 193.532C165.137 193.496 166.912 193.369 168.49 193.949C175.572 196.551 177.238 210.231 180.17 216.436L180.477 217.077C187.283 217.131 200.338 214.378 205.593 219.134C207.143 220.536 208.244 222.696 208.185 224.812C207.983 231.982 194.225 239.658 189.206 244.291L188.523 244.927C191.023 251.545 194.841 258.186 196.555 265.02C197.06 267.033 196.554 268.859 195.456 270.585C194.083 272.74 191.805 274.584 189.248 275.048C182.539 276.265 173.772 267.588 168.629 263.723C167.572 263.144 166.72 262.864 165.541 262.624C160.906 263.585 156.026 269.469 152.224 272.36C149.542 274.399 146.054 276.556 142.523 275.906C140.179 275.474 138.437 273.611 137.266 271.645C133.722 265.702 140.191 251.358 141.801 244.876C137.562 240.109 125.765 234.799 123.708 229.637C122.713 227.141 123.098 223.199 124.289 220.831C128.512 212.435 142.607 219.722 149.252 216.79C154.43 214.506 154.812 205.829 156.623 201.02C158.086 197.135 159.76 195.273 163.485 193.532Z"/>
	<path fill="#F0585D" d="M525.377 255.589C524.386 250.524 525.147 237.691 525.127 231.957L525.124 165.611C525.197 157.617 525.502 151.364 531.751 145.507C534.426 143 537.705 141.361 541.35 140.902C549.322 139.9 558.202 140.716 566.273 140.728L617.795 140.795L703.558 140.772C720.636 140.771 737.848 140.375 754.905 141.181C738.792 152.458 727.274 165.362 716.87 181.953C715.605 184.409 714.294 186.846 713.2 189.383C711.1 194.404 709.208 199.429 707.454 204.581C706.662 207.201 705.803 209.816 705.197 212.487C700.55 229.876 701.108 251.706 706.561 268.886L612.024 268.767C590.996 268.786 569.474 269.689 548.499 268.533C545.147 268.349 539.419 268.107 536.562 266.219C531.737 263.029 529.379 259.936 525.905 255.478L525.377 255.589Z"/>
	<path fill="#FBF1EC" d="M550.976 204.52C560.14 204.258 613.103 203.211 618.015 205.328C618.916 206.349 619.248 206.6 619.191 208.052C619.129 209.657 617.847 211.035 616.809 212.119C610.403 212.739 552.194 213.09 550.341 211.432C549.433 210.62 548.921 209.705 548.929 208.463C548.939 206.842 549.985 205.677 550.976 204.52Z"/>
	<path fill="#FBF1EC" d="M705.197 212.487L654.908 212.465C647.113 212.469 638.925 212.964 631.177 212.385C629.976 212.296 628.899 212.069 627.845 211.451C626.656 210.754 626.37 209.912 626.004 208.668C626.212 207.67 626.366 207.136 627.063 206.349C628.219 205.042 630.49 204.458 632.157 204.323C638.932 203.774 648.002 204.487 655.025 204.494L707.454 204.581C706.662 207.201 705.803 209.816 705.197 212.487Z"/>
	<path fill="#FBF1EC" d="M551.548 227.05C568.819 226.199 586.445 226.933 603.749 226.948C620.76 226.963 638.12 226.228 655.094 227.078C656.681 227.158 659.174 227.168 660.407 228.228C661.321 229.013 661.881 229.785 661.862 231.035C661.836 232.667 660.634 233.816 659.597 234.925C652.805 235.535 645.727 235.166 638.901 235.168L600.98 235.17L568.9 235.151C563.694 235.146 558.109 235.552 552.95 235.014C551.809 234.895 551.129 234.725 550.277 233.92C549.382 233.073 548.885 232.257 548.97 230.981C549.081 229.296 550.421 228.141 551.548 227.05Z"/>
	<path fill="#FBF1EC" d="M713.2 189.383L602.614 189.419Q588.305 189.304 573.996 189.452C567.87 189.513 561.488 189.942 555.386 189.518C553.751 189.404 551.267 189.176 549.912 188.121C548.741 187.208 548.716 186.913 548.53 185.536C548.838 184.721 549.107 184.068 549.759 183.449C551.147 182.129 553.125 181.789 554.961 181.642C559.576 181.274 564.652 181.815 569.321 181.839L604.069 181.945L716.87 181.953C715.605 184.409 714.294 186.846 713.2 189.383Z"/>
	<path fill="#FBF1EC" d="M239.017 122.022L471.044 122.129L471.017 234.723L248.929 234.471C247.416 217.65 244.027 211.494 238.928 196.453L239.017 122.022Z"/>
	<path fill="#FBF1EC" d="M294.221 138.1C303.117 137.343 311.153 138.682 318.765 143.52Q319.569 144.039 320.345 144.597Q321.122 145.156 321.87 145.752Q322.618 146.348 323.336 146.981Q324.053 147.614 324.738 148.281Q325.424 148.949 326.075 149.65Q326.726 150.35 327.342 151.082Q327.957 151.815 328.536 152.577Q329.114 153.338 329.654 154.128Q330.194 154.918 330.694 155.733Q331.194 156.549 331.653 157.388Q332.112 158.227 332.529 159.088Q332.946 159.949 333.319 160.83Q333.693 161.711 334.022 162.609Q334.351 163.507 334.635 164.421Q334.92 165.334 335.158 166.26Q335.397 167.187 335.589 168.124C337.639 177.964 335.941 188.546 330.381 196.972C324.411 206.019 316.125 211.055 305.638 213.151C296.592 214.114 287.254 212.6 279.501 207.678C271.021 202.295 265.369 193.739 263.271 183.955C261.151 174.066 262.892 163.049 268.513 154.578C274.567 145.452 283.654 140.248 294.221 138.1Z"/>
	<path fill="#F0585D" d="M296.091 146.598C303.424 146.173 309.713 146.905 316.076 150.888Q316.677 151.268 317.259 151.676Q317.841 152.085 318.402 152.521Q318.963 152.958 319.502 153.421Q320.041 153.885 320.557 154.374Q321.072 154.863 321.564 155.377Q322.055 155.891 322.52 156.429Q322.986 156.966 323.424 157.526Q323.863 158.085 324.273 158.666Q324.684 159.246 325.066 159.846Q325.447 160.445 325.799 161.063Q326.151 161.681 326.472 162.315Q326.794 162.949 327.084 163.598Q327.373 164.248 327.631 164.91Q327.889 165.573 328.114 166.247Q328.339 166.922 328.53 167.606Q328.722 168.291 328.88 168.984C330.621 176.615 329.003 184.659 324.851 191.232C320.338 198.378 313.581 202.753 305.387 204.557C298.145 205.705 290.6 204.53 284.325 200.62Q283.711 200.234 283.118 199.818Q282.525 199.401 281.953 198.955Q281.381 198.509 280.833 198.035Q280.285 197.561 279.762 197.059Q279.238 196.558 278.741 196.03Q278.243 195.503 277.773 194.951Q277.303 194.4 276.861 193.825Q276.42 193.25 276.008 192.653Q275.596 192.057 275.215 191.44Q274.833 190.823 274.484 190.188Q274.134 189.553 273.818 188.901Q273.501 188.249 273.217 187.582Q272.934 186.915 272.684 186.234Q272.435 185.553 272.22 184.861Q272.006 184.168 271.827 183.466Q271.647 182.764 271.504 182.053Q271.355 181.34 271.24 180.62Q271.126 179.9 271.047 179.175Q270.968 178.45 270.925 177.723Q270.881 176.995 270.874 176.266Q270.866 175.537 270.894 174.809Q270.922 174.08 270.986 173.354Q271.049 172.628 271.148 171.906Q271.247 171.184 271.381 170.467Q271.516 169.751 271.685 169.042Q271.854 168.333 272.058 167.633Q272.261 166.933 272.499 166.244Q272.737 165.555 273.008 164.878Q273.279 164.201 273.583 163.539Q273.887 162.876 274.223 162.229Q274.559 161.582 274.926 160.953Q275.293 160.323 275.691 159.712C280.467 152.515 287.738 148.309 296.091 146.598Z"/>
	<path fill="#304996" d="M300.344 155.297C302.277 156.788 311.163 179.663 311.702 182.965C311.935 184.394 312.28 186.58 311.17 187.729C308.988 189.987 304.042 189.485 301.175 189.481C298.31 189.52 293.219 190.086 290.803 188.518C289.591 187.731 289.03 186.648 288.772 185.259C287.705 179.505 296.84 160.61 300.344 155.297Z"/>
	<path fill="#FBF1EC" d="M345.951 138.937L453.018 138.942L453.059 211.956L345.898 211.863C345.511 187.577 345.916 163.229 345.951 138.937Z"/>
	<path fill="#FBF1EC" d="M358.539 156.06L411.881 156.07C419.877 156.059 429.081 155.078 436.894 156.318C437.76 157.741 437.419 159.815 437.361 161.447Q411.486 161.21 385.61 161.347C376.725 161.356 367.724 161.667 358.853 161.193C358.041 159.744 358.436 157.686 358.539 156.06Z"/>
	<path fill="#FBF1EC" d="M358.007 173.417L408.722 173.48C418.048 173.475 427.571 173.072 436.875 173.671C437.651 174.834 437.062 177.802 436.981 179.273L358.075 179.452L358.007 173.417Z"/>
	<path fill="#FBF1EC" d="M358.51 191.01L437.253 190.983L437.006 197.102L360.491 196.96L360.475 196.748L358.731 196.832C358.211 195.104 358.501 192.829 358.51 191.01Z"/>
	<path fill="#FBF1EC" d="M114.731 422.712C123.884 443.514 138.18 464.085 157.035 477.161C177.203 492.319 204.122 501.858 229.469 501.499L229.407 674.1C214.197 671.262 204.164 672.205 189.488 676.77C187.891 677.567 186.305 678.387 184.675 679.113C168.71 687.37 156.955 700.305 151.356 717.48C150.486 720.148 149.673 722.89 149.148 725.649C138.4 717.916 130.427 706.501 123.399 695.481C123.504 698.119 124.021 701.484 122.837 703.907C122.232 705.144 121.693 705.756 120.434 706.254L119.383 705.685C116.958 702.281 117.477 699.371 117.575 695.374C115.146 695.367 112.414 695.55 110.037 695.057C108.448 694.728 107.89 694.085 107.093 692.737C107.134 691.355 107.126 691.192 107.912 690.069C110.472 688.828 114.169 689.156 117.005 688.84L117.547 688.16C113.409 684.258 110.71 677.886 108.18 672.872C101.464 659.559 95.3304 645.752 90.8404 631.516C87.6289 621.332 85.3356 610.633 81.5392 600.664L81.2836 600.002L80.3217 599.492C79.2193 595.85 78.2837 592.349 77.9921 588.542C78.6143 587.291 78.7987 587.408 80.127 586.897C78.3436 581.488 78.3132 574.424 77.6315 568.713C77.006 565.744 78.1341 558.446 79.5585 555.771C78.3087 553.648 79.7697 541.261 79.9323 538.29C81.855 503.156 91.1 470.276 106.132 438.578C108.392 433.813 110.847 426.188 114.731 422.712Z"/>
	<path fill="#304996" d="M184.675 679.113C179.773 667.576 173.853 656.388 168.572 645.008C166.713 641.001 163.982 636.295 163.05 631.974C162.79 630.772 163 630.334 163.711 629.392L164.974 629.258C165.93 629.62 166.76 630.002 167.399 630.841C170.8 635.306 176.977 650.478 179.829 656.677C182.934 663.429 186.374 670.022 189.488 676.77C187.891 677.567 186.305 678.387 184.675 679.113Z"/>
	<path fill="#F0585D" d="M117.547 688.16C117.5 684.255 117.122 681.592 119.548 678.339L120.567 677.915C122.061 678.78 122.77 680.006 123.288 681.677C123.907 683.673 123.518 686.751 123.49 688.862C126.959 688.728 130.558 688.272 133.704 690.011C134.382 690.994 134.832 691.478 134.481 692.761C134.237 693.656 133.637 694.12 132.813 694.419C129.909 695.471 126.07 694.111 123.399 695.481C123.504 698.119 124.021 701.484 122.837 703.907C122.232 705.144 121.693 705.756 120.434 706.254L119.383 705.685C116.958 702.281 117.477 699.371 117.575 695.374C115.146 695.367 112.414 695.55 110.037 695.057C108.448 694.728 107.89 694.085 107.093 692.737C107.134 691.355 107.126 691.192 107.912 690.069C110.472 688.828 114.169 689.156 117.005 688.84L117.547 688.16Z"/>
	<path fill="#304996" d="M123.57 519.937L138.529 519.945C138.659 524.181 138.664 528.464 139.025 532.686C143.169 533.872 147.453 534.964 151.446 536.6C153.821 533.739 156.159 530.981 158.897 528.46C162.523 531.033 166.197 533.557 169.742 536.241L163.641 546.189C166.415 549.764 168.963 553.398 171.413 557.202L182.245 554.526L186.406 567.57C183.093 568.635 179.633 569.572 176.413 570.88C176.478 575.315 176.378 579.685 176.108 584.112C179.709 585.447 183.091 587.384 186.484 589.175C185.207 593.395 184.045 597.701 182.449 601.813L171.085 597.907C169.011 601.334 166.961 604.403 164.188 607.323Q166.964 612.572 170.038 617.652C166.865 620.423 163.751 623.107 160.234 625.434C157.065 622.476 154.284 619.219 151.649 615.779C147.485 617.677 143.391 619.293 138.946 620.406L138.802 631.987L125.267 632.019C125.158 628.246 124.984 624.462 124.986 620.687C120.329 619.491 115.776 618.263 111.255 616.601L106.078 625.044C102.163 622.717 98.2785 619.829 94.1631 617.926C96.3427 614.831 98.4807 611.804 100.23 608.44C96.8504 605.139 94.0468 601.473 91.1701 597.743Q86.2417 598.938 81.2836 600.002L80.3217 599.492C79.2193 595.85 78.2837 592.349 77.9921 588.542C78.6143 587.291 78.7987 587.408 80.127 586.897C78.3436 581.488 78.3132 574.424 77.6315 568.713C77.006 565.744 78.1341 558.446 79.5585 555.771Q85.3596 556.439 91.1377 557.283C92.7466 553.763 94.9721 550.736 97.3187 547.678C94.9741 544.943 92.4516 542.246 90.5701 539.166C93.8512 535.839 97.0771 532.431 100.62 529.381C103.527 532.382 106.33 535.497 109.263 538.468C113.753 535.817 118.389 533.734 123.513 532.64L123.57 519.937Z"/>
	<path fill="#FBF1EC" d="M77.6315 568.713C80.7725 569.553 84.0008 570.292 87.0773 571.339C86.4028 575.899 86.3742 580.245 86.8576 584.826C84.6167 585.512 82.3477 586.151 80.127 586.897C78.3436 581.488 78.3132 574.424 77.6315 568.713Z"/>
	<path fill="#FBF1EC" d="M128.782 553.16C133.825 552.619 139.374 553.851 143.729 556.418C149.011 559.532 152.672 564.678 154.152 570.602Q154.309 571.22 154.434 571.845Q154.559 572.47 154.653 573.1Q154.747 573.73 154.809 574.365Q154.872 574.999 154.902 575.636Q154.932 576.272 154.93 576.91Q154.928 577.547 154.895 578.183Q154.861 578.82 154.795 579.454Q154.73 580.088 154.632 580.718Q154.535 581.348 154.406 581.972Q154.277 582.596 154.117 583.213Q153.957 583.83 153.766 584.438Q153.575 585.046 153.354 585.644Q153.133 586.242 152.882 586.828Q152.631 587.414 152.351 587.986Q152.072 588.559 151.763 589.117Q151.455 589.674 151.119 590.216C147.22 596.367 141.253 599.842 134.32 601.493C128.202 601.659 122.808 601.045 117.593 597.488Q117.101 597.153 116.626 596.794Q116.151 596.435 115.694 596.053Q115.238 595.671 114.801 595.267Q114.364 594.863 113.948 594.437Q113.531 594.012 113.136 593.566Q112.742 593.121 112.369 592.656Q111.997 592.191 111.648 591.709Q111.3 591.226 110.976 590.727Q110.651 590.228 110.352 589.713Q110.053 589.199 109.78 588.67Q109.507 588.141 109.26 587.599Q109.013 587.057 108.794 586.504Q108.574 585.95 108.383 585.387Q108.191 584.823 108.027 584.251Q107.864 583.678 107.729 583.099Q107.594 582.519 107.488 581.933C106.285 575.29 107.639 567.966 111.682 562.493C115.962 556.701 121.856 554.125 128.782 553.16Z"/>
	<path fill="#304996" d="M128.563 566.546C130.243 566.473 131.877 566.5 133.52 566.917C136.326 567.631 138.925 569.54 140.301 572.103Q140.561 572.582 140.769 573.086Q140.976 573.589 141.129 574.112Q141.282 574.635 141.378 575.171Q141.475 575.708 141.514 576.251Q141.552 576.794 141.533 577.339Q141.514 577.883 141.437 578.423Q141.36 578.962 141.226 579.49Q141.092 580.018 140.903 580.529C139.575 584.218 136.979 586.138 133.574 587.783C131.638 587.948 129.88 587.98 127.999 587.411Q127.461 587.249 126.943 587.031Q126.425 586.813 125.933 586.542Q125.441 586.271 124.979 585.951Q124.518 585.63 124.093 585.263Q123.668 584.896 123.283 584.486Q122.899 584.076 122.559 583.629Q122.22 583.181 121.929 582.7Q121.638 582.219 121.399 581.711Q121.161 581.2 120.978 580.668Q120.794 580.135 120.668 579.586Q120.541 579.037 120.473 578.477Q120.405 577.918 120.395 577.354Q120.386 576.791 120.436 576.23Q120.486 575.669 120.594 575.116Q120.702 574.563 120.867 574.024Q121.033 573.485 121.254 572.967C122.709 569.569 125.262 567.9 128.563 566.546Z"/>
	<path fill="#FBF1EC" d="M593.386 447.946L758.496 448.012L758.543 719.528C736.413 718.821 714.043 719.448 691.888 719.429C691.561 719.287 691.116 718.769 691.006 718.428C690.007 715.308 690.826 687.566 690.979 683.252C691.13 679.007 692.967 665.543 691.243 662.122C690.867 657.41 689.987 653.561 686.513 650.093Q685.719 649.313 684.828 648.647Q683.937 647.981 682.964 647.441Q681.992 646.901 680.955 646.496Q679.918 646.092 678.837 645.831C671.376 643.966 652.088 645.173 643.126 645.193L642.516 645.026C642.278 617.655 635.38 591.092 618.767 568.973Q617.365 567.111 615.888 565.308Q614.411 563.505 612.862 561.763Q611.313 560.022 609.695 558.345Q608.076 556.667 606.391 555.058Q604.705 553.448 602.956 551.908Q601.206 550.368 599.396 548.901Q597.585 547.433 595.716 546.041Q593.847 544.648 591.923 543.333Q589.999 542.018 588.022 540.782Q586.046 539.546 584.022 538.391Q581.997 537.237 579.927 536.166Q577.857 535.094 575.745 534.109Q573.633 533.123 571.483 532.223Q569.333 531.324 567.147 530.513Q564.962 529.702 562.746 528.981Q560.53 528.26 558.286 527.629C550.819 525.59 543.235 524.524 535.586 523.456C535.542 517.226 536.175 510.071 535.057 503.968L534.973 496.017C555.444 486.694 561.403 482.52 573.134 462.712C575.342 462.573 577.529 462.344 579.647 461.666C586.573 459.45 590.144 454.004 593.386 447.946Z"/>
	<path fill="#F6B15A" d="M632.855 532.504C640.945 533.123 649.146 532.864 657.255 532.856L693.61 532.727C701.603 532.633 710.418 531.686 718.292 532.832C719.911 533.068 721.039 533.556 722.217 534.738C723.949 536.476 723.963 539.368 726.019 540.872C720.809 539.565 707.178 540.511 701.148 540.49C693.286 540.464 685.437 540.062 677.572 540.062C668.305 547.493 659.618 555.907 650.488 563.564L650.591 540.589L632.703 540.479L632.855 532.504Z"/>
	<path fill="#F6B15A" d="M720.758 479.417L728.573 479.459C728.581 487.3 729.475 536.66 728.337 540.23C727.561 540.473 726.816 540.703 726.019 540.872C723.963 539.368 723.949 536.476 722.217 534.738C721.039 533.556 719.911 533.068 718.292 532.832C710.418 531.686 701.603 532.633 693.61 532.727L657.255 532.856C649.146 532.864 640.945 533.123 632.855 532.504C633.014 527.678 632.914 522.842 632.879 518.014C641.283 517.096 650.149 517.666 658.617 517.652Q682.369 517.665 706.12 517.415C709.985 509.622 719.687 487.35 720.758 479.417Z"/>
	<path fill="#F6B15A" d="M632.889 479.329C662.154 479.79 691.485 479.395 720.758 479.417C719.687 487.35 709.985 509.622 706.12 517.415Q682.369 517.665 658.617 517.652C650.149 517.666 641.283 517.096 632.879 518.014L632.889 479.329Z"/>
	<path fill="#304996" d="M754.905 141.181C786.908 124.014 814.896 117.546 850.635 128.275C879 136.791 904.4 156.541 918.475 182.77C932.733 209.341 936.918 239.247 928.073 268.306C918.955 298.261 899.602 322.396 871.834 337.045Q870.58 337.709 869.311 338.343Q868.041 338.976 866.757 339.579Q865.472 340.181 864.173 340.752Q862.874 341.322 861.562 341.861Q860.249 342.4 858.924 342.906Q857.598 343.413 856.261 343.887Q854.924 344.361 853.575 344.802Q852.227 345.243 850.868 345.651Q849.509 346.059 848.141 346.434Q846.772 346.809 845.395 347.15Q844.018 347.491 842.633 347.798Q841.248 348.106 839.856 348.379Q838.463 348.652 837.065 348.892Q835.666 349.131 834.262 349.336Q832.859 349.541 831.45 349.712Q830.042 349.882 828.629 350.018Q827.217 350.154 825.802 350.256Q824.387 350.358 822.969 350.425Q821.552 350.492 820.134 350.524Q818.715 350.556 817.297 350.554Q815.878 350.551 814.459 350.514Q813.041 350.477 811.624 350.405Q810.207 350.333 808.792 350.227Q807.378 350.121 805.966 349.98Q804.554 349.839 803.146 349.663Q801.738 349.488 800.335 349.278Q798.932 349.068 797.534 348.824Q796.137 348.58 794.745 348.302Q793.354 348.024 791.97 347.712Q790.586 347.4 789.21 347.054Q787.834 346.708 786.467 346.329Q785.099 345.95 783.742 345.537C759.146 337.855 739.976 324.102 724.225 303.694C720.669 299.086 718.256 293.055 714.548 288.777C711.051 282.426 708.782 275.75 706.561 268.886C701.108 251.706 700.55 229.876 705.197 212.487C705.803 209.816 706.662 207.201 707.454 204.581C709.208 199.429 711.1 194.404 713.2 189.383C714.294 186.846 715.605 184.409 716.87 181.953C727.274 165.362 738.792 152.458 754.905 141.181Z"/>
	<path fill="#304996" d="M811.907 153.702C812.378 153.624 812.481 153.598 813.025 153.557C832.971 152.036 856.119 159.483 871.555 172.209C887.556 185.4 899.515 206.732 901.328 227.483C903.265 249.663 897.216 272.253 882.719 289.416Q882.052 290.217 881.365 291.001Q880.678 291.784 879.972 292.551Q879.266 293.318 878.542 294.067Q877.817 294.816 877.074 295.547Q876.331 296.278 875.571 296.991Q874.81 297.703 874.032 298.397Q873.254 299.09 872.459 299.764Q871.664 300.439 870.853 301.093Q870.042 301.747 869.215 302.381Q868.388 303.015 867.545 303.629Q866.703 304.242 865.845 304.835Q864.988 305.428 864.116 305.999Q863.245 306.57 862.359 307.12Q861.474 307.669 860.575 308.197Q859.676 308.725 858.765 309.23Q857.853 309.735 856.929 310.218Q856.005 310.7 855.07 311.16Q854.135 311.62 853.188 312.056Q852.242 312.493 851.285 312.906Q850.328 313.319 849.361 313.708Q848.395 314.098 847.419 314.463Q846.443 314.829 845.458 315.17Q844.473 315.511 843.48 315.828Q842.487 316.145 841.487 316.437Q840.486 316.729 839.479 316.997Q838.472 317.264 837.458 317.507Q836.445 317.749 835.425 317.967Q834.406 318.184 833.382 318.377Q832.357 318.569 831.329 318.736Q830.3 318.903 829.267 319.045Q828.235 319.186 827.199 319.302Q826.163 319.418 825.125 319.509C803.903 320.412 782.959 315.615 766.022 302.294Q765.208 301.666 764.41 301.018Q763.611 300.37 762.83 299.702Q762.048 299.035 761.283 298.348Q760.518 297.661 759.77 296.955Q759.023 296.249 758.293 295.524Q757.563 294.8 756.852 294.058Q756.141 293.316 755.448 292.556Q754.755 291.796 754.082 291.019Q753.408 290.242 752.754 289.449Q752.1 288.656 751.466 287.846Q750.832 287.037 750.219 286.212Q749.605 285.387 749.013 284.547Q748.42 283.706 747.848 282.852Q747.276 281.997 746.726 281.129Q746.176 280.26 745.648 279.378Q745.12 278.496 744.613 277.601Q744.107 276.706 743.623 275.799Q743.14 274.892 742.679 273.973Q742.218 273.054 741.78 272.123Q741.342 271.193 740.928 270.252Q740.513 269.311 740.122 268.36Q739.731 267.409 739.364 266.449Q738.997 265.489 738.654 264.519Q738.311 263.55 737.992 262.573Q737.674 261.595 737.38 260.61Q737.085 259.625 736.816 258.633Q736.546 257.641 736.301 256.642Q736.057 255.643 735.837 254.639Q735.617 253.635 735.422 252.625Q735.228 251.615 735.058 250.601Q734.889 249.587 734.745 248.569Q734.601 247.551 734.482 246.53Q734.373 245.511 734.288 244.489Q734.204 243.467 734.144 242.443Q734.084 241.42 734.05 240.395Q734.015 239.37 734.005 238.345Q733.995 237.32 734.01 236.295Q734.025 235.27 734.065 234.245Q734.105 233.221 734.17 232.197Q734.235 231.174 734.324 230.153Q734.414 229.131 734.528 228.113Q734.643 227.094 734.782 226.078Q734.921 225.062 735.085 224.05Q735.249 223.038 735.437 222.03Q735.625 221.022 735.838 220.019Q736.051 219.016 736.288 218.019Q736.525 217.021 736.786 216.03Q737.047 215.038 737.332 214.053Q737.617 213.068 737.926 212.091Q738.235 211.113 738.568 210.143Q738.901 209.174 739.257 208.212Q739.613 207.251 739.992 206.298Q740.372 205.346 740.774 204.403Q741.177 203.46 741.602 202.527Q742.027 201.594 742.475 200.671Q742.922 199.749 743.392 198.838Q743.862 197.927 744.354 197.027Q744.846 196.128 745.36 195.24Q745.874 194.353 746.409 193.478Q746.944 192.604 747.5 191.742Q748.056 190.881 748.633 190.034Q749.21 189.186 749.808 188.353Q750.405 187.519 751.022 186.701Q751.64 185.882 752.277 185.079C767.925 165.578 787.379 156.443 811.907 153.702Z"/>
	<path fill="#FBF1EC" d="M812.806 166.695Q814.409 166.584 816.015 166.545Q817.621 166.507 819.227 166.541Q820.833 166.576 822.436 166.683Q824.039 166.791 825.636 166.971Q827.232 167.151 828.819 167.404Q830.405 167.656 831.979 167.98Q833.552 168.305 835.109 168.7Q836.666 169.095 838.204 169.561Q839.741 170.027 841.256 170.562Q842.771 171.097 844.26 171.701Q845.749 172.304 847.209 172.974Q848.669 173.645 850.097 174.38Q851.525 175.116 852.918 175.917Q854.311 176.717 855.667 177.579Q857.022 178.442 858.337 179.365Q859.651 180.288 860.923 181.27C875.788 192.875 885.508 209.522 887.74 228.27Q887.927 229.938 888.033 231.614Q888.138 233.29 888.161 234.968Q888.183 236.647 888.123 238.325Q888.063 240.003 887.92 241.676Q887.778 243.349 887.553 245.012Q887.328 246.676 887.021 248.327Q886.715 249.978 886.327 251.611Q885.94 253.245 885.473 254.857Q885.005 256.47 884.459 258.057Q883.913 259.645 883.289 261.204Q882.665 262.763 881.965 264.289Q881.266 265.815 880.492 267.305Q879.717 268.795 878.871 270.244Q878.024 271.694 877.108 273.101Q876.191 274.507 875.206 275.867Q874.221 277.227 873.17 278.536C860.883 294.122 844.118 302.549 824.619 304.876C807.425 306.466 789.459 301.805 775.669 291.303C761.747 280.7 751.318 264.18 749.063 246.724C746.626 227.862 751.065 208.46 762.928 193.382C775.4 177.528 792.992 168.964 812.806 166.695Z"/>
	<path fill="#F0585D" d="M814.181 184.676C814.22 184.671 814.259 184.663 814.298 184.66C827.341 183.704 841.203 187.793 851.422 196.036C861.704 204.329 868.049 217.117 869.435 230.164C870.921 244.143 866.751 257.738 857.89 268.659C849.176 279.398 836.702 285.099 823.126 286.552C810.332 287.315 797.837 284.972 787.306 277.319Q786.267 276.565 785.266 275.76Q784.265 274.955 783.306 274.101Q782.346 273.248 781.43 272.348Q780.513 271.448 779.643 270.504Q778.772 269.56 777.95 268.574Q777.127 267.587 776.354 266.562Q775.581 265.536 774.86 264.474Q774.138 263.411 773.471 262.314Q772.803 261.217 772.19 260.088Q771.578 258.959 771.022 257.802Q770.466 256.644 769.968 255.46Q769.47 254.276 769.031 253.069Q768.592 251.862 768.214 250.635Q767.835 249.408 767.518 248.163Q767.2 246.919 766.945 245.66Q766.69 244.402 766.497 243.132Q766.321 241.89 766.207 240.642Q766.092 239.393 766.04 238.14Q765.989 236.887 765.999 235.633Q766.01 234.379 766.083 233.127Q766.156 231.875 766.292 230.628Q766.427 229.381 766.625 228.143Q766.822 226.905 767.081 225.677Q767.34 224.45 767.66 223.238Q767.98 222.025 768.359 220.83Q768.739 219.635 769.178 218.46Q769.617 217.285 770.114 216.134Q770.611 214.983 771.164 213.857Q771.718 212.732 772.327 211.636Q772.936 210.54 773.599 209.475Q774.262 208.411 774.977 207.38Q775.692 206.35 776.458 205.357C785.878 192.966 798.957 186.687 814.181 184.676Z"/>
	<path fill="#FBF1EC" d="M801.099 208.758C802.278 208.818 803.175 209.034 804.234 209.575C812.837 213.973 821.165 219.661 829.516 224.579C834.55 227.544 840.985 230.308 845.458 234.008C846.401 234.789 846.635 235.33 846.712 236.51C841.795 240.864 834.843 244.143 829.264 247.741C823.475 251.36 806.635 263.344 800.986 263.972C799.781 262.718 799.529 260.691 799.283 259.028C798.333 252.606 798.62 218.729 799.61 211.875C799.796 210.591 800.351 209.792 801.099 208.758Z"/>
	<path fill="#F6B15A" d="M758.543 719.528C769.007 719.715 779.571 719.247 790.012 719.803C798.278 720.321 806.706 719.958 814.99 719.861L814.944 825.076L814.918 852.109C814.903 860.754 814.399 869.645 816.183 878.147C817.907 886.366 821.854 893.576 827.796 899.51C830.884 902.594 834.422 905.395 838.019 907.86L699.451 907.917C679.844 907.92 660.062 907.394 640.478 908.005C637.558 908.097 634.627 908.206 631.706 908.16C618.199 907.946 604.765 902.58 595.362 892.763C584.862 881.802 581.893 868.439 582.135 853.707C582.333 843.652 582.182 833.553 582.203 823.494C581.823 812.68 582.035 801.806 582.019 790.984L581.976 779.302L581.83 763.83C581.767 751.493 583.704 740.868 592.769 731.839C597.903 726.725 604.47 722.667 611.498 720.795C620.636 718.36 631.473 719.518 640.937 719.517L674.106 719.477L691.888 719.429C714.043 719.448 736.413 718.821 758.543 719.528Z"/>
	<path fill="#FBF1EC" d="M616.501 794.759C647.123 794.147 677.836 794.549 708.469 794.515L743.897 794.468C750.677 794.448 757.602 794.152 764.37 794.518C766.096 794.612 767.872 794.591 769.106 795.954C769.592 797.284 769.328 797.916 768.961 799.224C767.818 800.339 767.381 800.367 765.875 800.747L657.945 800.926C645.503 800.887 632.924 801.441 620.504 801.011C618.643 800.946 616.897 800.776 615.167 800.052C614.169 798.867 614.176 798.832 614.112 797.281C614.762 795.899 615.169 795.5 616.501 794.759Z"/>
	<path fill="#FBF1EC" d="M647.918 854.245L731.449 854.253C741.717 854.284 752.07 854.027 762.328 854.284C764.994 854.351 768.307 854.434 770.238 856.49C770.392 857.694 770.364 858.198 769.529 859.228C768.749 860.188 767.965 860.474 766.789 860.644C763.794 861.079 760.213 860.667 757.154 860.662L735.375 860.63L658.72 860.849C646.067 860.902 633.079 861.56 620.459 860.984C617.817 860.864 615.021 860.561 613.172 858.5C613.046 857.193 613.127 857.114 613.788 855.966L614.064 856.734L613.941 855.797C614.54 855.29 615.169 854.646 615.956 854.451C619.192 853.648 642.445 854.284 647.918 854.245Z"/>
	<path fill="#FBF1EC" d="M614.593 814.614C627.347 814.237 640.189 814.514 652.953 814.507L723.754 814.555L751.768 814.522C756.653 814.505 762.239 813.929 767.009 814.827C768.599 815.126 768.962 815.699 769.767 816.958C769.827 818.613 769.23 819.409 768.366 820.728C762.846 821.92 617.018 821.085 616.005 820.772C614.604 820.34 614.274 819.848 613.567 818.616C613.549 816.969 613.86 816.08 614.593 814.614Z"/>
	<path fill="#FBF1EC" d="M627.129 834.254L721.21 834.04L749.187 834.061C753.854 834.039 758.732 833.604 763.369 834.077C765.498 834.295 767.934 834.832 769.467 836.433C770.092 837.087 769.922 837.291 769.945 838.12C769.586 838.635 769.545 838.753 769.002 839.206C766.082 841.65 760.219 840.922 756.625 840.863L654.509 840.788C646.014 840.77 622.231 841.73 615.441 840.194C614.3 839.279 614.227 839.119 613.756 837.727C614.092 836.242 614.19 835.967 615.207 834.845C618.581 833.673 623.529 834.271 627.129 834.254Z"/>
	<path fill="#FBF1EC" d="M614.509 751.52C626.297 751.502 706.899 750.306 711.41 752.162C712.289 752.523 712.812 753.747 713.073 754.617C714.456 759.224 714.721 772.774 712.589 776.945C711.344 777.729 710.225 778.18 708.765 778.362C699.342 779.536 688.762 778.685 679.219 778.701L614.57 778.512L614.509 751.52Z"/>
	<path fill="#F0585D" d="M189.488 676.77C204.164 672.205 214.197 671.262 229.407 674.1C241.222 676.876 251.595 682.827 260.468 691.094L260.873 691.712C263.098 695.061 266.138 697.89 268.414 701.217C278.892 716.533 279.879 731.812 278.922 749.758Q292.226 749.924 305.528 749.662C310.169 749.601 315.408 749.022 319.969 749.782C323.595 750.387 327.268 751.97 329.867 754.627C330.882 755.664 331.83 756.873 332.624 758.089L332.698 758.552C333.211 759.148 333.626 759.684 333.801 760.472C334.893 765.388 334.286 771.817 334.328 776.891C334.458 792.289 333.673 808.055 334.534 823.393C334.531 833.582 334.66 843.795 334.52 853.982C334.594 863.854 335.896 885.726 333.826 894.247Q333.63 895.072 333.377 895.881Q333.124 896.691 332.816 897.481Q332.508 898.271 332.146 899.037Q331.784 899.804 331.369 900.544Q330.955 901.284 330.491 901.994Q330.026 902.703 329.514 903.379Q329.001 904.054 328.444 904.693Q327.886 905.331 327.285 905.93C323.839 909.355 319.936 910.037 316.008 912.426C305.089 913.129 293.819 912.519 282.87 912.48L222.323 912.409L153.583 912.442C141.924 912.455 130.002 913.004 118.369 912.372C115.016 912.19 111.803 911.596 108.717 910.226C102.873 907.63 98.0172 903.015 95.8573 896.942C94.831 894.056 94.3241 891.03 94.1321 887.982C93.7111 881.297 93.9566 874.479 93.9518 867.775L93.9068 831.358L93.7857 790.055C93.7947 783.031 93.5212 775.853 93.994 768.846C94.2013 765.774 94.706 763.136 96.0666 760.336C97.1988 758.19 98.46 756.083 100.218 754.387Q101.055 753.588 101.988 752.902Q102.921 752.217 103.934 751.657Q104.948 751.096 106.024 750.671Q107.101 750.245 108.223 749.961C115.306 748.222 139.127 749.403 147.909 749.465C147.882 741.418 147.812 733.617 149.148 725.649C149.673 722.89 150.486 720.148 151.356 717.48C156.955 700.305 168.71 687.37 184.675 679.113C186.305 678.387 187.891 677.567 189.488 676.77Z"/>
	<path fill="#304996" d="M189.488 676.77C204.164 672.205 214.197 671.262 229.407 674.1C241.222 676.876 251.595 682.827 260.468 691.094L260.873 691.712C263.098 695.061 266.138 697.89 268.414 701.217C278.892 716.533 279.879 731.812 278.922 749.758Q292.226 749.924 305.528 749.662C310.169 749.601 315.408 749.022 319.969 749.782C323.595 750.387 327.268 751.97 329.867 754.627C330.882 755.664 331.83 756.873 332.624 758.089L332.698 758.552C329.408 761.836 325.117 764.51 321.346 767.243L301.966 781.257C273.257 802.036 244.077 822.115 215.241 842.708C206.777 835.178 193.851 827.46 184.264 820.562Q159.337 802.696 133.982 785.442C121.696 776.901 109.222 767.463 96.0666 760.336C97.1988 758.19 98.46 756.083 100.218 754.387Q101.055 753.588 101.988 752.902Q102.921 752.217 103.934 751.657Q104.948 751.096 106.024 750.671Q107.101 750.245 108.223 749.961C115.306 748.222 139.127 749.403 147.909 749.465C147.882 741.418 147.812 733.617 149.148 725.649C149.673 722.89 150.486 720.148 151.356 717.48C156.955 700.305 168.71 687.37 184.675 679.113C186.305 678.387 187.891 677.567 189.488 676.77Z"/>
	<path fill="#F0585D" d="M189.488 676.77C204.164 672.205 214.197 671.262 229.407 674.1C241.222 676.876 251.595 682.827 260.468 691.094L260.873 691.712C263.098 695.061 266.138 697.89 268.414 701.217C278.892 716.533 279.879 731.812 278.922 749.758C269.073 749.3 259.144 749.633 249.28 749.466C245.613 751.455 234.206 750.155 229.723 749.876C229.755 741.053 230.47 731.597 229.423 722.845C228.828 731.695 229.166 740.712 229.173 749.586L177.584 749.547L147.909 749.465C147.882 741.418 147.812 733.617 149.148 725.649C149.673 722.89 150.486 720.148 151.356 717.48C156.955 700.305 168.71 687.37 184.675 679.113C186.305 678.387 187.891 677.567 189.488 676.77Z"/>
	<path fill="#304996" d="M229.391 705.349C238.526 710.061 245.35 717.198 248.474 727.127C250.803 734.533 250.581 741.894 249.28 749.466C245.613 751.455 234.206 750.155 229.723 749.876C229.755 741.053 230.47 731.597 229.423 722.845C228.695 717.281 229.322 710.979 229.391 705.349Z"/>
	<path fill="#FBF1EC" d="M177.584 749.547C175.777 740.707 177.016 730.416 180.863 722.264Q181.253 721.443 181.683 720.642Q182.114 719.842 182.583 719.064Q183.053 718.285 183.561 717.532Q184.068 716.778 184.613 716.05Q185.158 715.322 185.738 714.622Q186.318 713.923 186.932 713.253Q187.546 712.583 188.193 711.944Q188.839 711.305 189.517 710.699Q190.194 710.094 190.901 709.522Q191.608 708.951 192.343 708.415Q193.077 707.88 193.837 707.381Q194.597 706.883 195.381 706.423Q196.165 705.963 196.971 705.543Q197.777 705.122 198.603 704.743Q199.428 704.363 200.272 704.024Q201.116 703.686 201.975 703.39C211.297 700.141 220.575 701.064 229.391 705.349C229.322 710.979 228.695 717.281 229.423 722.845C228.828 731.695 229.166 740.712 229.173 749.586L177.584 749.547Z"/>
	<path fill="#FBF1EC" d="M127.369 755.506L300.93 755.449L300.535 775.394C289.589 784.77 276.62 792.752 264.807 801.019L215.479 835.967C186.372 815.158 157.525 793.875 127.16 774.912L127.369 755.506Z"/>
	<path fill="#FBF1EC" d="M442.813 415.129C443.129 417.601 443.25 420.178 444.345 422.443L445.321 422.726C439.489 424.846 434.191 427.674 431.371 433.538C429.505 437.417 430.892 445.347 429.274 447.526L428.086 447.696C429.695 447.939 429.723 447.848 430.705 449.202C432.121 451.156 433.146 453.373 434.638 455.298C438.164 459.85 444.892 461.612 450.263 462.914C458.373 475.801 464.263 483.267 477.857 490.728C481.07 492.491 484.896 493.74 487.962 495.583L487.957 512.531L487.952 524.824Q486.569 524.884 485.187 524.979Q483.806 525.073 482.427 525.202Q481.048 525.331 479.673 525.494Q478.298 525.657 476.927 525.854Q475.557 526.051 474.191 526.282Q472.826 526.513 471.467 526.777Q470.108 527.042 468.755 527.341Q467.403 527.639 466.059 527.971Q464.714 528.303 463.379 528.668Q462.043 529.033 460.717 529.432Q459.391 529.83 458.075 530.261Q456.759 530.692 455.454 531.155Q454.149 531.619 452.856 532.115Q451.563 532.61 450.283 533.138Q449.003 533.666 447.736 534.225Q446.469 534.784 445.217 535.375Q443.964 535.966 442.727 536.587Q441.489 537.209 440.268 537.861Q439.046 538.513 437.841 539.195Q436.636 539.877 435.448 540.589Q434.26 541.3 433.091 542.042Q431.921 542.783 430.77 543.552Q429.619 544.322 428.487 545.121Q427.356 545.919 426.244 546.745Q425.133 547.571 424.043 548.424Q422.952 549.278 421.883 550.158Q420.814 551.038 419.767 551.944Q418.72 552.851 417.696 553.783Q416.672 554.715 415.672 555.672Q414.671 556.63 413.695 557.612Q412.718 558.593 411.766 559.599Q410.815 560.605 409.888 561.634C389.33 584.263 379.796 613.691 381.405 643.931Q381.432 644.477 381.469 645.023Q357.565 644.791 333.661 644.936L333.613 676.283L333.574 729.761C333.563 738.348 333.984 747.202 333.481 755.767C333.42 756.813 333.359 757.298 332.624 758.089C331.83 756.873 330.882 755.664 329.867 754.627C327.268 751.97 323.595 750.387 319.969 749.782C315.408 749.022 310.169 749.601 305.528 749.662Q292.226 749.924 278.922 749.758C279.879 731.812 278.892 716.533 268.414 701.217C266.138 697.89 263.098 695.061 260.873 691.712L260.468 691.094C251.595 682.827 241.222 676.876 229.407 674.1L229.469 501.499L229.482 460.774C229.395 448.211 227.5 436.014 235.971 425.612C243.331 419.076 250.113 417.975 259.67 417.814C260.083 417.772 259.865 417.821 260.371 417.599C260.997 417.325 261.626 417.063 262.255 416.797C267.721 414.488 286.698 415.739 293.746 415.496C310.325 416.325 327.21 415.574 343.823 415.64L415.073 415.546C421.434 415.541 437.868 416.447 442.813 415.129Z"/>
	<path fill="#F0585D" d="M303.194 585.829C304.962 586.052 305.658 586.095 307.013 587.294C308.135 590.073 307.56 593.599 307.501 596.575C310.277 596.512 314.096 595.929 316.579 597.288C317.787 597.949 318.21 598.314 318.62 599.619C318.349 600.134 318.338 600.232 317.867 600.7C315.44 603.114 310.866 602.581 307.778 602.512C307.856 606.452 308.337 610.366 305.933 613.738C304.76 613.616 303.834 613.374 302.945 612.529C300.694 610.387 301.483 605.249 301.56 602.42C299.41 602.488 296.65 602.837 294.582 602.252C292.972 601.796 291.742 600.937 290.995 599.479L291.522 598.367C294.819 595.952 297.645 596.425 301.563 596.543C301.559 592.844 300.892 588.968 303.194 585.829Z"/>
	<path fill="#F0585D" d="M338.597 479.22C346.824 479.504 353.819 481.29 360.337 486.494Q361.003 487.023 361.642 487.585Q362.281 488.147 362.89 488.741Q363.5 489.334 364.079 489.958Q364.657 490.582 365.204 491.234Q365.751 491.885 366.264 492.564Q366.777 493.243 367.255 493.946Q367.734 494.65 368.176 495.377Q368.618 496.104 369.023 496.852Q369.428 497.6 369.795 498.368Q370.162 499.135 370.49 499.921Q370.817 500.706 371.105 501.507Q371.393 502.307 371.64 503.121Q371.886 503.936 372.092 504.761Q372.298 505.587 372.461 506.422Q372.625 507.257 372.747 508.099Q372.868 508.941 372.947 509.788C373.821 518.583 371.367 526.929 365.742 533.768C359.434 541.437 350.845 545.203 341.101 546.084C332.417 546.103 324.996 543.941 318.318 538.246Q317.672 537.691 317.055 537.105Q316.437 536.519 315.849 535.904Q315.26 535.289 314.703 534.645Q314.146 534.001 313.621 533.331Q313.096 532.661 312.604 531.966Q312.113 531.271 311.656 530.553Q311.199 529.834 310.778 529.094Q310.357 528.354 309.973 527.595Q309.589 526.835 309.242 526.057Q308.896 525.279 308.588 524.486Q308.28 523.692 308.012 522.884Q307.743 522.076 307.515 521.256Q307.286 520.436 307.098 519.606Q306.91 518.775 306.763 517.937Q306.616 517.098 306.511 516.254Q306.405 515.409 306.341 514.56C305.736 505.699 308.504 496.917 314.435 490.269C320.895 483.028 329.077 479.817 338.597 479.22Z"/>
	<path fill="#FBF1EC" d="M357.817 497.323C359.567 497.681 361.378 498.792 362.256 500.412C362.806 501.426 363.059 502.244 362.599 503.347C361.196 506.714 341.599 526.634 338.319 527.491C334.626 526.538 331.694 522.556 329.17 519.895C327.563 518.352 325.574 516.652 324.574 514.652C323.708 512.919 323.462 511.392 324.072 509.534C325.095 508.659 325.748 508.262 327.194 508.41C331.853 508.885 334.948 513.364 337.663 516.68C344.002 510.239 350.458 502.598 357.817 497.323Z"/>
	<path fill="#304996" d="M442.813 415.129C443.129 417.601 443.25 420.178 444.345 422.443L445.321 422.726C439.489 424.846 434.191 427.674 431.371 433.538C429.505 437.417 430.892 445.347 429.274 447.526L428.086 447.696C414.771 447.199 401.309 447.62 387.984 447.657L307.246 447.746C291.69 447.728 276.062 448.019 260.518 447.386C259.076 446.21 258.005 444.991 256.853 443.533C256.534 435.258 254.633 424.863 259.67 417.814C260.083 417.772 259.865 417.821 260.371 417.599C260.997 417.325 261.626 417.063 262.255 416.797C267.721 414.488 286.698 415.739 293.746 415.496C310.325 416.325 327.21 415.574 343.823 415.64L415.073 415.546C421.434 415.541 437.868 416.447 442.813 415.129Z"/>
	<path fill="#304996" d="M235.971 425.612C243.331 419.076 250.113 417.975 259.67 417.814C254.633 424.863 256.534 435.258 256.853 443.533C258.005 444.991 259.076 446.21 260.518 447.386L260.515 608.284C260.507 635.872 260.835 663.512 260.468 691.094C251.595 682.827 241.222 676.876 229.407 674.1L229.469 501.499L229.482 460.774C229.395 448.211 227.5 436.014 235.971 425.612Z"/>
	<path fill="#FBF1EC" d="M487.962 495.583C504.022 500.567 518.829 500.661 534.973 496.017L535.057 503.968C536.175 510.071 535.542 517.226 535.586 523.456C543.235 524.524 550.819 525.59 558.286 527.629Q560.53 528.26 562.746 528.981Q564.962 529.702 567.147 530.513Q569.333 531.324 571.483 532.223Q573.633 533.122 575.745 534.109Q577.857 535.094 579.927 536.166Q581.997 537.237 584.022 538.391Q586.046 539.546 588.022 540.782Q589.999 542.017 591.923 543.333Q593.847 544.648 595.716 546.041Q597.585 547.433 599.396 548.901Q601.206 550.368 602.956 551.908Q604.705 553.448 606.391 555.058Q608.076 556.667 609.695 558.345Q611.313 560.022 612.862 561.763Q614.411 563.505 615.888 565.308Q617.365 567.111 618.767 568.973C635.38 591.092 642.278 617.655 642.516 645.026L643.126 645.193C652.088 645.173 671.376 643.966 678.837 645.831Q679.918 646.092 680.955 646.496Q681.992 646.901 682.964 647.441Q683.937 647.981 684.828 648.647Q685.719 649.313 686.513 650.093C689.987 653.561 690.867 657.41 691.243 662.122C692.967 665.543 691.13 679.007 690.979 683.252C690.826 687.566 690.007 715.308 691.006 718.428C691.116 718.769 691.561 719.287 691.888 719.429L674.106 719.477L640.937 719.517C631.473 719.518 620.636 718.36 611.498 720.795C604.47 722.667 597.903 726.725 592.769 731.839C583.704 740.868 581.767 751.493 581.83 763.83L581.976 779.302L582.019 790.984C582.035 801.806 581.823 812.68 582.203 823.494C582.182 833.553 582.333 843.652 582.135 853.707L334.52 853.982C334.66 843.795 334.531 833.582 334.534 823.393C333.673 808.055 334.458 792.289 334.328 776.891C334.286 771.817 334.893 765.388 333.801 760.472C333.626 759.684 333.211 759.148 332.698 758.552L332.624 758.089C333.359 757.298 333.42 756.813 333.481 755.767C333.984 747.202 333.563 738.348 333.574 729.761L333.613 676.283L333.661 644.936Q357.565 644.791 381.469 645.023Q381.432 644.477 381.405 643.931C379.796 613.691 389.33 584.263 409.888 561.634Q410.815 560.605 411.766 559.599Q412.718 558.593 413.695 557.612Q414.671 556.63 415.672 555.672Q416.672 554.715 417.696 553.783Q418.72 552.851 419.767 551.944Q420.814 551.038 421.883 550.158Q422.952 549.278 424.043 548.424Q425.133 547.571 426.244 546.745Q427.356 545.919 428.487 545.121Q429.619 544.322 430.77 543.552Q431.921 542.783 433.091 542.042Q434.26 541.3 435.448 540.589Q436.636 539.877 437.841 539.195Q439.046 538.513 440.268 537.861Q441.489 537.209 442.727 536.587Q443.964 535.966 445.217 535.375Q446.469 534.784 447.736 534.225Q449.003 533.666 450.283 533.138Q451.563 532.61 452.856 532.115Q454.149 531.619 455.454 531.155Q456.759 530.692 458.075 530.261Q459.39 529.83 460.717 529.432Q462.043 529.033 463.379 528.668Q464.714 528.303 466.059 527.971Q467.403 527.639 468.755 527.341Q470.107 527.042 471.467 526.777Q472.826 526.513 474.191 526.282Q475.557 526.051 476.927 525.854Q478.298 525.657 479.673 525.494Q481.048 525.331 482.427 525.202Q483.806 525.073 485.187 524.979Q486.569 524.884 487.952 524.824L487.957 512.531L487.962 495.583Z"/>
	<path fill="#FBF1EC" d="M613.814 703.942L660.88 703.798L660.801 714.925C645.194 715.458 629.406 714.977 613.778 714.992L613.814 703.942Z"/>
	<path fill="#FBF1EC" d="M490.004 755.921C518.626 755.939 547.327 756.4 575.939 755.797L575.918 763.476C567.022 763.846 557.995 763.56 549.086 763.563Q519.589 763.466 490.092 763.7L490.004 755.921Z"/>
	<path fill="#FBF1EC" d="M490.205 732.622Q536.362 733.145 582.521 732.978L582.523 740.558L490.257 740.95C490.272 738.175 490.227 735.397 490.205 732.622Z"/>
	<path fill="#FBF1EC" d="M564.196 706.768C570.647 706.529 577.134 706.574 583.591 706.496L583.579 717.902L507.875 717.859L490.147 717.879C490.002 714.216 490.124 710.53 490.166 706.864C500.562 707.252 511.025 707.024 521.427 707.013Q542.813 707.122 564.196 706.768Z"/>
	<path fill="#FBF1EC" d="M581.976 779.302L582.019 790.984L490.014 790.97L490.091 779.605L548.249 779.526C559.475 779.518 570.762 779.773 581.976 779.302Z"/>
	<path fill="#FBF1EC" d="M691.243 662.122C692.967 665.543 691.13 679.007 690.979 683.252C690.826 687.566 690.007 715.308 691.006 718.428C691.116 718.769 691.561 719.287 691.888 719.429L674.106 719.477C674.812 708.662 674.63 697.282 674.111 686.452L348.965 686.531L349.424 822.992L484.924 822.983L517.515 822.922C522.594 822.918 529.385 822.192 534.276 823.401C508.509 823.973 482.629 823.462 456.851 823.446L334.534 823.393C333.673 808.055 334.458 792.289 334.328 776.891C334.286 771.817 334.893 765.388 333.801 760.472C333.626 759.684 333.211 759.148 332.698 758.552L332.624 758.089C333.359 757.298 333.42 756.813 333.481 755.767C333.984 747.202 333.563 738.348 333.574 729.761L333.613 676.283C347.556 676.669 361.668 676.178 375.626 676.097L458.973 675.674L691.173 676.006C691.258 671.38 691.146 666.751 691.243 662.122Z"/>
	<path fill="#304996" d="M334.534 823.393L456.851 823.446C482.629 823.462 508.509 823.973 534.276 823.401L582.203 823.494C582.182 833.553 582.333 843.652 582.135 853.707L334.52 853.982C334.66 843.795 334.531 833.582 334.534 823.393Z"/>
	<path fill="#48BDD9" d="M388.873 706.247L468.622 706.208L468.553 791.02L446.867 791.044L367.293 791.069L367.244 706.32L388.873 706.247Z"/>
	<path fill="#F0585D" d="M406.405 724.59C411.681 724.66 415.302 727.061 419.053 730.502C422.545 727.801 425.74 725.464 430.311 725.048C434.422 724.674 438.59 726.329 441.593 729.105C444.548 731.836 446.104 735.608 446.16 739.612C446.308 750.05 436.757 758.308 430.01 765.159C426.675 768.307 423.172 771.3 419.745 774.348C411.343 766.861 397.32 756.641 393.785 745.869C392.361 741.532 392.628 736.468 394.882 732.449C397.38 727.995 401.683 725.872 406.405 724.59Z"/>
	<path fill="#304996" d="M333.661 644.936Q357.565 644.791 381.469 645.023C395.653 645.267 409.897 644.718 424.065 645.114C427.493 645.13 430.93 645.198 434.356 645.081L531.903 645.068C550.157 645.064 568.772 644.285 586.995 645.18C599.86 645.613 612.794 645.395 625.669 645.43C631.05 645.444 637.944 646.312 643.126 645.193C652.088 645.173 671.376 643.966 678.837 645.831Q679.918 646.092 680.955 646.496Q681.992 646.901 682.964 647.441Q683.937 647.981 684.828 648.647Q685.719 649.313 686.513 650.093C689.987 653.561 690.867 657.41 691.243 662.122C691.146 666.751 691.258 671.38 691.173 676.006L458.973 675.674L375.626 676.097C361.668 676.178 347.556 676.669 333.613 676.283L333.661 644.936Z"/>
	<path fill="#FBF1EC" d="M380.541 654.541C382.017 654.475 383.716 654.295 385.158 654.647C387.015 655.101 388.741 656.54 389.733 658.143C390.631 659.595 390.93 661.288 390.519 662.948C389.852 665.639 388.021 667.183 385.706 668.494C384.448 668.656 383.149 668.847 381.888 668.606C379.951 668.237 378.331 667.172 377.251 665.516C376.149 663.825 375.871 661.811 376.334 659.862C376.99 657.103 378.195 656.012 380.541 654.541Z"/>
	<path fill="#FBF1EC" d="M406.047 654.084C407.333 654.083 408.776 654.221 410.01 654.594C411.848 655.15 413.406 656.829 414.141 658.558C414.927 660.407 414.886 662.409 414.097 664.252C412.941 666.955 410.995 668.014 408.347 668.969C407.071 668.877 405.64 668.732 404.459 668.212C402.722 667.448 401.244 665.81 400.567 664.05Q400.439 663.714 400.344 663.366Q400.249 663.019 400.189 662.664Q400.129 662.308 400.104 661.949Q400.079 661.59 400.09 661.23Q400.101 660.87 400.147 660.513Q400.193 660.156 400.274 659.805Q400.355 659.454 400.47 659.112Q400.586 658.771 400.734 658.443C401.877 655.866 403.53 655.112 406.047 654.084Z"/>
	<path fill="#F0585D" d="M356.457 653.478C357.577 653.401 358.753 653.291 359.867 653.465C361.959 653.793 363.921 654.981 365.091 656.758C366.333 658.644 366.447 660.881 365.968 663.033C365.232 666.339 363.259 667.723 360.513 669.433C360.031 669.403 359.547 669.376 359.068 669.31C356.405 668.939 354.032 667.831 352.455 665.57C351.173 663.73 350.792 661.543 351.322 659.368C352.029 656.468 354.075 655.018 356.457 653.478Z"/>
	<path fill="#48BDD9" d="M487.962 495.583C504.022 500.567 518.829 500.661 534.973 496.017L535.057 503.968C536.175 510.071 535.542 517.226 535.586 523.456C543.235 524.524 550.819 525.59 558.286 527.629Q560.53 528.26 562.746 528.981Q564.962 529.702 567.147 530.513Q569.333 531.324 571.483 532.223Q573.633 533.122 575.745 534.109Q577.857 535.094 579.927 536.166Q581.997 537.237 584.022 538.391Q586.046 539.546 588.022 540.782Q589.999 542.017 591.923 543.333Q593.847 544.648 595.716 546.041Q597.585 547.433 599.396 548.901Q601.206 550.368 602.956 551.908Q604.705 553.448 606.391 555.058Q608.076 556.667 609.695 558.345Q611.313 560.022 612.862 561.763Q614.411 563.505 615.888 565.308Q617.365 567.111 618.767 568.973C635.38 591.092 642.278 617.655 642.516 645.026L643.126 645.193C637.944 646.312 631.05 645.444 625.669 645.43C612.794 645.395 599.86 645.613 586.995 645.18C568.772 644.285 550.157 645.064 531.903 645.068L434.356 645.081C430.93 645.198 427.493 645.13 424.065 645.114C409.897 644.718 395.653 645.267 381.469 645.023Q381.432 644.477 381.405 643.931C379.796 613.691 389.33 584.263 409.888 561.634Q410.815 560.605 411.766 559.599Q412.718 558.593 413.695 557.612Q414.671 556.63 415.672 555.672Q416.672 554.715 417.696 553.783Q418.72 552.851 419.767 551.944Q420.814 551.038 421.883 550.158Q422.952 549.278 424.043 548.424Q425.133 547.571 426.244 546.745Q427.356 545.919 428.487 545.121Q429.619 544.322 430.77 543.552Q431.921 542.783 433.091 542.042Q434.26 541.3 435.448 540.589Q436.636 539.877 437.841 539.195Q439.046 538.513 440.268 537.861Q441.489 537.209 442.727 536.587Q443.964 535.966 445.217 535.375Q446.469 534.784 447.736 534.225Q449.003 533.666 450.283 533.138Q451.563 532.61 452.856 532.115Q454.149 531.619 455.454 531.155Q456.759 530.692 458.075 530.261Q459.39 529.83 460.717 529.432Q462.043 529.033 463.379 528.668Q464.714 528.303 466.059 527.971Q467.403 527.639 468.755 527.341Q470.107 527.042 471.467 526.777Q472.826 526.513 474.191 526.282Q475.557 526.051 476.927 525.854Q478.298 525.657 479.673 525.494Q481.048 525.331 482.427 525.202Q483.806 525.073 485.187 524.979Q486.569 524.884 487.952 524.824L487.957 512.531L487.962 495.583Z"/>
	<path fill="#1791C6" d="M424.065 645.114C424.117 638.394 422.847 604.413 425.992 601.433C426.97 600.506 428.077 599.936 429.46 600.02C430.883 600.106 431.936 600.913 432.794 601.975C435.571 605.414 434.1 638.484 434.356 645.081C430.93 645.198 427.493 645.13 424.065 645.114Z"/>
	<path fill="#1791C6" d="M586.995 645.18L586.907 619.528C586.897 614.692 586.434 609.347 587.338 604.607C587.565 603.418 588.037 602.349 588.965 601.538C589.937 600.69 591.104 600.587 592.338 600.743C593.875 600.937 595.417 602.175 596.203 603.461C596.78 604.405 597.136 605.543 597.213 606.646C597.459 610.176 596.973 613.981 596.966 617.551L597.016 645.008C612.134 645.03 627.418 645.546 642.516 645.026L643.126 645.193C637.944 646.312 631.05 645.444 625.669 645.43C612.794 645.395 599.86 645.613 586.995 645.18Z"/>
	<path fill="#F6B15A" d="M487.962 495.583C504.022 500.567 518.829 500.661 534.973 496.017L535.057 503.968C536.175 510.071 535.542 517.226 535.586 523.456C535.597 533.124 536.197 542.455 528.716 549.883Q528.29 550.302 527.843 550.7Q527.397 551.098 526.932 551.474Q526.466 551.849 525.983 552.202Q525.5 552.554 525 552.882Q524.5 553.21 523.984 553.513Q523.469 553.817 522.939 554.094Q522.409 554.372 521.867 554.623Q521.324 554.874 520.77 555.098Q520.215 555.323 519.651 555.519Q519.086 555.716 518.512 555.885Q517.938 556.054 517.357 556.194Q516.776 556.335 516.188 556.447Q515.601 556.558 515.009 556.641Q514.416 556.724 513.821 556.778Q513.225 556.831 512.628 556.856Q512.03 556.88 511.432 556.875Q510.806 556.866 510.181 556.825Q509.556 556.784 508.934 556.711Q508.312 556.638 507.694 556.533Q507.077 556.428 506.465 556.291Q505.854 556.154 505.251 555.986Q504.648 555.818 504.054 555.618Q503.46 555.419 502.877 555.19Q502.294 554.96 501.724 554.701Q501.154 554.441 500.598 554.153Q500.042 553.865 499.502 553.548Q498.961 553.231 498.438 552.887Q497.915 552.543 497.41 552.172Q496.905 551.801 496.42 551.405Q495.935 551.008 495.471 550.588Q495.007 550.167 494.566 549.723Q494.124 549.278 493.706 548.812C487.265 541.631 487.914 533.735 487.952 524.824L487.957 512.531L487.962 495.583Z"/>
	<path fill="#F0585D" d="M487.962 495.583C504.022 500.567 518.829 500.661 534.973 496.017L535.057 503.968C535.098 506.895 535.183 508.217 533.046 510.391C527.555 515.981 516.968 517.868 509.368 517.78C501.846 517.693 494.665 515.884 487.957 512.531L487.962 495.583Z"/>
</svg>
