<?xml version="1.0" encoding="utf-8" ?>
<svg xmlns="http://www.w3.org/2000/svg" xmlns:xlink="http://www.w3.org/1999/xlink" width="1024" height="1024">
	<path fill="#FEFEFE" d="M0 0L1024 0L1024 1024L0 1024L0 0Z"/>
	<path fill="#C8C7C7" d="M671.179 866.084C674.716 865.743 677.755 865.764 681.005 867.401Q681.669 867.736 682.296 868.135Q682.923 868.534 683.508 868.993Q684.092 869.452 684.629 869.967Q685.165 870.481 685.648 871.046Q686.131 871.611 686.556 872.221Q686.981 872.831 687.343 873.48Q687.706 874.129 688.003 874.811Q688.299 875.492 688.527 876.2Q688.782 876.967 688.959 877.756Q689.136 878.545 689.233 879.348Q689.329 880.15 689.344 880.959Q689.359 881.767 689.293 882.573Q689.227 883.378 689.079 884.173Q688.932 884.968 688.706 885.745Q688.479 886.521 688.175 887.27Q687.872 888.019 687.494 888.734C685.406 892.621 681.961 894.831 677.812 895.985C674.796 896.371 671.841 896.226 668.984 895.098C665.296 893.642 662.339 890.872 660.769 887.215Q660.456 886.477 660.219 885.71Q659.982 884.944 659.824 884.158Q659.665 883.371 659.587 882.573Q659.509 881.775 659.513 880.973Q659.516 880.17 659.6 879.373Q659.684 878.575 659.848 877.79Q660.013 877.005 660.255 876.24Q660.498 875.476 660.817 874.74C662.901 869.982 666.543 867.809 671.179 866.084Z"/>
	<path fill="#C8C7C7" d="M349.645 197.644C353.242 197.715 356.512 198.094 359.636 200.042C363.259 202.303 365.619 206.006 366.407 210.179Q366.56 210.983 366.633 211.799Q366.706 212.614 366.698 213.433Q366.69 214.252 366.602 215.066Q366.514 215.88 366.346 216.681Q366.179 217.482 365.933 218.263Q365.687 219.044 365.366 219.798Q365.045 220.551 364.651 221.268Q364.257 221.986 363.795 222.662C360.784 227.048 356.824 228.568 351.842 229.484C348.419 229.288 345.412 228.738 342.414 226.956Q341.72 226.547 341.072 226.067Q340.425 225.588 339.83 225.044Q339.236 224.5 338.701 223.897Q338.166 223.294 337.697 222.639Q337.228 221.984 336.829 221.284Q336.431 220.584 336.107 219.846Q335.783 219.108 335.538 218.34Q335.292 217.573 335.128 216.784Q334.971 216.001 334.895 215.206Q334.818 214.411 334.822 213.612Q334.827 212.814 334.912 212.02Q334.997 211.226 335.161 210.444Q335.326 209.663 335.569 208.902Q335.812 208.141 336.131 207.409Q336.45 206.677 336.841 205.98Q337.232 205.284 337.692 204.631C340.649 200.397 344.707 198.526 349.645 197.644Z"/>
	<path fill="#C8C7C7" d="M362.484 891.095Q363.744 891.017 365.003 891.112Q366.262 891.207 367.496 891.473Q368.731 891.739 369.917 892.172Q371.103 892.604 372.219 893.195Q372.927 893.574 373.594 894.024Q374.26 894.473 374.877 894.988Q375.494 895.503 376.056 896.078Q376.618 896.653 377.118 897.281Q377.619 897.91 378.053 898.587Q378.487 899.263 378.85 899.98Q379.213 900.697 379.501 901.447Q379.789 902.197 380 902.973Q380.21 903.764 380.341 904.573Q380.471 905.381 380.521 906.198Q380.571 907.015 380.54 907.833Q380.508 908.651 380.396 909.462Q380.284 910.273 380.092 911.069Q379.9 911.865 379.63 912.638Q379.36 913.411 379.014 914.153Q378.669 914.896 378.252 915.6C375.61 920.074 371.732 922.224 366.84 923.508C363.177 923.652 359.772 923.186 356.54 921.35Q355.836 920.954 355.175 920.489Q354.514 920.025 353.904 919.495Q353.293 918.966 352.739 918.378Q352.186 917.789 351.694 917.148Q351.203 916.507 350.778 915.819Q350.354 915.132 350.002 914.405Q349.649 913.678 349.372 912.919Q349.095 912.16 348.896 911.377Q348.692 910.523 348.577 909.653Q348.461 908.784 348.434 907.906Q348.407 907.029 348.469 906.154Q348.531 905.278 348.682 904.414Q348.833 903.549 349.071 902.705Q349.308 901.86 349.631 901.044Q349.953 900.227 350.356 899.448Q350.76 898.668 351.24 897.934C353.979 893.834 357.758 891.969 362.484 891.095Z"/>
	<path fill="#C8C7C7" d="M104.437 349.608C107.475 349.51 110.732 350.298 113.407 351.732C117.278 353.807 120.01 357.403 121.157 361.62Q121.388 362.445 121.533 363.289Q121.678 364.134 121.736 364.989Q121.795 365.843 121.765 366.7Q121.736 367.556 121.62 368.405Q121.504 369.253 121.302 370.086Q121.1 370.919 120.814 371.726Q120.528 372.534 120.161 373.308Q119.794 374.082 119.35 374.815C116.506 379.464 112.532 381.311 107.473 382.55C103.354 382.6 99.4064 381.718 95.9643 379.373Q95.2986 378.92 94.6821 378.402Q94.0655 377.885 93.5044 377.307Q92.9433 376.73 92.4435 376.099Q91.9436 375.468 91.51 374.789Q91.0765 374.111 90.7137 373.392Q90.3509 372.674 90.0626 371.922Q89.7742 371.17 89.5633 370.393Q89.3524 369.616 89.2211 368.822Q89.0802 368.019 89.02 367.206Q88.9597 366.393 88.9808 365.578Q89.0019 364.763 89.1041 363.954Q89.2063 363.146 89.3885 362.351Q89.5708 361.556 89.8313 360.784Q90.0919 360.012 90.4281 359.269Q90.7643 358.526 91.1728 357.821Q91.5813 357.115 92.0581 356.454C95.1447 352.243 99.4799 350.479 104.437 349.608Z"/>
	<path fill="#C8C7C7" d="M851.863 379.657C854.902 379.439 857.766 379.889 860.533 381.206Q860.935 381.397 861.327 381.609Q861.718 381.821 862.098 382.053Q862.479 382.284 862.847 382.535Q863.214 382.785 863.569 383.055Q863.924 383.324 864.264 383.611Q864.604 383.898 864.93 384.201Q865.255 384.505 865.564 384.826Q865.874 385.146 866.166 385.481Q866.459 385.817 866.734 386.167Q867.009 386.517 867.266 386.881Q867.522 387.245 867.76 387.621Q867.998 387.997 868.216 388.385Q868.435 388.773 868.633 389.172Q868.831 389.571 869.009 389.979Q869.186 390.387 869.343 390.804Q869.499 391.221 869.634 391.645Q869.773 392.061 869.89 392.484Q870.007 392.907 870.102 393.336Q870.197 393.765 870.269 394.198Q870.341 394.631 870.391 395.067Q870.44 395.503 870.467 395.941Q870.494 396.379 870.497 396.818Q870.501 397.257 870.482 397.696Q870.463 398.134 870.42 398.571Q870.378 399.008 870.313 399.442Q870.248 399.877 870.16 400.307Q870.073 400.737 869.963 401.162Q869.852 401.587 869.72 402.005Q869.588 402.424 869.434 402.835Q869.28 403.246 869.105 403.649Q868.93 404.051 868.734 404.444Q868.538 404.837 868.322 405.219C865.639 409.956 861.728 412.148 856.69 413.583C852.1 413.624 848.343 413.514 844.34 410.892C840.609 408.449 838.21 404.624 837.322 400.278C836.376 395.651 837.167 390.719 839.904 386.823C842.809 382.689 846.997 380.548 851.863 379.657Z"/>
	<path fill="#C8C7C7" d="M241.519 384.608C247.499 384.202 252.964 384.719 258.349 387.644C264.526 391 268.935 396.759 270.849 403.498Q271.032 404.12 271.184 404.751Q271.336 405.382 271.456 406.02Q271.577 406.657 271.665 407.3Q271.753 407.943 271.81 408.589Q271.866 409.235 271.89 409.884Q271.914 410.532 271.906 411.181Q271.897 411.83 271.857 412.477Q271.816 413.125 271.743 413.77Q271.67 414.414 271.565 415.055Q271.461 415.695 271.324 416.329Q271.187 416.964 271.019 417.59Q270.851 418.217 270.652 418.834Q270.453 419.452 270.224 420.059Q269.994 420.666 269.734 421.26Q269.475 421.855 269.186 422.436Q268.897 423.017 268.58 423.583C264.599 430.563 258.22 434.524 250.615 436.462C244.408 437.018 238.638 436.317 233.13 433.16Q232.563 432.839 232.013 432.491Q231.463 432.142 230.931 431.766Q230.399 431.39 229.887 430.987Q229.375 430.584 228.884 430.156Q228.392 429.728 227.924 429.276Q227.455 428.824 227.009 428.348Q226.564 427.873 226.143 427.376Q225.723 426.878 225.328 426.36Q224.933 425.842 224.564 425.305Q224.196 424.768 223.855 424.212Q223.515 423.657 223.202 423.085Q222.89 422.514 222.607 421.927Q222.325 421.34 222.072 420.74Q221.819 420.139 221.597 419.527Q221.375 418.914 221.184 418.292Q220.993 417.669 220.834 417.037C219.047 409.956 220.067 402.518 224.058 396.363C228.153 390.046 234.177 386.118 241.519 384.608Z"/>
	<path fill="#C8C7C7" d="M669.046 154.608C676.168 153.997 682.619 154.821 688.793 158.767Q689.435 159.174 690.057 159.613Q690.678 160.052 691.277 160.52Q691.876 160.989 692.451 161.487Q693.027 161.984 693.576 162.51Q694.126 163.035 694.65 163.587Q695.173 164.139 695.669 164.716Q696.164 165.293 696.631 165.893Q697.097 166.494 697.534 167.117Q697.97 167.74 698.375 168.384Q698.78 169.028 699.153 169.691Q699.526 170.354 699.865 171.034Q700.205 171.715 700.511 172.411Q700.816 173.108 701.087 173.818Q701.358 174.529 701.594 175.252Q701.829 175.975 702.029 176.709Q702.229 177.443 702.392 178.186C704.098 186.064 702.321 194.676 697.85 201.346C692.706 209.022 685.45 212.679 676.618 214.407C669.273 215.103 662.111 213.862 655.891 209.796Q655.289 209.411 654.707 208.997Q654.125 208.582 653.565 208.139Q653.004 207.697 652.466 207.227Q651.927 206.757 651.413 206.261Q650.899 205.765 650.41 205.244Q649.921 204.723 649.458 204.179Q648.996 203.634 648.561 203.068Q648.126 202.501 647.719 201.913Q647.313 201.326 646.936 200.719Q646.559 200.112 646.213 199.487Q645.866 198.862 645.551 198.221Q645.236 197.58 644.953 196.924Q644.67 196.268 644.42 195.598Q644.17 194.929 643.954 194.248Q643.737 193.567 643.555 192.877Q643.372 192.186 643.224 191.487Q643.062 190.729 642.939 189.964Q642.815 189.2 642.73 188.43Q642.644 187.659 642.597 186.886Q642.55 186.113 642.542 185.338Q642.534 184.563 642.564 183.789Q642.594 183.015 642.663 182.243Q642.732 181.471 642.839 180.704Q642.946 179.937 643.091 179.176Q643.236 178.415 643.419 177.662Q643.602 176.909 643.822 176.166Q644.042 175.423 644.299 174.692Q644.556 173.961 644.849 173.244Q645.142 172.527 645.471 171.825Q645.799 171.123 646.162 170.439Q646.525 169.754 646.921 169.089Q647.318 168.423 647.747 167.778C652.971 160.091 660.134 156.376 669.046 154.608Z"/>
	<path fill="#C8C7C7" d="M899.18 595.182C906.987 594.274 916.058 596.771 922.511 601.186C930.054 606.345 935.241 614.665 936.886 623.618Q937.048 624.48 937.168 625.349Q937.288 626.218 937.364 627.092Q937.441 627.966 937.474 628.843Q937.508 629.719 937.498 630.596Q937.488 631.474 937.434 632.349Q937.381 633.225 937.285 634.097Q937.188 634.969 937.049 635.835Q936.91 636.701 936.728 637.559Q936.546 638.417 936.322 639.266Q936.098 640.114 935.832 640.95Q935.567 641.786 935.26 642.608Q934.954 643.43 934.607 644.236Q934.26 645.042 933.874 645.829Q933.488 646.617 933.063 647.385Q932.639 648.152 932.177 648.898Q931.715 649.644 931.217 650.366C925.195 659.078 916.675 663.263 906.474 665.042C896.619 665.528 887.796 663.736 879.947 657.439C872.586 651.533 867.812 643.252 866.814 633.84Q866.714 632.975 866.658 632.106Q866.601 631.236 866.588 630.365Q866.575 629.495 866.605 628.624Q866.636 627.754 866.709 626.886Q866.783 626.018 866.9 625.155Q867.017 624.292 867.177 623.435Q867.337 622.579 867.539 621.732Q867.742 620.885 867.986 620.049Q868.231 619.213 868.517 618.39Q868.802 617.567 869.129 616.76Q869.456 615.952 869.822 615.162Q870.189 614.372 870.594 613.601Q871 612.83 871.443 612.081Q871.886 611.331 872.367 610.604Q872.847 609.878 873.363 609.176Q873.879 608.474 874.429 607.799C880.836 599.975 889.284 596.221 899.18 595.182Z"/>
	<path fill="#C8C7C7" d="M126.527 620.646C135.696 619.661 144.072 621.439 151.695 626.729C159.968 632.469 166.409 641.419 168.161 651.435Q168.324 652.36 168.44 653.291Q168.556 654.223 168.626 655.159Q168.696 656.096 168.72 657.034Q168.743 657.973 168.72 658.912Q168.696 659.85 168.626 660.786Q168.556 661.723 168.44 662.654Q168.323 663.586 168.161 664.511Q167.998 665.435 167.79 666.351Q167.581 667.266 167.328 668.17Q167.074 669.074 166.776 669.965Q166.477 670.855 166.135 671.729Q165.793 672.604 165.408 673.46Q165.023 674.316 164.595 675.152Q164.168 675.988 163.7 676.802Q163.231 677.616 162.723 678.405Q162.215 679.195 161.668 679.958C155.333 688.744 146.431 693.199 135.937 694.974C126.501 695.724 117.15 694.014 109.235 688.62Q108.497 688.116 107.785 687.576Q107.073 687.035 106.388 686.461Q105.704 685.886 105.049 685.278Q104.393 684.67 103.769 684.031Q103.145 683.391 102.553 682.722Q101.961 682.052 101.402 681.354Q100.844 680.656 100.321 679.931Q99.7981 679.206 99.3116 678.457Q98.825 677.707 98.3762 676.934Q97.9273 676.161 97.5172 675.367Q97.107 674.573 96.7367 673.759Q96.3663 672.946 96.0366 672.115Q95.7069 671.285 95.4187 670.439Q95.1305 669.593 94.8844 668.733Q94.6384 667.874 94.4351 667.004Q94.2319 666.133 94.0719 665.254C92.2453 655.504 94.3638 644.666 100.048 636.492C106.319 627.474 115.914 622.527 126.527 620.646Z"/>
	<path d="M504.063 77.6987C504.197 77.6855 504.331 77.6676 504.465 77.6593C526.832 76.2669 549.479 84.6844 566.09 99.5557C582.384 114.144 592.259 135.683 593.429 157.463Q593.493 158.476 593.531 159.491Q593.57 160.505 593.584 161.52Q593.598 162.535 593.587 163.55Q593.576 164.565 593.54 165.58Q593.504 166.594 593.443 167.608Q593.382 168.621 593.296 169.633Q593.21 170.644 593.099 171.653Q592.989 172.662 592.853 173.669Q592.718 174.675 592.558 175.677Q592.398 176.68 592.213 177.678Q592.028 178.676 591.819 179.669Q591.61 180.663 591.377 181.651Q591.143 182.639 590.886 183.621Q590.628 184.603 590.346 185.578Q590.064 186.553 589.759 187.521Q589.453 188.489 589.124 189.45Q588.795 190.41 588.442 191.362Q588.089 192.314 587.713 193.257Q587.337 194.2 586.938 195.133Q586.539 196.066 586.117 196.99Q585.695 197.913 585.25 198.826Q584.806 199.738 584.339 200.64Q583.872 201.541 583.384 202.431Q582.895 203.321 582.384 204.198Q581.874 205.076 581.342 205.941Q580.81 206.805 580.257 207.657Q579.704 208.508 579.13 209.345Q578.557 210.183 577.962 211.006Q577.368 211.829 576.754 212.638Q576.14 213.446 575.506 214.239Q574.872 215.032 574.219 215.809Q573.566 216.586 572.894 217.347C556.644 235.428 534.973 245.202 510.79 246.595C510.969 277.222 510.606 307.859 511.019 338.482Q511.578 338.477 512.138 338.481Q514.02 338.502 515.901 338.561Q517.781 338.62 519.661 338.717Q521.54 338.814 523.417 338.95Q525.294 339.085 527.167 339.259Q529.041 339.433 530.911 339.644Q532.781 339.856 534.646 340.106Q536.511 340.356 538.371 340.644Q540.23 340.932 542.084 341.258Q543.937 341.583 545.784 341.947Q547.63 342.31 549.468 342.711Q551.307 343.112 553.137 343.55Q554.967 343.989 556.788 344.464Q558.609 344.94 560.419 345.452Q562.23 345.965 564.03 346.514Q565.83 347.063 567.618 347.649Q569.406 348.235 571.182 348.857Q572.958 349.479 574.721 350.137Q576.484 350.796 578.233 351.49Q579.982 352.184 581.717 352.913Q583.451 353.643 585.171 354.407Q586.89 355.172 588.594 355.971Q590.297 356.771 591.984 357.605Q593.671 358.439 595.34 359.307Q597.01 360.176 598.661 361.078Q600.313 361.98 601.945 362.915Q603.578 363.851 605.191 364.82Q606.805 365.788 608.398 366.79Q609.991 367.791 611.564 368.825Q613.136 369.858 614.688 370.924Q616.239 371.989 617.768 373.086Q619.297 374.182 620.803 375.31Q622.31 376.438 623.793 377.596C633.162 384.982 641.478 393.457 649.815 401.964C674.072 378.035 698.62 353.967 721.802 329C712.043 311.422 705.455 295.837 706.056 275.2Q706.085 274.094 706.142 272.989Q706.199 271.884 706.282 270.781Q706.366 269.678 706.477 268.577Q706.588 267.476 706.726 266.378Q706.864 265.28 707.029 264.186Q707.194 263.092 707.385 262.003Q707.577 260.913 707.796 259.828Q708.014 258.744 708.259 257.665Q708.505 256.586 708.776 255.513Q709.048 254.441 709.346 253.375Q709.644 252.31 709.968 251.252Q710.292 250.194 710.642 249.144Q710.992 248.095 711.368 247.054Q711.743 246.014 712.144 244.982Q712.546 243.951 712.972 242.93Q713.399 241.91 713.85 240.899Q714.301 239.889 714.778 238.891Q715.254 237.892 715.754 236.905Q716.255 235.918 716.78 234.944Q717.304 233.97 717.853 233.009Q718.401 232.049 718.973 231.102Q719.545 230.154 720.14 229.222Q720.736 228.289 721.353 227.371Q721.971 226.453 722.612 225.551Q723.252 224.649 723.914 223.763Q724.576 222.876 725.26 222.007Q725.944 221.137 726.649 220.284Q727.354 219.432 728.08 218.597Q728.806 217.762 729.552 216.945Q730.298 216.128 731.065 215.329Q731.831 214.531 732.616 213.752Q733.402 212.973 734.206 212.213C752.775 194.988 776.627 185.537 802.057 186.579Q803.231 186.636 804.403 186.721Q805.576 186.806 806.746 186.92Q807.915 187.034 809.082 187.177Q810.249 187.319 811.412 187.491Q812.575 187.662 813.733 187.861Q814.891 188.061 816.045 188.289Q817.198 188.517 818.345 188.773Q819.492 189.029 820.633 189.313Q821.773 189.597 822.907 189.909Q824.04 190.22 825.165 190.56Q826.291 190.899 827.407 191.266Q828.524 191.633 829.631 192.028Q830.739 192.422 831.836 192.843Q832.933 193.264 834.02 193.712Q835.107 194.16 836.182 194.634Q837.258 195.109 838.321 195.609Q839.385 196.11 840.436 196.637Q841.486 197.163 842.524 197.715Q843.562 198.267 844.586 198.844Q845.61 199.422 846.619 200.024Q847.629 200.626 848.623 201.253Q849.617 201.879 850.596 202.53Q851.575 203.181 852.538 203.856Q853.5 204.531 854.446 205.229Q855.392 205.927 856.32 206.647Q857.248 207.368 858.159 208.112Q859.069 208.855 859.961 209.621Q860.853 210.386 861.726 211.174Q862.599 211.961 863.452 212.769Q864.306 213.577 865.139 214.406Q865.973 215.235 866.785 216.084Q867.598 216.933 868.39 217.802Q869.164 218.652 869.916 219.522Q870.668 220.391 871.398 221.279Q872.128 222.167 872.836 223.073Q873.543 223.979 874.228 224.903Q874.913 225.826 875.574 226.767Q876.235 227.707 876.872 228.664Q877.51 229.621 878.123 230.593Q878.736 231.566 879.325 232.553Q879.913 233.541 880.477 234.543Q881.04 235.545 881.578 236.561Q882.117 237.577 882.629 238.606Q883.142 239.635 883.628 240.677Q884.115 241.718 884.575 242.772Q885.035 243.825 885.469 244.89Q885.903 245.955 886.309 247.03Q886.716 248.105 887.096 249.19Q887.475 250.275 887.828 251.37Q888.18 252.464 888.505 253.567Q888.829 254.67 889.126 255.78Q889.423 256.891 889.692 258.009Q889.961 259.126 890.202 260.251Q890.442 261.375 890.655 262.505Q890.867 263.634 891.051 264.769Q891.235 265.904 891.391 267.043Q891.546 268.182 891.673 269.325Q891.8 270.467 891.898 271.613Q891.996 272.758 892.065 273.906Q892.135 275.053 892.175 276.202Q892.215 277.351 892.227 278.501Q892.239 279.65 892.221 280.8Q892.204 281.949 892.158 283.098Q892.112 284.247 892.037 285.394Q891.98 286.492 891.895 287.589Q891.81 288.685 891.698 289.779Q891.585 290.873 891.445 291.963Q891.306 293.054 891.138 294.141Q890.971 295.228 890.777 296.31Q890.582 297.392 890.361 298.469Q890.139 299.547 889.891 300.618Q889.642 301.689 889.367 302.754Q889.091 303.818 888.789 304.875Q888.487 305.933 888.159 306.982Q887.83 308.032 887.475 309.072Q887.12 310.113 886.74 311.145Q886.359 312.176 885.952 313.198Q885.545 314.22 885.113 315.231Q884.681 316.242 884.224 317.242Q883.766 318.242 883.284 319.23Q882.801 320.218 882.294 321.194Q881.787 322.17 881.256 323.132Q880.724 324.095 880.169 325.044Q879.613 325.993 879.034 326.928Q878.455 327.863 877.852 328.783Q877.25 329.703 876.625 330.607Q875.999 331.512 875.351 332.4Q874.703 333.289 874.033 334.16Q873.363 335.032 872.672 335.887Q871.98 336.742 871.267 337.579Q870.554 338.416 869.82 339.235Q869.086 340.054 868.332 340.855Q867.578 341.655 866.804 342.436Q866.03 343.217 865.237 343.979Q864.443 344.74 863.631 345.481Q862.819 346.222 861.988 346.943C842.938 363.754 819.242 371.873 793.818 370.273C773.697 369.007 753.511 360.209 738.335 346.976C733.023 342.345 728.411 337.074 723.764 331.798C710.916 343.272 699.197 356.335 687.092 368.591C675.387 380.442 662.897 391.812 651.934 404.344C679.981 442.192 693.218 475.495 694.816 522.724L790.362 522.636Q790.167 521.179 790.027 519.715Q789.887 518.252 789.803 516.784Q789.719 515.316 789.691 513.846Q789.662 512.377 789.69 510.907Q789.718 509.437 789.801 507.969Q789.884 506.501 790.024 505.038Q790.163 503.574 790.357 502.117Q790.552 500.66 790.802 499.211Q791.052 497.762 791.357 496.324Q791.661 494.886 792.021 493.46Q792.38 492.034 792.793 490.624Q793.206 489.213 793.672 487.818Q794.139 486.424 794.658 485.049Q795.177 483.673 795.748 482.318Q796.319 480.964 796.941 479.632Q797.563 478.299 798.235 476.992C808.069 457.831 825.037 444.047 845.502 437.593Q846.455 437.296 847.415 437.023Q848.374 436.75 849.341 436.5Q850.307 436.251 851.279 436.025Q852.251 435.799 853.228 435.597Q854.205 435.396 855.187 435.218Q856.169 435.04 857.156 434.887Q858.142 434.733 859.131 434.604Q860.121 434.475 861.113 434.37Q862.105 434.266 863.1 434.185Q864.095 434.105 865.091 434.049Q866.087 433.993 867.085 433.962Q868.082 433.93 869.08 433.924Q870.078 433.917 871.076 433.934Q872.074 433.952 873.071 433.994Q874.068 434.037 875.063 434.103Q876.059 434.17 877.053 434.261Q878.047 434.353 879.038 434.468Q880.029 434.584 881.017 434.724Q882.005 434.864 882.989 435.028Q883.974 435.192 884.954 435.381Q885.934 435.569 886.909 435.781Q887.884 435.994 888.853 436.23Q889.823 436.466 890.786 436.727Q891.75 436.987 892.706 437.27Q893.663 437.554 894.613 437.861Q895.562 438.168 896.504 438.499Q897.445 438.829 898.379 439.183Q899.312 439.536 900.236 439.912Q901.16 440.289 902.075 440.687Q902.99 441.086 903.894 441.508Q904.799 441.929 905.693 442.372Q906.587 442.816 907.47 443.281C926.326 453.209 941.758 471.325 947.898 491.815Q948.448 493.647 948.908 495.504Q949.367 497.361 949.735 499.239Q950.103 501.116 950.378 503.01Q950.653 504.903 950.834 506.807Q951.016 508.712 951.103 510.623Q951.191 512.534 951.185 514.447Q951.178 516.36 951.078 518.271Q950.977 520.181 950.783 522.085Q950.589 523.988 950.301 525.879Q950.013 527.771 949.633 529.646Q949.253 531.521 948.781 533.375Q948.309 535.229 947.746 537.057Q947.183 538.886 946.532 540.684Q945.88 542.483 945.14 544.247Q944.401 546.012 943.576 547.738Q942.75 549.464 941.841 551.147Q941.37 552.014 940.878 552.869Q940.386 553.725 939.873 554.568Q939.359 555.411 938.826 556.241Q938.292 557.071 937.738 557.887Q937.184 558.704 936.61 559.507Q936.036 560.309 935.443 561.098Q934.849 561.886 934.237 562.659Q933.624 563.433 932.992 564.191Q932.361 564.949 931.711 565.692Q931.061 566.434 930.393 567.16Q929.725 567.887 929.039 568.596Q928.353 569.306 927.65 569.998Q926.947 570.691 926.227 571.365Q925.507 572.04 924.771 572.697Q924.035 573.354 923.282 573.993Q922.53 574.632 921.762 575.252Q920.995 575.872 920.212 576.472Q919.429 577.073 918.632 577.655Q917.835 578.236 917.023 578.798Q916.212 579.359 915.387 579.901Q914.562 580.442 913.724 580.963Q912.886 581.484 912.035 581.984Q911.185 582.485 910.322 582.964Q909.459 583.443 908.585 583.901Q907.711 584.358 906.826 584.795Q905.94 585.231 905.045 585.645Q904.149 586.059 903.244 586.451Q902.338 586.843 901.423 587.213Q900.508 587.582 899.584 587.929Q898.66 588.276 897.728 588.6Q896.796 588.924 895.857 589.225Q894.917 589.526 893.97 589.804Q892.996 590.073 892.016 590.318Q891.037 590.562 890.051 590.783Q889.066 591.004 888.075 591.2Q887.084 591.397 886.089 591.569Q885.094 591.741 884.095 591.889Q883.096 592.037 882.093 592.16Q881.091 592.283 880.086 592.382Q879.081 592.481 878.073 592.555Q877.066 592.629 876.057 592.678Q875.048 592.727 874.039 592.752Q873.029 592.777 872.019 592.776Q871.009 592.776 870 592.751Q868.99 592.726 867.981 592.677Q866.972 592.627 865.965 592.553Q864.958 592.479 863.953 592.38Q862.948 592.281 861.945 592.157Q860.943 592.034 859.944 591.885Q858.945 591.737 857.95 591.565Q856.955 591.392 855.964 591.195Q854.973 590.999 853.988 590.778Q853.003 590.556 852.023 590.311Q851.043 590.066 850.069 589.797Q849.096 589.528 848.129 589.235Q847.163 588.942 846.204 588.626Q845.245 588.31 844.294 587.97Q843.342 587.63 842.4 587.267Q841.457 586.904 840.524 586.518Q839.591 586.132 838.667 585.723Q837.744 585.314 836.83 584.883Q835.917 584.452 835.015 583.998Q834.112 583.545 833.221 583.07Q832.33 582.594 831.451 582.097C808.562 569.103 797.367 550.287 790.43 525.615C775.7 525.196 760.878 525.499 746.139 525.48C729.038 525.457 711.87 525.162 694.78 525.783C693.718 572.334 677.004 613.662 646.023 648.29L728.998 730.209C743.481 714.224 760.837 703.236 782.193 698.974C805.922 694.238 831.301 698.752 851.416 712.325Q852.341 712.942 853.249 713.582Q854.158 714.223 855.051 714.885Q855.944 715.548 856.82 716.232Q857.695 716.917 858.554 717.623Q859.413 718.329 860.253 719.056Q861.094 719.784 861.916 720.532Q862.739 721.28 863.542 722.048Q864.346 722.816 865.13 723.604Q865.914 724.392 866.678 725.199Q867.443 726.007 868.186 726.833Q868.93 727.659 869.654 728.503Q870.377 729.348 871.079 730.21Q871.781 731.072 872.461 731.951Q873.141 732.83 873.799 733.726Q874.457 734.622 875.093 735.534Q875.728 736.446 876.341 737.374Q876.954 738.301 877.543 739.244Q878.133 740.187 878.698 741.144Q879.264 742.1 879.806 743.071Q880.348 744.042 880.865 745.026Q881.383 746.01 881.875 747.006Q882.368 748.003 882.836 749.011Q883.304 750.02 883.746 751.039Q884.189 752.059 884.606 753.09Q885.023 754.12 885.414 755.161Q885.806 756.201 886.171 757.251Q886.536 758.301 886.875 759.36Q887.214 760.419 887.527 761.485Q887.839 762.552 888.125 763.627Q888.411 764.701 888.67 765.782Q888.929 766.863 889.161 767.95Q889.393 769.037 889.598 770.13Q889.787 771.209 889.95 772.292Q890.114 773.375 890.25 774.461Q890.386 775.548 890.496 776.638Q890.606 777.728 890.689 778.82Q890.772 779.912 890.828 781.005Q890.885 782.099 890.914 783.194Q890.944 784.289 890.946 785.384Q890.949 786.479 890.925 787.574Q890.901 788.669 890.85 789.763Q890.799 790.857 890.721 791.95Q890.643 793.042 890.539 794.133Q890.434 795.223 890.303 796.31Q890.172 797.398 890.015 798.481Q889.857 799.565 889.673 800.645Q889.488 801.724 889.278 802.799Q889.067 803.874 888.83 804.943Q888.594 806.013 888.331 807.076Q888.068 808.139 887.779 809.195Q887.49 810.252 887.175 811.301Q886.86 812.35 886.52 813.391Q886.18 814.432 885.814 815.465Q885.449 816.497 885.058 817.52Q884.667 818.543 884.251 819.556Q883.835 820.57 883.395 821.572Q882.954 822.575 882.49 823.567Q882.025 824.558 881.536 825.538Q881.046 826.518 880.534 827.486Q880.021 828.454 879.484 829.409Q878.948 830.364 878.388 831.305Q877.828 832.246 877.246 833.174Q876.663 834.101 876.058 835.014Q875.453 835.927 874.826 836.825Q874.185 837.745 873.521 838.65Q872.857 839.555 872.171 840.443Q871.486 841.331 870.778 842.202Q870.071 843.073 869.343 843.926Q868.615 844.78 867.866 845.615Q867.117 846.451 866.347 847.267Q865.578 848.084 864.789 848.882Q864 849.679 863.192 850.458Q862.383 851.236 861.556 851.994Q860.729 852.752 859.884 853.49Q859.038 854.227 858.175 854.944Q857.312 855.661 856.432 856.356Q855.551 857.051 854.654 857.725Q853.756 858.399 852.843 859.05Q851.929 859.701 851 860.33Q850.071 860.959 849.127 861.565Q848.182 862.171 847.224 862.754Q846.265 863.337 845.292 863.896Q844.319 864.455 843.333 864.99Q842.347 865.525 841.348 866.035Q840.349 866.546 839.338 867.032Q838.327 867.518 837.304 867.98Q836.281 868.441 835.247 868.877Q834.213 869.313 833.169 869.723Q832.125 870.134 831.071 870.519Q830.017 870.904 828.954 871.263Q827.891 871.622 826.82 871.955Q825.748 872.288 824.669 872.594Q823.59 872.901 822.503 873.181Q821.417 873.461 820.324 873.714Q819.231 873.967 818.132 874.194Q817.033 874.42 815.929 874.62C792.683 878.807 767.474 873.513 748.158 859.871C728.594 846.052 714.196 823.951 710.323 800.227C706.314 775.673 712.833 752.411 727.146 732.376L644.182 650.482C605.887 687.094 563.178 706.762 509.659 707.504C509.561 730.645 509.887 753.82 509.544 776.953Q511.313 777.01 513.08 777.119Q514.133 777.181 515.185 777.27Q516.236 777.358 517.284 777.473Q518.333 777.588 519.379 777.73Q520.424 777.871 521.466 778.038Q522.507 778.206 523.544 778.4Q524.582 778.593 525.613 778.813Q526.645 779.033 527.671 779.278Q528.697 779.524 529.717 779.795Q530.736 780.066 531.749 780.363Q532.761 780.66 533.766 780.982Q534.77 781.304 535.766 781.651Q536.763 781.999 537.75 782.371Q538.737 782.743 539.714 783.14Q540.692 783.537 541.659 783.958Q542.626 784.38 543.583 784.825Q544.539 785.271 545.484 785.74Q546.428 786.21 547.361 786.703Q548.294 787.196 549.214 787.713Q550.134 788.229 551.04 788.768Q551.947 789.308 552.84 789.87Q553.733 790.432 554.611 791.016Q555.49 791.6 556.353 792.206Q557.217 792.812 558.065 793.44Q558.913 794.067 559.745 794.716Q560.577 795.365 561.392 796.034Q562.207 796.704 563.006 797.394Q563.804 798.083 564.585 798.793Q565.365 799.503 566.128 800.232Q566.891 800.961 567.635 801.709Q568.379 802.457 569.104 803.223Q569.828 803.989 570.534 804.774Q571.24 805.558 571.925 806.36Q572.614 807.153 573.283 807.963Q573.951 808.773 574.6 809.6Q575.249 810.426 575.878 811.267Q576.506 812.109 577.114 812.966Q577.722 813.823 578.308 814.695Q578.895 815.566 579.46 816.452Q580.025 817.337 580.568 818.237Q581.111 819.136 581.632 820.048Q582.153 820.96 582.651 821.885Q583.15 822.81 583.625 823.746Q584.101 824.683 584.554 825.631Q585.006 826.579 585.435 827.538Q585.865 828.497 586.27 829.466Q586.676 830.435 587.058 831.414Q587.44 832.392 587.797 833.38Q588.155 834.368 588.488 835.364Q588.822 836.36 589.131 837.364Q589.44 838.368 589.724 839.38Q590.008 840.391 590.268 841.409Q590.527 842.427 590.761 843.451Q590.996 844.475 591.205 845.504Q591.414 846.534 591.598 847.568Q591.782 848.602 591.941 849.641Q592.099 850.679 592.233 851.721Q592.366 852.764 592.473 853.809Q592.581 854.854 592.663 855.901Q592.745 856.948 592.801 857.997Q592.857 859.046 592.888 860.096Q592.918 861.146 592.923 862.197Q592.928 863.247 592.907 864.298Q592.886 865.348 592.84 866.398Q592.793 867.447 592.721 868.495C591.142 891.016 581.183 911.399 564.003 926.128C547.309 940.442 524.713 947.426 502.879 945.807C484.008 944.004 467.369 936.748 453.118 924.207C436.434 909.525 426.751 888.188 425.373 866.131Q425.301 865.101 425.254 864.069Q425.207 863.037 425.186 862.004Q425.166 860.971 425.17 859.938Q425.175 858.906 425.206 857.873Q425.237 856.841 425.293 855.809Q425.35 854.778 425.432 853.748Q425.514 852.719 425.622 851.691Q425.729 850.664 425.863 849.64Q425.996 848.615 426.155 847.595Q426.314 846.574 426.498 845.558Q426.683 844.542 426.892 843.53Q427.102 842.519 427.337 841.513Q427.572 840.507 427.832 839.507Q428.091 838.507 428.376 837.515Q428.661 836.522 428.97 835.536Q429.28 834.551 429.614 833.573Q429.947 832.596 430.306 831.627Q430.664 830.658 431.046 829.698Q431.428 828.739 431.834 827.789Q432.24 826.839 432.67 825.9Q433.1 824.961 433.553 824.032Q434.006 823.104 434.482 822.187Q434.958 821.271 435.456 820.366Q435.955 819.461 436.476 818.57Q436.997 817.678 437.541 816.799Q438.084 815.921 438.649 815.056Q439.214 814.191 439.8 813.341Q440.386 812.49 440.994 811.655Q441.601 810.819 442.229 809.999Q442.857 809.179 443.506 808.375Q444.154 807.571 444.822 806.783Q445.49 805.996 446.178 805.225C462.066 787.551 483.362 778.22 506.886 776.873C507.397 753.798 507.031 730.593 506.881 707.508C467.671 705.641 431.759 696.663 399.528 673.3C390.085 666.456 381.571 658.525 372.994 650.651C362.109 660.24 352.08 671.201 341.814 681.453Q316.161 706.817 290.869 732.542C301.725 750.684 306.874 769.701 305.273 790.896C303.406 815.61 292.897 837.347 273.96 853.453Q273.086 854.212 272.193 854.948Q271.3 855.685 270.389 856.399Q269.478 857.113 268.55 857.804Q267.621 858.495 266.676 859.163Q265.73 859.831 264.768 860.475Q263.806 861.119 262.829 861.739Q261.851 862.358 260.858 862.954Q259.865 863.549 258.858 864.119Q257.851 864.689 256.829 865.234Q255.808 865.779 254.774 866.298Q253.739 866.817 252.692 867.31Q251.645 867.804 250.586 868.271Q249.526 868.737 248.456 869.178Q247.385 869.618 246.304 870.032Q245.223 870.445 244.132 870.831Q243.041 871.218 241.94 871.577Q240.84 871.936 239.731 872.267Q238.622 872.599 237.505 872.902Q236.388 873.206 235.264 873.482Q234.139 873.757 233.009 874.005Q231.878 874.252 230.741 874.472Q229.605 874.691 228.463 874.882Q227.321 875.072 226.175 875.235Q225.029 875.397 223.879 875.53Q222.73 875.664 221.577 875.769Q220.424 875.873 219.269 875.95Q218.114 876.026 216.957 876.073Q215.801 876.12 214.643 876.138Q213.486 876.156 212.329 876.146Q211.171 876.135 210.014 876.096Q208.857 876.056 207.702 875.988Q206.546 875.919 205.393 875.822C181.117 873.79 159.112 861.812 143.473 843.316Q142.717 842.414 141.983 841.494Q141.249 840.574 140.538 839.636Q139.827 838.698 139.14 837.742Q138.452 836.787 137.789 835.815Q137.125 834.843 136.486 833.854Q135.847 832.866 135.233 831.862Q134.618 830.858 134.029 829.84Q133.44 828.821 132.876 827.788Q132.312 826.755 131.774 825.708Q131.236 824.661 130.724 823.601Q130.212 822.541 129.726 821.469Q129.24 820.397 128.782 819.313Q128.323 818.229 127.891 817.134Q127.459 816.04 127.055 814.934Q126.65 813.829 126.273 812.714Q125.896 811.599 125.547 810.475Q125.198 809.351 124.877 808.219Q124.556 807.087 124.263 805.947Q123.97 804.807 123.705 803.66Q123.44 802.513 123.204 801.36Q122.968 800.207 122.76 799.048Q122.553 797.89 122.374 796.727Q122.196 795.563 122.046 794.396Q121.896 793.228 121.775 792.058Q121.655 790.887 121.563 789.714Q121.471 788.54 121.409 787.365Q121.346 786.189 121.313 785.013Q121.279 783.836 121.275 782.659Q121.271 781.482 121.296 780.306Q121.321 779.129 121.375 777.953Q121.429 776.778 121.512 775.604Q121.596 774.43 121.708 773.258C123.836 749.088 136.562 726.092 155.134 710.628C173.33 695.477 197.655 689.121 221.019 691.328C248.622 693.936 271.59 708.731 288.93 729.793C316.522 702.906 343.743 675.559 370.885 648.218Q369.481 646.652 368.112 645.054Q366.743 643.457 365.411 641.829Q364.078 640.201 362.783 638.544Q361.487 636.887 360.229 635.2Q358.971 633.514 357.752 631.8Q356.532 630.086 355.352 628.345Q354.171 626.604 353.03 624.837Q351.888 623.07 350.787 621.278Q349.686 619.485 348.625 617.668Q347.565 615.852 346.545 614.012Q345.526 612.172 344.548 610.309Q343.57 608.446 342.635 606.562Q341.699 604.678 340.806 602.773Q339.913 600.869 339.063 598.945Q338.213 597.02 337.407 595.077Q336.601 593.134 335.838 591.174Q335.076 589.213 334.358 587.236Q333.64 585.259 332.966 583.266Q332.293 581.273 331.664 579.265Q331.036 577.258 330.453 575.236Q329.87 573.215 329.332 571.181Q328.795 569.148 328.303 567.102Q327.812 565.057 327.366 563.001Q326.921 560.945 326.522 558.88Q326.123 556.814 325.77 554.74Q325.418 552.666 325.112 550.585Q324.807 548.504 324.548 546.416Q324.289 544.328 324.077 542.235Q323.866 540.142 323.701 538.045Q323.536 535.948 323.419 533.848Q323.302 531.747 323.232 529.645Q323.162 527.542 323.139 525.439C293.59 524.926 263.832 525.23 234.276 525.51C229.852 545.743 219.659 563.139 203.393 576.119C185.604 590.316 162.594 596.039 140.106 593.411Q139.067 593.295 138.031 593.152Q136.995 593.01 135.962 592.842Q134.93 592.674 133.902 592.48Q132.875 592.286 131.852 592.067Q130.83 591.847 129.813 591.602Q128.796 591.357 127.786 591.087Q126.775 590.817 125.772 590.522Q124.769 590.226 123.773 589.906Q122.778 589.586 121.79 589.241Q120.803 588.896 119.825 588.527Q118.846 588.157 117.878 587.763Q116.909 587.37 115.95 586.952Q114.991 586.534 114.043 586.092Q113.095 585.651 112.159 585.186Q111.222 584.72 110.297 584.232Q109.372 583.744 108.46 583.232Q107.548 582.721 106.648 582.187Q105.749 581.653 104.863 581.097Q103.978 580.541 103.106 579.963Q102.235 579.385 101.378 578.785Q100.521 578.186 99.6795 577.565Q98.8379 576.944 98.0121 576.302Q97.1862 575.661 96.3766 574.999Q95.567 574.337 94.7742 573.655Q93.9814 572.972 93.2059 572.271Q92.4303 571.569 91.6725 570.849Q90.9147 570.128 90.1751 569.388Q89.4355 568.649 88.7146 567.891Q87.9937 567.134 87.292 566.358Q86.5902 565.583 85.908 564.79Q85.2258 563.998 84.5635 563.188Q83.9013 562.379 83.2595 561.553Q82.6329 560.74 82.0266 559.912Q81.4203 559.084 80.8348 558.241Q80.2492 557.399 79.6847 556.542Q79.1203 555.684 78.5772 554.814Q78.0341 553.943 77.5128 553.059Q76.9915 552.175 76.4923 551.278Q75.9931 550.381 75.5163 549.473Q75.0394 548.564 74.5853 547.644Q74.1311 546.723 73.7 545.792Q73.2688 544.861 72.8608 543.919Q72.4528 542.978 72.0683 542.026Q71.6838 541.074 71.323 540.114Q70.9622 539.153 70.6254 538.184Q70.2885 537.214 69.9758 536.237Q69.6631 535.259 69.3747 534.274Q69.0863 533.289 68.8224 532.298Q68.5586 531.306 68.3194 530.308Q68.0802 529.31 67.8658 528.306Q67.6514 527.303 67.462 526.294Q67.2725 525.285 67.1082 524.272Q66.9438 523.259 66.8046 522.243Q66.6654 521.226 66.5515 520.206Q66.4375 519.186 66.3489 518.164Q66.2603 517.141 66.197 516.117Q66.1338 515.093 66.096 514.067Q66.0581 513.041 66.0457 512.015Q66.0334 510.989 66.0464 509.963Q66.0595 508.937 66.098 507.911Q66.1365 506.886 66.2004 505.861Q66.2643 504.837 66.3536 503.815Q66.4429 502.792 66.5575 501.773Q66.6721 500.753 66.812 499.736Q66.9496 498.725 67.1119 497.718Q67.2743 496.711 67.4614 495.709Q67.6485 494.706 67.8602 493.708Q68.0718 492.71 68.308 491.718Q68.5441 490.726 68.8046 489.74Q69.0651 488.754 69.3497 487.774Q69.6343 486.795 69.943 485.823Q70.2516 484.85 70.584 483.886Q70.9165 482.922 71.2725 481.966Q71.6285 481.01 72.008 480.063Q72.3874 479.117 72.79 478.179Q73.1926 477.242 73.6181 476.315Q74.0436 475.388 74.4918 474.472Q74.94 473.556 75.4105 472.651Q75.8811 471.746 76.3737 470.853Q76.8664 469.96 77.3809 469.079Q77.8954 468.198 78.4314 467.33Q78.9673 466.463 79.5245 465.608Q80.0816 464.754 80.6596 463.913Q81.2376 463.073 81.836 462.247Q82.4345 461.421 83.0531 460.61Q83.6717 459.799 84.31 459.004Q84.9484 458.208 85.6061 457.428Q86.2638 456.649 86.9405 455.886Q87.6171 455.122 88.3124 454.376Q89.0076 453.63 89.721 452.901Q90.4344 452.172 91.1654 451.46Q91.8965 450.749 92.6449 450.056Q93.3932 449.363 94.1584 448.689Q94.9235 448.014 95.705 447.359Q96.4865 446.703 97.2839 446.067Q98.0813 445.431 98.8941 444.815Q99.7371 444.184 100.595 443.573Q101.453 442.962 102.326 442.373Q103.199 441.783 104.086 441.215Q104.973 440.647 105.873 440.101Q106.773 439.554 107.687 439.03Q108.6 438.506 109.526 438.004Q110.452 437.502 111.39 437.023Q112.328 436.544 113.277 436.087Q114.227 435.631 115.187 435.198Q116.147 434.765 117.117 434.356Q118.088 433.946 119.068 433.561Q120.048 433.175 121.037 432.813Q122.026 432.452 123.024 432.114Q124.022 431.776 125.027 431.463Q126.033 431.15 127.046 430.862Q128.059 430.573 129.078 430.309Q130.098 430.046 131.124 429.807Q132.149 429.568 133.181 429.354Q134.212 429.14 135.248 428.951Q136.284 428.763 137.325 428.599Q138.365 428.436 139.41 428.298Q140.454 428.16 141.501 428.048Q142.548 427.935 143.598 427.848Q144.647 427.761 145.699 427.7Q146.75 427.638 147.803 427.603Q148.855 427.567 149.909 427.557Q150.962 427.546 152.015 427.562Q153.068 427.577 154.12 427.619Q155.173 427.66 156.224 427.727Q157.275 427.793 158.324 427.886Q159.373 427.978 160.42 428.096Q161.467 428.214 162.51 428.357Q163.552 428.493 164.59 428.656Q165.628 428.818 166.662 429.005Q167.696 429.193 168.725 429.406Q169.754 429.619 170.777 429.858Q171.801 430.096 172.818 430.36Q173.835 430.623 174.845 430.912Q175.856 431.201 176.858 431.514Q177.861 431.828 178.856 432.166Q179.851 432.504 180.837 432.867Q181.823 433.229 182.8 433.616Q183.777 434.003 184.745 434.414Q185.712 434.825 186.668 435.259Q187.625 435.694 188.571 436.152Q189.516 436.61 190.45 437.091Q191.384 437.572 192.306 438.077Q193.228 438.581 194.137 439.108Q195.047 439.634 195.943 440.183Q196.838 440.732 197.721 441.303Q198.603 441.874 199.47 442.467Q200.338 443.06 201.191 443.673Q202.044 444.287 202.881 444.922Q203.719 445.557 204.54 446.212Q205.362 446.867 206.167 447.542Q206.972 448.217 207.76 448.912Q208.548 449.607 209.319 450.321Q210.09 451.035 210.843 451.768Q211.595 452.501 212.33 453.253Q213.065 454.004 213.78 454.773Q214.496 455.542 215.193 456.329Q215.89 457.116 216.567 457.919Q217.244 458.723 217.901 459.543Q218.557 460.363 219.194 461.199Q219.798 462.014 220.383 462.844Q220.967 463.674 221.531 464.518Q222.094 465.362 222.637 466.22Q223.18 467.077 223.702 467.948Q224.223 468.819 224.723 469.702Q225.223 470.585 225.702 471.48Q226.18 472.375 226.636 473.282Q227.092 474.188 227.526 475.106Q227.96 476.024 228.371 476.951Q228.782 477.879 229.171 478.817Q229.559 479.755 229.924 480.702Q230.289 481.649 230.631 482.604Q230.973 483.56 231.292 484.524Q231.61 485.487 231.904 486.459Q232.199 487.43 232.47 488.408Q232.74 489.386 232.987 490.371Q233.234 491.355 233.456 492.346Q233.678 493.336 233.876 494.331Q234.074 495.327 234.248 496.327Q234.422 497.327 234.571 498.331Q234.72 499.335 234.844 500.342Q234.968 501.349 235.068 502.359Q235.167 503.369 235.242 504.381Q235.317 505.394 235.367 506.407Q235.417 507.421 235.442 508.436Q235.467 509.45 235.467 510.465Q235.467 511.48 235.442 512.495Q235.417 513.509 235.368 514.523Q235.318 515.537 235.244 516.549Q235.169 517.561 235.07 518.571Q234.971 519.581 234.847 520.589Q234.723 521.596 234.574 522.6L323.011 522.505C325.076 476.192 339.426 438.327 368.826 402.53C360.156 395.461 352.204 386.807 344.102 379.043L288.613 325.564C275.501 341.372 259.376 352.449 239.257 357.355Q238.178 357.615 237.092 357.848Q236.007 358.081 234.916 358.288Q233.825 358.494 232.73 358.674Q231.634 358.854 230.535 359.008Q229.435 359.161 228.332 359.287Q227.229 359.414 226.124 359.514Q225.018 359.613 223.91 359.686Q222.802 359.758 221.693 359.804Q220.584 359.85 219.474 359.868Q218.364 359.887 217.254 359.878Q216.144 359.87 215.034 359.835Q213.924 359.799 212.816 359.737Q211.708 359.674 210.601 359.585Q209.494 359.495 208.39 359.379Q207.286 359.262 206.185 359.119Q205.085 358.976 203.987 358.806Q202.89 358.636 201.798 358.439Q200.705 358.243 199.618 358.02Q198.53 357.796 197.448 357.547Q196.367 357.297 195.291 357.021Q194.216 356.745 193.148 356.443Q192.079 356.141 191.019 355.813Q189.958 355.485 188.906 355.132Q187.853 354.778 186.81 354.399Q185.767 354.02 184.733 353.615Q183.699 353.211 182.675 352.781Q181.651 352.351 180.639 351.897Q179.626 351.443 178.624 350.964Q177.622 350.485 176.633 349.982Q175.643 349.479 174.666 348.952Q173.689 348.424 172.725 347.874Q171.761 347.323 170.811 346.749C151.236 334.792 136.303 314.955 131.068 292.549Q130.822 291.476 130.602 290.397Q130.383 289.317 130.189 288.233Q129.996 287.149 129.829 286.061Q129.663 284.972 129.523 283.88Q129.383 282.788 129.27 281.692Q129.156 280.597 129.07 279.499Q128.983 278.401 128.924 277.302Q128.864 276.202 128.831 275.101Q128.799 274 128.793 272.899Q128.787 271.798 128.808 270.697Q128.829 269.596 128.878 268.496Q128.926 267.396 129.001 266.297Q129.075 265.198 129.177 264.102Q129.279 263.005 129.408 261.912Q129.536 260.818 129.691 259.728Q129.847 258.637 130.028 257.551Q130.21 256.465 130.419 255.384Q130.627 254.303 130.862 253.227Q131.096 252.151 131.357 251.081Q131.618 250.011 131.905 248.948Q132.192 247.885 132.505 246.829Q132.818 245.773 133.157 244.725Q133.495 243.677 133.86 242.638Q134.224 241.599 134.613 240.569Q135.003 239.539 135.417 238.518Q135.832 237.498 136.271 236.488Q136.71 235.479 137.174 234.48Q137.638 233.481 138.126 232.494Q138.614 231.507 139.127 230.532Q139.639 229.557 140.175 228.595Q140.71 227.633 141.27 226.684Q141.829 225.736 142.411 224.801C154.576 205.21 175.664 190.89 198.056 185.789Q199.13 185.537 200.21 185.312Q201.29 185.087 202.375 184.889Q203.46 184.691 204.55 184.521Q205.64 184.35 206.734 184.207Q207.827 184.064 208.924 183.948Q210.021 183.832 211.121 183.744Q212.221 183.656 213.322 183.595Q214.423 183.535 215.526 183.502Q216.629 183.469 217.732 183.464Q218.835 183.459 219.938 183.481Q221.041 183.503 222.143 183.554Q223.245 183.604 224.345 183.681Q225.445 183.759 226.543 183.864Q227.641 183.97 228.737 184.102Q229.832 184.235 230.923 184.396Q232.014 184.556 233.101 184.743Q234.188 184.931 235.27 185.146Q236.352 185.36 237.429 185.602Q238.505 185.844 239.575 186.113Q240.645 186.382 241.708 186.677Q242.77 186.973 243.825 187.295Q244.88 187.617 245.927 187.965Q246.974 188.314 248.011 188.688Q249.049 189.063 250.077 189.464Q251.104 189.864 252.122 190.29Q253.139 190.716 254.146 191.168Q255.152 191.619 256.147 192.096Q257.142 192.573 258.124 193.074Q259.107 193.576 260.077 194.102Q261.046 194.628 262.002 195.178Q262.958 195.728 263.901 196.302Q264.843 196.876 265.77 197.473Q266.692 198.06 267.6 198.67Q268.507 199.279 269.4 199.91Q270.292 200.542 271.169 201.195Q272.046 201.847 272.907 202.521Q273.767 203.195 274.611 203.89Q275.456 204.584 276.283 205.299Q277.11 206.014 277.919 206.749Q278.728 207.484 279.52 208.238Q280.311 208.992 281.084 209.766Q281.856 210.539 282.61 211.331Q283.364 212.122 284.098 212.932Q284.832 213.742 285.547 214.57Q286.261 215.397 286.955 216.242Q287.649 217.086 288.323 217.947Q288.996 218.809 289.648 219.686Q290.301 220.563 290.931 221.456Q291.562 222.349 292.171 223.257Q292.78 224.165 293.366 225.087Q293.953 226.01 294.517 226.946Q295.081 227.883 295.622 228.832Q296.163 229.782 296.681 230.745Q297.199 231.708 297.693 232.683Q298.188 233.658 298.658 234.645Q299.129 235.631 299.575 236.629Q300.022 237.627 300.444 238.635Q300.866 239.644 301.263 240.662Q301.661 241.681 302.033 242.708Q302.406 243.736 302.753 244.773Q303.101 245.809 303.423 246.854Q303.745 247.898 304.042 248.95Q304.339 250.003 304.61 251.062Q304.881 252.121 305.126 253.186C310.769 278.577 304.35 301.916 290.549 323.423C296.821 330.7 304.663 336.972 311.55 343.725L370.663 400.676Q371.739 399.498 372.833 398.336C409.242 359.7 455.729 340.087 508.484 338.498C507.892 326.472 508.118 314.326 508.116 302.287L508.133 246.578C488.509 245.131 470.905 239.998 455.499 227.258C437.899 212.702 427.39 192.026 425.321 169.363C423.244 146.612 430.35 124.766 445.068 107.341C460.356 89.2408 480.654 79.6474 504.063 77.6987Z"/>
	<path fill="#8AA7ED" d="M166.948 860.71C174.959 859.616 194.926 862.776 204.605 863.216Q219.901 863.914 235.213 863.844C241.322 863.852 248.678 863.046 254.641 864.269C249.592 866.608 244.454 868.698 239.099 870.236C213.511 877.587 189.851 873.504 166.948 860.71Z"/>
	<defs>
		<linearGradient id="gradient_0" gradientUnits="userSpaceOnUse" x1="181.57826" y1="698.89807" x2="245.43933" y2="866.3371">
			<stop offset="0" stop-color="#2F4161"/>
			<stop offset="1" stop-color="#3E58A5"/>
		</linearGradient>
	</defs>
	<path fill="url(#gradient_0)" d="M166.948 860.71C149.01 851.453 134.365 830.766 128.352 811.833C120.615 787.475 122.163 762.137 134.087 739.431Q134.595 738.479 135.126 737.541Q135.656 736.602 136.21 735.677Q136.764 734.751 137.341 733.84Q137.917 732.928 138.516 732.031Q139.115 731.134 139.735 730.252Q140.356 729.37 140.998 728.504Q141.641 727.638 142.304 726.787Q142.968 725.937 143.652 725.103Q144.336 724.27 145.04 723.453Q145.745 722.637 146.469 721.838Q147.194 721.039 147.938 720.258Q148.682 719.477 149.445 718.715Q150.207 717.952 150.989 717.209Q151.77 716.466 152.57 715.742Q153.37 715.018 154.187 714.314Q155.004 713.611 155.838 712.927Q156.672 712.244 157.523 711.581Q158.374 710.918 159.241 710.277Q160.108 709.635 160.99 709.015Q161.873 708.395 162.77 707.797Q163.668 707.199 164.58 706.623Q165.492 706.047 166.417 705.494Q167.343 704.941 168.283 704.411Q169.222 703.881 170.174 703.374Q171.126 702.867 172.09 702.384Q173.054 701.901 174.03 701.442Q175.006 700.983 175.992 700.547Q176.979 700.112 177.977 699.702Q178.974 699.291 179.981 698.905Q180.988 698.519 182.004 698.158Q183.02 697.797 184.045 697.461Q185.07 697.125 186.103 696.815C209.522 689.577 235.317 693.131 256.745 704.582C276.882 715.344 293.342 734.379 299.992 756.312Q300.332 757.41 300.644 758.516Q300.956 759.622 301.24 760.736Q301.524 761.85 301.78 762.97Q302.036 764.09 302.264 765.217Q302.492 766.344 302.692 767.475Q302.891 768.607 303.062 769.744Q303.234 770.88 303.376 772.021Q303.519 773.161 303.633 774.305Q303.747 775.448 303.832 776.595Q303.917 777.741 303.974 778.889Q304.03 780.036 304.058 781.186Q304.085 782.334 304.084 783.484Q304.083 784.633 304.053 785.782Q304.023 786.931 303.964 788.079Q303.905 789.227 303.818 790.373Q303.73 791.519 303.614 792.662Q303.497 793.806 303.352 794.946Q303.207 796.086 303.034 797.222Q302.86 798.358 302.658 799.49Q302.456 800.621 302.226 801.747Q301.996 802.873 301.737 803.993Q301.479 805.113 301.192 806.226Q300.906 807.339 300.592 808.444Q300.277 809.55 299.935 810.647Q299.594 811.744 299.224 812.833Q298.855 813.921 298.458 815Q298.062 816.079 297.638 817.147Q297.215 818.215 296.765 819.273Q296.315 820.331 295.838 821.376Q295.362 822.422 294.859 823.456Q294.357 824.49 293.828 825.51Q293.3 826.531 292.746 827.538Q288.241 835.775 282.424 843.144L282.39 780.269C282.378 769.864 283.176 758.725 281.906 748.445C281.744 747.127 281.231 746.258 280.291 745.324C277.502 742.556 273.456 741.13 269.637 740.562C259.527 739.059 241.313 740.04 230.347 740.027C210.151 740.001 189.702 739.26 169.534 740.008C165.4 740.162 161.691 740.829 158.737 743.992C157.366 745.46 156.913 746.991 156.682 748.946C155.478 759.143 156.481 775.497 156.535 786.382Q156.573 802.697 156.794 819.011C156.841 824.225 156.549 829.556 156.919 834.753C157.177 838.378 157.895 841.877 160.811 844.293C162.846 845.979 165.052 846.559 167.636 846.827C172.513 847.333 177.632 847.033 182.539 847.007L206.532 846.943C230.608 846.953 254.765 847.443 278.828 846.9C271.354 853.317 264.06 860.729 254.641 864.269C248.678 863.046 241.322 863.852 235.213 863.844Q219.901 863.914 204.605 863.216C194.926 862.776 174.959 859.616 166.948 860.71Z"/>
	<path fill="#FEFEFE" d="M164.864 742.091C186.292 741.349 207.886 741.977 229.333 741.926C236.52 741.909 265.654 740.89 270.818 742.423C272.078 742.797 272.901 743.941 273.437 745.111C274.982 748.487 274.677 824.664 274.262 834.284C274.169 836.441 274.144 838.791 273.301 840.806C272.343 843.095 270.833 844.204 268.602 845.11C247.685 845.764 226.595 845.213 205.66 845.266L182.042 845.334C177.124 845.36 172.023 845.678 167.128 845.188C163.373 844.811 161.78 842.87 159.506 840.056C158.992 837.372 158.725 834.835 158.637 832.102C158.327 822.55 157.712 752.103 159.01 747.861C159.938 744.826 162.141 743.414 164.864 742.091Z"/>
	<path d="M172.27 788.151C174.116 788.066 176.524 787.709 178.314 788.163C180.012 788.594 181.959 789.993 182.724 791.588C183.492 793.186 183.137 794.576 182.589 796.13C181.45 797.196 181.179 797.201 179.625 797.496C176.967 797.551 173.613 798.047 171.124 796.951C169.603 796.281 169.01 795.702 168.386 794.174C168.659 792.47 169.132 792.137 170.057 790.86C170.788 789.85 171.362 789.025 172.27 788.151Z"/>
	<path d="M232.27 755.75C237.581 755.724 264.184 754.854 267.113 756.01C267.861 756.305 267.647 756.332 267.987 757.191C266.186 758.579 228.788 757.865 223.375 757.857C211.168 757.869 198.098 758.948 186.124 756.316C201.432 755.422 216.932 755.803 232.27 755.75Z"/>
	<path d="M250.872 771.747C256.325 771.712 261.71 771.653 267.126 772.363L267.021 772.777C258.029 775.034 247.479 773.761 238.226 773.765C226.052 773.77 213.872 773.934 201.698 773.829C196.784 773.786 190.636 772.771 185.964 773.872C179.957 774.033 173.857 774.497 167.954 773.144L167.987 772.486L168.39 772.367L168.302 773.143L168.549 773.19L169.095 772.263C176.474 771.561 183.98 772.13 191.391 772.019C211.212 771.722 231.049 771.811 250.872 771.747Z"/>
	<path fill="#FEFEFE" d="M860.874 437.192C882.144 435.174 902.826 440.86 919.532 454.34Q921.027 455.552 922.461 456.837Q923.895 458.121 925.264 459.474Q926.634 460.827 927.935 462.245Q929.237 463.664 930.467 465.144Q931.697 466.625 932.854 468.163Q934.01 469.702 935.09 471.296Q936.169 472.89 937.17 474.534Q938.17 476.179 939.088 477.871Q940.007 479.563 940.841 481.297Q941.676 483.032 942.425 484.805Q943.173 486.579 943.834 488.387Q944.495 490.195 945.066 492.033Q945.638 493.871 946.119 495.735Q946.599 497.599 946.988 499.484Q947.377 501.37 947.673 503.272Q947.969 505.174 948.172 507.088Q948.355 508.921 948.446 510.76Q948.538 512.599 948.538 514.441Q948.538 516.283 948.447 518.122Q948.355 519.962 948.173 521.794Q947.991 523.627 947.717 525.448Q947.444 527.27 947.081 529.075Q946.718 530.881 946.266 532.666Q945.813 534.451 945.273 536.212Q944.733 537.972 944.106 539.704Q943.479 541.436 942.767 543.134Q942.054 544.833 941.259 546.493Q940.463 548.154 939.586 549.774Q938.709 551.393 937.753 552.967Q936.797 554.541 935.764 556.066Q934.73 557.591 933.623 559.062Q932.515 560.533 931.336 561.948C918.981 576.88 900.951 587.656 881.462 589.483Q880.816 589.572 880.168 589.653C859.974 592.161 838.923 585.476 823.005 573.027C806.38 560.024 795.337 541.7 792.885 520.588Q792.683 518.769 792.571 516.943Q792.459 515.116 792.437 513.286Q792.414 511.456 792.482 509.628Q792.549 507.799 792.706 505.976Q792.864 504.153 793.11 502.339Q793.356 500.526 793.691 498.727Q794.027 496.928 794.45 495.147Q794.873 493.367 795.383 491.61Q795.892 489.852 796.488 488.122Q797.083 486.391 797.763 484.692Q798.443 482.993 799.205 481.33Q799.968 479.666 800.811 478.042Q801.654 476.418 802.575 474.837Q803.497 473.256 804.495 471.722Q805.494 470.188 806.566 468.705Q807.638 467.223 808.782 465.794Q809.972 464.304 811.234 462.875Q812.496 461.446 813.827 460.08Q815.157 458.715 816.554 457.417Q817.951 456.119 819.409 454.892Q820.868 453.664 822.386 452.51Q823.904 451.356 825.476 450.278Q827.049 449.2 828.673 448.201Q830.297 447.202 831.968 446.285Q833.64 445.367 835.354 444.533Q837.069 443.699 838.822 442.95Q840.576 442.202 842.364 441.541Q844.152 440.88 845.971 440.308Q847.79 439.735 849.635 439.254Q851.479 438.772 853.346 438.382Q855.212 437.992 857.095 437.694Q858.978 437.396 860.874 437.192Z"/>
	<path d="M820.825 501.46C829.811 501.17 839.464 500.757 848.407 501.825L848.026 554.421C838.945 554.28 829.776 554.745 820.715 554.167C820.219 546.016 820.549 537.684 820.573 529.512C820.6 520.187 820.374 510.771 820.825 501.46Z"/>
	<path fill="#5172DB" d="M822.765 503.538L846.484 503.547Q846.076 527.767 846.157 551.99C838.9 552.942 830.34 552.048 822.942 551.996C822.261 535.914 822.795 519.646 822.765 503.538Z"/>
	<path d="M877.695 459.532C878.935 459.427 880.202 459.318 881.438 459.521C883.419 459.846 885.109 461.148 886.194 462.797C891.25 470.472 885.891 488.863 884.184 497.554C891.517 498.157 915.785 495.856 920.385 500.333C921.367 501.288 921.901 502.256 921.894 503.655C921.882 506.026 920.727 507.005 919.131 508.573C918.474 509.218 918.57 509.239 918.375 510.085C918.491 510.254 918.609 510.421 918.723 510.592L919.202 511.321C919.765 512.165 920.351 512.906 920.418 513.968C920.66 517.763 916.725 520.26 914.588 522.764C915.638 524.253 916.566 525.959 916.365 527.852C915.977 531.514 913.214 533.734 910.638 535.983C910.632 536.21 910.607 536.437 910.621 536.663C910.708 538.131 911.124 540.148 910.489 541.535C909.087 544.597 905.375 546.071 902.47 547.24C889.788 549.527 866.093 547.813 852.51 546.916Q852.392 525.834 852.652 504.755C862.563 496.788 875.964 484.635 876.474 470.815C876.604 467.292 875.9 462.65 877.695 459.532Z"/>
	<path fill="#FEFEFE" d="M502.213 780.196C521.349 778.081 541.737 784.797 556.97 796.241Q557.79 796.861 558.594 797.501Q559.398 798.141 560.186 798.801Q560.974 799.46 561.746 800.139Q562.517 800.818 563.272 801.516Q564.027 802.213 564.764 802.929Q565.501 803.645 566.221 804.379Q566.94 805.113 567.641 805.865Q568.342 806.616 569.025 807.384Q569.707 808.153 570.37 808.938Q571.034 809.723 571.677 810.524Q572.321 811.325 572.945 812.142Q573.569 812.958 574.172 813.79Q574.776 814.622 575.359 815.469Q575.942 816.315 576.504 817.176Q577.066 818.036 577.606 818.91Q578.147 819.784 578.666 820.671Q579.184 821.558 579.681 822.458Q580.178 823.358 580.653 824.269Q581.127 825.181 581.579 826.104Q582.031 827.027 582.46 827.961Q582.889 828.895 583.295 829.839Q583.701 830.783 584.084 831.737Q584.466 832.691 584.825 833.654Q585.184 834.617 585.52 835.588Q585.855 836.56 586.166 837.539Q586.477 838.519 586.764 839.506Q587.051 840.492 587.314 841.486Q587.576 842.48 587.814 843.479Q588.052 844.479 588.266 845.484Q588.479 846.49 588.668 847.5Q588.856 848.51 589.02 849.525Q589.183 850.54 589.322 851.558Q589.466 852.54 589.585 853.526Q589.704 854.511 589.799 855.5Q589.893 856.488 589.963 857.478Q590.033 858.468 590.079 859.46Q590.124 860.451 590.145 861.444Q590.166 862.436 590.162 863.429Q590.158 864.422 590.13 865.414Q590.102 866.406 590.049 867.398Q589.995 868.389 589.918 869.379Q589.84 870.368 589.738 871.356Q589.636 872.343 589.509 873.328Q589.382 874.312 589.231 875.294Q589.08 876.275 588.905 877.252Q588.729 878.229 588.53 879.201Q588.33 880.174 588.106 881.141Q587.882 882.108 587.635 883.069Q587.387 884.031 587.116 884.985Q586.844 885.94 586.549 886.888Q586.254 887.836 585.935 888.776Q585.617 889.716 585.275 890.648Q584.933 891.58 584.569 892.503Q584.204 893.427 583.816 894.341Q583.428 895.255 583.018 896.159Q582.608 897.063 582.176 897.956Q581.743 898.85 581.289 899.732Q580.834 900.615 580.358 901.486Q579.881 902.357 579.384 903.215Q578.886 904.074 578.367 904.921Q577.848 905.767 577.308 906.6Q576.768 907.433 576.208 908.253Q575.647 909.072 575.067 909.877Q574.486 910.682 573.886 911.473C559.643 930.044 540.042 939.89 517.123 942.919C495.271 944.717 474.815 938.265 457.77 924.463C440.745 910.678 430.491 890.572 428.375 868.868C426.242 846.988 432.59 825.87 446.734 808.96Q448.03 807.432 449.399 805.969Q450.768 804.507 452.206 803.112Q453.644 801.717 455.148 800.394Q456.653 799.071 458.22 797.823Q459.786 796.574 461.412 795.404Q463.038 794.233 464.718 793.142Q466.399 792.052 468.131 791.044Q469.862 790.037 471.641 789.115Q473.42 788.193 475.241 787.358Q477.062 786.523 478.922 785.778Q480.781 785.033 482.675 784.379Q484.569 783.725 486.492 783.164Q488.415 782.603 490.363 782.136Q492.312 781.669 494.28 781.298Q496.249 780.926 498.233 780.65Q500.218 780.375 502.213 780.196Z"/>
	<path d="M507.181 818.283C510.073 821.275 518.007 842.939 519.912 847.68Q535.699 848.882 551.511 849.709C544.067 857.238 535.395 863.683 527.716 871.018C529.568 881.668 532.102 892.632 534.981 903.055Q521.397 894.292 507.605 885.862C498.638 891.339 490.08 897.45 481.154 902.994C483.526 892.387 485.343 881.685 487.864 871.1C479.292 864.705 471.082 857.287 463.302 849.95L494.085 847.745C498.204 837.802 502.686 828.06 507.181 818.283Z"/>
	<path fill="#FEFEFE" d="M142.657 430.683Q144.594 430.488 146.538 430.383Q148.481 430.278 150.428 430.263Q152.375 430.249 154.32 430.325Q156.265 430.4 158.204 430.567Q160.144 430.733 162.074 430.989Q164.003 431.245 165.919 431.59Q167.835 431.936 169.733 432.37Q171.63 432.804 173.506 433.326Q175.381 433.847 177.23 434.456Q179.079 435.064 180.898 435.758Q182.717 436.451 184.502 437.228Q186.287 438.006 188.033 438.865Q189.78 439.724 191.485 440.664Q193.19 441.604 194.849 442.621Q196.509 443.639 198.119 444.733Q199.729 445.827 201.287 446.994Q202.073 447.588 202.844 448.202Q203.615 448.816 204.371 449.448Q205.127 450.081 205.866 450.732Q206.606 451.384 207.329 452.053Q208.053 452.723 208.759 453.41Q209.465 454.097 210.154 454.802Q210.843 455.507 211.515 456.228Q212.186 456.95 212.839 457.688Q213.492 458.426 214.127 459.18Q214.762 459.934 215.377 460.704Q215.993 461.473 216.589 462.258Q217.185 463.042 217.762 463.842Q218.339 464.641 218.895 465.454Q219.452 466.268 219.988 467.095Q220.524 467.922 221.04 468.762Q221.555 469.602 222.049 470.454Q222.544 471.307 223.017 472.172Q223.49 473.036 223.941 473.912Q224.392 474.788 224.822 475.675Q225.251 476.563 225.658 477.46Q226.066 478.358 226.45 479.265Q226.835 480.172 227.197 481.089Q227.559 482.005 227.899 482.931Q228.238 483.856 228.554 484.79Q228.87 485.723 229.163 486.664Q229.455 487.605 229.725 488.553Q229.994 489.501 230.239 490.456Q230.485 491.41 230.707 492.371Q230.929 493.331 231.126 494.296Q231.324 495.262 231.498 496.232Q231.672 497.202 231.821 498.176Q231.971 499.15 232.096 500.128Q232.222 501.109 232.324 502.092Q232.426 503.076 232.503 504.062Q232.581 505.047 232.635 506.035Q232.688 507.022 232.718 508.011Q232.747 508.999 232.752 509.988Q232.757 510.977 232.738 511.965Q232.719 512.954 232.675 513.942Q232.632 514.93 232.564 515.916Q232.497 516.903 232.405 517.887Q232.313 518.872 232.197 519.854Q232.081 520.836 231.941 521.815Q231.801 522.794 231.638 523.769Q231.474 524.744 231.286 525.715Q231.098 526.686 230.887 527.652Q230.675 528.618 230.44 529.578Q230.205 530.539 229.946 531.493Q229.688 532.448 229.406 533.395Q229.124 534.343 228.819 535.284Q228.514 536.224 228.186 537.157Q227.857 538.09 227.507 539.015Q227.156 539.939 226.782 540.855Q226.409 541.77 226.013 542.677Q225.618 543.583 225.2 544.479Q224.782 545.375 224.342 546.261Q223.902 547.147 223.441 548.021Q222.98 548.896 222.497 549.759Q222.015 550.622 221.511 551.473Q221.008 552.324 220.483 553.162Q219.959 554.001 219.414 554.826Q218.869 555.651 218.305 556.463Q217.74 557.275 217.155 558.072Q216.571 558.87 215.967 559.653C201.588 578.218 181.586 588.05 158.619 590.941C137.55 592.685 117.002 587.545 100.105 574.598Q98.5399 573.39 97.0354 572.107Q95.5308 570.824 94.0905 569.469Q92.6502 568.114 91.2775 566.691Q89.9048 565.268 88.6029 563.779Q87.3011 562.291 86.0731 560.741Q84.8452 559.192 83.6941 557.584Q82.543 555.976 81.4715 554.314Q80.4 552.652 79.4106 550.94Q78.4212 549.229 77.5162 547.47Q76.6112 545.712 75.7929 543.912Q74.9745 542.112 74.2446 540.275Q73.5148 538.437 72.8752 536.566Q72.2356 534.695 71.6877 532.795Q71.1399 530.895 70.6851 528.971Q70.2304 527.047 69.8698 525.103Q69.5091 523.158 69.2435 521.199C66.6094 500.589 72.4197 478.558 85.2468 462.148C99.8342 443.485 119.387 433.527 142.657 430.683Z"/>
	<path d="M148.548 455.168C153.298 455.268 157.581 455.977 161.74 458.428Q162.249 458.725 162.741 459.048Q163.234 459.372 163.709 459.72Q164.185 460.068 164.641 460.44Q165.098 460.813 165.535 461.208Q165.971 461.604 166.387 462.022Q166.803 462.439 167.196 462.878Q167.59 463.316 167.96 463.775Q168.33 464.233 168.676 464.71Q169.022 465.187 169.343 465.681Q169.663 466.176 169.958 466.686Q170.253 467.196 170.521 467.721Q170.789 468.246 171.029 468.784Q171.27 469.321 171.482 469.871Q171.694 470.421 171.878 470.981Q172.061 471.541 172.215 472.109Q172.369 472.678 172.494 473.254Q172.618 473.842 172.713 474.436Q172.807 475.03 172.873 475.628Q172.939 476.226 172.975 476.826Q173.012 477.426 173.019 478.027Q173.026 478.629 173.004 479.23Q172.982 479.831 172.93 480.43Q172.879 481.029 172.798 481.625Q172.717 482.221 172.608 482.812Q172.498 483.403 172.36 483.988Q172.221 484.574 172.054 485.151Q171.887 485.729 171.693 486.298Q171.498 486.867 171.275 487.426Q171.053 487.984 170.804 488.532Q170.554 489.079 170.279 489.613Q170.003 490.148 169.701 490.668Q169.4 491.188 169.073 491.693C165.113 497.818 159.474 501.096 152.473 502.53C146.422 502.686 141.051 501.576 136.158 497.796C131.002 493.812 127.8 487.67 126.976 481.251Q126.9 480.664 126.854 480.075Q126.809 479.485 126.793 478.894Q126.777 478.303 126.792 477.711Q126.806 477.12 126.851 476.53Q126.896 475.941 126.97 475.354Q127.045 474.767 127.15 474.185Q127.254 473.603 127.388 473.027Q127.523 472.451 127.686 471.882Q127.849 471.314 128.041 470.755Q128.234 470.195 128.454 469.646Q128.674 469.097 128.923 468.561Q129.171 468.024 129.446 467.5Q129.721 466.977 130.023 466.468Q130.324 465.959 130.651 465.466Q130.979 464.974 131.33 464.498Q131.682 464.023 132.058 463.566C136.422 458.223 141.89 455.971 148.548 455.168Z"/>
	<path d="M132.109 501.914C136.057 502.298 140.928 505.398 144.828 506.676C151.65 508.911 159.059 505.565 165.022 502.425C169.863 504.053 173.973 506.311 177.829 509.67C190.413 520.631 198.515 538.609 199.744 555.098C194.297 564.523 180.352 569.937 170.61 573.184C160.328 575.877 150.033 576.656 139.48 575.222C125.649 573.343 108.818 566.474 100.172 555.056C100.5 550.885 101.345 546.775 102.433 542.741C107.123 525.354 116.336 510.888 132.109 501.914Z"/>
	<path fill="#FEFEFE" d="M506.492 80.2237C528.079 80.4233 548.233 86.9242 564.348 101.699Q565.088 102.382 565.812 103.082Q566.535 103.783 567.241 104.502Q567.947 105.22 568.634 105.956Q569.322 106.691 569.992 107.443Q570.661 108.196 571.312 108.964Q571.963 109.733 572.595 110.517Q573.226 111.302 573.838 112.101Q574.451 112.901 575.043 113.715Q575.635 114.53 576.207 115.359Q576.779 116.188 577.33 117.031Q577.882 117.873 578.412 118.729Q578.943 119.586 579.452 120.454Q579.961 121.323 580.448 122.204Q580.936 123.086 581.402 123.979Q581.867 124.872 582.311 125.776Q582.755 126.68 583.176 127.595Q583.597 128.509 583.995 129.434Q584.394 130.359 584.769 131.294Q585.145 132.228 585.497 133.172Q585.849 134.115 586.179 135.067Q586.508 136.019 586.813 136.978Q587.119 137.938 587.4 138.905Q587.682 139.872 587.94 140.845Q588.198 141.819 588.431 142.798Q588.665 143.778 588.875 144.763Q589.084 145.748 589.269 146.738Q589.454 147.728 589.615 148.722Q589.776 149.716 589.912 150.714Q590.048 151.712 590.16 152.713Q590.271 153.714 590.358 154.717Q590.445 155.72 590.507 156.725Q590.569 157.731 590.606 158.737C591.541 180.311 584.313 200.757 569.657 216.68Q568.979 217.431 568.282 218.164Q567.586 218.898 566.871 219.614Q566.157 220.33 565.425 221.028Q564.693 221.726 563.944 222.406Q563.195 223.086 562.429 223.747Q561.664 224.408 560.882 225.05Q560.1 225.692 559.303 226.314Q558.506 226.936 557.693 227.539Q556.88 228.141 556.053 228.723Q555.226 229.305 554.385 229.867Q553.543 230.428 552.688 230.969Q551.833 231.509 550.965 232.028Q550.097 232.547 549.216 233.045Q548.335 233.542 547.443 234.018Q546.55 234.493 545.646 234.947Q544.741 235.4 543.826 235.831Q542.911 236.261 541.985 236.669Q541.06 237.077 540.124 237.462Q539.189 237.847 538.244 238.209Q537.299 238.57 536.346 238.908Q535.393 239.246 534.431 239.561Q533.47 239.875 532.501 240.166Q531.532 240.456 530.556 240.723Q529.581 240.989 528.599 241.231Q527.617 241.474 526.629 241.691Q525.641 241.909 524.648 242.103Q523.655 242.296 522.658 242.464Q521.661 242.633 520.659 242.777Q519.658 242.921 518.654 243.04Q517.649 243.159 516.642 243.253Q515.635 243.347 514.626 243.417Q513.617 243.486 512.606 243.53C491.208 243.743 471.427 237.57 455.19 223.301Q454.43 222.626 453.687 221.932Q452.944 221.238 452.218 220.526Q451.492 219.814 450.785 219.084Q450.077 218.354 449.388 217.606Q448.698 216.859 448.028 216.095Q447.358 215.33 446.706 214.55Q446.055 213.769 445.423 212.972Q444.792 212.176 444.18 211.363Q443.569 210.551 442.977 209.724Q442.386 208.897 441.816 208.055Q441.245 207.214 440.696 206.358Q440.147 205.503 439.619 204.634Q439.091 203.765 438.585 202.883Q438.079 202.001 437.595 201.107Q437.111 200.213 436.649 199.307Q436.188 198.401 435.749 197.484Q435.31 196.567 434.894 195.639Q434.478 194.712 434.085 193.774Q433.692 192.836 433.323 191.889Q432.954 190.942 432.608 189.985Q432.263 189.029 431.941 188.065Q431.619 187.1 431.322 186.128Q431.024 185.156 430.751 184.177Q430.477 183.197 430.229 182.212Q429.98 181.226 429.755 180.234Q429.531 179.243 429.332 178.246Q429.132 177.249 428.958 176.247Q428.783 175.246 428.633 174.24Q428.484 173.234 428.359 172.225Q428.234 171.216 428.135 170.204Q428.036 169.193 427.961 168.179Q427.887 167.165 427.838 166.149Q427.78 165.144 427.748 164.138Q427.715 163.132 427.708 162.126Q427.7 161.119 427.718 160.113Q427.736 159.106 427.779 158.101Q427.822 157.095 427.89 156.091Q427.958 155.087 428.051 154.084Q428.144 153.082 428.262 152.082Q428.38 151.083 428.523 150.087Q428.666 149.09 428.834 148.098Q429.002 147.105 429.195 146.117Q429.388 145.13 429.605 144.147Q429.823 143.164 430.065 142.187Q430.307 141.21 430.573 140.239Q430.839 139.269 431.13 138.305Q431.42 137.341 431.735 136.385Q432.049 135.429 432.388 134.481Q432.726 133.533 433.088 132.594Q433.45 131.654 433.835 130.724Q434.22 129.795 434.629 128.875Q435.037 127.955 435.468 127.045Q435.9 126.136 436.354 125.237Q436.807 124.339 437.284 123.452Q437.76 122.565 438.258 121.691Q438.756 120.816 439.276 119.954Q439.796 119.093 440.338 118.244Q440.879 117.395 441.442 116.561Q442.004 115.726 442.587 114.905Q443.17 114.085 443.774 113.279Q444.377 112.474 445 111.684Q445.624 110.893 446.267 110.119Q446.91 109.344 447.572 108.586Q448.234 107.828 448.915 107.087C464.08 90.3343 484.009 81.2531 506.492 80.2237Z"/>
	<path d="M505.252 103.161C511.23 102.998 516.697 103.804 521.838 107.102Q522.371 107.446 522.886 107.818Q523.401 108.189 523.896 108.586Q524.391 108.984 524.865 109.406Q525.338 109.828 525.79 110.274Q526.242 110.72 526.67 111.188Q527.098 111.657 527.501 112.147Q527.905 112.637 528.282 113.147Q528.66 113.657 529.011 114.186Q529.362 114.715 529.686 115.261Q530.009 115.807 530.304 116.369Q530.599 116.931 530.865 117.507Q531.13 118.083 531.366 118.673Q531.602 119.262 531.807 119.863Q532.012 120.463 532.186 121.074Q532.36 121.684 532.502 122.303Q532.645 122.921 532.755 123.546Q532.862 124.134 532.939 124.726Q533.017 125.318 533.065 125.913Q533.114 126.508 533.133 127.105Q533.152 127.702 533.142 128.299Q533.132 128.896 533.093 129.492Q533.053 130.088 532.985 130.681Q532.916 131.275 532.819 131.864Q532.721 132.453 532.595 133.037Q532.468 133.62 532.314 134.197Q532.159 134.774 531.976 135.342Q531.793 135.911 531.582 136.47Q531.372 137.029 531.134 137.576Q530.896 138.124 530.632 138.66Q530.368 139.195 530.077 139.717Q529.787 140.239 529.472 140.746Q529.156 141.253 528.816 141.744C524.628 147.667 518.538 150.23 511.629 151.42C505.434 151.652 499.842 150.418 494.67 146.871Q494.174 146.534 493.695 146.174Q493.217 145.813 492.757 145.43Q492.296 145.046 491.855 144.64Q491.414 144.234 490.994 143.807Q490.574 143.38 490.175 142.932Q489.776 142.485 489.4 142.018Q489.024 141.552 488.671 141.067Q488.319 140.583 487.99 140.082Q487.662 139.58 487.359 139.063Q487.055 138.547 486.778 138.015Q486.5 137.484 486.25 136.94Q485.999 136.396 485.775 135.84Q485.551 135.284 485.355 134.718Q485.159 134.151 484.991 133.576Q484.823 133.001 484.684 132.418Q484.544 131.835 484.434 131.246Q484.326 130.665 484.248 130.08Q484.169 129.494 484.12 128.906Q484.071 128.317 484.051 127.727Q484.031 127.136 484.04 126.546Q484.05 125.955 484.089 125.365Q484.128 124.776 484.196 124.189Q484.264 123.603 484.362 123.02Q484.459 122.437 484.586 121.86Q484.712 121.283 484.867 120.713Q485.022 120.143 485.205 119.582Q485.388 119.02 485.599 118.468Q485.81 117.916 486.048 117.376Q486.286 116.835 486.551 116.307Q486.816 115.779 487.107 115.265Q487.397 114.751 487.713 114.252Q488.029 113.753 488.37 113.27C492.498 107.388 498.366 104.461 505.252 103.161Z"/>
	<path d="M490.482 149.368C492.587 149.469 494.787 152.117 496.668 153.139C498.815 154.306 501.396 155.116 503.776 155.585C513.164 157.435 520.784 154.414 528.381 149.173Q531.248 150.691 533.929 152.518Q536.61 154.346 539.071 156.459C555.717 170.854 562.215 191.639 563.79 212.908C554.416 218.753 545.43 223.287 534.869 226.621Q529.62 228.215 524.212 229.133Q523.121 229.31 522.025 229.459Q520.93 229.609 519.831 229.732Q518.733 229.854 517.631 229.95Q516.53 230.045 515.426 230.114Q514.323 230.182 513.218 230.223Q512.113 230.264 511.008 230.278Q509.903 230.292 508.797 230.278Q507.692 230.265 506.587 230.225Q505.482 230.184 504.379 230.116Q503.275 230.048 502.174 229.953Q501.072 229.858 499.974 229.736Q498.875 229.614 497.779 229.465Q496.684 229.316 495.593 229.139Q494.501 228.963 493.414 228.76Q492.328 228.557 491.246 228.328Q490.165 228.098 489.09 227.842Q488.014 227.585 486.945 227.303Q485.877 227.02 484.815 226.711Q483.754 226.402 482.7 226.067Q481.647 225.732 480.602 225.371Q479.557 225.01 478.521 224.623Q477.485 224.237 476.459 223.825Q475.433 223.413 474.418 222.976Q473.403 222.539 472.398 222.077Q471.394 221.615 470.401 221.128Q469.409 220.641 468.428 220.13Q467.448 219.619 466.48 219.084Q465.513 218.549 464.559 217.991Q463.605 217.432 462.665 216.85Q461.725 216.268 460.8 215.663Q459.875 215.058 458.964 214.43Q458.054 213.803 457.16 213.153C457.706 206.5 458.432 199.89 459.969 193.381C464.396 174.641 474.008 159.557 490.482 149.368Z"/>
	<path fill="#FEFEFE" d="M209.371 186.693C209.491 186.67 209.609 186.64 209.73 186.625C231.026 184.057 254.337 191.541 271.133 204.561Q271.968 205.21 272.786 205.88Q273.604 206.55 274.406 207.239Q275.208 207.928 275.993 208.637Q276.777 209.346 277.544 210.074Q278.311 210.802 279.06 211.548Q279.809 212.295 280.54 213.059Q281.271 213.824 281.982 214.606Q282.694 215.388 283.386 216.188Q284.078 216.987 284.751 217.803Q285.423 218.619 286.075 219.452Q286.727 220.284 287.359 221.132Q287.991 221.98 288.602 222.843Q289.212 223.707 289.802 224.585Q290.391 225.462 290.959 226.355Q291.527 227.247 292.072 228.152Q292.618 229.058 293.141 229.977Q293.665 230.896 294.165 231.827Q294.666 232.759 295.144 233.702Q295.622 234.645 296.076 235.6Q296.531 236.555 296.962 237.521Q297.393 238.486 297.8 239.462Q298.207 240.438 298.59 241.424Q298.974 242.409 299.333 243.404Q299.692 244.398 300.026 245.402Q300.361 246.405 300.671 247.416Q300.98 248.427 301.265 249.445Q301.55 250.463 301.81 251.488Q302.07 252.513 302.305 253.544Q302.54 254.575 302.75 255.612Q302.959 256.648 303.143 257.69Q303.327 258.731 303.486 259.776Q303.644 260.822 303.777 261.871C306.61 284.185 300.029 306.337 286.251 324.009C271.629 342.764 249.937 354.02 226.512 356.81C226.32 356.84 226.128 356.875 225.934 356.9C205.006 359.509 181.523 352.129 164.963 339.379C146.847 325.431 135.051 305.447 132.251 282.702Q132.119 281.655 132.013 280.606Q131.907 279.556 131.826 278.504Q131.746 277.452 131.692 276.398Q131.637 275.345 131.609 274.29Q131.58 273.236 131.578 272.181Q131.575 271.126 131.599 270.071Q131.622 269.016 131.671 267.962Q131.721 266.908 131.796 265.856Q131.871 264.804 131.972 263.754Q132.074 262.703 132.201 261.656Q132.327 260.609 132.48 259.565Q132.633 258.521 132.811 257.481Q132.989 256.441 133.193 255.406Q133.397 254.371 133.626 253.341Q133.856 252.311 134.11 251.288Q134.365 250.264 134.644 249.247Q134.924 248.229 135.228 247.219Q135.533 246.209 135.862 245.207Q136.192 244.204 136.545 243.211Q136.899 242.217 137.278 241.232Q137.656 240.247 138.058 239.272Q138.46 238.296 138.887 237.331Q139.313 236.366 139.763 235.412Q140.212 234.458 140.686 233.515Q141.159 232.572 141.655 231.641Q142.151 230.71 142.67 229.791Q143.189 228.873 143.731 227.967Q144.272 227.062 144.836 226.17Q145.399 225.278 145.984 224.4Q146.57 223.522 147.176 222.659Q147.783 221.796 148.411 220.948Q149.039 220.1 149.687 219.268C164.326 200.594 186.034 189.531 209.371 186.693Z"/>
	<path fill="#5172DB" d="M186.81 226.084C189.242 225.909 191.656 225.774 194.094 225.898C204.678 226.434 211.926 231.214 218.893 238.89C220.573 236.927 222.418 235.011 224.419 233.371C231.479 227.585 239.961 225.05 249.038 226.008C257.97 226.951 266.759 231.436 272.362 238.529C278.299 246.046 279.925 255.923 278.755 265.251C276.292 284.878 261.424 299.491 246.588 311.107C237.994 317.78 227.598 324.474 217.485 328.503C212.769 326.729 208.254 324.129 203.973 321.494C185.66 310.222 165.215 293.649 160.102 271.743C157.712 261.5 158.641 249.315 164.488 240.317C169.705 232.29 177.634 227.97 186.81 226.084Z"/>
	<path fill="#FEFEFE" d="M792.3 700.197C814.748 697.677 838.408 704.917 855.989 718.937Q856.816 719.591 857.627 720.266Q858.438 720.941 859.232 721.635Q860.026 722.33 860.802 723.044Q861.579 723.758 862.337 724.491Q863.096 725.224 863.836 725.975Q864.576 726.727 865.297 727.497Q866.018 728.266 866.72 729.054Q867.422 729.841 868.105 730.645Q868.787 731.45 869.449 732.271Q870.111 733.092 870.753 733.93Q871.394 734.767 872.015 735.62Q872.635 736.473 873.235 737.341Q873.834 738.209 874.412 739.091Q874.989 739.974 875.545 740.871Q876.1 741.767 876.633 742.677Q877.167 743.588 877.677 744.511Q878.187 745.434 878.675 746.369Q879.162 747.305 879.626 748.252Q880.09 749.199 880.531 750.158Q880.971 751.116 881.388 752.085Q881.805 753.054 882.197 754.033Q882.59 755.012 882.958 756.001Q883.326 756.99 883.669 757.987Q884.013 758.984 884.331 759.99Q884.65 760.995 884.944 762.008Q885.237 763.021 885.506 764.042Q885.774 765.062 886.017 766.088Q886.26 767.115 886.478 768.147Q886.696 769.179 886.888 770.216Q887.08 771.253 887.246 772.295Q887.412 773.336 887.552 774.382Q887.693 775.427 887.807 776.476Q887.914 777.552 887.994 778.63Q888.074 779.708 888.128 780.788Q888.181 781.868 888.208 782.949Q888.235 784.03 888.235 785.111Q888.236 786.192 888.209 787.273Q888.183 788.354 888.13 789.434Q888.077 790.514 887.998 791.592Q887.918 792.67 887.812 793.746Q887.706 794.822 887.573 795.895Q887.441 796.968 887.282 798.038Q887.123 799.107 886.938 800.172Q886.752 801.237 886.541 802.298Q886.33 803.358 886.092 804.413Q885.855 805.468 885.591 806.516Q885.328 807.565 885.039 808.607Q884.75 809.649 884.435 810.683Q884.12 811.717 883.78 812.744Q883.44 813.77 883.075 814.788Q882.71 815.805 882.32 816.813Q881.929 817.822 881.514 818.82Q881.099 819.819 880.66 820.807Q880.221 821.794 879.757 822.771Q879.293 823.748 878.806 824.713Q878.318 825.678 877.807 826.631Q877.296 827.583 876.762 828.523Q876.227 829.463 875.67 830.39Q875.112 831.316 874.532 832.228Q873.952 833.141 873.35 834.039Q872.747 834.936 872.123 835.819Q871.499 836.702 870.853 837.569Q870.207 838.436 869.54 839.287Q868.873 840.138 868.185 840.972C853.056 859.473 831.524 870.484 807.854 872.803C785.502 874.874 762.491 868.397 745.08 854.112Q744.222 853.418 743.38 852.704Q742.539 851.99 741.716 851.255Q740.892 850.52 740.087 849.766Q739.282 849.011 738.496 848.237Q737.709 847.463 736.942 846.669Q736.175 845.876 735.427 845.064Q734.68 844.253 733.953 843.423Q733.225 842.593 732.518 841.745Q731.812 840.898 731.126 840.033Q730.44 839.169 729.775 838.288Q729.111 837.407 728.468 836.51Q727.826 835.612 727.205 834.7Q726.585 833.787 725.987 832.86Q725.389 831.932 724.814 830.99Q724.239 830.049 723.687 829.093Q723.135 828.137 722.607 827.168Q722.079 826.199 721.574 825.218Q721.07 824.236 720.59 823.243Q720.11 822.249 719.654 821.244Q719.199 820.239 718.768 819.223Q718.337 818.207 717.931 817.181Q717.525 816.154 717.145 815.118Q716.764 814.083 716.409 813.038Q716.054 811.993 715.725 810.94Q715.396 809.886 715.092 808.825Q714.789 807.764 714.512 806.696Q714.234 805.628 713.983 804.553Q713.732 803.479 713.508 802.398Q713.283 801.318 713.085 800.232Q712.887 799.147 712.715 798.056Q712.544 796.966 712.399 795.872Q712.255 794.778 712.137 793.681Q712.034 792.658 711.956 791.633Q711.879 790.607 711.826 789.58Q711.774 788.553 711.748 787.525Q711.721 786.497 711.72 785.469Q711.718 784.44 711.743 783.412Q711.767 782.384 711.817 781.357Q711.866 780.33 711.942 779.305Q712.017 778.279 712.117 777.255Q712.218 776.232 712.344 775.212Q712.47 774.191 712.621 773.174Q712.772 772.157 712.949 771.143Q713.125 770.13 713.327 769.122Q713.528 768.114 713.754 767.11Q713.981 766.107 714.232 765.11Q714.483 764.113 714.759 763.122Q715.035 762.132 715.335 761.148Q715.635 760.165 715.96 759.189Q716.285 758.213 716.633 757.246Q716.982 756.278 717.355 755.32Q717.727 754.361 718.123 753.412Q718.52 752.463 718.939 751.525Q719.359 750.586 719.802 749.658Q720.245 748.729 720.71 747.813Q721.176 746.896 721.664 745.991Q722.152 745.086 722.663 744.193Q723.173 743.3 723.706 742.421Q724.238 741.541 724.793 740.675Q725.347 739.808 725.922 738.956Q726.498 738.104 727.094 737.266Q727.691 736.429 728.308 735.606Q728.925 734.783 729.562 733.976Q730.199 733.169 730.856 732.378Q731.567 731.522 732.299 730.685Q733.031 729.847 733.784 729.028Q734.536 728.208 735.309 727.408Q736.081 726.607 736.873 725.826Q737.665 725.045 738.476 724.283Q739.287 723.522 740.117 722.78Q740.947 722.039 741.794 721.318Q742.642 720.598 743.507 719.899Q744.372 719.199 745.254 718.521Q746.136 717.844 747.035 717.188Q747.934 716.532 748.848 715.898Q749.763 715.265 750.693 714.654Q751.622 714.043 752.567 713.456Q753.512 712.868 754.47 712.304Q755.429 711.74 756.402 711.199Q757.374 710.659 758.36 710.143Q759.345 709.627 760.343 709.135Q761.341 708.643 762.351 708.176Q763.361 707.709 764.382 707.268Q765.403 706.826 766.434 706.409Q767.466 705.993 768.507 705.602Q769.549 705.211 770.6 704.846Q771.651 704.48 772.71 704.141Q773.77 703.802 774.837 703.489Q775.905 703.177 776.98 702.89Q778.055 702.604 779.137 702.344Q780.219 702.084 781.306 701.851Q782.394 701.618 783.487 701.412Q784.581 701.206 785.679 701.027Q786.777 700.848 787.879 700.696Q788.981 700.544 790.086 700.419Q791.192 700.294 792.3 700.197Z"/>
	<path d="M763.943 746.199C778.622 745.689 793.493 746.071 808.191 746.049C818.83 746.033 833.041 745 843.351 747.014C846.035 747.538 848.299 748.825 850.357 750.602C854.979 754.596 856.662 759.017 857.03 765.011C857.435 771.624 856.967 778.417 856.995 785.058C857.032 793.964 858.227 806.147 856.513 814.716C855.828 818.14 854.292 821.421 851.901 823.985C848.208 827.946 843.297 829.343 838.029 829.516Q812.154 829.124 786.275 829.038C778.214 829.048 769.499 830.002 761.528 828.934C758.031 828.465 754.763 827.371 751.932 825.226Q751.506 824.908 751.096 824.568Q750.686 824.229 750.294 823.869Q749.902 823.509 749.529 823.13Q749.155 822.751 748.801 822.354Q748.448 821.956 748.114 821.542Q747.781 821.127 747.469 820.696Q747.157 820.265 746.868 819.818Q746.578 819.372 746.311 818.912Q746.044 818.451 745.801 817.978Q745.558 817.505 745.339 817.02Q745.119 816.535 744.925 816.04Q744.731 815.545 744.562 815.04Q744.393 814.536 744.249 814.023Q744.106 813.511 743.989 812.992Q743.871 812.473 743.78 811.948Q743.689 811.424 743.625 810.896C742.654 803.411 743.447 795.121 743.467 787.55C743.488 779.542 742.544 770.584 743.885 762.73C744.488 759.196 745.87 755.795 748.185 753.031C752.277 748.147 757.881 746.679 763.943 746.199Z"/>
	<path fill="#FEFEFE" d="M787.291 768.438C788.561 768.429 789.889 768.398 791.098 768.839C797.34 771.113 809.645 778.991 815.533 782.899C817.459 784.178 819.802 785.921 820.288 788.299C818.877 791.958 810.214 795.978 806.718 798.069C801.981 800.785 797.561 804.449 792.553 806.636C790.482 807.541 788.461 808.081 786.292 807.225C782.89 803.219 783.851 783.614 784.145 777.646C784.328 773.934 784.405 771.079 787.291 768.438Z"/>
	<path fill="#5172DB" d="M790.616 189.698C790.921 189.651 791.224 189.592 791.53 189.557C815.486 186.882 841.828 197.185 859.608 212.888Q860.434 213.626 861.241 214.384Q862.048 215.142 862.836 215.92Q863.625 216.698 864.393 217.495Q865.162 218.292 865.911 219.108Q866.66 219.924 867.388 220.758Q868.116 221.592 868.824 222.444Q869.531 223.296 870.217 224.165Q870.903 225.035 871.568 225.92Q872.232 226.806 872.875 227.708Q873.517 228.611 874.137 229.528Q874.756 230.446 875.353 231.379Q875.95 232.312 876.524 233.259Q877.097 234.206 877.647 235.167Q878.197 236.128 878.723 237.103Q879.249 238.077 879.751 239.065Q880.253 240.052 880.73 241.051Q881.207 242.051 881.659 243.061Q882.112 244.072 882.539 245.094Q882.966 246.116 883.368 247.148Q883.769 248.18 884.145 249.221Q884.521 250.263 884.871 251.313Q885.222 252.364 885.546 253.423Q885.87 254.482 886.167 255.549Q886.465 256.615 886.736 257.689Q887.008 258.763 887.252 259.843Q887.497 260.923 887.714 262.008Q887.932 263.094 888.123 264.185Q888.314 265.276 888.478 266.371Q888.641 267.466 888.778 268.565Q888.914 269.664 889.024 270.766Q889.133 271.868 889.215 272.973Q889.297 274.077 889.352 275.183Q889.416 276.259 889.452 277.337Q889.489 278.415 889.499 279.493Q889.508 280.571 889.491 281.649Q889.474 282.727 889.43 283.805Q889.386 284.882 889.315 285.958Q889.244 287.034 889.146 288.108Q889.048 289.182 888.924 290.253Q888.799 291.324 888.648 292.391Q888.497 293.459 888.319 294.522Q888.141 295.586 887.937 296.645Q887.733 297.703 887.502 298.757Q887.272 299.81 887.015 300.857Q886.758 301.904 886.475 302.945Q886.192 303.985 885.883 305.018Q885.575 306.052 885.24 307.077Q884.906 308.102 884.546 309.118Q884.186 310.135 883.801 311.142Q883.416 312.149 883.005 313.146Q882.595 314.143 882.16 315.13Q881.725 316.117 881.266 317.092Q880.807 318.068 880.323 319.031Q879.839 319.995 879.332 320.946Q878.824 321.898 878.293 322.836Q877.762 323.774 877.208 324.699Q876.654 325.624 876.076 326.535Q875.499 327.446 874.899 328.342Q874.3 329.238 873.678 330.119Q873.056 330.999 872.412 331.864Q871.768 332.729 871.103 333.578Q870.438 334.427 869.752 335.259Q869.066 336.091 868.359 336.905Q867.653 337.719 866.926 338.516C852.576 354.467 830.736 366.251 809.123 367.491C784.764 369.807 761.459 362.447 742.458 347.031C724.09 332.129 711.753 310.684 709.313 287.062Q709.195 285.995 709.104 284.925Q709.012 283.855 708.947 282.784Q708.882 281.712 708.843 280.639Q708.805 279.566 708.792 278.492Q708.78 277.419 708.794 276.345Q708.808 275.272 708.848 274.199Q708.888 273.126 708.955 272.054Q709.022 270.983 709.115 269.913Q709.208 268.844 709.327 267.776Q709.446 266.709 709.592 265.646Q709.737 264.582 709.909 263.522Q710.08 262.462 710.277 261.407Q710.475 260.352 710.698 259.301Q710.922 258.251 711.171 257.207Q711.42 256.162 711.694 255.124Q711.969 254.087 712.269 253.056Q712.569 252.025 712.894 251.002Q713.22 249.978 713.57 248.964Q713.92 247.949 714.295 246.943Q714.671 245.937 715.07 244.94Q715.47 243.944 715.894 242.957Q716.318 241.971 716.767 240.995Q717.215 240.02 717.687 239.055Q718.159 238.091 718.654 237.139Q719.15 236.186 719.669 235.246Q720.188 234.306 720.729 233.379Q721.271 232.452 721.836 231.539Q722.4 230.626 722.987 229.726Q723.573 228.827 724.182 227.943Q724.79 227.058 725.42 226.189Q726.051 225.319 726.702 224.466Q727.353 223.612 728.025 222.775C744.009 203.259 765.676 192.3 790.616 189.698Z"/>
	<path fill="#FEFEFE" d="M802.621 226.156C810.466 225.76 818.363 225.956 826.217 225.994C826.357 232.689 826.288 239.398 826.303 246.095C822.54 246.038 813.311 244.969 810.721 247.804C808.601 250.126 809.68 262.73 809.658 266.542L829.452 266.577L829.441 285.975L809.598 285.978L809.631 334.917L809.603 340.074L787.71 340.08L787.842 285.923L772.122 285.966L772.074 266.606L787.686 266.559C787.902 257.736 785.861 243.209 790.099 235.451C792.816 230.478 797.394 227.815 802.621 226.156Z"/>
	<path fill="#FEFEFE" d="M497.302 341.707C497.335 341.703 497.368 341.697 497.402 341.695Q499.6 341.54 501.801 341.438Q504.002 341.335 506.204 341.287Q508.407 341.238 510.61 341.242Q512.814 341.247 515.016 341.305Q517.219 341.363 519.419 341.474Q521.619 341.586 523.817 341.75Q526.014 341.915 528.206 342.133Q530.399 342.35 532.585 342.621Q534.772 342.892 536.951 343.216Q539.13 343.539 541.301 343.916Q543.472 344.292 545.633 344.721Q547.795 345.15 549.945 345.631Q552.095 346.112 554.233 346.645Q556.37 347.178 558.495 347.763Q560.619 348.347 562.728 348.983Q564.838 349.619 566.931 350.306Q569.025 350.993 571.101 351.73Q573.177 352.468 575.235 353.255Q577.293 354.042 579.331 354.88Q581.369 355.717 583.386 356.603Q585.403 357.489 587.399 358.424Q589.394 359.359 591.366 360.341Q593.338 361.324 595.285 362.355Q597.233 363.385 599.155 364.462Q601.077 365.539 602.972 366.663Q604.867 367.786 606.735 368.955Q608.602 370.124 610.441 371.338Q612.28 372.552 614.089 373.81Q615.897 375.068 617.675 376.37Q619.453 377.671 621.198 379.015Q622.944 380.36 624.657 381.746Q626.369 383.132 628.048 384.559Q629.746 386.027 631.408 387.535Q633.07 389.044 634.694 390.592Q636.319 392.141 637.905 393.728Q639.492 395.316 641.039 396.942Q642.586 398.568 644.094 400.23Q645.601 401.893 647.068 403.592Q648.534 405.291 649.959 407.026Q651.383 408.76 652.765 410.528Q654.147 412.297 655.486 414.098Q656.825 415.9 658.119 417.733Q659.414 419.567 660.663 421.431Q661.912 423.296 663.116 425.19Q664.32 427.084 665.477 429.007Q666.634 430.93 667.744 432.881Q668.854 434.831 669.917 436.809Q670.979 438.786 671.993 440.788Q673.007 442.79 673.972 444.817Q674.937 446.843 675.852 448.892Q676.768 450.941 677.633 453.012Q678.498 455.083 679.313 457.175Q680.127 459.266 680.891 461.376Q681.654 463.487 682.366 465.616Q683.078 467.744 683.738 469.889Q684.398 472.034 685.005 474.195Q685.613 476.356 686.167 478.53Q686.722 480.705 687.224 482.893Q687.726 485.08 688.174 487.279Q688.622 489.479 689.017 491.688Q689.412 493.897 689.752 496.116Q690.093 498.334 690.38 500.56Q690.667 502.786 690.899 505.018Q691.132 507.251 691.31 509.488Q691.494 511.736 691.622 513.988Q691.749 516.24 691.82 518.494Q691.891 520.748 691.905 523.003Q691.919 525.259 691.877 527.514Q691.834 529.769 691.735 532.022Q691.636 534.275 691.48 536.525Q691.324 538.775 691.112 541.02Q690.9 543.266 690.631 545.505Q690.363 547.745 690.038 549.976Q689.713 552.208 689.332 554.431Q688.951 556.654 688.515 558.867Q688.078 561.08 687.586 563.281Q687.094 565.482 686.547 567.67Q686 569.858 685.398 572.031Q684.796 574.205 684.14 576.363Q683.483 578.52 682.773 580.661Q682.063 582.802 681.299 584.924Q680.535 587.046 679.717 589.148Q678.9 591.25 678.031 593.331Q677.161 595.412 676.24 597.47Q675.318 599.529 674.345 601.564Q673.372 603.598 672.348 605.608Q671.324 607.617 670.25 609.601Q669.175 611.584 668.052 613.539Q666.928 615.495 665.756 617.422Q664.583 619.348 663.363 621.245Q662.143 623.142 660.875 625.007Q659.607 626.872 658.293 628.705Q656.979 630.538 655.619 632.337Q654.259 634.137 652.854 635.901Q651.45 637.666 650.001 639.395Q648.553 641.123 647.061 642.815C615.497 678.974 568.859 700.949 521.165 704.117C520.835 704.153 520.504 704.18 520.172 704.208C473.777 708.104 424.906 691.799 389.583 661.78Q387.875 660.325 386.204 658.828Q384.533 657.332 382.9 655.794Q381.266 654.257 379.671 652.679Q378.077 651.102 376.521 649.485Q374.966 647.868 373.451 646.214Q371.936 644.559 370.463 642.867Q368.99 641.176 367.559 639.448Q366.128 637.72 364.74 635.958Q363.352 634.195 362.009 632.399Q360.665 630.602 359.366 628.773Q358.068 626.944 356.815 625.083Q355.562 623.223 354.355 621.332Q353.149 619.44 351.989 617.52Q350.83 615.599 349.719 613.651Q348.607 611.702 347.544 609.726Q346.482 607.751 345.468 605.75Q344.455 603.748 343.491 601.722Q342.527 599.697 341.614 597.648Q340.701 595.599 339.839 593.527Q338.977 591.456 338.167 589.365Q337.356 587.273 336.598 585.162Q335.839 583.05 335.133 580.921Q334.427 578.792 333.774 576.646Q333.121 574.5 332.522 572.338Q331.922 570.176 331.376 568Q330.831 565.824 330.339 563.636Q329.847 561.447 329.41 559.247Q328.972 557.046 328.589 554.836Q328.207 552.626 327.879 550.406Q327.551 548.187 327.278 545.961Q327.005 543.734 326.788 541.501Q326.57 539.268 326.408 537.031C322.556 488.236 340.162 440.602 371.828 403.844Q373.31 402.158 374.832 400.509Q376.354 398.86 377.916 397.248Q379.478 395.636 381.078 394.063Q382.679 392.49 384.318 390.956Q385.956 389.423 387.632 387.93Q389.307 386.436 391.019 384.984Q392.73 383.532 394.476 382.123Q396.223 380.713 398.003 379.346Q399.783 377.979 401.596 376.656Q403.409 375.333 405.253 374.055Q407.098 372.776 408.973 371.543Q410.848 370.31 412.753 369.123Q414.658 367.936 416.591 366.796Q418.524 365.655 420.484 364.562Q422.445 363.47 424.431 362.425Q426.417 361.38 428.429 360.384Q430.44 359.388 432.475 358.441Q434.51 357.495 436.567 356.598Q438.624 355.701 440.703 354.855Q442.782 354.008 444.88 353.213Q446.979 352.417 449.096 351.673Q451.214 350.929 453.349 350.237Q455.483 349.545 457.635 348.905Q459.786 348.265 461.952 347.677Q464.118 347.09 466.298 346.555Q468.478 346.021 470.67 345.54Q472.862 345.059 475.065 344.631Q477.268 344.203 479.481 343.83Q481.694 343.456 483.916 343.136Q486.137 342.817 488.366 342.551Q490.594 342.286 492.829 342.075Q495.063 341.864 497.302 341.707Z"/>
	<path d="M498.461 386.703C498.653 386.677 498.844 386.647 499.037 386.627C531.71 383.198 568.869 396.109 594.487 416.232Q595.813 417.258 597.114 418.316Q598.415 419.374 599.689 420.464Q600.963 421.554 602.21 422.676Q603.456 423.797 604.675 424.949Q605.894 426.101 607.083 427.282Q608.273 428.464 609.433 429.675Q610.593 430.885 611.723 432.124Q612.853 433.363 613.952 434.63Q615.05 435.897 616.117 437.19Q617.185 438.484 618.219 439.803Q619.254 441.122 620.256 442.467Q621.257 443.812 622.226 445.181Q623.194 446.55 624.128 447.943Q625.062 449.335 625.961 450.751Q626.86 452.166 627.724 453.603Q628.588 455.04 629.416 456.498Q630.244 457.956 631.036 459.434Q631.828 460.912 632.583 462.41Q633.337 463.907 634.055 465.423Q634.773 466.938 635.453 468.471Q636.132 470.004 636.774 471.553Q637.416 473.102 638.019 474.666Q638.622 476.231 639.186 477.81Q639.751 479.389 640.276 480.982Q640.801 482.574 641.286 484.179Q641.772 485.784 642.217 487.401Q642.663 489.017 643.068 490.644Q643.473 492.271 643.839 493.908Q644.203 495.544 644.528 497.189Q644.852 498.835 645.136 500.487Q645.419 502.14 645.662 503.799Q645.905 505.458 646.106 507.123C650.395 543.616 640.966 581.507 617.868 610.414C593.364 641.081 558.37 657.228 519.942 661.433C484.234 663.42 451.116 654.402 423.014 631.514C394.72 608.469 374.875 573.921 371.15 537.442Q370.981 535.774 370.854 534.102Q370.726 532.431 370.64 530.756Q370.554 529.082 370.509 527.406Q370.464 525.73 370.461 524.054Q370.458 522.377 370.496 520.701Q370.534 519.025 370.614 517.351Q370.694 515.676 370.815 514.004Q370.936 512.332 371.099 510.663Q371.261 508.995 371.465 507.33Q371.669 505.666 371.914 504.008Q372.158 502.349 372.444 500.697Q372.73 499.045 373.057 497.401Q373.383 495.757 373.751 494.121Q374.118 492.485 374.525 490.859Q374.933 489.233 375.381 487.617Q375.829 486.001 376.316 484.397Q376.804 482.793 377.331 481.202Q377.858 479.61 378.424 478.032Q378.991 476.454 379.596 474.891Q380.201 473.328 380.845 471.78Q381.489 470.232 382.17 468.7Q382.852 467.168 383.572 465.654Q384.291 464.14 385.048 462.644Q385.805 461.148 386.599 459.671Q387.392 458.195 388.222 456.738Q389.052 455.281 389.918 453.845Q390.783 452.41 391.684 450.996Q392.585 449.582 393.521 448.191Q394.456 446.8 395.426 445.432Q396.396 444.065 397.399 442.722Q398.403 441.378 399.439 440.061Q400.475 438.743 401.544 437.451C425.95 407.741 460.432 390.467 498.461 386.703Z"/>
	<path fill="#5172DB" d="M504.784 417.716C512.083 417.844 517.817 419.061 523.684 423.648C527.109 422.483 530.66 421.392 534.305 421.308C538.769 421.205 542.888 422.625 546.084 425.796C555.468 435.106 552.791 457.114 552.715 469.44C554.815 469.215 556.534 468.86 558.279 470.322C559.696 471.508 560.605 473.398 560.647 475.246C560.699 477.536 559.769 479.602 558.149 481.198C556.466 482.858 554.371 482.513 552.205 482.454C552.142 494.312 551.401 504.311 545.011 514.66C539.113 524.212 531.092 528.698 520.373 531.169C517.769 531.473 515.121 531.599 512.502 531.646C500.861 531.857 489.957 529.717 481.369 521.31C470.705 510.871 469.079 497.23 468.944 483.021C466.655 482.963 464.704 482.819 462.89 481.246C461.238 479.814 460.126 477.772 460.123 475.558C460.121 473.668 461.007 471.872 462.405 470.62C464.231 468.985 466.147 468.739 468.508 468.826C468.414 455.363 466.838 440.53 476.206 429.521C483.338 421.14 494.317 418.65 504.784 417.716Z"/>
	<path fill="#5172DB" d="M484.075 528.735C488.267 531.741 493.139 533.574 498.178 534.561C511.01 537.074 525.942 536.284 537.054 528.886Q537.441 530.563 537.904 532.22C539.243 536.919 541.895 541.074 545.772 544.078C557.9 553.476 587.76 557.339 603.81 566.402C616.858 573.77 619.723 581.882 623.54 595.696C603.418 627.366 575.722 645.068 539.957 654.41C524.786 658.202 507.639 658.708 492.09 656.823C465.519 653.603 438.61 641.132 418.944 622.875C411.049 615.547 404.347 607.174 397.731 598.708C398.166 596.395 398.591 594.066 399.158 591.78C406.237 563.248 432.198 559.418 456.509 551.609C462.157 549.795 468.148 548.09 473.254 545.008C479.749 541.086 482.316 535.813 484.075 528.735Z"/>
	<path fill="#FEFEFE" d="M497.745 390.198Q500.128 390.02 502.516 389.925Q504.903 389.831 507.293 389.818Q509.682 389.806 512.071 389.877Q514.459 389.948 516.844 390.102Q519.229 390.256 521.606 390.492Q523.984 390.728 526.352 391.047Q528.721 391.366 531.076 391.767Q533.432 392.167 535.772 392.649Q538.113 393.132 540.435 393.695Q542.757 394.258 545.059 394.901Q547.36 395.545 549.638 396.267Q551.915 396.99 554.166 397.791Q556.418 398.593 558.64 399.472Q560.862 400.351 563.052 401.306Q565.242 402.262 567.398 403.293Q569.553 404.324 571.672 405.429C603.997 422.678 627.92 450.902 638.46 486.125C648.902 521.014 644.125 558.358 627.037 590.277C625.391 585.397 623.716 580.613 620.84 576.301C609.49 559.282 585.095 554.684 566.889 548.896C560.803 546.961 554.09 545.079 548.833 541.347C543.443 537.52 541.884 533.029 540.777 526.837C551.509 514.649 555.623 504.063 556.376 487.914C559.148 486.329 561.231 484.697 562.798 481.847C564.44 478.86 564.992 475.392 563.93 472.112C562.719 468.375 560.419 466.566 557.04 464.841C557.083 454.691 558.48 442.491 555.156 432.847C553.129 426.968 549.141 421.504 543.374 418.877C537.181 416.055 531.207 417.248 525.093 419.419C522.973 417.986 520.675 416.974 518.362 415.898C514.515 414.477 510.731 413.859 506.646 413.832C495.37 413.757 482.635 417.45 474.493 425.556C463.175 436.823 464.404 450.461 464.332 465.221C461.609 465.899 459.675 466.544 457.957 468.936C456.102 471.517 455.797 474.765 456.449 477.811C457.512 482.78 460.367 485.258 464.462 487.757C466.854 509.65 467.839 510.164 480.729 527.361C480.391 528.668 480.067 530.014 479.605 531.283C478.159 535.26 475.481 538.581 471.996 540.965C465.693 545.276 457.461 547.308 450.243 549.596C439.594 552.971 428.5 556.097 418.455 561.066C404.599 567.92 398.802 578.672 394.044 592.788C382.984 576.014 376.214 555.679 374.341 535.741Q374.191 534.116 374.081 532.488Q373.971 530.86 373.902 529.23Q373.832 527.599 373.802 525.968Q373.773 524.336 373.784 522.704Q373.794 521.073 373.845 519.442Q373.896 517.811 373.987 516.181Q374.078 514.552 374.209 512.925Q374.34 511.299 374.512 509.676Q374.683 508.053 374.894 506.435Q375.105 504.817 375.356 503.205Q375.607 501.592 375.897 499.987Q376.188 498.381 376.518 496.783Q376.848 495.185 377.217 493.595Q377.586 492.006 377.995 490.426Q378.403 488.846 378.85 487.276Q379.297 485.707 379.783 484.149Q380.268 482.591 380.792 481.046Q381.316 479.5 381.878 477.968Q382.439 476.436 383.039 474.918Q383.638 473.401 384.275 471.898Q384.911 470.396 385.584 468.909Q386.258 467.423 386.968 465.953Q387.677 464.484 388.423 463.032Q389.169 461.581 389.95 460.148Q390.731 458.716 391.548 457.303Q392.364 455.89 393.215 454.497Q394.066 453.105 394.95 451.734Q395.835 450.363 396.754 449.014Q397.672 447.665 398.624 446.339Q399.575 445.014 400.559 443.712Q401.542 442.41 402.558 441.132Q403.573 439.855 404.62 438.603Q405.693 437.304 406.798 436.032Q407.903 434.761 409.04 433.517Q410.177 432.274 411.344 431.059Q412.512 429.845 413.71 428.66Q414.907 427.475 416.134 426.32Q417.361 425.165 418.617 424.042Q419.872 422.918 421.155 421.827Q422.439 420.735 423.749 419.676Q425.059 418.617 426.395 417.591Q427.732 416.565 429.093 415.572Q430.455 414.58 431.841 413.622Q433.227 412.665 434.637 411.742Q436.046 410.819 437.479 409.932Q438.911 409.045 440.365 408.194Q441.819 407.343 443.294 406.529Q444.769 405.715 446.264 404.938Q447.759 404.161 449.273 403.421Q450.786 402.682 452.318 401.981Q453.85 401.28 455.399 400.617Q456.948 399.955 458.514 399.331Q460.079 398.707 461.659 398.123Q463.239 397.539 464.834 396.995Q466.428 396.451 468.036 395.947Q469.643 395.442 471.263 394.979Q472.883 394.515 474.514 394.092Q476.144 393.669 477.785 393.287Q479.426 392.905 481.076 392.564Q482.726 392.223 484.384 391.924Q486.042 391.625 487.707 391.367Q489.372 391.109 491.043 390.894Q492.714 390.678 494.39 390.504Q496.065 390.33 497.745 390.198Z"/>
</svg>
