<?xml version="1.0" encoding="utf-8" ?>
<svg xmlns="http://www.w3.org/2000/svg" xmlns:xlink="http://www.w3.org/1999/xlink" width="1024" height="1024">
	<path fill="#FDFDFD" d="M0 0L1024 0L1024 1024L0 1024L0 0Z"/>
	<path fill="#010101" d="M880.908 930.059C887.589 929.473 896.753 929.221 903.392 930.114C905.701 930.424 907.616 931.102 909.09 932.949C909.378 933.848 909.474 934.511 909.3 935.434C908.902 937.548 907.699 938.5 906.028 939.649C899.673 940.383 892.484 940.205 886.069 939.948C882.936 939.823 880.152 939.382 877.951 937.018C877.48 935.803 877.347 934.933 877.605 933.664C877.994 931.755 879.378 930.982 880.908 930.059Z"/>
	<path fill="#010101" d="M124.62 930.169C131.315 930.068 146.356 928.932 152.082 930.979C153.772 931.584 154.686 932.306 155.495 933.932C155.582 935.172 155.537 936.095 154.968 937.204C154.192 938.719 152.864 939.239 151.373 939.765C144.67 939.82 129.524 940.959 123.782 938.903C122.161 938.323 121.181 937.631 120.387 936.073C120.288 935.131 120.3 934.426 120.646 933.544C121.436 931.536 122.745 930.923 124.62 930.169Z"/>
	<path fill="#010101" d="M331.399 87.2356C332.717 87.2518 333.522 87.3365 334.775 87.8344C337.63 90.8548 336.615 96.1461 336.581 100.021C339.078 100.112 342.067 99.9481 344.474 100.593C346.261 101.072 347.785 101.944 348.77 103.53C348.698 104.714 348.659 104.961 347.672 105.784C344.836 108.149 339.926 107.553 336.52 107.504L336.564 109.391C336.654 113.515 337.356 117.327 334.297 120.525C333.176 120.549 332.549 120.361 331.525 119.913C328.85 116.939 329.585 111.109 329.442 107.301C325.949 107.268 321.435 107.723 318.511 105.395C317.452 104.552 317.407 104.308 317.345 103.07C317.699 102.554 317.736 102.442 318.271 101.981C321.068 99.5704 326.072 100.28 329.444 100.37C329.542 95.8998 329.154 91.2542 331.399 87.2356Z"/>
	<path fill="#010101" d="M80.9436 497.587C83.2424 497.562 85.3283 497.802 87.4444 498.769Q88.0284 499.036 88.5808 499.364Q89.1333 499.692 89.648 500.076Q90.1628 500.46 90.6341 500.896Q91.1055 501.332 91.5281 501.816Q91.9507 502.299 92.3199 502.825Q92.6891 503.351 93.0008 503.912Q93.3124 504.474 93.563 505.065Q93.8136 505.656 94.0003 506.271C95.0274 509.577 94.7303 513.29 93.0665 516.337C90.9911 520.139 87.9476 521.652 83.9297 522.799C81.0545 522.801 78.3943 522.638 75.8291 521.219C72.8357 519.563 70.5851 516.817 69.6926 513.499C68.7888 510.14 69.2612 506.436 71.147 503.494C73.496 499.828 76.8487 498.45 80.9436 497.587Z"/>
	<path fill="#010101" d="M938.211 406.365C940.67 409.197 942.214 414.869 943.876 418.405C947.696 418.601 951.452 419.036 955.229 419.622C952.855 422.959 949.85 425.924 947.043 428.898Q948.394 434.772 949.591 440.68C945.652 439.024 941.811 436.952 937.977 435.064C934.581 437.425 930.878 439.358 927.271 441.375C927.537 437.104 928.335 432.809 928.946 428.572Q924.179 424.171 919.521 419.654C923.778 418.872 928.187 418.616 932.483 417.986L938.211 406.365Z"/>
	<path fill="#010101" d="M230.461 134.142C233.085 134.219 235.55 134.657 237.884 135.897Q238.492 136.219 239.063 136.603Q239.635 136.987 240.163 137.428Q240.692 137.869 241.172 138.362Q241.652 138.855 242.078 139.395Q242.504 139.936 242.872 140.517Q243.24 141.099 243.546 141.715Q243.852 142.332 244.092 142.977Q244.333 143.622 244.505 144.288Q244.691 144.979 244.806 145.686Q244.92 146.393 244.961 147.108Q245.003 147.823 244.97 148.538Q244.938 149.253 244.833 149.962Q244.727 150.67 244.549 151.363Q244.372 152.057 244.124 152.729Q243.876 153.4 243.56 154.043Q243.245 154.686 242.865 155.293C240.281 159.461 236.423 161.426 231.756 162.394C229.069 162.097 226.688 161.709 224.316 160.336C220.893 158.355 218.381 155.115 217.537 151.23Q217.38 150.521 217.298 149.8Q217.216 149.079 217.209 148.354Q217.202 147.628 217.27 146.906Q217.339 146.183 217.481 145.472Q217.624 144.76 217.84 144.067Q218.056 143.374 218.343 142.708Q218.629 142.041 218.984 141.408Q219.338 140.774 219.756 140.181C222.414 136.432 226.074 134.86 230.461 134.142Z"/>
	<path fill="#010101" d="M438.49 74.4598C448.632 73.9177 458.888 74.201 469.035 74.5304C470.361 77.827 471.395 81.1493 472.386 84.5599C475.862 85.8296 478.913 87.7697 481.957 89.8325C485.163 88.3568 488.356 87.102 491.694 85.9543C497.367 91.3284 505.297 98.4015 508.924 105.302C509.757 106.887 509.169 108.014 508.745 109.625C510.305 110.847 512.519 111.239 514.391 111.817C525.49 115.246 535.941 119.174 546.474 124.079Q565.587 132.875 583.45 143.994C588.611 147.248 596.342 154.009 601.294 156.146C633.627 115.985 677.209 89.7792 729.005 84.1331Q731.244 83.8774 733.49 83.677Q735.735 83.4765 737.984 83.3314Q740.233 83.1863 742.485 83.0967Q744.738 83.007 746.991 82.9728Q749.245 82.9386 751.499 82.96Q753.753 82.9813 756.006 83.0581Q758.258 83.135 760.508 83.2673Q762.759 83.3995 765.005 83.5872Q767.251 83.7748 769.492 84.0177Q771.733 84.2607 773.967 84.5587Q776.201 84.8567 778.427 85.2096Q780.653 85.5626 782.87 85.9702Q785.087 86.3779 787.293 86.84Q789.499 87.3022 791.693 87.8185Q793.887 88.3348 796.068 88.905Q798.249 89.4752 800.415 90.0989Q802.581 90.7226 804.73 91.3995Q806.88 92.0763 809.013 92.806Q811.146 93.5356 813.26 94.3175Q815.374 95.0994 817.468 95.9331Q819.562 96.7668 821.635 97.6519Q823.708 98.5369 825.759 99.4727Q827.809 100.409 829.836 101.395Q831.863 102.381 833.865 103.416Q835.867 104.452 837.843 105.537Q839.819 106.621 841.767 107.754Q843.716 108.887 845.636 110.068Q847.556 111.248 849.446 112.476Q851.337 113.703 853.196 114.977Q855.056 116.251 856.883 117.57Q858.711 118.889 860.506 120.253Q862.3 121.616 864.061 123.024Q865.87 124.473 867.644 125.966Q869.417 127.459 871.153 128.995Q872.89 130.531 874.587 132.109Q876.285 133.687 877.944 135.307Q879.603 136.926 881.221 138.586Q882.84 140.245 884.417 141.944Q885.994 143.643 887.529 145.38Q889.065 147.117 890.557 148.891Q892.048 150.665 893.496 152.476Q894.944 154.286 896.347 156.131Q897.751 157.977 899.108 159.856Q900.465 161.735 901.776 163.647Q903.087 165.559 904.351 167.502Q905.614 169.446 906.83 171.42Q908.045 173.394 909.212 175.397Q910.378 177.4 911.495 179.431Q912.613 181.463 913.679 183.521Q914.746 185.579 915.762 187.662Q916.779 189.746 917.743 191.854Q918.708 193.962 919.62 196.093Q920.533 198.224 921.393 200.376Q922.253 202.529 923.06 204.702Q923.867 206.875 924.62 209.068Q925.373 211.26 926.073 213.47Q926.772 215.68 927.417 217.907Q928.062 220.134 928.652 222.375Q929.242 224.617 929.776 226.873Q930.311 229.128 930.79 231.396Q931.27 233.665 931.693 235.944Q932.117 238.223 932.484 240.512Q932.851 242.801 933.162 245.098Q933.473 247.395 933.728 249.699C938.814 297.436 925.148 348.429 894.722 385.941Q892.151 389.16 889.446 392.267Q886.742 395.375 883.908 398.365Q881.075 401.356 878.119 404.225Q875.162 407.094 872.087 409.836Q869.013 412.577 865.825 415.187Q862.638 417.797 859.343 420.27Q856.048 422.743 852.652 425.075Q849.256 427.407 845.765 429.594C861.338 440.81 875.867 453.201 888.717 467.47C891.114 470.131 897.092 478.63 900.323 479.122C906.136 486.306 909.773 495.706 914.346 503.73C923.694 504.473 932.982 506.06 942.259 507.4C938.974 511.26 923.959 524.663 923.243 528.314C923.169 528.691 923.257 529.869 923.302 530.338C923.327 530.607 923.371 530.873 923.405 531.141C942.177 552.55 955.758 604.608 954.47 632.683L954.359 722.986C954.369 736.223 955.707 761.287 953.226 773.398C951.593 781.367 948.017 788.329 942.287 794.137C935.739 800.774 927.468 804.664 918.365 806.376C912.39 812.266 907.054 818.747 901.105 824.651C896.282 829.437 890.903 833.561 885.846 838.079C885.701 841.041 885.165 843.667 882.872 845.74C881.052 847.386 878.681 848.001 876.253 847.899C875.607 847.871 875.016 847.695 874.398 847.522L873.915 847.792C869.011 850.587 864.602 854.175 859.74 857.029C846.073 865.051 830.402 872.484 815.145 876.91C815.161 879.179 815.848 886.238 814.682 887.875C814.641 889.417 814.599 890.964 814.47 892.502C813.163 908.075 803.054 920.068 791.707 929.808L835.323 929.795C841.664 929.775 852.421 928.78 858.351 930.257C859.843 930.629 861.094 931.711 861.765 933.078C862.293 934.154 862.466 935.385 862.038 936.527C861.536 937.864 860.797 938.523 859.477 939.01C854.092 940.999 807.201 939.825 797.855 939.808L709.64 939.774L181.886 939.954C179.035 939.962 175.589 940.087 173.024 938.632C171.976 938.037 171.194 937.251 171.034 935.997C170.854 934.594 171.499 933.214 172.51 932.281C173.987 930.919 176.068 930.365 178.015 930.122C185.084 929.24 192.999 930.062 200.155 930.124L242.927 930.185C236.564 926.632 230.449 923.074 225.328 917.798C215.081 907.242 211.234 895.551 211.498 881.068C209.64 882.492 207.558 883.695 205.587 884.96C207.53 890.946 210.691 898.464 207.784 904.586C205.474 909.453 200.461 913.007 195.477 914.734C190.907 916.318 185.563 916.662 181.165 914.371C174.618 910.959 172.766 901.889 170.662 895.431L161.698 895.545C159.371 902.128 157.775 909.888 150.882 913.14C145.709 915.581 140.229 914.945 135.03 912.992C130.646 911.346 126.076 908.61 124.204 904.098C121.441 897.441 125.332 889.51 127.744 883.273Q124.303 880.588 120.933 877.813C115.609 880.863 110.447 884.044 104.537 885.834C98.2797 884.695 94.5694 882.263 90.7961 877.138C87.4742 872.625 84.2708 867.34 85.374 861.502C86.6344 854.831 92.9467 851.609 98.0584 848.03C96.667 843.902 95.4783 839.702 94.238 835.526C87.9995 835.569 80.1741 835.871 75.2764 831.364C72.1774 828.513 71.1028 824.383 70.9168 820.304C70.647 814.388 70.3434 806.786 74.7396 802.204C78.2084 798.589 83.0258 798.098 87.7477 797.99L89.1078 797.219C89.4386 794.099 78.7389 765.088 77.0724 758.567C74.1955 747.311 71.595 735.94 70.1573 724.4Q69.8734 722.187 69.635 719.969Q69.3966 717.751 69.2039 715.529Q69.0112 713.307 68.8642 711.081Q68.7173 708.855 68.6162 706.626Q68.515 704.398 68.4598 702.167Q68.4045 699.937 68.3952 697.707Q68.3858 695.476 68.4223 693.245Q68.4589 691.015 68.5413 688.786Q68.6237 686.556 68.7519 684.329Q68.8802 682.102 69.0542 679.878Q69.2282 677.654 69.448 675.434Q69.6677 673.214 69.9331 670.999Q70.1985 668.784 70.5093 666.575Q70.8202 664.366 71.1765 662.164Q71.5327 659.962 71.9342 657.768Q72.3357 655.573 72.7822 653.387Q73.2288 651.202 73.7202 649.026Q74.2116 646.85 74.7477 644.684Q75.2837 642.519 75.8642 640.365Q76.4447 638.211 77.0694 636.07Q77.6941 633.928 78.3627 631.8Q79.0313 629.672 79.7436 627.558Q80.4558 625.444 81.2114 623.345Q81.967 621.246 82.7656 619.163Q83.5642 617.08 84.4055 615.014Q85.2468 612.948 86.1304 610.899Q87.0141 608.851 87.9396 606.821Q88.8652 604.792 89.8323 602.781Q90.7994 600.771 91.8077 598.781Q92.816 596.791 93.865 594.822Q94.914 592.854 96.0032 590.907Q97.0925 588.96 98.2216 587.036C125.154 541.701 161.526 516.999 212.071 504.168Q212.175 491.572 212.084 478.975C193.781 478.625 175.405 479.005 157.095 479.041C146.095 479.063 133.921 480.22 123.218 477.626Q121.731 477.271 120.271 476.816Q118.812 476.362 117.386 475.81Q115.96 475.259 114.574 474.612Q113.189 473.966 111.85 473.228Q110.511 472.491 109.225 471.664Q107.938 470.838 106.71 469.927Q105.482 469.017 104.319 468.025Q103.155 467.034 102.06 465.967C91.9053 456.234 87.8202 444.389 87.5375 430.572C86.6893 389.122 87.6876 346.536 87.7775 304.952L87.7679 269.257C87.7293 259.911 86.9753 249.946 88.8198 240.754C90.3133 233.31 94.9821 225.762 100.234 220.386C106.362 214.115 113.487 210.163 122.084 208.419C129.165 206.983 136.718 207.495 143.914 207.486L173.406 207.47C215.018 207.465 256.706 208.125 298.308 207.575C300.836 207.233 303.443 207.342 305.991 207.325C314.468 199.065 322.236 190.093 330.209 181.353L360.783 148.08C366.501 141.797 373.495 136.511 378.881 130.028C379.182 129.703 379.641 129.429 380 129.164C383.277 129.954 388.697 134.461 391.963 136.348C392.458 133.214 392.804 130.045 393.212 126.898C396.524 124.379 398.05 120.243 399.717 116.546C397.666 113.397 396.196 109.854 394.62 106.449C397.323 102.627 409.818 86.2559 413.569 85.7041C416.017 85.3439 419.705 87.9379 421.79 89.0842C426.072 87.0594 430.271 85.0024 434.912 83.9472C435.751 80.5833 436.959 77.5597 438.49 74.4598Z"/>
	<path fill="#FDFDFD" d="M212.176 729.808Q212.213 740.524 212.045 751.238C210.792 750.131 209.557 748.965 208.235 747.943C210.023 742.08 211.457 737.147 210.323 730.958L211.448 731.157L212.176 729.808Z"/>
	<path fill="#FDFDFD" d="M246.407 772.476C246.257 776.064 245.074 781.283 242.553 783.932C241.672 784.857 241.243 785.265 239.917 785.237L237.729 781.013C240.734 778.28 243.971 775.753 246.407 772.476Z"/>
	<path fill="#D5D4D4" d="M885.985 806.474Q902.175 806.528 918.365 806.376C912.39 812.266 907.054 818.747 901.105 824.651C896.282 829.437 890.903 833.561 885.846 838.079L885.985 806.474Z"/>
	<path fill="#FDFDFD" d="M363.907 343.123C367.053 342.868 370.089 343.224 372.958 344.606C377 346.554 379.946 350.093 381.342 354.34Q381.482 354.754 381.6 355.175Q381.718 355.596 381.813 356.023Q381.909 356.45 381.982 356.881Q382.055 357.312 382.105 357.746Q382.155 358.181 382.182 358.617Q382.209 359.054 382.214 359.491Q382.218 359.928 382.199 360.365Q382.18 360.802 382.138 361.237Q382.096 361.672 382.032 362.105Q381.967 362.537 381.88 362.965Q381.792 363.394 381.682 363.817Q381.573 364.24 381.441 364.657Q381.309 365.074 381.155 365.483Q381.001 365.893 380.826 366.293Q380.651 366.694 380.455 367.085Q380.259 367.476 380.043 367.856C377.299 372.686 373.058 375.125 367.825 376.478C363.849 376.659 360.637 376.173 357.186 374.025Q356.476 373.577 355.814 373.06Q355.151 372.544 354.544 371.964Q353.936 371.385 353.389 370.748Q352.841 370.111 352.36 369.423Q351.878 368.735 351.467 368.003Q351.056 367.271 350.72 366.501Q350.383 365.732 350.125 364.933Q349.866 364.134 349.688 363.313Q349.51 362.495 349.415 361.664Q349.32 360.833 349.308 359.996Q349.295 359.16 349.366 358.326Q349.437 357.492 349.591 356.67Q349.744 355.848 349.979 355.044Q350.213 354.241 350.526 353.465Q350.839 352.689 351.228 351.949Q351.617 351.208 352.077 350.509C354.934 346.184 358.988 344.21 363.907 343.123Z"/>
	<path fill="#FDFDFD" d="M316.209 343.087C319.38 342.651 322.487 342.864 325.509 343.977Q325.922 344.128 326.327 344.3Q326.732 344.472 327.127 344.664Q327.522 344.857 327.907 345.07Q328.292 345.283 328.665 345.516Q329.039 345.748 329.399 346Q329.76 346.251 330.107 346.521Q330.455 346.791 330.788 347.078Q331.12 347.366 331.438 347.67Q331.755 347.975 332.057 348.295Q332.358 348.615 332.642 348.951Q332.927 349.286 333.193 349.636Q333.46 349.986 333.708 350.349Q333.956 350.712 334.185 351.087Q334.414 351.463 334.624 351.85Q334.833 352.236 335.022 352.634Q335.211 353.031 335.379 353.437Q335.696 354.194 335.935 354.98Q336.173 355.766 336.33 356.572Q336.487 357.378 336.561 358.196Q336.635 359.014 336.625 359.835Q336.615 360.656 336.522 361.472Q336.429 362.288 336.253 363.09Q336.077 363.892 335.82 364.672Q335.563 365.452 335.228 366.202C332.924 371.429 328.845 374.264 323.684 376.192C320.112 376.637 316.643 376.535 313.301 375.069Q312.528 374.724 311.794 374.305Q311.059 373.885 310.37 373.393Q309.682 372.902 309.045 372.345Q308.409 371.787 307.831 371.169Q307.254 370.55 306.741 369.878Q306.228 369.205 305.785 368.484Q305.342 367.763 304.973 367.002Q304.604 366.24 304.313 365.446Q304.019 364.667 303.803 363.863Q303.587 363.059 303.452 362.238Q303.316 361.416 303.263 360.586Q303.209 359.755 303.238 358.923Q303.267 358.091 303.378 357.266Q303.489 356.441 303.681 355.631Q303.873 354.821 304.144 354.034Q304.415 353.246 304.763 352.49C307.109 347.448 311.142 344.822 316.209 343.087Z"/>
	<path fill="#FDFDFD" d="M270.305 343.092C273.899 342.839 277.171 342.916 280.499 344.466Q281.252 344.817 281.966 345.241Q282.681 345.666 283.349 346.16Q284.017 346.654 284.632 347.212Q285.247 347.771 285.803 348.388Q286.359 349.005 286.851 349.675Q287.342 350.345 287.764 351.061Q288.186 351.776 288.534 352.531Q288.881 353.285 289.152 354.071Q289.299 354.474 289.425 354.884Q289.551 355.295 289.656 355.711Q289.761 356.127 289.845 356.548Q289.928 356.969 289.99 357.393Q290.052 357.818 290.092 358.245Q290.132 358.672 290.15 359.101Q290.168 359.53 290.164 359.959Q290.16 360.388 290.135 360.817Q290.109 361.245 290.061 361.671Q290.013 362.098 289.944 362.521Q289.874 362.945 289.783 363.364Q289.692 363.784 289.579 364.198Q289.467 364.612 289.333 365.02Q289.2 365.427 289.046 365.828Q288.891 366.228 288.717 366.62Q288.542 367.012 288.348 367.395C285.775 372.353 281.51 374.761 276.37 376.328C272.69 376.634 269.301 376.379 265.944 374.707Q265.201 374.336 264.499 373.892Q263.796 373.449 263.142 372.938Q262.487 372.427 261.886 371.853Q261.286 371.279 260.745 370.648Q260.205 370.018 259.73 369.337Q259.255 368.655 258.85 367.93Q258.445 367.205 258.114 366.443Q257.783 365.681 257.53 364.89Q257.269 364.1 257.088 363.288Q256.907 362.476 256.807 361.649Q256.707 360.823 256.69 359.991Q256.672 359.159 256.738 358.33Q256.803 357.5 256.95 356.681Q257.097 355.862 257.325 355.062Q257.552 354.261 257.858 353.488Q258.164 352.714 258.545 351.974C261.078 347.061 265.192 344.609 270.305 343.092Z"/>
	<path fill="#FDFDFD" d="M745.979 257.557C749.599 257.454 752.702 257.725 756.008 259.405Q756.4 259.608 756.781 259.831Q757.162 260.054 757.531 260.297Q757.901 260.539 758.257 260.8Q758.613 261.061 758.955 261.34Q759.297 261.619 759.625 261.916Q759.952 262.212 760.264 262.525Q760.576 262.837 760.871 263.166Q761.167 263.494 761.445 263.837Q761.723 264.18 761.983 264.537Q762.243 264.894 762.484 265.264Q762.725 265.634 762.947 266.015Q763.169 266.397 763.371 266.79Q763.573 267.183 763.755 267.585Q763.937 267.988 764.097 268.399Q764.258 268.81 764.397 269.229Q764.536 269.648 764.654 270.074Q764.893 270.917 765.047 271.78Q765.201 272.643 765.27 273.517Q765.339 274.39 765.321 275.267Q765.303 276.143 765.199 277.013Q765.095 277.883 764.906 278.739Q764.716 279.595 764.444 280.428Q764.171 281.261 763.817 282.063Q763.464 282.865 763.033 283.628C760.181 288.761 755.83 291.206 750.394 292.797C746.557 293.264 742.764 292.675 739.351 290.818Q738.962 290.605 738.585 290.372Q738.208 290.138 737.843 289.886Q737.479 289.634 737.128 289.363Q736.776 289.093 736.44 288.804Q736.103 288.516 735.781 288.211Q735.46 287.905 735.155 287.584Q734.849 287.263 734.561 286.926Q734.272 286.589 734.002 286.238Q733.731 285.887 733.479 285.522Q733.227 285.158 732.993 284.78Q732.76 284.403 732.547 284.015Q732.333 283.626 732.14 283.227Q731.947 282.828 731.775 282.419Q731.602 282.011 731.451 281.594Q731.3 281.177 731.171 280.753Q731.041 280.329 730.934 279.899Q730.726 279.049 730.603 278.183Q730.48 277.317 730.443 276.443Q730.406 275.569 730.456 274.695Q730.506 273.822 730.642 272.957Q730.778 272.093 730.999 271.247Q731.22 270.4 731.523 269.579Q731.827 268.759 732.21 267.972Q732.593 267.186 733.052 266.441C736.068 261.468 740.532 259.01 745.979 257.557Z"/>
	<path fill="#FDFDFD" d="M738.938 338.607C743.343 338.335 747.329 338.878 751.213 341.121Q751.675 341.392 752.122 341.687Q752.569 341.981 753 342.298Q753.431 342.615 753.845 342.954Q754.26 343.293 754.656 343.653Q755.052 344.013 755.43 344.392Q755.807 344.772 756.164 345.171Q756.522 345.569 756.858 345.986Q757.194 346.402 757.509 346.835Q757.823 347.269 758.115 347.717Q758.406 348.166 758.675 348.629Q758.943 349.093 759.187 349.569Q759.431 350.045 759.65 350.534Q759.869 351.022 760.063 351.521Q760.257 352.02 760.424 352.528Q760.592 353.037 760.734 353.553Q760.875 354.069 760.99 354.592Q761.099 355.085 761.182 355.582Q761.266 356.08 761.325 356.581Q761.383 357.082 761.416 357.585Q761.449 358.089 761.457 358.593Q761.465 359.098 761.448 359.602Q761.43 360.106 761.387 360.609Q761.344 361.112 761.276 361.611Q761.208 362.111 761.114 362.607Q761.021 363.103 760.903 363.593Q760.785 364.084 760.642 364.568Q760.499 365.052 760.332 365.528Q760.165 366.004 759.975 366.471Q759.784 366.938 759.57 367.395Q759.356 367.852 759.12 368.298Q758.883 368.743 758.624 369.176Q758.365 369.609 758.085 370.029C754.722 375.101 749.877 377.725 744.021 378.87C739.897 379.213 735.765 378.671 732.069 376.726Q731.624 376.486 731.191 376.224Q730.759 375.963 730.34 375.68Q729.921 375.397 729.516 375.094Q729.112 374.79 728.723 374.467Q728.334 374.144 727.961 373.802Q727.589 373.46 727.234 373.1Q726.879 372.74 726.543 372.362Q726.206 371.985 725.889 371.591Q725.572 371.198 725.274 370.789Q724.977 370.38 724.7 369.956Q724.424 369.533 724.168 369.097Q723.913 368.66 723.68 368.212Q723.447 367.763 723.236 367.303Q723.026 366.844 722.838 366.374Q722.651 365.905 722.487 365.426Q722.323 364.948 722.183 364.462C720.639 359.206 721.447 353.664 724.199 348.95C727.523 343.256 732.667 340.107 738.938 338.607Z"/>
	<path fill="#FDFDFD" d="M682.911 339.082C687.06 338.572 690.983 339.068 694.794 340.856Q695.248 341.067 695.691 341.3Q696.135 341.532 696.566 341.787Q696.997 342.041 697.415 342.316Q697.833 342.592 698.237 342.887Q698.641 343.183 699.031 343.498Q699.42 343.813 699.793 344.146Q700.166 344.48 700.522 344.832Q700.879 345.184 701.217 345.552Q701.556 345.921 701.876 346.306Q702.196 346.691 702.496 347.091Q702.797 347.492 703.078 347.906Q703.358 348.321 703.618 348.749Q703.878 349.177 704.117 349.617Q704.355 350.057 704.572 350.508Q704.789 350.96 704.983 351.421Q705.177 351.883 705.348 352.353Q705.516 352.818 705.66 353.291Q705.805 353.764 705.926 354.244Q706.046 354.724 706.143 355.209Q706.24 355.694 706.312 356.183Q706.384 356.672 706.432 357.165Q706.48 357.657 706.503 358.151Q706.526 358.645 706.525 359.14Q706.523 359.635 706.497 360.128Q706.471 360.622 706.42 361.114Q706.369 361.606 706.294 362.095Q706.219 362.584 706.119 363.069Q706.02 363.553 705.896 364.032Q705.772 364.511 705.625 364.983Q705.478 365.455 705.307 365.92Q705.136 366.384 704.943 366.839Q704.749 367.294 704.533 367.739C701.458 373.953 696.111 376.862 689.779 378.844C685.11 379.334 680.742 379.068 676.48 376.909Q676.038 376.682 675.607 376.433Q675.177 376.185 674.76 375.914Q674.343 375.644 673.94 375.352Q673.537 375.061 673.15 374.75Q672.763 374.438 672.391 374.108Q672.02 373.777 671.666 373.428Q671.313 373.079 670.977 372.712Q670.642 372.345 670.325 371.962Q670.009 371.579 669.712 371.18Q669.415 370.781 669.139 370.367Q668.864 369.954 668.609 369.527Q668.355 369.1 668.122 368.661Q667.89 368.221 667.68 367.771Q667.47 367.32 667.283 366.859Q667.097 366.398 666.934 365.929Q666.771 365.459 666.632 364.982Q666.492 364.508 666.375 364.028Q666.258 363.548 666.165 363.063Q666.072 362.577 666.003 362.088Q665.934 361.599 665.889 361.107Q665.844 360.614 665.824 360.121Q665.804 359.627 665.808 359.133Q665.812 358.639 665.84 358.145Q665.869 357.652 665.922 357.161Q665.975 356.669 666.052 356.181Q666.129 355.693 666.23 355.209Q666.331 354.726 666.456 354.248Q666.58 353.769 666.729 353.298Q666.877 352.827 667.048 352.363Q667.219 351.9 667.414 351.445Q667.608 350.991 667.824 350.546Q668.04 350.102 668.278 349.669C671.471 343.833 676.7 340.793 682.911 339.082Z"/>
	<path fill="#D5D4D4" d="M814.942 806.832L831.89 806.845C842.45 815.521 853.246 827.29 863.151 837C866.808 840.585 870.379 844.342 874.398 847.522L873.915 847.792C869.011 850.587 864.602 854.175 859.74 857.029C846.073 865.051 830.402 872.484 815.145 876.91C815.161 879.179 815.848 886.238 814.682 887.875C813.969 879.098 814.698 869.694 814.75 860.861L814.942 806.832Z"/>
	<path fill="#FDFDFD" d="M710.597 276.748L720.103 276.756C720.558 281.286 721.362 285.374 723.605 289.398C727.97 297.229 735.111 300.706 743.344 302.968L743.296 308.369L654.25 308.17L625.651 308.194C622.264 298.047 620.469 287.559 619.775 276.901L710.597 276.748Z"/>
	<path fill="#FDFDFD" d="M99.0742 414.244C136.681 413.75 174.408 414.249 212.023 414.42C212.035 421.222 212.958 466.395 211.358 468.939L158.344 468.919C148.541 468.947 137.649 469.904 128.018 468.27C118.566 466.667 109.82 460.849 104.395 453.004C98.2264 444.085 97.8301 436.269 97.7976 425.726C97.7866 422.157 97.4909 418.309 98.1331 414.793L99.0742 414.244Z"/>
	<path fill="#FDFDFD" d="M98.4636 349.524L213.226 349.558C210.571 363.327 211.967 388.946 212.018 403.927C206.211 405.148 188.768 404.122 181.457 404.125Q139.739 403.963 98.0216 404.25C98.0457 386.034 97.6989 367.722 98.4636 349.524Z"/>
	<path fill="#676767" d="M775.697 276.956L878.452 276.972C875.299 310.962 863.918 337.75 839.553 362.068C831.946 369.127 824.1 375.224 814.916 380.102C814.748 368.071 815.944 352.692 812.766 341.213C807.562 322.423 791.428 309.148 771.896 308.123C768.012 307.919 758.367 309.131 755.324 307.411C754.337 305.694 754.548 304.318 754.513 302.392C758.056 301.212 761.313 299.744 764.321 297.519C771.188 292.438 774.526 285.205 775.697 276.956Z"/>
	<path fill="#FDFDFD" d="M113.281 284.247L361.48 284.045L361.479 308.233L317.25 308.129L284.576 308.088C273.471 308.078 261.5 307.034 250.759 310.235C235.029 314.922 224.259 324.977 216.542 339.166L98.1376 339.104C97.8216 320.912 97.8935 302.576 98.2767 284.385L113.281 284.247Z"/>
	<path fill="#FDFDFD" d="M754.322 140.925C783.175 140.95 814.329 155.944 835.531 174.718C862.346 198.463 876.709 231.018 878.763 266.47L774.519 266.337C773.989 265.021 773.44 263.715 772.775 262.461C768.704 254.777 762.543 250.691 754.364 248.244L754.322 140.925Z"/>
	<path fill="#010101" d="M812.373 198.609C817.114 198.381 821.612 199.198 825.717 201.675C830.806 204.746 834.303 209.914 835.601 215.684C836.884 221.384 835.89 227.409 832.587 232.262C828.883 237.702 823.327 240.478 817.025 241.703C812.19 241.948 807.604 241.074 803.439 238.491Q802.973 238.2 802.522 237.886Q802.071 237.572 801.636 237.236Q801.201 236.9 800.784 236.543Q800.366 236.185 799.967 235.808Q799.568 235.43 799.188 235.033Q798.807 234.636 798.448 234.221Q798.088 233.805 797.749 233.373Q797.411 232.94 797.094 232.491Q796.777 232.042 796.483 231.577Q796.189 231.113 795.919 230.634Q795.649 230.156 795.402 229.665Q795.156 229.174 794.934 228.671Q794.713 228.168 794.516 227.655Q794.32 227.141 794.15 226.619Q793.979 226.096 793.835 225.566Q793.691 225.036 793.573 224.499Q793.455 223.982 793.365 223.459Q793.274 222.937 793.211 222.41Q793.148 221.884 793.112 221.354Q793.077 220.825 793.069 220.295Q793.061 219.765 793.08 219.235Q793.1 218.705 793.147 218.176Q793.195 217.648 793.27 217.123Q793.344 216.598 793.447 216.078Q793.549 215.557 793.678 215.043Q793.807 214.529 793.963 214.022Q794.119 213.515 794.301 213.016Q794.483 212.518 794.691 212.03Q794.899 211.542 795.132 211.066Q795.365 210.59 795.622 210.126Q795.88 209.662 796.161 209.213Q796.443 208.763 796.747 208.329C800.53 202.852 805.983 199.908 812.373 198.609Z"/>
	<path fill="#FDFDFD" d="M814.832 208.639C816.703 208.824 818.449 209.196 820.08 210.168Q820.568 210.455 821.024 210.789Q821.48 211.124 821.9 211.502Q822.32 211.881 822.699 212.3Q823.079 212.72 823.414 213.175Q823.75 213.631 824.037 214.118Q824.324 214.605 824.561 215.119Q824.798 215.632 824.982 216.167Q825.165 216.702 825.294 217.253C826.067 220.472 825.545 223.89 823.655 226.633C821.405 229.899 818.485 230.92 814.762 231.716C813.094 231.556 811.299 231.105 809.804 230.332C805.893 228.309 804.466 224.677 803.251 220.725C803.794 218.232 804.434 215.86 805.899 213.73C808.134 210.479 811.104 209.39 814.832 208.639Z"/>
	<path fill="#676767" d="M736.544 141.294C738.962 140.979 741.458 140.992 743.895 140.898C743.419 176.537 743.703 212.21 743.68 247.853C741.271 248.35 738.811 249.047 736.553 250.038C729.232 253.251 724.247 259.11 721.38 266.419Q675.003 265.965 628.625 266.292L619.564 266.354C620.608 237.588 629.017 211.913 647.285 189.454Q648.309 188.19 649.364 186.951Q650.418 185.713 651.504 184.501Q652.589 183.288 653.703 182.104Q654.818 180.919 655.962 179.762Q657.105 178.605 658.277 177.476Q659.449 176.348 660.648 175.249Q661.848 174.149 663.074 173.08Q664.3 172.011 665.552 170.972Q666.804 169.934 668.082 168.927Q669.359 167.919 670.661 166.944Q671.963 165.968 673.289 165.025Q674.615 164.082 675.963 163.172Q677.312 162.262 678.682 161.386Q680.053 160.51 681.445 159.667Q682.836 158.825 684.249 158.017Q685.661 157.21 687.093 156.437Q688.524 155.665 689.975 154.928Q691.425 154.191 692.893 153.49Q694.361 152.789 695.846 152.125Q697.331 151.461 698.832 150.833Q700.333 150.206 701.849 149.615Q703.365 149.025 704.895 148.473Q706.426 147.92 707.969 147.405Q709.512 146.891 711.068 146.414Q712.623 145.938 714.19 145.5Q715.757 145.062 717.334 144.664Q718.911 144.265 720.498 143.905Q722.084 143.545 723.679 143.224Q725.274 142.904 726.877 142.623Q728.479 142.342 730.088 142.1Q731.697 141.859 733.311 141.657Q734.925 141.456 736.544 141.294Z"/>
	<path fill="#676767" d="M128.853 217.716C137.541 217.27 146.352 217.528 155.05 217.524L199.5 217.529L324.155 217.514C335.199 217.538 344.432 218.38 352.561 226.683C364.802 239.186 361.583 257.836 361.306 273.795C351.305 274.084 341.257 273.913 331.25 273.933L98.1946 273.987C98.0013 259.162 95.62 242.386 105.41 229.931C111.359 222.361 119.479 218.809 128.853 217.716Z"/>
	<path fill="#D5D4D4" d="M814.973 445.344C825.102 439.775 835.717 435.463 845.765 429.594C861.338 440.81 875.867 453.201 888.717 467.47C891.114 470.131 897.092 478.63 900.323 479.122C906.136 486.306 909.773 495.706 914.346 503.73C923.694 504.473 932.982 506.06 942.259 507.4C938.974 511.26 923.959 524.663 923.243 528.314C923.169 528.691 923.257 529.869 923.302 530.338C923.327 530.607 923.371 530.873 923.405 531.141C942.177 552.55 955.758 604.608 954.47 632.683C952.848 620.97 949.309 610.923 940.779 602.428Q939.691 601.334 938.531 600.318Q937.37 599.301 936.141 598.368Q934.913 597.434 933.623 596.588Q932.333 595.741 930.988 594.986Q929.643 594.231 928.248 593.571Q926.854 592.911 925.417 592.348Q923.981 591.786 922.509 591.324Q921.036 590.863 919.536 590.504C907.971 587.792 891.051 589.132 878.825 589.144L814.938 589.18L814.973 445.344Z"/>
	<path fill="#010101" d="M900.323 479.122C906.136 486.306 909.773 495.706 914.346 503.73C923.694 504.473 932.982 506.06 942.259 507.4C938.974 511.26 923.959 524.663 923.243 528.314C923.169 528.691 923.257 529.869 923.302 530.338C923.327 530.607 923.371 530.873 923.405 531.141L926.553 557.146C918.028 552.464 909.195 548.3 900.476 543.992L879.228 556.076L883.417 526.978Q872.416 518.824 861.731 510.262C870.416 509.127 878.978 507 887.647 505.66C892.362 497.072 896.097 487.953 900.323 479.122Z"/>
	<path fill="#FDFDFD" d="M145.164 728.445L146.435 728.792C150.272 732.623 152.472 743.159 154.921 748.427L155.244 749.114C164.2 747.173 172.334 747.007 181.372 748.578C182.894 743.568 183.681 738.09 185.459 733.226C186.021 731.687 186.878 730.405 188.487 729.829C191.827 728.632 196.846 731.585 199.849 732.888Q197.383 743.012 194.342 752.979C202.196 757.163 207.548 761.305 213.622 767.765C218.557 764.057 223.964 757.635 229.703 755.533C231.278 754.956 233.013 754.877 234.546 755.629C237.529 757.091 238.872 760.488 239.79 763.447C234.62 768.586 228.304 773.144 222.514 777.595C229.499 788.136 232.671 798.148 234.161 810.604C238.782 810.953 249.753 809.743 253.1 812.844C254.435 814.08 254.88 815.515 254.94 817.283C255.011 819.356 254.519 822.392 252.816 823.808C249.061 826.933 239.187 825.143 234.287 825.022C232.435 835.315 229.112 843.759 223.916 852.778C229.02 857.789 235.028 861.914 239.623 867.433C237.886 871.268 235.82 873.965 232.851 876.858C226.644 873.126 220.901 868.192 214.814 864.162C206.694 870.56 201.481 874.713 192.175 879.396C193.66 886.497 195.799 893.528 197.705 900.531C195.454 901.93 193.4 903 190.914 903.945C189.385 904.318 188.226 904.514 186.654 904.364C183.934 902.585 180.818 887.113 179.848 883.352C170.679 884.631 162.95 884.472 153.909 882.401C151.011 889.492 148.971 896.884 145.826 903.892C141.571 903.347 138.359 902.329 134.641 900.155C135.686 892.693 139.027 885.182 141.483 878.055C133.441 873.918 127.381 868.993 120.978 862.605C115.782 867.478 109.447 871.398 103.057 874.491C100.231 871.658 98.0806 868.291 95.9035 864.957C100.887 859.918 107.299 855.837 113.032 851.698C107.893 842.885 103.973 833.664 102.73 823.475C96.02 823.27 89.3192 823.965 82.6093 823.578C81.9651 819.036 82.181 814.74 82.7249 810.201C89.1411 809.535 95.8697 809.815 102.331 809.776C103.996 798.873 107.072 789.981 112.229 780.24C107.139 775.975 101.366 772.64 96.2933 768.34C97.8699 764.841 99.8868 761.726 102.372 758.812C109.024 761.117 114.273 765.582 119.816 769.771C126.523 763.117 133.258 758.517 141.689 754.249C139.587 747.281 136.828 740.582 135.013 733.51C138.142 731.223 141.58 729.84 145.164 728.445Z"/>
	<path fill="#010101" d="M165.902 774.203C176.111 773.7 186.115 776.88 193.907 783.51C202.782 791.062 208.507 801.354 209.401 813.047C210.307 824.895 206.469 837.104 198.602 846.055C190.868 854.855 180.459 859.084 168.949 859.791C158.742 859.888 149.046 856.887 141.126 850.342C131.953 842.76 126.693 832.183 125.662 820.37C124.684 809.165 128.577 797.764 135.83 789.203C143.576 780.059 154.1 775.229 165.902 774.203Z"/>
	<path fill="#FDFDFD" d="M167.099 784.707C174.517 784.797 181.52 787.038 187.343 791.694C194.005 797.02 197.931 804.762 198.846 813.187Q198.94 814.012 198.993 814.841Q199.047 815.669 199.058 816.5Q199.07 817.33 199.041 818.16Q199.012 818.99 198.941 819.817Q198.87 820.644 198.759 821.467Q198.647 822.29 198.495 823.106Q198.342 823.922 198.15 824.73Q197.957 825.538 197.724 826.335Q197.491 827.132 197.219 827.917Q196.948 828.701 196.637 829.471Q196.326 830.241 195.978 830.995Q195.629 831.749 195.244 832.484Q194.858 833.219 194.436 833.935Q194.015 834.65 193.558 835.344Q193.101 836.037 192.611 836.707Q192.12 837.377 191.597 838.022C185.845 844.969 178.163 848.604 169.283 849.509C161.441 849.523 154.215 847.488 148.017 842.553Q147.403 842.06 146.814 841.538Q146.225 841.016 145.662 840.466Q145.099 839.916 144.563 839.34Q144.028 838.763 143.521 838.161Q143.014 837.559 142.537 836.933Q142.06 836.306 141.614 835.658Q141.168 835.009 140.755 834.34Q140.341 833.67 139.96 832.982Q139.579 832.293 139.233 831.586Q138.886 830.879 138.574 830.157Q138.262 829.434 137.986 828.697Q137.709 827.96 137.469 827.211Q137.229 826.461 137.026 825.701Q136.823 824.94 136.656 824.171Q136.49 823.402 136.362 822.625Q136.233 821.849 136.143 821.067Q136.059 820.254 136.014 819.437Q135.97 818.621 135.966 817.803Q135.962 816.985 135.998 816.168Q136.034 815.351 136.11 814.537Q136.186 813.723 136.303 812.913Q136.419 812.104 136.574 811.301Q136.73 810.498 136.925 809.704Q137.12 808.91 137.354 808.127Q137.588 807.343 137.86 806.572Q138.132 805.801 138.441 805.044Q138.751 804.287 139.097 803.546Q139.444 802.805 139.826 802.083Q140.208 801.36 140.626 800.657Q141.043 799.953 141.495 799.272Q141.946 798.59 142.43 797.931Q142.915 797.272 143.431 796.638C149.409 789.272 157.874 785.732 167.099 784.707Z"/>
	<path fill="#D5D4D4" d="M212.071 504.168L212.071 649.115C212.08 675.985 211.614 702.949 212.176 729.808L211.448 731.157L210.323 730.958C208.324 725.643 204.35 722.893 199.349 720.599C194.384 718.322 189.049 716.74 183.719 718.839C179.966 720.317 177.384 723.382 175.843 727.039C174.572 730.057 173.787 733.414 172.884 736.565L162.123 736.576C159.893 730.068 158.176 722.426 151.438 719.153C146.594 716.799 141.349 717.662 136.488 719.462C131.682 721.242 126.706 724.122 124.564 729.014C121.559 735.874 126.452 743.157 127.861 749.839C124.805 751.397 122.503 753.069 120.174 755.628C114.869 752.022 109.757 746.494 102.824 747.816C96.8602 748.954 91.6332 753.532 88.4255 758.515C85.8787 762.471 84.0285 767.199 85.0673 771.953C86.5751 778.854 93.0132 781.954 98.055 785.967C96.286 789.98 94.6494 793.471 94.2776 797.899L87.7477 797.99L89.1078 797.219C89.4386 794.099 78.7389 765.088 77.0724 758.567C74.1955 747.311 71.595 735.94 70.1573 724.4Q69.8734 722.187 69.635 719.969Q69.3966 717.751 69.2039 715.529Q69.0112 713.307 68.8642 711.081Q68.7173 708.855 68.6162 706.626Q68.515 704.398 68.4598 702.167Q68.4045 699.937 68.3952 697.707Q68.3858 695.476 68.4223 693.245Q68.4589 691.015 68.5413 688.786Q68.6237 686.556 68.7519 684.329Q68.8802 682.102 69.0542 679.878Q69.2282 677.654 69.448 675.434Q69.6677 673.214 69.9331 670.999Q70.1985 668.784 70.5093 666.575Q70.8202 664.366 71.1765 662.164Q71.5327 659.962 71.9342 657.768Q72.3357 655.573 72.7822 653.387Q73.2288 651.202 73.7202 649.026Q74.2116 646.85 74.7477 644.684Q75.2837 642.519 75.8642 640.365Q76.4447 638.211 77.0694 636.07Q77.6941 633.928 78.3627 631.8Q79.0313 629.672 79.7436 627.558Q80.4558 625.444 81.2114 623.345Q81.967 621.246 82.7656 619.163Q83.5642 617.08 84.4055 615.014Q85.2468 612.948 86.1304 610.899Q87.0141 608.851 87.9396 606.821Q88.8652 604.792 89.8323 602.781Q90.7994 600.771 91.8077 598.781Q92.816 596.791 93.865 594.822Q94.914 592.854 96.0032 590.907Q97.0925 588.96 98.2216 587.036C125.154 541.701 161.526 516.999 212.071 504.168Z"/>
	<path fill="#010101" d="M130.812 573.721C133.865 575.47 136.814 586.394 138.155 590.074L154.869 590.827C150.451 594.999 145.935 598.952 141.241 602.809L145.937 620.491C140.52 617.586 135.343 614.274 130.155 610.985C125.384 614.556 120.252 617.481 115.112 620.476C116.491 614.472 118.081 608.624 119.971 602.762C114.647 599.248 110.334 595.023 105.879 590.509L123.666 590.168C126.33 584.882 128.47 579.166 130.812 573.721Z"/>
	<path fill="#FDFDFD" d="M740.903 87.2146C770.263 84.6684 802.72 92.9522 828.916 105.608Q830.901 106.584 832.861 107.608Q834.821 108.632 836.756 109.704Q838.691 110.776 840.599 111.894Q842.507 113.012 844.387 114.177Q846.267 115.341 848.119 116.551Q849.97 117.76 851.792 119.015Q853.613 120.269 855.404 121.568Q857.194 122.866 858.953 124.208Q860.711 125.549 862.436 126.933Q864.161 128.317 865.852 129.743Q867.543 131.168 869.199 132.634Q870.855 134.1 872.474 135.606Q874.094 137.112 875.677 138.657Q877.259 140.202 878.804 141.785Q880.348 143.369 881.854 144.989Q883.359 146.609 884.825 148.265Q886.291 149.921 887.716 151.613Q889.141 153.304 890.524 155.03Q891.907 156.755 893.248 158.514Q894.589 160.273 895.887 162.064Q897.185 163.855 898.439 165.676Q899.693 167.498 900.902 169.35Q902.111 171.202 903.275 173.083Q904.439 174.963 905.556 176.872Q906.674 178.78 907.745 180.715Q908.816 182.651 909.84 184.611Q910.863 186.572 911.839 188.557Q912.814 190.541 913.741 192.549Q914.668 194.557 915.546 196.587Q916.424 198.617 917.252 200.668Q918.08 202.719 918.858 204.789Q919.636 206.859 920.364 208.948Q921.117 211.09 921.817 213.249Q922.517 215.409 923.163 217.585Q923.809 219.761 924.402 221.953Q924.994 224.144 925.531 226.35Q926.069 228.555 926.552 230.774Q927.035 232.992 927.463 235.221Q927.891 237.451 928.264 239.69Q928.637 241.929 928.954 244.177Q929.271 246.425 929.532 248.68Q929.794 250.935 929.999 253.196Q930.205 255.457 930.354 257.722Q930.504 259.988 930.597 262.256Q930.69 264.524 930.727 266.794Q930.765 269.064 930.746 271.334Q930.727 273.604 930.651 275.873Q930.576 278.142 930.445 280.408Q930.314 282.674 930.126 284.937Q929.939 287.199 929.696 289.456Q929.453 291.714 929.153 293.964Q928.854 296.214 928.5 298.457Q928.145 300.699 927.735 302.932Q927.325 305.164 926.86 307.386Q926.394 309.608 925.874 311.818Q925.354 314.028 924.78 316.224Q924.205 318.421 923.576 320.602Q922.948 322.783 922.265 324.948Q921.582 327.113 920.846 329.261Q920.111 331.409 919.322 333.537Q918.533 335.666 917.691 337.775Q916.85 339.883 915.957 341.97Q915.064 344.057 914.119 346.121Q913.174 348.186 912.179 350.226C893.073 389.479 856.761 425.614 815 440.042Q815.091 416.397 814.81 392.754C846.603 374.681 867.42 352.938 880.484 318.467Q881.074 316.877 881.624 315.273Q882.174 313.67 882.685 312.053Q883.196 310.436 883.666 308.807Q884.137 307.178 884.568 305.538Q884.998 303.898 885.388 302.248Q885.778 300.598 886.127 298.939Q886.476 297.28 886.785 295.612Q887.093 293.945 887.36 292.271Q887.627 290.596 887.853 288.916Q888.079 287.235 888.263 285.55Q888.448 283.864 888.59 282.175Q888.733 280.485 888.834 278.793Q888.935 277.1 888.995 275.406Q889.054 273.711 889.072 272.016Q889.09 270.32 889.066 268.625Q889.042 266.929 888.976 265.235Q888.911 263.541 888.803 261.849Q888.696 260.156 888.547 258.467Q888.398 256.778 888.207 255.094Q888.016 253.409 887.785 251.729Q887.552 250.05 887.279 248.376Q887.006 246.703 886.692 245.037Q886.377 243.371 886.022 241.713Q885.667 240.055 885.271 238.406Q884.875 236.757 884.438 235.119Q884.002 233.481 883.525 231.853Q883.048 230.226 882.531 228.611Q882.015 226.996 881.459 225.395Q880.902 223.793 880.307 222.205Q879.711 220.618 879.077 219.045Q878.443 217.473 877.77 215.917Q877.097 214.36 876.386 212.821C865.15 186.651 843.528 164.209 819.245 149.846C786.337 130.38 747.958 125.88 711.14 135.56C675.157 145.02 644.234 170.641 625.704 202.54C607.12 234.531 604.733 273.189 613.975 308.446L569.853 308.389C568.673 299.935 567.599 291.497 567.11 282.97Q566.972 280.661 566.891 278.35Q566.81 276.039 566.787 273.727Q566.763 271.414 566.797 269.102Q566.831 266.79 566.922 264.479Q567.013 262.168 567.161 259.86Q567.309 257.552 567.514 255.249Q567.719 252.945 567.982 250.648Q568.244 248.35 568.563 246.059Q568.882 243.769 569.257 241.487Q569.633 239.205 570.065 236.933Q570.497 234.661 570.985 232.401Q571.473 230.14 572.017 227.893Q572.561 225.645 573.16 223.411Q573.759 221.178 574.414 218.96Q575.068 216.742 575.777 214.541Q576.487 212.339 577.25 210.156Q578.013 207.973 578.831 205.81Q579.648 203.647 580.518 201.504Q581.389 199.362 582.312 197.241Q583.236 195.121 584.211 193.024Q585.187 190.928 586.214 188.856Q587.241 186.784 588.319 184.738Q589.397 182.692 590.526 180.673Q591.654 178.655 592.832 176.665Q594.01 174.675 595.237 172.714Q596.464 170.754 597.739 168.825Q599.014 166.896 600.337 164.998Q601.659 163.101 603.028 161.237Q604.397 159.374 605.812 157.544Q607.227 155.715 608.687 153.921Q610.146 152.127 611.65 150.37Q613.153 148.613 614.7 146.894Q616.204 145.236 617.748 143.615Q619.291 141.994 620.875 140.412Q622.458 138.829 624.079 137.286Q625.701 135.743 627.36 134.24Q629.019 132.737 630.714 131.276Q632.409 129.814 634.14 128.394Q635.87 126.974 637.635 125.598Q639.4 124.221 641.198 122.888Q642.996 121.554 644.827 120.266Q646.657 118.977 648.518 117.734Q650.38 116.491 652.271 115.293Q654.162 114.096 656.083 112.945Q658.003 111.795 659.95 110.692Q661.898 109.589 663.872 108.534Q665.846 107.479 667.846 106.472Q669.845 105.466 671.869 104.509Q673.893 103.552 675.939 102.645Q677.985 101.738 680.054 100.882Q682.122 100.025 684.21 99.2196Q686.299 98.414 688.406 97.66Q690.514 96.9059 692.639 96.2038Q694.765 95.5016 696.907 94.8518Q699.049 94.202 701.206 93.6049Q703.363 93.0079 705.535 92.4639Q707.706 91.92 709.89 91.4294Q712.074 90.9389 714.27 90.502Q716.465 90.0652 718.67 89.6824Q720.876 89.2995 723.09 88.9709Q725.304 88.6423 727.526 88.3681Q729.747 88.0939 731.975 87.8742Q734.203 87.6546 736.435 87.4897Q738.667 87.3247 740.903 87.2146Z"/>
	<path fill="#D5D4D4" d="M438.49 74.4598C448.632 73.9177 458.888 74.201 469.035 74.5304C470.361 77.827 471.395 81.1493 472.386 84.5599C475.862 85.8296 478.913 87.7697 481.957 89.8325C485.163 88.3568 488.356 87.102 491.694 85.9543C497.367 91.3284 505.297 98.4015 508.924 105.302C509.757 106.887 509.169 108.014 508.745 109.625C510.305 110.847 512.519 111.239 514.391 111.817C525.49 115.246 535.941 119.174 546.474 124.079Q565.587 132.875 583.45 143.994C588.611 147.248 596.342 154.009 601.294 156.146C568.388 201.132 557.159 253.088 565.672 307.9L565.759 308.457L436.205 308.414C414.813 308.383 393.222 308.896 371.855 308.209L371.842 271.039C371.847 260.719 372.949 249.117 370.448 239.054Q370.095 237.661 369.65 236.294Q369.205 234.928 368.67 233.594Q368.136 232.26 367.514 230.964Q366.892 229.668 366.186 228.417Q365.479 227.165 364.691 225.963Q363.904 224.761 363.038 223.614Q362.172 222.467 361.232 221.38Q360.292 220.292 359.282 219.27C349.853 209.865 338.481 207.621 325.63 207.727C316.814 207.8 307.018 208.737 298.308 207.575C300.836 207.233 303.443 207.342 305.991 207.325C314.468 199.065 322.236 190.093 330.209 181.353L360.783 148.08C366.501 141.797 373.495 136.511 378.881 130.028C379.182 129.703 379.641 129.429 380 129.164C383.277 129.954 388.697 134.461 391.963 136.348C392.458 133.214 392.804 130.045 393.212 126.898C396.524 124.379 398.05 120.243 399.717 116.546C397.666 113.397 396.196 109.854 394.62 106.449C397.323 102.627 409.818 86.2559 413.569 85.7041C416.017 85.3439 419.705 87.9379 421.79 89.0842C426.072 87.0594 430.271 85.0024 434.912 83.9472C435.751 80.5833 436.959 77.5597 438.49 74.4598Z"/>
	<path fill="#010101" d="M438.49 74.4598C448.632 73.9177 458.888 74.201 469.035 74.5304C470.361 77.827 471.395 81.1493 472.386 84.5599C475.862 85.8296 478.913 87.7697 481.957 89.8325C485.163 88.3568 488.356 87.102 491.694 85.9543C497.367 91.3284 505.297 98.4015 508.924 105.302C509.757 106.887 509.169 108.014 508.745 109.625Q506.923 113.18 505.172 116.77C506.544 120.284 507.696 123.707 508.465 127.406C510.709 127.874 514.319 128.158 515.661 130.255C517.151 132.586 516.008 137.284 515.866 139.944C519.464 137.772 523.01 135.328 526.777 133.474C523.112 153.569 514.416 171.737 498.176 184.709L493.371 181.659C487.855 184.058 482.304 186.381 476.487 187.966C474.013 192.147 472.628 196.621 471.196 201.236C460.97 204.838 449.639 203.915 439.009 203.38C438.529 198.996 437.863 195.171 436.17 191.057C429.077 188.936 422.499 185.943 415.607 183.309C413.935 184.659 412.258 185.99 410.681 187.452C394.019 172.466 380.639 153.723 378.908 130.625C378.893 130.427 378.89 130.227 378.881 130.028C379.182 129.703 379.641 129.429 380 129.164C383.277 129.954 388.697 134.461 391.963 136.348C392.458 133.214 392.804 130.045 393.212 126.898C396.524 124.379 398.05 120.243 399.717 116.546C397.666 113.397 396.196 109.854 394.62 106.449C397.323 102.627 409.818 86.2559 413.569 85.7041C416.017 85.3439 419.705 87.9379 421.79 89.0842C426.072 87.0594 430.271 85.0024 434.912 83.9472C435.751 80.5833 436.959 77.5597 438.49 74.4598Z"/>
	<path fill="#FDFDFD" d="M431.539 132.003C434.758 125.978 439.749 120.782 446.395 118.619C451.943 116.814 457.892 117.573 462.978 120.366C469.015 123.681 472.918 129.062 474.939 135.548C473.722 136.088 472.481 136.07 471.173 135.998C464.237 135.619 457.264 134.262 450.356 133.457C444.112 132.73 437.807 132.48 431.539 132.003Z"/>
	<path fill="#D5D4D4" d="M431.539 132.003C437.807 132.48 444.112 132.73 450.356 133.457C457.264 134.262 464.237 135.619 471.173 135.998C472.481 136.07 473.722 136.088 474.939 135.548C476.312 142.444 476.312 147.619 474.864 154.48C460.475 157.396 443.982 155.352 429.553 153.708C428.812 146.101 428.531 139.194 431.539 132.003Z"/>
	<path fill="#D5D4D4" d="M393.547 148.811C396.83 150.263 399.918 152.487 403.086 154.196C409.482 157.646 416.382 160.156 423.376 162.105Q424.752 162.492 426.137 162.846Q427.522 163.199 428.916 163.518Q430.309 163.837 431.71 164.122Q433.111 164.406 434.518 164.656Q435.925 164.906 437.339 165.122Q438.752 165.337 440.17 165.517Q441.588 165.697 443.01 165.843Q444.432 165.988 445.857 166.098Q447.282 166.209 448.71 166.284Q450.137 166.359 451.566 166.399Q452.995 166.438 454.424 166.443Q455.854 166.448 457.283 166.417Q458.712 166.386 460.14 166.321Q461.568 166.255 462.994 166.154Q464.42 166.053 465.842 165.917Q467.265 165.781 468.685 165.609Q470.104 165.438 471.518 165.232Q472.933 165.026 474.342 164.785Q475.751 164.544 477.153 164.269Q478.556 163.993 479.951 163.683Q481.347 163.373 482.734 163.029Q484.122 162.685 485.5 162.306Q486.878 161.928 488.247 161.516Q489.616 161.103 490.974 160.657Q492.332 160.211 493.679 159.732Q495.026 159.253 496.36 158.741Q497.695 158.228 499.016 157.683Q500.337 157.138 501.645 156.561Q502.953 155.984 504.246 155.374Q505.539 154.765 506.816 154.123Q508.094 153.482 509.355 152.81Q510.617 152.137 511.861 151.434C508.733 157.436 504.488 162.967 500.61 168.5C495.697 175.043 496.439 171.13 490.296 172.836C484.99 174.31 472.262 178.838 468.78 183.08C466.429 185.946 464.723 189.973 462.961 193.241C457.676 193.836 452.471 193.951 447.16 193.712C445.426 190.116 443.728 186.635 440.689 183.943C436.556 180.283 422.954 174.894 417.396 174.361C415.365 174.166 413.179 174.43 411.146 174.583C403.594 167.978 397.699 157.833 393.547 148.811Z"/>
	<path fill="#FDFDFD" d="M445.422 83.1681C450.86 82.9454 456.34 82.983 461.783 82.9038C462.461 85.6814 463.309 88.3765 464.186 91.0961C470.821 93.4187 476.626 96.0677 482.409 100.099C484.683 98.9288 486.915 97.6641 489.16 96.4377C492.786 99.9947 496.221 103.689 499.283 107.745C497.692 110.661 496.291 113.582 494.982 116.634C497.438 121.682 498.687 127.041 500.337 132.376L506.032 134.322L504.631 143.742C498.053 146.802 491.827 150.019 484.806 152.021C485.754 142.914 485.68 135.182 481.539 126.793C477.187 117.978 470.155 112.592 460.98 109.449C458.405 108.837 455.904 108.487 453.257 108.448Q452.472 108.434 451.688 108.46Q450.904 108.487 450.122 108.553Q449.34 108.619 448.562 108.724Q447.785 108.83 447.014 108.976Q446.242 109.121 445.48 109.305Q444.717 109.489 443.964 109.712Q443.212 109.935 442.472 110.196Q441.732 110.457 441.006 110.755Q440.28 111.053 439.57 111.388Q438.861 111.723 438.169 112.094Q437.477 112.464 436.805 112.869Q436.133 113.275 435.483 113.713Q434.832 114.152 434.205 114.624Q433.578 115.095 432.975 115.598Q432.373 116.101 431.796 116.634Q431.22 117.167 430.672 117.728C421.509 126.94 419.695 137.957 419.828 150.414C415.325 149.126 410.754 147.294 406.582 145.158L406.542 144.116L406.465 144.903C405.444 142.95 404.291 141.812 402.624 140.441L402.033 139.959C401.968 138.363 401.753 136.481 402.055 134.923C402.939 130.353 408.315 119.709 410.411 114.621C408.842 111.934 407.092 109.386 405.67 106.61C409.232 103.185 412.247 99.2128 415.755 95.7124C417.929 96.8932 420.022 98.2596 422.135 99.5481C428.973 95.8733 435.344 92.4844 442.927 90.6332C443.945 88.218 444.647 85.6699 445.422 83.1681Z"/>
	<path fill="#FDFDFD" d="M887.882 599.243C904.204 599.043 920.818 596.759 933.518 609.303Q934.442 610.218 935.296 611.2Q936.151 612.181 936.93 613.222Q937.71 614.263 938.411 615.359Q939.111 616.455 939.729 617.6Q940.347 618.745 940.879 619.932Q941.411 621.119 941.854 622.342Q942.297 623.565 942.649 624.818Q943.001 626.07 943.259 627.345C945.633 638.845 944.353 660.464 944.327 672.939L944.115 760.738C944.101 770.559 942.558 779.766 935.211 786.947C925.793 796.152 915.153 796.201 902.777 796.115L883.33 795.976C881.37 795.974 879.663 795.887 878.219 797.467C874.029 802.05 875.9 827.287 875.985 834.593C867.717 826.505 859.167 818.702 850.757 810.761C845.803 806.083 840.783 800.426 835.184 796.559C818.883 795.814 802.303 796.406 785.966 796.384L691.375 796.318L653.83 796.387C645.219 796.419 635.741 797.285 627.323 795.447C620.582 793.974 614.285 790.898 609.295 786.093C601.297 778.392 597.553 769.062 597.417 758.061C597.084 731.294 597.508 704.482 597.469 677.708L597.362 650.847C597.326 643.098 596.869 635.078 598.5 627.456C599.811 621.332 603.919 614.946 608.263 610.52C613.411 605.276 620.091 601.302 627.372 600.097C636.152 598.644 645.868 599.423 654.781 599.421L701.724 599.404L887.882 599.243Z"/>
	<path fill="#010101" d="M768.787 703.043C777.877 702.7 787.062 702.965 796.161 702.971L844.904 702.97L879.166 702.942C885.405 702.938 891.872 702.618 898.082 703.173C899.815 703.328 901.48 703.599 902.678 705.005C903.532 706.009 903.701 707.371 903.483 708.629C903.092 710.885 901.982 711.882 900.245 713.197C892.306 713.453 884.292 713.097 876.342 713.086L826.349 713.095L790.981 713.122C784.317 713.127 777.453 713.461 770.815 712.934C769.271 712.811 768.062 712.718 766.942 711.507C766.19 710.696 765.869 709.802 765.889 708.703C765.934 706.23 767.018 704.651 768.787 703.043Z"/>
	<path fill="#010101" d="M769.587 676.202C779.546 675.883 789.589 676.153 799.555 676.162L858.082 676.284L885.684 676.351C889.713 676.329 894.385 675.765 898.352 676.321C900.203 676.581 901.941 677.655 902.953 679.238C903.717 680.433 904.013 681.903 903.598 683.281C903.043 685.126 901.765 685.913 900.094 686.607L809.847 686.566C801.895 686.568 773.202 687.596 768.261 686.087C767.021 685.708 765.859 684.563 765.442 683.34C765.011 682.075 765.24 680.618 765.769 679.418C766.584 677.571 767.754 676.859 769.587 676.202Z"/>
	<path fill="#010101" d="M770.468 728.221L855.851 728.276L880.878 728.314C885.716 728.283 890.618 727.955 895.448 728.205C897.22 728.296 899.051 728.554 900.711 729.209C902.206 729.798 902.99 730.503 903.668 731.993C903.752 733.309 903.584 734.087 903.031 735.304C902.017 737.536 900.993 738.122 898.793 738.93L815.758 738.981C802.16 738.976 788.182 739.701 774.631 739.065C772.624 738.971 770.561 738.724 768.712 737.889C767.315 737.258 765.975 736.301 765.543 734.747C765.15 733.328 765.662 731.585 766.42 730.354C767.331 728.877 768.905 728.567 770.468 728.221Z"/>
	<path fill="#010101" d="M766.75 628.586C769.542 628.297 772.297 628.298 775.098 628.294L829.656 628.284C838.688 628.287 848.316 627.57 857.246 628.533C858.902 628.711 861.352 628.84 862.42 630.325C864.184 632.777 863.728 646.033 863.45 649.296C863.238 651.785 862.456 653.114 860.527 654.672C855.451 655.174 850.141 654.864 845.037 654.851L818.662 654.782C802.872 654.754 786.617 655.689 770.882 654.779C769.151 654.679 766.065 654.698 765.05 653.159C763.614 650.98 763.5 635.365 764.03 632.261C764.36 630.327 765.226 629.596 766.75 628.586Z"/>
	<path fill="#010101" d="M692.609 634.741Q700.878 637.61 708.898 641.114C707.529 645.281 706.423 649.433 705.443 653.708C708.559 656.328 711.4 659.241 714.279 662.114L726.502 657.39C729.524 662.813 732.419 668.349 734.677 674.137C730.619 676.435 726.882 679.03 723.098 681.741C723.545 685.905 723.896 690.007 723.98 694.195C728.303 695.959 732.721 697.895 736.699 700.34C733.933 706.673 731.88 713.282 729.083 719.61L715.655 715.538C712.962 718.762 710.224 721.874 707.298 724.888C708.445 729.125 709.999 733.235 711.483 737.362C705.239 740.346 698.763 742.98 692.442 745.812C690.593 741.827 688.991 737.696 687.294 733.642C683.014 733.65 678.726 733.484 674.447 733.381Q670.942 739.561 667.313 745.668C661.249 742.261 654.875 739.275 648.628 736.214C650.891 732.337 652.785 728.195 654.971 724.258C651.595 720.972 648.855 717.35 646.166 713.494C641.657 714.807 636.973 715.737 632.401 716.825C630.666 710.308 628.516 703.854 626.511 697.415C631.132 695.398 635.583 693.195 640.048 690.862L640.591 680.023C636.468 677.814 632.494 675.194 628.492 672.767C630.873 667.879 632.947 662.819 635.12 657.835C640.033 659.363 644.678 662.098 649.548 663.889C651.987 660.542 654.656 658.143 657.99 655.743C656.818 651.166 655.024 646.624 653.556 642.123C658.283 639.641 663.218 637.538 668.107 635.4C670.354 639.536 672.773 643.587 675.128 647.663C679.134 647.515 683.145 647.2 687.148 646.957C689.547 643.159 691.041 638.926 692.609 634.741Z"/>
	<path fill="#FDFDFD" d="M679.294 674.588C682.452 674.409 685.023 674.427 687.985 675.714Q688.724 676.034 689.427 676.429Q690.129 676.823 690.788 677.286Q691.446 677.75 692.054 678.279Q692.662 678.807 693.213 679.395Q693.764 679.983 694.252 680.624Q694.74 681.265 695.16 681.952Q695.58 682.639 695.927 683.366Q696.275 684.093 696.547 684.851Q696.818 685.589 697.014 686.35Q697.21 687.112 697.329 687.889Q697.449 688.666 697.49 689.451Q697.531 690.236 697.493 691.021Q697.455 691.807 697.34 692.584Q697.224 693.362 697.031 694.124Q696.838 694.886 696.57 695.625Q696.302 696.364 695.962 697.073C693.606 701.873 689.694 704.19 684.843 705.867C681.605 706.183 678.831 706.284 675.74 705.008C671.729 703.351 668.751 700.107 667.291 696.036Q667.015 695.259 666.819 694.458Q666.624 693.656 666.51 692.84Q666.396 692.023 666.366 691.199Q666.335 690.375 666.388 689.552Q666.442 688.729 666.578 687.915Q666.714 687.102 666.932 686.306Q667.149 685.511 667.446 684.742Q667.744 683.972 668.117 683.237C670.562 678.414 674.398 676.24 679.294 674.588Z"/>
	<path fill="#FDFDFD" d="M242.573 409.723C250.729 409.418 258.983 409.676 267.148 409.682L314.296 409.699L455.212 409.623L681.864 409.686C717.056 409.718 752.288 409.304 787.472 409.755L787.497 589.055L679.407 589.052L650.199 589.048C640.991 589.049 631.65 588.582 622.591 590.529C614.826 592.198 607.251 596.697 601.575 602.188C592.141 611.314 587.132 624.083 586.973 637.145C586.653 663.335 587.103 689.585 587.045 715.785L586.992 745.503C586.985 753.557 586.332 762.236 588.199 770.115C590.234 778.697 595.369 786.966 601.541 793.19Q602.645 794.302 603.825 795.333Q605.006 796.363 606.257 797.306Q607.509 798.25 608.825 799.101Q610.14 799.952 611.513 800.707Q612.887 801.462 614.31 802.116Q615.734 802.771 617.201 803.322Q618.668 803.873 620.171 804.318Q621.673 804.762 623.204 805.098C635.782 807.866 656.554 806.489 669.802 806.489L750.75 806.464L788 806.494L787.952 856.441C787.948 865.442 788.441 874.753 787.684 883.702C787.438 886.614 786.975 889.425 785.947 892.176Q785.676 892.909 785.368 893.627Q785.06 894.345 784.717 895.047Q784.373 895.749 783.995 896.432Q783.616 897.116 783.204 897.78Q782.791 898.443 782.346 899.085Q781.9 899.727 781.423 900.346Q780.946 900.965 780.438 901.559Q779.93 902.153 779.393 902.72Q778.856 903.288 778.291 903.828Q777.726 904.367 777.135 904.878Q776.543 905.389 775.927 905.869Q775.31 906.349 774.671 906.797Q774.031 907.246 773.369 907.662Q772.708 908.077 772.026 908.459Q771.344 908.841 770.644 909.188Q769.944 909.535 769.227 909.846C765.511 911.474 761.691 912.163 757.663 912.276C747.7 912.554 737.663 912.23 727.691 912.207L668.919 912.137L493.964 912.174L354.19 912.158L303.609 912.269C293.934 912.282 284.167 912.525 274.502 912.097C269.611 911.881 264.913 911.164 260.338 909.369Q259.319 908.974 258.32 908.53Q257.322 908.085 256.347 907.591Q255.371 907.098 254.422 906.557Q253.472 906.016 252.55 905.428Q251.629 904.841 250.737 904.209Q249.845 903.577 248.986 902.901Q248.127 902.225 247.302 901.508Q246.477 900.791 245.689 900.034Q244.901 899.277 244.151 898.482Q243.401 897.687 242.691 896.855Q241.982 896.024 241.314 895.159Q240.646 894.293 240.022 893.396Q239.398 892.499 238.819 891.572Q238.24 890.645 237.707 889.69Q237.175 888.736 236.69 887.756Q236.206 886.776 235.77 885.774C239.203 884.443 242.013 882.941 244.622 880.286C248.153 876.695 251.072 871.561 250.83 866.376C250.502 859.356 243.717 854.736 239.015 850.337C240.207 845.919 241.408 841.555 242.964 837.246C248.074 836.903 255.667 837.099 259.899 833.843C263.342 831.195 264.848 826.749 265.382 822.591C266.119 816.851 266.072 809.6 262.264 804.915C258.088 799.777 249.544 800.075 243.48 799.442C242.46 796.784 241.729 794.172 241.064 791.406C244.6 788.854 248.145 786.171 250.602 782.5C253.234 778.567 253.918 773.834 252.991 769.24C251.201 760.368 247.65 751.436 240.009 746.204C239.559 732.624 239.878 718.936 239.879 705.345L239.859 628.444L239.631 459.388C239.647 451.565 238.672 416.433 240.176 412.038C240.642 410.675 241.367 410.38 242.573 409.723Z"/>
	<path fill="#010101" d="M472.273 546.637C492.061 545.728 512.264 546.498 532.087 546.426L556.887 546.345C561.572 546.333 566.549 545.995 571.199 546.548C572.942 546.755 574.889 547.632 575.851 549.176C576.596 550.37 576.63 551.808 576.231 553.119C575.596 555.204 574.163 556.06 572.365 557.04C566.878 557.462 561.151 557.14 555.637 557.129L523.562 557.138L491.644 557.361C485.749 557.402 479.595 557.793 473.734 557.208C471.876 557.023 470.024 556.571 468.937 554.87C468.19 553.7 468.202 552.289 468.529 550.989C469.107 548.686 470.297 547.805 472.273 546.637Z"/>
	<path fill="#010101" d="M472.645 507.161C491.605 506.3 510.979 507.101 529.985 507.098L645.408 507.106L705.475 507.184C713.385 507.158 725.825 506.025 733.206 507.134C735.248 507.442 737.755 508.21 738.871 510.118C739.558 511.29 739.45 512.684 739.05 513.927C738.392 515.975 737.234 516.755 735.378 517.667C722.554 518.638 709.134 517.685 696.243 517.658L615.97 517.544L508.434 517.381C501.811 517.372 477.275 518.381 472.301 517.104Q472.01 517.027 471.73 516.917Q471.45 516.808 471.183 516.667Q470.917 516.527 470.668 516.358Q470.419 516.189 470.19 515.993Q469.962 515.798 469.757 515.577Q469.551 515.357 469.372 515.116Q469.193 514.874 469.041 514.614Q468.89 514.354 468.769 514.078C468.259 512.889 468.333 511.669 468.808 510.491C469.562 508.618 470.847 507.867 472.645 507.161Z"/>
	<path fill="#010101" d="M473.156 466.692L673.027 466.562C682.253 466.558 731.07 465.624 735.703 466.964C737.114 467.373 738.344 468.31 738.865 469.717C739.335 470.985 739.173 472.515 738.655 473.745C737.742 475.911 736.066 476.569 734.029 477.397C672.463 476.702 610.818 477.369 549.246 477.42C524.905 477.441 500.28 478.328 475.967 477.515C474.334 477.46 471.915 477.483 470.484 476.696C469.521 476.166 468.539 474.672 468.266 473.641C467.913 472.313 468.206 470.86 468.847 469.67C469.868 467.772 471.185 467.207 473.156 466.692Z"/>
	<path fill="#010101" d="M348.85 450.205C364.664 448.454 380.889 453.912 393.618 463.132Q395.012 464.145 396.355 465.226Q397.698 466.306 398.986 467.451Q400.274 468.597 401.504 469.804Q402.734 471.011 403.903 472.278Q405.072 473.544 406.177 474.867Q407.282 476.19 408.321 477.565Q409.359 478.94 410.329 480.365Q411.299 481.79 412.197 483.261Q413.095 484.732 413.92 486.245Q414.745 487.759 415.494 489.311Q416.244 490.863 416.915 492.45Q417.587 494.037 418.18 495.656Q418.773 497.274 419.285 498.92Q419.798 500.565 420.229 502.234Q420.659 503.903 421.008 505.591Q421.356 507.279 421.62 508.982Q421.876 510.689 422.048 512.406Q422.219 514.124 422.305 515.848Q422.392 517.571 422.392 519.297Q422.393 521.023 422.309 522.747Q422.224 524.471 422.055 526.189Q421.885 527.906 421.63 529.613Q421.376 531.32 421.037 533.013Q420.698 534.705 420.276 536.379Q419.854 538.052 419.35 539.703Q418.846 541.354 418.26 542.977Q417.675 544.601 417.01 546.194Q416.345 547.787 415.602 549.344Q414.859 550.902 414.04 552.422Q413.22 553.941 412.327 555.417Q411.434 556.894 410.468 558.325Q409.503 559.756 408.468 561.137Q407.443 562.507 406.352 563.825Q405.261 565.143 404.107 566.406Q402.953 567.67 401.739 568.875Q400.524 570.08 399.253 571.225Q397.981 572.369 396.654 573.45Q395.328 574.531 393.95 575.545Q392.573 576.56 391.147 577.506Q389.721 578.452 388.251 579.327Q386.781 580.202 385.27 581.005Q383.758 581.807 382.21 582.534Q380.661 583.261 379.079 583.912Q377.496 584.563 375.884 585.135Q374.271 585.708 372.633 586.201Q370.995 586.694 369.334 587.106Q367.673 587.518 365.995 587.849Q364.316 588.179 362.623 588.427C344.583 589.911 327.742 586.053 313.425 574.595Q312.085 573.52 310.8 572.38Q309.515 571.24 308.288 570.038Q307.061 568.836 305.894 567.575Q304.727 566.315 303.624 564.998Q302.521 563.681 301.484 562.312Q300.446 560.943 299.478 559.524Q298.509 558.105 297.612 556.64Q296.715 555.176 295.89 553.669Q295.066 552.161 294.317 550.616Q293.568 549.07 292.896 547.489Q292.224 545.908 291.63 544.296Q291.037 542.684 290.523 541.045Q290.01 539.406 289.578 537.743Q289.145 536.081 288.796 534.399Q288.446 532.717 288.179 531.02Q287.913 529.323 287.73 527.615Q287.525 525.883 287.405 524.144Q287.286 522.404 287.253 520.66Q287.22 518.917 287.274 517.174Q287.327 515.431 287.467 513.693Q287.607 511.955 287.832 510.226Q288.058 508.496 288.369 506.781Q288.68 505.065 289.076 503.367Q289.472 501.668 289.951 499.992Q290.43 498.315 290.992 496.664Q291.554 495.013 292.197 493.393Q292.84 491.772 293.562 490.185Q294.284 488.597 295.085 487.048Q295.885 485.499 296.761 483.991Q297.637 482.483 298.586 481.02Q299.536 479.558 300.557 478.144Q301.577 476.73 302.667 475.369C314.338 461.033 330.406 452.016 348.85 450.205Z"/>
	<path fill="#FDFDFD" d="M348.296 461.167C361.753 459.198 376.208 463.832 387.161 471.59Q388.328 472.41 389.453 473.286Q390.579 474.162 391.659 475.093Q392.74 476.024 393.774 477.007Q394.807 477.989 395.791 479.022Q396.775 480.055 397.706 481.135Q398.638 482.215 399.515 483.339Q400.392 484.464 401.213 485.63Q402.033 486.797 402.796 488.002Q403.558 489.208 404.259 490.449Q404.961 491.691 405.601 492.966Q406.24 494.241 406.816 495.545Q407.392 496.85 407.903 498.182Q408.414 499.513 408.858 500.868Q409.303 502.224 409.68 503.599Q410.057 504.974 410.366 506.367Q410.675 507.759 410.915 509.165C413.464 525.016 410.04 540.999 400.547 554.016C390.888 567.26 377.286 575.268 361.158 577.71Q359.922 577.884 358.678 578Q357.435 578.115 356.188 578.172Q354.941 578.229 353.692 578.227Q352.443 578.225 351.196 578.164Q349.949 578.103 348.706 577.983Q347.464 577.864 346.228 577.685Q344.992 577.507 343.766 577.271Q342.54 577.034 341.326 576.74Q340.113 576.446 338.915 576.095Q337.716 575.744 336.536 575.337Q335.356 574.93 334.196 574.468Q333.036 574.005 331.899 573.489Q330.763 572.972 329.651 572.403Q328.54 571.833 327.457 571.212Q326.374 570.59 325.322 569.919Q324.27 569.247 323.25 568.526Q322.021 567.659 320.837 566.732Q319.653 565.804 318.517 564.818Q317.381 563.832 316.296 562.79Q315.212 561.748 314.181 560.652Q313.151 559.557 312.177 558.41Q311.203 557.264 310.288 556.07Q309.373 554.876 308.519 553.638Q307.666 552.399 306.876 551.12Q306.086 549.839 305.362 548.521Q304.637 547.203 303.981 545.85Q303.324 544.497 302.736 543.112Q302.148 541.728 301.631 540.315Q301.114 538.903 300.668 537.466Q300.223 536.03 299.851 534.572Q299.479 533.115 299.181 531.641Q298.882 530.166 298.659 528.679C296.207 513.391 300.057 496.645 309.285 484.162C318.845 471.23 332.468 463.46 348.296 461.167Z"/>
	<path fill="#010101" d="M350.961 556.087C349.416 550.31 351.348 541.195 350.124 537.909C349.765 536.946 349.6 536.495 349.725 535.419C351.76 534.246 356.801 536.202 359.599 535.176C359.813 535.098 360.021 535.002 360.232 534.915C358.199 538.488 362.203 550.749 358.791 556.238C358.233 557.135 357.471 557.926 356.37 558.044C354.31 558.265 352.56 557.257 350.961 556.087Z"/>
	<path fill="#010101" d="M370.272 514.59C375.747 514.731 381.927 513.498 387.284 514.437C389.022 514.741 390.717 515.445 391.562 517.118C392.651 519.27 391.464 522.261 390.78 524.36C384.013 524.896 377.083 524.414 370.361 525.363C370.56 521.71 370.667 518.234 370.272 514.59Z"/>
	<path fill="#010101" d="M360.232 534.915C363.815 532.748 366.834 530.198 369.415 526.889C373.978 531.333 378.725 535.659 382.703 540.649C383.153 541.927 383.259 542.726 382.723 544.03C382.123 545.489 381.063 546.654 379.534 547.121C377.918 547.614 376.535 547.285 375.156 546.389C372.372 544.582 364.284 535.494 362.238 535.001C361.587 534.844 360.9 534.944 360.232 534.915Z"/>
	<path fill="#010101" d="M353.987 480.858C355.547 481.008 357.093 481.23 358.279 482.368C362.409 486.331 359.322 496.099 359.663 501.377C359.765 502.96 360.253 503.668 361.383 504.726C365.056 504.552 370.354 496.279 373.428 493.721C374.877 492.516 376.814 491.489 378.765 491.846C381.116 492.277 382.392 494.544 383.673 496.33C382.299 498.621 380.577 500.635 378.896 502.704C376.061 505.984 371.66 509.535 369.993 513.456C368.857 512.196 367.721 510.921 366.51 509.733C360.701 504.033 356.139 504.539 348.704 504.607C349.136 504.097 349.69 503.669 350.001 503.077C351.16 500.871 349.429 489.932 350.123 486.221C350.623 483.548 351.77 482.312 353.987 480.858Z"/>
	<path fill="#010101" d="M329.195 492.431C329.88 492.437 330.564 492.447 331.247 492.505C336.813 492.978 343.28 502.164 346.787 506.254C344.661 507.923 342.76 509.724 341.351 512.059C338.294 517.127 339.147 521.769 340.464 527.192C342.4 529.415 344.518 531.353 346.703 533.325C343.296 537.34 337.455 545.843 332.268 547.036C331.053 547.315 329.562 547.049 328.553 546.322C327.436 545.518 326.701 544.388 326.508 543.011C326.304 541.56 327.083 540.508 327.843 539.377C329.769 537.161 339.554 528.492 340.059 526.956C336.91 521.584 323.62 527.457 318.5 523.419C317.529 522.653 316.86 521.479 316.81 520.231C316.754 518.843 317.344 517.528 318.289 516.54C321.344 513.346 335.517 514.916 340.143 514.98C337.496 509.339 327.53 502.281 326.858 497.132C326.602 495.179 327.962 493.717 329.195 492.431Z"/>
	<path fill="#010101" d="M303.872 747.523C324.418 747.046 345.078 747.492 365.636 747.516L476.789 747.617Q493.767 747.706 510.745 747.557C517.586 747.503 528.552 746.375 535.018 747.965C536.649 748.365 537.73 749.274 538.525 750.734C539.154 751.887 539.386 753.165 539.446 754.466C539.798 762.03 540.026 842.099 539.06 844.568C538.251 846.641 536.682 847.306 534.807 848.228C519.731 849.056 504.206 848.3 489.073 848.316L386.634 848.157L328.631 848.31C322.23 848.327 310.635 849.18 304.725 848.217C303.095 847.951 301.713 847.075 300.758 845.734C299.808 844.399 299.624 842.88 299.525 841.286C299.141 835.108 299.469 828.713 299.463 822.513L299.405 785.048C299.396 777.328 298.488 757.832 299.683 751.937C300.143 749.665 302.04 748.577 303.872 747.523Z"/>
	<path fill="#676767" d="M433.629 758.237L528.599 758.055L528.521 837.701L433.526 837.542L433.629 758.237Z"/>
	<path fill="#FDFDFD" d="M309.65 758.087C322.563 757.783 335.539 758.036 348.459 758.035L422.518 758.127L422.627 809.29C422.629 818.688 423.002 828.262 422.464 837.64L309.938 837.734C308.665 811.357 309.61 784.516 309.65 758.087Z"/>
	<path fill="#010101" d="M307.318 630.234L472.266 630.224C481.42 630.225 530.784 629.013 535.982 630.857C536.731 631.122 537.271 631.186 537.588 631.974C538.52 634.286 538.817 637.145 538.966 639.631C539.485 648.295 539.966 723.799 538.029 727.766C536.809 730.267 534.564 731.34 532.041 732.121C508.445 731.493 307.984 733.248 303.377 731.247C301.794 730.559 300.718 728.802 300.23 727.223C298.576 721.878 299.54 694.09 299.529 686.988C299.506 670.98 298.812 654.658 299.553 638.676C299.635 636.917 299.706 634.746 300.692 633.235C302.221 630.891 304.756 630.569 307.318 630.234Z"/>
	<path fill="#676767" d="M310.514 640.637L407.86 640.683L407.773 720.827C407.737 720.876 407.714 720.938 407.665 720.975C407.651 720.986 406.8 721.509 406.769 721.515C403.507 722.244 388.588 721.51 383.839 721.512L310.403 721.604L310.514 640.637Z"/>
	<path fill="#FDFDFD" d="M418.539 640.646C455.15 640.211 491.814 640.575 528.43 640.553Q528.518 681.024 528.167 721.494L418.431 721.486L418.539 640.646Z"/>
</svg>
