<?xml version="1.0" encoding="utf-8" ?>
<svg xmlns="http://www.w3.org/2000/svg" xmlns:xlink="http://www.w3.org/1999/xlink" width="1024" height="1024">
	<path fill="#FEFEFE" d="M0 0L1024 0L1024 1024L0 1024L0 0Z"/>
	<path d="M889.737 332.383L892.269 332.493C892.648 332.724 893.109 332.857 893.407 333.187C894.699 334.618 906.297 369.396 907.424 373.736C907.02 375.124 906.235 375.534 905.166 376.478C904.343 376.482 902.966 376.519 902.36 375.998C899.962 373.937 888.639 341 888.062 336.6C887.816 334.72 888.646 333.761 889.737 332.383Z"/>
	<path d="M322.368 894.402C323.285 894.516 324.129 894.627 324.986 894.997C328.92 896.698 332.693 899.084 336.557 900.979Q350.479 907.859 364.822 913.812Q369.476 915.664 374.174 917.398Q378.873 919.132 383.615 920.746Q388.356 922.36 393.137 923.854Q397.918 925.348 402.735 926.72Q407.552 928.092 412.402 929.341Q417.252 930.591 422.132 931.718Q427.013 932.844 431.92 933.846Q436.827 934.849 441.758 935.727Q446.69 936.604 451.641 937.357Q456.593 938.109 461.562 938.736Q466.531 939.363 471.515 939.864Q476.498 940.365 481.493 940.74Q486.488 941.114 491.49 941.362Q496.493 941.61 501.5 941.731Q506.507 941.852 511.516 941.846Q516.524 941.841 521.531 941.708Q548.653 941.174 575.504 937.307C584.722 935.946 594.238 933.213 603.457 932.522C605.429 932.374 607.19 932.399 608.903 933.445C609.511 934.502 609.752 934.972 609.429 936.257C609.082 937.633 608.388 937.919 607.286 938.641C593.696 941.422 580.011 944.042 566.237 945.735Q562.865 946.178 559.486 946.565Q556.107 946.953 552.722 947.284Q549.337 947.616 545.947 947.891Q542.557 948.167 539.163 948.386Q535.769 948.605 532.372 948.769Q528.975 948.932 525.575 949.039Q522.176 949.147 518.775 949.198Q515.374 949.249 511.973 949.244Q508.572 949.239 505.171 949.177Q501.771 949.116 498.372 948.999Q494.973 948.881 491.576 948.707Q488.179 948.534 484.786 948.304Q481.393 948.074 478.003 947.789Q474.614 947.503 471.23 947.162Q467.847 946.82 464.469 946.422Q461.091 946.025 457.72 945.572Q454.349 945.118 450.986 944.61Q447.624 944.101 444.27 943.536Q440.916 942.972 437.571 942.352Q434.227 941.733 430.894 941.058Q427.56 940.383 424.238 939.653Q420.916 938.924 417.607 938.139Q414.298 937.355 411.002 936.516Q407.706 935.677 404.424 934.783Q401.142 933.89 397.876 932.942Q394.609 931.995 391.359 930.993Q388.109 929.992 384.875 928.937Q381.642 927.882 378.426 926.774Q375.211 925.666 372.014 924.505Q368.817 923.344 365.64 922.13Q362.463 920.916 359.306 919.65Q356.149 918.384 353.014 917.066C345.984 914.042 326.408 905.692 321.166 901.259C319.887 900.178 319.765 899.382 319.677 897.766C320.337 896.148 321.009 895.48 322.368 894.402Z"/>
	<path d="M496.86 74.7196Q505.078 74.4432 513.301 74.4836Q521.524 74.5241 529.739 74.8815Q537.954 75.2388 546.149 75.9124Q554.344 76.5861 562.507 77.5751Q570.67 78.5641 578.789 79.8669Q586.908 81.1698 594.971 82.7845Q603.034 84.3993 611.028 86.3236Q619.023 88.2479 626.937 90.4788C632.429 92.0028 638.421 93.0501 643.611 95.4633C645.041 96.1287 646.095 96.8565 646.677 98.3839C646.631 99.3144 646.55 99.7705 645.968 100.554C643.153 104.345 634.808 100.343 631.047 99.1766C589.742 86.3727 535.703 79.1037 492.754 82.3877C460.158 83.2544 426.293 89.6712 395.266 99.5717C385.962 102.541 376.691 105.996 367.624 109.617C364.755 110.763 362.011 112.341 359.116 113.373C357.836 113.829 356.833 114.016 355.468 113.806C354.138 112.962 353.521 112.406 352.649 111.096C352.665 109.939 352.798 109.342 353.576 108.438C356.972 104.496 366.813 101.755 371.701 99.9088C412.254 84.595 453.674 77.0151 496.86 74.7196Z"/>
	<path d="M881.25 244.216C891.353 244.399 900.415 247.796 907.942 254.604Q908.667 255.256 909.358 255.943Q910.05 256.63 910.707 257.35Q911.364 258.071 911.985 258.822Q912.605 259.574 913.188 260.355Q913.771 261.137 914.315 261.946Q914.858 262.755 915.361 263.59Q915.864 264.426 916.326 265.284Q916.787 266.143 917.205 267.024Q917.624 267.904 917.998 268.804Q918.372 269.704 918.702 270.622Q919.032 271.539 919.316 272.472Q919.599 273.404 919.837 274.35Q920.075 275.295 920.266 276.251Q920.456 277.207 920.6 278.172Q920.743 279.136 920.839 280.106Q920.934 281.076 920.982 282.05Q921.033 283.02 921.036 283.991Q921.039 284.962 920.994 285.933Q920.949 286.903 920.856 287.87Q920.763 288.836 920.622 289.798Q920.481 290.759 920.293 291.711Q920.105 292.664 919.87 293.607Q919.635 294.549 919.354 295.479Q919.073 296.408 918.746 297.323Q918.419 298.238 918.047 299.135Q917.676 300.032 917.26 300.91Q916.844 301.788 916.386 302.644Q915.927 303.5 915.427 304.333Q914.926 305.165 914.385 305.972Q913.845 306.779 913.264 307.558Q912.684 308.337 912.066 309.086Q911.448 309.835 910.794 310.553C902.97 319.056 892.782 322.655 881.452 323.109C871.988 323.01 863.156 320.003 855.847 313.93Q855.104 313.318 854.393 312.669Q853.682 312.021 853.003 311.338Q852.325 310.655 851.682 309.939Q851.038 309.224 850.431 308.477Q849.824 307.73 849.254 306.954Q848.685 306.178 848.155 305.374Q847.625 304.571 847.135 303.742Q846.646 302.913 846.198 302.061Q845.751 301.209 845.346 300.336Q844.941 299.462 844.58 298.57Q844.219 297.678 843.903 296.769Q843.587 295.86 843.316 294.936Q843.046 294.012 842.821 293.076Q842.597 292.14 842.419 291.194Q842.242 290.248 842.111 289.295Q841.981 288.341 841.898 287.382Q841.825 286.397 841.801 285.41Q841.777 284.422 841.802 283.435Q841.827 282.447 841.901 281.462Q841.975 280.478 842.098 279.497Q842.22 278.517 842.392 277.545Q842.563 276.572 842.782 275.609Q843.001 274.646 843.268 273.695Q843.535 272.744 843.849 271.807Q844.162 270.871 844.522 269.951Q844.882 269.031 845.287 268.13Q845.692 267.229 846.141 266.35Q846.59 265.47 847.082 264.614Q847.574 263.757 848.108 262.926Q848.642 262.096 849.217 261.292Q849.792 260.489 850.406 259.715Q851.02 258.941 851.671 258.199C859.364 249.4 869.727 244.966 881.25 244.216Z"/>
	<path fill="#FEFEFE" d="M879.5 264.358C880.884 264.275 882.163 264.269 883.359 265.056C885.268 266.311 885.286 269.562 885.565 271.621C889.474 276.267 895.2 277.349 897.566 280.317C898.469 281.45 898.472 282.096 898.367 283.489C897.58 284.777 896.964 285.158 895.688 285.836C891.296 288.172 888.394 293.702 884.308 296.929Q884.45 298.449 884.504 299.975C884.584 302.669 883.988 303.861 882.187 305.797C880.879 305.843 880.216 305.74 879.035 305.171C876.894 302.712 877.66 299.533 877.852 296.508C874.884 293.655 864.742 285.471 864.312 281.71C865.144 278.817 870.52 276.986 872.873 275.362C874.629 274.151 876.254 272.655 877.838 271.227C877.535 268.245 877.744 266.83 879.5 264.358Z"/>
	<path d="M881.112 275.045C884.146 277.494 886.772 280.59 889.806 283.124C887.31 286.064 884.808 289.199 881.587 291.366C878.204 289.186 875.429 286.422 872.764 283.433C875.715 280.709 878.466 278.085 881.112 275.045Z"/>
	<path d="M126.203 380.416C126.982 380.412 128.01 380.32 128.758 380.512C130.009 380.834 130.736 381.445 131.291 382.618C132.394 384.948 123.51 419.828 122.262 425.337C145.054 425.833 167.963 425.287 190.772 425.32C200.358 425.333 211.361 424.289 220.792 426.136C224.919 426.944 228.172 428.687 231.137 431.694C233.923 434.518 236.2 438.464 236.976 442.381C238.576 450.463 237.515 463.135 237.505 471.612L237.579 526.346C237.575 535.006 237.245 541.23 230.66 547.699C227.851 550.459 224.879 552.398 221.073 553.563C211.985 556.347 188.189 554.917 177.75 554.879L110.731 554.89C100.132 554.89 87.0143 556.008 76.7804 554.241C72.1559 553.443 68.4448 551.842 64.9621 548.585C59.1704 543.167 58.0146 537.055 57.901 529.523C57.6204 510.932 57.9113 492.315 57.8342 473.721C57.7982 465.02 56.6777 447.745 58.3297 440.032C59.0351 436.738 60.977 433.762 63.3497 431.422C66.0585 428.752 69.152 427.161 72.8294 426.229C81.2114 424.105 105.085 425.357 115.242 425.381C116.263 418.897 123.664 383.711 126.203 380.416Z"/>
	<path fill="#FEFEFE" d="M76.5008 432.188C84.7686 431.624 93.328 432.119 101.622 432.138L147.789 432.072L191.529 432.026C199.565 432.02 207.892 431.579 215.889 432.322C221.795 432.871 224.491 434.961 228.194 439.407C217.904 446.14 206.064 451.545 195.184 457.355Q172.389 469.448 149.255 480.881C142.282 477.293 69.0938 439.428 68.0919 438.375C67.8517 438.122 67.8095 437.737 67.6683 437.418C67.7348 437.255 67.783 437.083 67.8679 436.928C69.2606 434.388 73.8741 432.823 76.5008 432.188Z"/>
	<path fill="#FEFEFE" d="M64.8557 444.519C70.9031 447.165 76.6736 450.752 82.5261 453.833L123.634 475.351C132.218 479.888 140.796 484.976 149.703 488.816Q178.296 474.47 206.525 459.42C214.392 455.248 222.11 450.735 230.098 446.804C230.73 466.452 230.354 486.215 230.364 505.875C230.287 513.425 230.602 520.981 230.456 528.53C230.346 534.247 229.141 539.559 224.739 543.565Q224.257 544.005 223.742 544.404Q223.227 544.804 222.681 545.162Q222.136 545.519 221.564 545.831Q220.991 546.144 220.396 546.41Q219.8 546.676 219.185 546.893Q218.571 547.11 217.94 547.278Q217.31 547.445 216.669 547.562Q216.027 547.678 215.378 547.743C210.043 548.301 204.299 547.886 198.923 547.88L167.313 547.858C139.17 547.865 110.804 548.685 82.6878 547.871C76.7631 547.7 72.9452 546.431 68.7961 541.956C66.3765 539.346 65.8258 537.012 65.3325 533.597C63.8608 523.41 64.7946 511.828 64.7591 501.469C64.6942 482.511 64.3001 463.467 64.8557 444.519Z"/>
	<path d="M801.201 387.157C812.605 386.63 824.125 386.926 835.541 386.973L892.057 387.149L928.295 387.069C935.208 387.044 942.573 386.499 949.409 387.433C953.682 388.018 957.304 389.711 960.468 392.661C965 396.888 966.388 401.676 966.64 407.697C967.628 431.282 967.048 455.114 967.062 478.725C967.068 489.452 968.119 508.143 966.376 517.662C965.738 521.145 963.517 524.638 961.077 527.142C958.46 529.83 954.93 531.455 951.282 532.187C945.561 533.336 939.161 532.787 933.329 532.769L904.106 532.644L896.12 532.758C886.017 540.83 873.16 554.313 863.659 563.714C859.709 567.623 855.117 573.505 850.304 576.17C848.837 576.116 848.278 575.79 847.077 575.037C844.67 571.738 844.075 539.261 843.735 532.64C833.95 532.451 824.124 532.674 814.335 532.701C809.447 532.715 804.227 533.044 799.382 532.384C796.398 531.977 793.379 531.123 790.814 529.507C786.699 526.913 783.02 521.822 782.106 517.015C781.014 511.263 781.628 504.668 781.68 498.808L781.812 470.595L781.841 429.701C781.841 422.262 781.377 414.463 782.155 407.061C782.637 402.479 783.403 398.711 786.278 394.938C790.063 389.972 795.232 387.958 801.201 387.157Z"/>
	<path fill="#FEFEFE" d="M816.794 478.552C829.474 478.083 842.285 478.427 854.978 478.408C862.894 478.397 871.383 477.764 879.24 478.494C880.8 478.639 881.874 478.84 883.186 479.705C883.888 480.867 884.233 481.326 883.971 482.757C883.709 484.183 882.688 484.766 881.594 485.506C871.709 486.936 858.375 485.95 848.072 485.961C838.568 485.97 828.659 486.67 819.196 486.05C817.999 485.972 816.86 485.937 815.927 485.086C815.033 484.269 814.54 483.457 814.597 482.22C814.673 480.567 815.676 479.623 816.794 478.552Z"/>
	<path fill="#FEFEFE" d="M816.85 432.543C822.367 432.107 828.049 432.367 833.583 432.366L864.494 432.365C886.648 432.361 909.087 431.613 931.209 432.449C932.51 432.498 934.439 432.388 935.464 433.266C936.349 434.024 936.803 434.837 936.669 436.024C936.498 437.541 935.452 438.316 934.378 439.21C926.584 439.811 918.401 439.346 910.578 439.342L864.429 439.325L834.495 439.414C828.642 439.442 822.19 439.997 816.437 438.989C815.24 437.943 815.129 437.86 814.739 436.329C815.106 434.579 815.639 433.841 816.85 432.543Z"/>
	<path fill="#FEFEFE" d="M816.297 455.536C840.185 455.269 864.106 455.525 887.997 455.523C901.972 455.521 916.247 454.858 930.181 455.576C931.887 455.664 933.375 455.783 934.94 456.503C935.872 457.552 936.366 458.025 936.42 459.526C936.471 460.92 935.767 461.72 934.885 462.679C925.903 463.608 818.484 462.966 815.85 462.024C814.976 461.154 814.387 460.79 814.397 459.448C814.409 457.769 815.243 456.726 816.297 455.536Z"/>
	<path d="M746.809 73.212Q748.015 73.1427 749.223 73.1026Q750.43 73.0626 751.638 73.0519Q752.847 73.0412 754.055 73.0598Q755.263 73.0784 756.47 73.1263Q757.677 73.1742 758.883 73.2513Q760.089 73.3285 761.292 73.4349Q762.496 73.5413 763.696 73.6769Q764.897 73.8125 766.094 73.9772Q767.291 74.1418 768.483 74.3355Q769.676 74.5291 770.864 74.7517Q772.051 74.9742 773.233 75.2255Q774.415 75.4768 775.59 75.7567Q776.765 76.0365 777.934 76.3449Q779.102 76.6532 780.262 76.9897Q781.422 77.3263 782.574 77.6909Q783.726 78.0555 784.869 78.448Q786.011 78.8405 787.144 79.2606Q788.277 79.6806 789.4 80.1281Q790.522 80.5755 791.633 81.05Q792.744 81.5246 793.843 82.0259Q794.943 82.5273 796.029 83.0551Q797.116 83.583 798.19 84.1371Q799.263 84.6912 800.323 85.2711Q801.383 85.8511 802.429 86.4566Q803.474 87.0622 804.505 87.6929Q805.535 88.3236 806.55 88.9791Q807.565 89.6346 808.564 90.3146Q809.563 90.9945 810.545 91.6985Q811.526 92.4025 812.491 93.1301Q813.456 93.8577 814.402 94.6085Q815.349 95.3593 816.277 96.1328Q817.205 96.9064 818.114 97.7022C838.018 115.246 850.528 139.66 852.049 166.25Q852.127 167.482 852.173 168.716Q852.22 169.949 852.237 171.184Q852.253 172.418 852.239 173.653Q852.224 174.887 852.179 176.121Q852.134 177.355 852.059 178.587Q851.983 179.819 851.877 181.049Q851.77 182.279 851.634 183.506Q851.497 184.733 851.33 185.956Q851.163 187.179 850.965 188.398Q850.768 189.617 850.54 190.83Q850.312 192.043 850.054 193.251Q849.796 194.458 849.509 195.659Q849.221 196.859 848.904 198.052Q848.586 199.245 848.239 200.43Q847.892 201.615 847.516 202.791Q847.14 203.966 846.734 205.132Q846.329 206.299 845.895 207.454Q845.461 208.61 844.998 209.754Q844.535 210.899 844.044 212.032Q843.553 213.164 843.034 214.284Q842.515 215.405 841.968 216.511Q841.421 217.618 840.847 218.711Q840.273 219.804 839.672 220.883Q839.071 221.961 838.444 223.024Q837.816 224.087 837.162 225.134Q836.508 226.182 835.829 227.212Q835.149 228.243 834.444 229.256Q833.739 230.27 833.009 231.265Q832.279 232.261 831.525 233.238Q830.77 234.215 829.992 235.174Q829.213 236.132 828.411 237.07Q827.609 238.009 826.784 238.927Q825.983 239.823 825.16 240.7Q824.337 241.576 823.493 242.432Q822.648 243.288 821.784 244.123Q820.919 244.958 820.034 245.772Q819.149 246.586 818.244 247.378Q817.34 248.17 816.416 248.939Q815.493 249.709 814.551 250.456Q813.609 251.203 812.649 251.926Q811.688 252.65 810.711 253.35Q809.734 254.05 808.739 254.726Q807.745 255.401 806.735 256.053Q805.724 256.704 804.698 257.331Q803.672 257.957 802.631 258.559Q801.59 259.16 800.535 259.736Q799.479 260.311 798.41 260.861Q797.341 261.411 796.259 261.935Q795.176 262.458 794.082 262.955Q792.987 263.452 791.88 263.922Q790.774 264.392 789.656 264.835Q788.539 265.278 787.411 265.693Q786.282 266.109 785.144 266.496Q784.006 266.884 782.859 267.244Q781.712 267.604 780.557 267.936Q779.401 268.268 778.238 268.571Q777.075 268.875 775.904 269.15Q774.734 269.425 773.557 269.671Q772.381 269.917 771.198 270.135Q770.016 270.352 768.829 270.541Q767.641 270.73 766.45 270.889Q765.258 271.049 764.063 271.179Q762.868 271.31 761.67 271.411Q760.472 271.512 759.272 271.584L759.308 490.86C759.091 534.363 758.179 578.015 759.261 621.507L834.671 621.499C846.669 621.469 862.852 620.265 874.241 622.229C881.074 623.407 887.42 626.296 893.034 630.338C904.905 638.887 909.79 650.916 912.015 664.985C920.339 641.346 925.487 615.617 929.524 590.956Q931.121 581.072 932.466 571.15C932.931 567.529 932.965 563.103 934.117 559.673C934.631 558.141 935.292 557.284 936.779 556.568C938.181 556.486 938.793 556.6 940.033 557.262C942.976 560.884 940.223 571.234 939.57 575.664Q935.069 606.146 927.614 636.043Q924.532 648.528 920.856 660.851C917.555 671.93 913.662 680.892 913.841 692.63C931.466 700.682 946.265 714.015 954.378 731.818C963.508 751.853 963.778 774.446 956.042 794.959C948.041 816.174 932.133 831.322 911.674 840.563L911.65 885.279C911.652 898.157 911.079 909.902 901.304 919.516C896.644 924.101 890.065 927.401 883.555 928.181C872.448 929.512 859.558 928.513 848.285 928.486L780.283 928.429L538.679 927.888C525.175 927.848 515.301 927.558 505.371 917.429Q504.626 916.669 503.933 915.862Q503.24 915.054 502.602 914.203Q501.963 913.351 501.383 912.46Q500.802 911.568 500.281 910.64Q499.76 909.712 499.302 908.752Q498.843 907.792 498.449 906.803Q498.055 905.815 497.727 904.803Q497.399 903.791 497.138 902.759C494.862 893.534 496.014 882.536 496.051 873.017L496.194 835.536L320.609 835.407C322.534 832.737 324.521 830.357 326.815 827.997C318.098 825.572 309.394 823.346 300.372 822.396C297.809 824.771 293.936 827.834 292.798 831.19C289.913 839.701 307.968 858.45 306.263 866.22C304.891 872.477 278.161 888.99 271.974 892.449L271.35 892.308C260.659 889.974 255.891 872.258 246.18 866.893C243.702 865.523 241.483 865.557 238.853 866.476C226.5 870.79 235.979 894.785 231.067 903.008C230.111 904.607 228.98 905.207 227.225 905.587C220.827 906.971 190.507 907.838 185.871 904.442C184.691 903.578 184.018 902.407 183.729 901C182.116 893.146 184.57 883.215 183.089 874.959C182.528 871.834 181.265 868.877 178.514 867.089C164.677 858.093 154.452 888.654 145.805 889.771C140.371 890.474 131.329 882.519 126.986 879.382C123.128 876.424 111.766 869.017 110.257 864.538C109.155 861.268 123.522 837.216 125.957 832.292C125.146 829.45 124.353 826.728 122.423 824.401C113.929 814.162 96.9332 829.828 86.6636 828.37C85.2344 828.167 84.4867 827.444 83.6486 826.335C79.2627 820.534 68.6055 792.35 70.493 785.478C71.7529 780.892 90.5427 775.66 95.2277 773.362C98.6608 771.677 100.931 769.785 102.128 766.067C107.395 749.709 73.9927 750.62 70.1414 741.469C68.0754 736.559 74.3212 718.635 76.3932 713.119C77.587 709.941 81.1534 699.295 83.384 697.333C90.3143 691.237 111.746 708.409 122.026 703.228C124.127 702.17 125.311 700.094 125.914 697.895C128.549 688.27 115.447 676.159 110.81 668.152C108.759 664.61 108.244 659.693 107.08 655.726C104.361 646.455 88.2175 592.033 90.7848 585.756C91.1523 584.857 91.4252 584.347 92.2958 583.91C93.5388 583.287 94.8158 583.201 96.1115 583.763C97.67 584.438 98.1186 585.799 98.5118 587.325C100.062 593.342 100.329 599.806 101.637 605.918Q106.916 630.154 114.534 653.759C122.321 648.961 129.485 643.212 137.105 638.163C139.42 636.629 142.041 634.865 144.944 635.131C152.826 635.853 164.385 657.836 173.932 659.376C175.509 659.631 176.778 659.307 178.066 658.335C184.746 653.293 181.198 629.755 182.576 621.566C182.947 619.357 184.884 618.112 186.571 616.941L187.146 616.547L212.741 616.569C216.708 616.535 220.882 615.995 224.818 616.395C226.184 616.535 227.647 616.897 228.752 617.755C230.083 618.79 230.845 620.301 231.297 621.894C233.356 629.142 232.791 645.297 233.634 653.908C234.15 654.482 234.656 655.058 235.233 655.572C237.435 657.538 240.132 658.76 243.121 658.405C250.607 657.516 259.055 644.809 263.865 639.113L263.962 480.525C263.964 442.06 264.368 403.553 263.86 365.093C256.69 366.699 249.614 368.814 242.373 370.072C225.544 372.995 206.533 372.613 189.754 369.638C149.23 362.452 114.331 339.109 91.0453 305.455Q90.0315 303.965 89.0546 302.451Q88.0776 300.936 87.1381 299.399Q86.1985 297.861 85.297 296.3Q84.3954 294.74 83.5323 293.158Q82.6692 291.576 81.8451 289.973Q81.0211 288.371 80.2365 286.748Q79.452 285.126 78.7074 283.485Q77.9629 281.844 77.2588 280.185Q76.5546 278.526 75.8914 276.85Q75.2281 275.175 74.6061 273.483Q73.9841 271.792 73.4038 270.086Q72.8234 268.38 72.285 266.66Q71.7466 264.94 71.2506 263.207Q70.7545 261.475 70.301 259.731Q69.8475 257.987 69.4369 256.232Q69.0263 254.477 68.6588 252.713Q68.2913 250.949 67.9672 249.176Q67.643 247.403 67.3624 245.623Q67.0818 243.843 66.8449 242.056Q66.608 240.27 66.4149 238.478Q66.2219 236.686 66.0728 234.89Q65.9237 233.095 65.8186 231.295Q65.7136 229.496 65.6526 227.695Q65.5917 225.894 65.5749 224.092Q65.5581 222.29 65.5855 220.488Q65.6129 218.686 65.6844 216.886Q65.7559 215.085 65.8716 213.286Q65.9872 211.488 66.1468 209.693Q66.3065 207.898 66.5101 206.107Q66.7137 204.317 66.9611 202.532Q67.2085 200.747 67.4996 198.968Q67.7906 197.19 68.1252 195.419C75.1062 158.182 98.2441 123.32 129.503 102.024Q131.016 100.997 132.554 100.007Q134.093 99.0176 135.654 98.0659Q137.216 97.1142 138.801 96.201Q140.386 95.2879 141.992 94.4138Q143.599 93.5397 145.227 92.7053Q146.854 91.8708 148.502 91.0765Q150.149 90.2821 151.816 89.5284Q153.482 88.7746 155.166 88.0619Q156.851 87.3492 158.552 86.678Q160.254 86.0067 161.971 85.3774Q163.688 84.748 165.42 84.1609Q167.152 83.5738 168.899 83.0293Q170.645 82.4848 172.403 81.9832Q174.162 81.4816 175.933 81.0233Q177.704 80.5649 179.485 80.1501Q181.266 79.7352 183.057 79.3642Q184.848 78.9931 186.648 78.666Q188.447 78.3389 190.254 78.0559Q192.061 77.773 193.874 77.5344Q195.688 77.2958 197.506 77.1017Q199.325 76.9076 201.148 76.7581Q202.971 76.6086 204.797 76.5038Q206.623 76.399 208.451 76.339Q210.279 76.2789 212.108 76.2636Q213.937 76.2484 215.765 76.2779Q217.594 76.3075 219.422 76.3818Q221.249 76.4561 223.074 76.5752Q224.899 76.6943 226.721 76.858Q228.543 77.0217 230.36 77.23Q232.177 77.4384 233.988 77.6911Q235.8 77.9438 237.604 78.2409Q239.409 78.5379 241.206 78.8791Q243.101 79.2477 244.987 79.6633Q246.872 80.0789 248.747 80.5413Q250.621 81.0037 252.484 81.5126Q254.346 82.0215 256.195 82.5766Q258.044 83.1317 259.879 83.7326Q261.714 84.3335 263.533 84.98Q265.353 85.6264 267.155 86.3178Q268.958 87.0093 270.743 87.7455Q272.528 88.4816 274.294 89.2619Q276.06 90.0422 277.806 90.8663Q279.552 91.6903 281.277 92.5575Q283.002 93.4247 284.705 94.3346Q286.407 95.2445 288.087 96.1965Q289.767 97.1485 291.422 98.1419Q293.078 99.1354 294.708 100.17Q296.338 101.204 297.942 102.279Q299.546 103.353 301.123 104.468Q302.7 105.582 304.248 106.735Q305.797 107.888 307.316 109.079Q308.836 110.271 310.325 111.499Q311.814 112.728 313.273 113.993Q314.731 115.259 316.157 116.56Q317.583 117.861 318.977 119.198Q320.37 120.534 321.73 121.905Q323.09 123.275 324.415 124.679Q325.74 126.084 327.03 127.52Q328.32 128.957 329.574 130.425Q330.828 131.893 332.044 133.392Q333.261 134.891 334.44 136.42Q335.62 137.949 336.76 139.507Q337.901 141.064 339.003 142.65Q340.104 144.235 341.166 145.848C350.777 160.184 357.03 169.158 357.103 186.897C357.14 195.935 355.864 204.559 354.128 213.39C397.563 213.935 441.093 213.358 484.538 213.333L663.421 213.432C658.585 201.775 654.731 190.42 653.731 177.745Q653.647 176.551 653.593 175.356Q653.538 174.16 653.514 172.963Q653.489 171.767 653.493 170.57Q653.498 169.373 653.531 168.177Q653.565 166.981 653.629 165.786Q653.692 164.59 653.785 163.397Q653.878 162.204 654 161.013Q654.122 159.823 654.273 158.636Q654.425 157.448 654.605 156.265Q654.786 155.082 654.995 153.904Q655.205 152.726 655.443 151.553Q655.682 150.38 655.949 149.213Q656.216 148.047 656.512 146.887Q656.808 145.728 657.133 144.576Q657.457 143.424 657.81 142.28Q658.162 141.136 658.543 140.002Q658.923 138.867 659.332 137.742Q659.74 136.617 660.176 135.502Q660.612 134.388 661.076 133.284Q661.539 132.181 662.029 131.089Q662.519 129.997 663.036 128.918Q663.553 127.839 664.097 126.772Q664.64 125.706 665.21 124.653Q665.779 123.601 666.375 122.562Q666.97 121.524 667.59 120.501Q668.211 119.477 668.857 118.47Q669.502 117.462 670.172 116.47Q670.842 115.479 671.537 114.504Q672.231 113.529 672.949 112.572Q673.667 111.614 674.409 110.675Q675.151 109.736 675.915 108.815Q676.679 107.894 677.466 106.992C695.174 86.5913 720.061 75.0946 746.809 73.212Z"/>
	<path fill="#FEFEFE" d="M669.915 896.539C684.016 896.156 698.21 896.465 712.32 896.451C720.226 896.442 729.09 895.667 736.907 896.738C738.355 896.936 739.936 897.296 740.921 898.475C741.787 899.513 741.805 900.76 741.569 902.018C741.147 904.257 740.112 905.137 738.329 906.357Q737.677 906.385 737.025 906.394C722.851 906.625 708.64 906.442 694.463 906.452C687.057 906.457 678.775 907.209 671.496 906.184C670 905.974 668.605 905.47 667.596 904.278C666.633 903.141 666.533 901.709 666.812 900.31C667.207 898.328 668.358 897.585 669.915 896.539Z"/>
	<path fill="#FEFEFE" d="M686.334 174.923L709.957 174.914C710.815 188.529 712.497 201.582 717.316 214.436C711.549 213.275 705.609 213.016 699.749 212.671C692.09 200.725 686.893 189.267 686.334 174.923Z"/>
	<path fill="#FEFEFE" d="M629.461 251.569C633.139 251.346 636.425 251.658 639.758 253.374Q640.481 253.743 641.164 254.18Q641.847 254.618 642.483 255.121Q643.12 255.624 643.704 256.187Q644.289 256.75 644.815 257.367Q645.341 257.985 645.804 258.651Q646.267 259.317 646.662 260.026Q647.057 260.734 647.381 261.478Q647.705 262.222 647.954 262.994Q648.209 263.821 648.379 264.67Q648.548 265.519 648.632 266.38Q648.715 267.242 648.711 268.107Q648.707 268.973 648.616 269.833Q648.524 270.694 648.346 271.541Q648.169 272.388 647.906 273.213Q647.644 274.038 647.299 274.832Q646.955 275.626 646.532 276.381C643.941 280.903 640.044 283.08 635.197 284.489C631.256 284.883 627.86 284.828 624.262 282.979Q623.532 282.6 622.844 282.15Q622.155 281.699 621.516 281.181Q620.877 280.664 620.293 280.084Q619.71 279.504 619.188 278.869Q618.666 278.233 618.211 277.548Q617.755 276.863 617.372 276.135Q616.988 275.407 616.68 274.645Q616.372 273.882 616.142 273.092C614.795 268.6 615.275 263.53 617.704 259.486C620.44 254.932 624.512 252.86 629.461 251.569Z"/>
	<path fill="#FEFEFE" d="M685.301 251.539C689.17 251.229 692.662 251.559 696.163 253.377Q696.895 253.756 697.587 254.206Q698.278 254.655 698.922 255.171Q699.566 255.686 700.156 256.263Q700.746 256.839 701.276 257.471Q701.806 258.103 702.271 258.784Q702.736 259.465 703.132 260.188Q703.528 260.912 703.85 261.671Q704.173 262.43 704.419 263.217Q704.668 263.999 704.839 264.803Q705.009 265.606 705.1 266.422Q705.19 267.239 705.199 268.06Q705.208 268.881 705.136 269.699Q705.064 270.517 704.911 271.324Q704.758 272.131 704.526 272.919Q704.294 273.706 703.985 274.467Q703.677 275.228 703.294 275.955C700.845 280.545 696.877 282.956 692.099 284.532C688.423 284.82 684.977 284.878 681.526 283.401Q680.763 283.078 680.038 282.678Q679.312 282.278 678.631 281.805Q677.951 281.333 677.323 280.792Q676.695 280.252 676.125 279.65Q675.556 279.048 675.052 278.39Q674.548 277.733 674.115 277.027Q673.681 276.321 673.322 275.574Q672.964 274.827 672.684 274.047Q672.396 273.241 672.191 272.41Q671.985 271.579 671.864 270.732Q671.742 269.885 671.706 269.03Q671.67 268.175 671.719 267.321Q671.768 266.466 671.903 265.621Q672.037 264.776 672.255 263.948Q672.474 263.121 672.774 262.319Q673.073 261.518 673.452 260.75C675.936 255.734 680.188 253.239 685.301 251.539Z"/>
	<path fill="#FEFEFE" d="M778.169 111.88Q782.466 113.817 786.473 116.299Q790.48 118.78 794.129 121.764C809.053 133.865 816.661 149.425 818.612 168.322C810.942 168.464 803.253 168.352 795.581 168.344C795.142 147.046 788.987 129.962 778.169 111.88Z"/>
	<path fill="#FEFEFE" d="M795.921 174.834C803.572 174.55 811.308 174.801 818.968 174.82C817.033 194.99 809.235 209.552 794.177 222.988C789.33 226.927 784.185 229.902 778.426 232.287C791.387 213.948 794.939 196.943 795.921 174.834Z"/>
	<path fill="#FEFEFE" d="M725.158 112.543C725.403 114.205 718.848 126.033 717.77 128.756C712.688 141.593 710.968 154.667 709.973 168.318L686.181 168.365C685.136 164.035 687.843 155.626 689.265 151.371C695.379 133.082 708.318 121.078 725.158 112.543Z"/>
	<path fill="#FEFEFE" d="M717.116 174.92L749.484 175L749.508 237.913C742.307 229.185 735.471 222.792 725.944 216.739C720.452 202.841 717.503 189.938 717.116 174.92Z"/>
	<path fill="#FEFEFE" d="M285.834 183.429C285.89 183.483 285.957 183.527 286 183.591C287.264 185.457 286.36 216.168 286.331 220.612C275.981 227.683 270.97 236.074 266.737 247.654C261.608 243.887 256.692 239.799 251.724 235.821C246.916 231.963 242.136 228.113 237.545 223.997C252.099 210.268 270.148 196.148 285.834 183.429Z"/>
	<path fill="#FEFEFE" d="M756.646 106.373C761.405 107.493 765.209 109.158 768.857 112.521C782.801 125.377 788.344 150.072 788.907 168.261L756.523 168.292Q756.412 137.331 756.646 106.373Z"/>
	<path fill="#FEFEFE" d="M747.273 106.637C747.988 106.535 748.45 106.611 749.156 106.723C750.113 109.02 749.507 161.961 749.506 168.446L719.375 168.366L717.813 168.231L717.169 167.315C717.071 150.478 722.075 130.416 732.109 116.701C736.165 111.158 740.388 107.701 747.273 106.637Z"/>
	<path fill="#FEFEFE" d="M756.551 174.971L789.079 174.861C788.506 192.247 784.982 210.187 775.236 224.884C769.658 232.651 766.218 236.753 756.547 238.344L756.551 174.971Z"/>
	<path fill="#FEFEFE" d="M140.574 182.224C145.23 185.154 149.377 189.748 153.556 193.391C165.01 203.38 176.254 213.794 187.969 223.461C180.596 230.598 172.664 237.279 165.013 244.124C156.64 251.338 148.682 259.039 140.641 266.619C139.758 238.571 140.438 210.292 140.574 182.224Z"/>
	<path fill="#FEFEFE" d="M231.597 228.113C242.298 237.164 253.568 245.566 264.334 254.552C264.146 260.446 264.221 266.373 264.181 272.27C252.717 272.483 241.217 272.312 229.75 272.32L144.693 272.245C160.395 257.061 176.919 243.089 193.047 228.408C198.07 231.318 205.689 240.461 211.219 241.057C215.681 241.538 227.533 231.201 231.597 228.113Z"/>
	<path fill="#FEFEFE" d="M149.497 179.261C192.969 178.349 236.567 179.12 280.054 178.935Q264.362 191.936 249.025 205.354C237.119 215.454 225.021 226.092 212.037 234.755C194.842 222.445 179.675 207.185 163.752 193.32C160.113 190.151 149.92 182.851 147.796 179.586L149.497 179.261Z"/>
	<path fill="#FEFEFE" d="M744.774 80.1933C745.099 80.1463 745.422 80.0893 745.747 80.0523C767.803 77.5418 793.805 86.9304 810.826 100.684Q811.727 101.404 812.61 102.145Q813.493 102.887 814.357 103.651Q815.221 104.414 816.065 105.199Q816.91 105.985 817.735 106.79Q818.559 107.596 819.364 108.423Q820.168 109.249 820.951 110.095Q821.735 110.941 822.497 111.807Q823.259 112.672 823.999 113.556Q824.739 114.441 825.457 115.343Q826.175 116.246 826.87 117.166Q827.565 118.086 828.236 119.023Q828.908 119.96 829.556 120.914Q830.204 121.868 830.828 122.838Q831.452 123.807 832.052 124.792Q832.651 125.777 833.226 126.777Q833.801 127.777 834.351 128.79Q834.9 129.804 835.424 130.831Q835.948 131.858 836.446 132.898Q836.944 133.938 837.417 134.99Q837.889 136.042 838.334 137.106Q838.78 138.169 839.199 139.244Q839.617 140.318 840.009 141.403Q840.401 142.487 840.766 143.581Q841.13 144.675 841.467 145.778Q841.805 146.881 842.114 147.991Q842.423 149.102 842.705 150.22Q842.986 151.339 843.24 152.464Q843.494 153.588 843.719 154.719Q843.944 155.85 844.141 156.986Q844.338 158.123 844.507 159.263Q844.675 160.404 844.815 161.549Q844.955 162.693 845.066 163.841C847.521 188.674 839.212 212.941 823.406 232.041C807.356 251.437 783.623 262.537 758.836 264.843C757.623 258.331 755.419 252.003 753.413 245.703C759.041 244.966 764.645 244.179 770.137 242.706C789.735 237.448 805.946 225.521 816.086 207.84C826.232 190.147 827.963 170.863 822.594 151.384Q821.39 147.58 819.789 143.926Q818.187 140.271 816.206 136.808C805.883 118.984 788.796 106.954 768.995 101.88C749.749 96.9482 730.471 100.551 713.503 110.763Q712.007 111.663 710.557 112.636Q709.107 113.609 707.706 114.652Q706.306 115.695 704.959 116.806Q703.611 117.917 702.32 119.093Q701.029 120.268 699.798 121.506Q698.566 122.744 697.397 124.041Q696.228 125.338 695.124 126.691Q694.02 128.044 692.984 129.449Q691.947 130.855 690.982 132.31Q690.016 133.764 689.123 135.265Q688.23 136.766 687.412 138.308Q686.595 139.851 685.854 141.432Q685.112 143.013 684.45 144.629Q683.788 146.245 683.206 147.891Q682.624 149.538 682.124 151.21Q681.623 152.883 681.206 154.579C676.224 175.477 681.118 195.421 692.17 213.398L671.06 213.443C666.16 202.735 662.417 192.419 661.177 180.611C658.646 156.523 665.353 132.88 680.729 114.071C696.805 94.4066 719.629 82.7529 744.774 80.1933Z"/>
	<path fill="#FEFEFE" d="M319.558 249.185C334.288 248.426 349.372 249.211 364.135 249.28L442.431 249.284L522.951 249.067C537.419 249.023 552.163 248.377 566.594 249.228C567.929 250.483 568.082 253.073 568.231 254.836C568.663 259.962 568.999 280.658 568.039 284.683C567.834 285.541 567.332 286.12 566.775 286.774C561.359 287.265 555.76 287.014 550.322 287.011L521.75 286.985L432.281 286.934L353.207 286.911C344.745 286.902 326.017 287.906 318.562 286.283C318.12 285.768 318.091 285.796 317.768 285.072C317.089 283.551 317.186 252.098 317.904 250.348C318.224 249.567 318.843 249.518 319.558 249.185Z"/>
	<path fill="#FEFEFE" d="M203.297 693.21Q204.946 693.13 206.596 693.129Q208.247 693.128 209.895 693.207Q211.544 693.286 213.187 693.444Q214.83 693.603 216.463 693.84Q218.096 694.078 219.716 694.394Q221.336 694.71 222.939 695.103Q224.542 695.497 226.124 695.968Q227.706 696.439 229.263 696.985Q230.821 697.532 232.35 698.153Q233.879 698.774 235.376 699.468Q236.874 700.163 238.336 700.928Q239.798 701.694 241.222 702.529Q242.645 703.365 244.027 704.268Q245.408 705.171 246.745 706.139Q248.081 707.108 249.369 708.14Q250.657 709.172 251.894 710.265Q253.201 711.413 254.45 712.624Q255.699 713.836 256.886 715.108Q258.073 716.38 259.195 717.709Q260.318 719.038 261.373 720.422Q262.428 721.805 263.413 723.239Q264.398 724.673 265.31 726.155Q266.223 727.636 267.061 729.161Q267.898 730.685 268.66 732.25Q269.421 733.815 270.103 735.415Q270.785 737.015 271.388 738.648Q271.99 740.28 272.51 741.94Q273.03 743.6 273.467 745.284Q273.905 746.968 274.258 748.672Q274.611 750.375 274.879 752.094Q275.146 753.813 275.329 755.544Q275.511 757.274 275.607 759.011C276.717 778.166 271.406 796.214 258.439 810.602C245.872 824.546 228.551 832.133 209.937 833.181C192.772 834.475 175.201 827.533 162.348 816.453Q161.032 815.314 159.774 814.112Q158.515 812.91 157.318 811.647Q156.12 810.384 154.987 809.064Q153.853 807.743 152.786 806.369Q151.719 804.994 150.721 803.568Q149.723 802.142 148.796 800.669Q147.87 799.196 147.017 797.679Q146.165 796.162 145.388 794.604Q144.611 793.047 143.912 791.453Q143.213 789.859 142.594 788.233Q141.974 786.607 141.436 784.952Q140.898 783.297 140.442 781.617Q139.985 779.938 139.613 778.238Q139.24 776.538 138.952 774.822Q138.663 773.105 138.46 771.377Q138.257 769.648 138.139 767.912C136.777 749.036 142.598 730.915 155.026 716.599C167.236 702.534 184.879 694.537 203.297 693.21Z"/>
	<path d="M204.193 726.189Q204.964 726.126 205.736 726.097Q206.509 726.067 207.282 726.07Q208.055 726.074 208.828 726.11Q209.6 726.147 210.37 726.217Q211.14 726.287 211.907 726.39Q212.673 726.493 213.434 726.628Q214.196 726.764 214.95 726.932Q215.705 727.1 216.452 727.301Q217.199 727.501 217.936 727.734Q218.674 727.966 219.4 728.23Q220.127 728.494 220.842 728.788Q221.557 729.083 222.258 729.408Q222.96 729.734 223.647 730.089Q224.334 730.444 225.005 730.828Q225.676 731.212 226.33 731.625Q226.983 732.038 227.619 732.478Q228.384 733.023 229.121 733.605Q229.859 734.187 230.566 734.806Q231.273 735.424 231.949 736.076Q232.625 736.729 233.267 737.414Q233.91 738.099 234.518 738.816Q235.125 739.532 235.697 740.278Q236.268 741.023 236.802 741.797Q237.335 742.57 237.83 743.369Q238.324 744.167 238.779 744.99Q239.233 745.812 239.646 746.656Q240.059 747.499 240.429 748.363Q240.8 749.226 241.127 750.107Q241.454 750.987 241.737 751.883Q242.02 752.779 242.258 753.688Q242.496 754.596 242.689 755.516Q242.881 756.435 243.028 757.363C244.601 767.295 242.391 777.087 236.426 785.213C229.807 794.227 220.737 798.783 209.877 800.467C200.678 800.689 191.815 798.704 184.439 792.954C176.568 786.819 171.143 777.161 169.984 767.25Q169.886 766.346 169.832 765.438Q169.778 764.53 169.768 763.62Q169.758 762.711 169.793 761.802Q169.827 760.893 169.906 759.986Q169.985 759.08 170.108 758.179Q170.231 757.278 170.397 756.383Q170.564 755.489 170.774 754.604Q170.984 753.719 171.237 752.845Q171.49 751.972 171.785 751.111Q172.08 750.251 172.416 749.406Q172.753 748.561 173.131 747.733Q173.508 746.906 173.925 746.097Q174.343 745.289 174.799 744.502Q175.255 743.715 175.749 742.951Q176.243 742.188 176.773 741.449Q177.304 740.71 177.87 739.998C184.653 731.543 193.555 727.32 204.193 726.189Z"/>
	<path fill="#FEFEFE" d="M875.186 693.687C878.573 693.15 882.392 693.175 885.822 693.271C904.753 693.8 923.467 702.882 936.268 716.705Q937.457 718.011 938.58 719.374Q939.703 720.737 940.757 722.153Q941.811 723.57 942.794 725.037Q943.777 726.504 944.687 728.018Q945.596 729.532 946.43 731.089Q947.263 732.646 948.019 734.242Q948.775 735.838 949.451 737.469Q950.127 739.101 950.721 740.763Q951.316 742.426 951.827 744.117Q952.339 745.807 952.766 747.52Q953.194 749.234 953.537 750.966Q953.879 752.698 954.136 754.446Q954.392 756.193 954.562 757.951Q954.732 759.708 954.815 761.472Q954.898 763.236 954.894 765.002Q954.889 766.768 954.798 768.532Q954.762 769.465 954.702 770.398Q954.642 771.33 954.559 772.261Q954.475 773.191 954.369 774.119Q954.262 775.048 954.132 775.973Q954.002 776.898 953.849 777.82Q953.695 778.741 953.519 779.659Q953.343 780.576 953.143 781.489Q952.944 782.402 952.722 783.309Q952.499 784.217 952.254 785.118Q952.009 786.02 951.741 786.915Q951.474 787.81 951.183 788.698Q950.893 789.586 950.581 790.467Q950.268 791.347 949.934 792.219Q949.6 793.092 949.243 793.956Q948.887 794.819 948.509 795.674Q948.131 796.528 947.732 797.373Q947.333 798.217 946.912 799.052Q946.492 799.886 946.05 800.71Q945.609 801.533 945.147 802.345Q944.685 803.157 944.203 803.958Q943.721 804.758 943.219 805.546Q942.717 806.333 942.195 807.109Q941.673 807.883 941.132 808.645Q940.591 809.407 940.031 810.154Q939.471 810.902 938.892 811.635Q938.313 812.369 937.716 813.088Q937.119 813.806 936.504 814.51Q935.889 815.213 935.256 815.901Q934.624 816.588 933.974 817.26Q933.325 817.931 932.659 818.586Q931.992 819.241 931.31 819.879Q930.627 820.517 929.929 821.138C915.654 833.992 897.692 839.885 878.661 838.955C869.538 837.943 861.462 835.547 853.18 831.61C845.668 833.629 838.861 837.829 831.58 840.525C832.763 834.142 834.396 827.791 835.844 821.46C822.142 808.179 813.613 793.444 811.218 774.301Q811.009 772.506 810.887 770.702Q810.765 768.899 810.732 767.092Q810.698 765.284 810.753 763.478Q810.807 761.671 810.95 759.869Q811.092 758.067 811.323 756.275Q811.553 754.482 811.871 752.702Q812.188 750.923 812.592 749.161Q812.995 747.399 813.485 745.659Q813.974 743.919 814.547 742.205Q815.121 740.491 815.777 738.807Q816.434 737.123 817.171 735.473Q817.909 733.823 818.726 732.21Q819.544 730.598 820.439 729.028Q821.333 727.457 822.304 725.933Q823.274 724.408 824.318 722.932Q825.362 721.456 826.476 720.033C838.521 704.713 856.008 695.909 875.186 693.687Z"/>
	<path d="M863.357 737.461C864.514 737.347 866.133 737.452 867.215 737.943C868.375 738.471 868.444 738.8 868.844 739.907C868.304 743.839 863.132 747.467 860.277 749.938C860.007 749.994 859.742 750.093 859.467 750.106C858.088 750.171 856.963 749.535 856.066 748.617C855.844 747.59 855.685 746.871 855.891 745.816C856.639 741.996 860.362 739.456 863.357 737.461Z"/>
	<path d="M849.826 773.956C850.814 773.953 851.711 774.078 852.684 774.243C855.707 776.518 859.095 781.467 859.431 785.269C859.568 786.825 858.851 787.652 857.993 788.837C856.573 788.998 855.656 789.119 854.342 788.38C851.205 786.619 849.298 782.097 848.689 778.74C848.314 776.679 848.657 775.65 849.826 773.956Z"/>
	<path d="M909.989 778.279C911.61 778.308 913.276 778.409 914.529 779.548C915.38 780.323 915.563 781.546 915.49 782.645C915.266 785.999 912.009 789.784 909.686 791.96C908.516 792.134 907.263 792.262 906.151 791.728C905.097 791.221 904.553 790.368 904.385 789.232C903.857 785.675 907.687 780.67 909.989 778.279Z"/>
	<path d="M864.551 791.27C867.374 791.826 870.545 793.17 873.179 794.341C875.129 795.208 876.848 796.435 877.63 798.475C877.606 800.205 877.024 801.152 876.153 802.618C872.795 802.731 868.931 801.799 866.065 799.983C864.577 799.04 863.101 797.521 862.873 795.701C862.653 793.955 863.65 792.664 864.551 791.27Z"/>
	<path d="M849.759 753.251C850.832 753.262 851.935 753.241 852.929 753.71C854.162 754.29 854.713 755.254 855.049 756.525C855.961 759.969 854.195 766.497 852.39 769.456C851.563 769.565 850.035 769.843 849.212 769.574C847.974 769.17 847.213 768.384 846.749 767.19C845.223 763.264 848.072 756.839 849.759 753.251Z"/>
	<path d="M900.046 737.283C901.508 737.265 902.627 737.357 903.957 738.038C906.925 739.559 910.206 741.653 910.989 745.16C911.436 747.163 910.126 748.573 908.984 750.022C906.714 750.134 905.521 749.697 903.597 748.564C901.094 747.09 898.083 745.074 897.635 741.92C897.346 739.885 898.766 738.598 900.046 737.283Z"/>
	<path d="M894.56 793.544C895.933 793.339 897.229 793.212 898.572 793.683C899.906 794.151 900.253 794.562 900.896 795.784C900.833 796.572 900.775 797.274 900.369 797.976C898.195 801.737 894.559 802.464 890.668 803.306C889.762 803.394 888.863 803.511 887.956 803.363C886.249 803.086 885.153 802.64 884.131 801.288C884.122 800.481 884.183 799.966 884.529 799.216C886.261 795.471 891.029 794.518 894.56 793.544Z"/>
	<path d="M879.81 731.194C882.424 731.206 885.662 730.917 888.067 732.022C889.581 732.717 891.523 734.011 891.845 735.769C892.062 736.957 891.677 737.649 890.839 738.461C889.841 739.43 888.423 739.546 887.125 739.54C884.025 739.546 880.067 740.014 877.139 739.017C875.653 738.511 875.179 737.799 874.561 736.416C874.661 734.83 874.845 734.148 875.676 732.795C877.037 731.751 878.142 731.515 879.81 731.194Z"/>
	<path d="M912.778 754.851C913.923 755.079 915.362 755.261 916.33 755.949C918.413 757.43 919.499 761.311 919.596 763.716C919.739 767.258 919.429 769.863 916.939 772.53C915.534 772.594 914.816 772.588 913.492 771.998C911.929 770.329 911.243 768.209 910.891 765.969C910.274 762.032 910.458 758.155 912.778 754.851Z"/>
	<path d="M879.828 746.573C884.396 746.234 888.103 746.36 892.372 748.355C897.564 750.782 901.852 755.198 903.655 760.685C905.554 766.466 905.118 773.226 902.158 778.574C898.939 784.388 893.842 787.599 887.623 789.382C883.01 790.19 878.579 789.77 874.353 787.644C869.151 785.027 865.281 780.23 863.538 774.7Q863.372 774.168 863.234 773.629Q863.095 773.09 862.983 772.544Q862.872 771.999 862.788 771.448Q862.704 770.898 862.647 770.344Q862.591 769.79 862.562 769.234Q862.533 768.678 862.532 768.121Q862.531 767.564 862.559 767.008Q862.586 766.452 862.64 765.898Q862.695 765.344 862.778 764.793Q862.86 764.242 862.97 763.697Q863.08 763.151 863.217 762.611Q863.354 762.071 863.518 761.539Q863.682 761.007 863.872 760.484Q864.063 759.96 864.279 759.447Q864.495 758.934 864.737 758.433Q864.979 757.931 865.245 757.442C868.456 751.558 873.613 748.482 879.828 746.573Z"/>
	<path fill="#FEFEFE" d="M211.492 106.219C236.62 106.202 261.392 113.206 282.11 127.708C312.745 149.15 328.315 177.172 334.764 213.503C318.621 213.662 309.115 212.711 293.276 216.921C292.673 204.83 293.371 192.684 293.106 180.585C293.053 178.173 293.22 174.776 291.426 173.046C289.521 172.428 287.686 172.144 285.687 172.083C268.022 171.543 250.061 172.324 232.358 172.342C201.886 172.374 171.357 171.997 140.894 172.46C139.309 172.484 136.825 172.366 135.39 173.064C134.586 173.455 134.145 174.559 133.961 175.382C132.832 180.433 133.565 186.981 133.583 192.173L133.697 224.681L133.749 256.049C133.728 261.467 133.364 266.994 133.648 272.402C133.754 274.435 133.891 276.435 135.011 278.18C139.708 279.921 184.895 278.851 194.264 278.852L264.173 278.864Q263.956 304.613 264.124 330.363C250.773 335.276 236.465 338.648 222.247 339.351C190.61 340.915 158.724 330.5 135.193 309.065C111.606 287.579 97.1286 259.176 95.6678 227.171C94.3103 197.429 105.735 167.219 125.827 145.327C148.157 120.998 178.661 107.622 211.492 106.219Z"/>
	<path fill="#FEFEFE" d="M694.919 668.252L906.445 668.347L906.467 690.185C897.26 687.527 888.084 686.063 878.485 686.441Q876.579 686.532 874.681 686.715Q872.782 686.898 870.894 687.173Q869.006 687.448 867.133 687.813Q865.261 688.179 863.409 688.635Q861.556 689.091 859.728 689.635Q857.9 690.18 856.1 690.813Q854.3 691.445 852.533 692.164Q850.766 692.883 849.036 693.687Q847.305 694.49 845.616 695.377Q843.927 696.263 842.282 697.23Q840.637 698.197 839.042 699.242Q837.446 700.287 835.902 701.409Q834.359 702.53 832.871 703.725Q831.384 704.919 829.956 706.184Q828.528 707.449 827.163 708.782Q825.798 710.115 824.499 711.512C809.958 727.255 803.079 748.317 804.021 769.57C804.931 790.128 812.748 809.202 828.041 823.226C826.11 833.184 823.299 843.048 820.815 852.884Q836.818 846.149 852.717 839.173C870.06 846.155 886.709 847.754 904.762 842.644Q904.955 859.578 904.835 876.512L841.75 876.558L502.901 876.435L502.879 668.383L694.919 668.252Z"/>
	<path d="M782.144 799.512C782.964 799.529 783.747 799.649 784.546 799.829C786.862 800.352 788.843 801.616 790.028 803.717C791.17 805.741 791.3 808.042 790.527 810.222C789.546 812.992 787.549 814.297 785.037 815.563C783.69 815.543 782.346 815.539 781.066 815.067Q780.676 814.927 780.302 814.748Q779.928 814.569 779.574 814.353Q779.221 814.137 778.891 813.886Q778.561 813.635 778.258 813.352Q777.955 813.069 777.683 812.757Q777.41 812.444 777.171 812.106Q776.932 811.768 776.728 811.407Q776.524 811.046 776.358 810.666Q776.201 810.301 776.082 809.923Q775.962 809.544 775.881 809.156Q775.8 808.768 775.757 808.373Q775.715 807.979 775.712 807.582Q775.709 807.185 775.745 806.79Q775.782 806.395 775.857 806.005Q775.933 805.615 776.046 805.235Q776.16 804.855 776.311 804.488C777.487 801.603 779.351 800.583 782.144 799.512Z"/>
	<path d="M753.447 799.54C754.901 799.439 756.465 799.271 757.894 799.643C760.028 800.198 762.105 801.763 763.148 803.716Q763.313 804.03 763.445 804.358Q763.578 804.687 763.677 805.027Q763.776 805.368 763.841 805.716Q763.906 806.064 763.936 806.417Q763.966 806.771 763.96 807.125Q763.955 807.479 763.914 807.831Q763.874 808.183 763.798 808.53Q763.723 808.876 763.613 809.213C762.651 812.209 760.55 813.59 757.88 814.973C756.488 815.039 755.233 815.028 753.877 814.658C751.676 814.058 749.63 812.542 748.546 810.519C747.641 808.83 747.478 806.888 748.035 805.059C748.893 802.242 751 800.899 753.447 799.54Z"/>
	<path d="M564.805 705.186L733.344 705.352L733.467 834.829C728.846 835.641 723.088 835.027 718.363 835.009L686.825 834.938L565.037 835.148L564.805 705.186Z"/>
	<path fill="#FEFEFE" d="M590.661 783.101C601.647 782.695 612.783 783.152 623.786 783.137C631.643 783.126 640.321 782.394 648.092 783.342C649.573 783.522 650.562 783.741 651.764 784.634C652.394 785.867 652.712 786.61 652.351 788.015C651.938 789.619 651.072 790.28 649.812 791.191C648.885 791.289 647.953 791.382 647.022 791.423C636.426 791.898 625.642 791.509 615.03 791.537C607.549 791.557 599.405 792.218 591.984 791.384C590.823 791.253 589.41 790.713 588.682 789.762C588.168 789.09 587.903 788.302 587.953 787.47C588.083 785.326 589.111 784.357 590.661 783.101Z"/>
	<path fill="#FEFEFE" d="M589.432 735.567C589.571 735.55 589.709 735.532 589.848 735.517C595.243 734.934 601.041 735.357 606.479 735.378L636.663 735.44L679.598 735.456C687.297 735.445 695.181 735.091 702.856 735.481C704.358 735.557 705.911 735.616 707.032 736.768C707.861 737.62 708.119 738.595 708.007 739.763C707.862 741.281 706.957 742.041 705.922 742.994C701.042 743.858 695.692 743.414 690.735 743.389L667.988 743.305C643.801 743.251 619.494 743.797 595.321 743.248C593.831 743.214 590.758 743.394 589.581 742.504C588.606 741.767 588.101 740.923 587.991 739.705C587.839 738.018 588.528 736.903 589.432 735.567Z"/>
	<path fill="#FEFEFE" d="M683.346 759.247C687.481 759.21 703.825 758.273 706.468 760.498C707.545 761.404 707.448 761.773 707.524 763.086C707.205 763.785 706.906 764.45 706.357 765.006C704.907 766.473 702.61 767.295 700.591 767.491C698.097 767.733 695.487 767.389 692.979 767.37L675.166 767.39L613.75 767.527C606.682 767.556 598.387 768.435 591.457 767.429C590.136 767.237 589.397 766.755 588.579 765.701C588.098 764.09 588.194 763.104 588.503 761.463C589.98 760.06 592.599 759.754 594.543 759.571C604.349 758.645 614.95 759.399 624.839 759.396L683.346 759.247Z"/>
	<path fill="#FEFEFE" d="M271.576 308.615C329.229 307.872 386.967 308.674 444.631 308.602L751.863 308.786L751.886 505.481C751.814 544.166 752.328 582.914 751.669 621.59L601.24 621.566L560.903 621.465C552.033 621.44 542.634 620.776 533.888 622.313C524.834 623.903 515.718 628.19 509.171 634.713C494.014 649.813 495.887 669.439 495.928 689.043L495.922 723.378L495.93 769.07L347.751 769.505C347.584 774.466 347.521 779.297 346.674 784.206C339.421 781.38 318.428 771.645 315.248 764.984C314.255 762.904 313.922 760.651 314.825 758.48C317.812 751.298 339.177 744.768 346.367 741.804C347.296 740.149 348.026 738.352 348.812 736.625Q344.386 722.683 340.481 708.586Q409.414 707.699 478.351 708.007L478.307 699.652C462.363 699.235 446.314 699.557 430.361 699.54L336.985 699.398C336.416 698.244 335.851 696.944 335.013 695.961C329.623 689.634 309.347 701.668 301.181 701.181C298.622 701.029 296.43 699.847 294.735 697.949C285.675 687.807 308.125 671.755 308.048 660.55C308.034 658.487 306.93 657.085 305.518 655.727C301.059 651.436 295.353 647.873 290.46 644.035C285.849 640.419 281.569 635.616 276.343 632.939C274.841 632.17 273.031 632.294 271.387 632.296L271.576 308.615Z"/>
	<path d="M498.499 427.647C509.316 427.487 610.052 426.757 612.648 428.576C613.572 429.223 614.076 430.113 614.039 431.263C613.992 432.704 613.227 433.587 612.222 434.513C592.912 435.258 573.354 434.652 554.017 434.682C536.548 434.71 518.736 435.439 501.305 434.667C499.876 434.604 498.683 434.604 497.403 433.846C496.682 432.789 496.383 432.323 496.529 430.954C496.694 429.398 497.436 428.637 498.499 427.647Z"/>
	<path d="M334.966 671.401C351.723 670.926 368.58 671.333 385.346 671.355C408.48 671.385 431.626 671.174 454.758 671.476L454.692 679.493C442.728 680.653 428.26 679.58 416.021 679.557L334.908 679.465L334.966 671.401Z"/>
	<path d="M535.271 398.748L656.392 398.885L685.751 398.909C690.894 398.909 696.813 398.181 701.814 399.343C702.951 400.159 703.394 400.8 704.095 401.971C704.066 402.696 704.203 403.009 703.687 403.597C700.521 407.215 671.036 405.668 665.25 405.649L541.351 405.664C532.295 405.665 504.979 407.102 497.984 405.294C497.049 404.483 496.767 404.204 496.535 402.908C496.331 401.759 496.726 400.666 497.431 399.784C503.047 397.674 527.631 398.745 535.271 398.748Z"/>
	<path d="M497.806 370.09C505.172 369.377 513.052 369.934 520.469 369.962L562.216 369.994Q611.266 369.708 660.316 369.948C672.35 369.985 684.435 369.718 696.461 369.935C698.004 369.962 700.288 369.897 701.668 370.667C702.897 371.353 703.016 371.667 703.466 372.908C703.279 374.484 702.851 375.133 701.976 376.398C694.426 377.977 672.339 376.877 663.533 376.858L579.551 376.912L523.511 376.998C515.923 377.014 505.709 378.015 498.448 376.731C497.182 375.813 497.021 375.683 496.441 374.242C496.578 372.493 496.892 371.58 497.806 370.09Z"/>
	<path d="M383.789 344.687C383.925 344.668 384.059 344.641 384.195 344.631Q385.579 344.514 386.968 344.463Q388.356 344.412 389.745 344.429Q391.134 344.445 392.521 344.528Q393.907 344.611 395.288 344.761Q396.669 344.911 398.042 345.127Q399.414 345.343 400.774 345.625Q402.135 345.907 403.48 346.254Q404.825 346.602 406.152 347.013Q407.479 347.425 408.784 347.899Q410.089 348.374 411.371 348.912Q412.652 349.449 413.905 350.047Q415.159 350.645 416.383 351.303Q417.606 351.961 418.797 352.677Q419.987 353.393 421.142 354.166Q422.296 354.938 423.412 355.766Q424.528 356.593 425.603 357.473Q426.692 358.349 427.737 359.278Q428.782 360.206 429.779 361.186Q430.776 362.165 431.723 363.193Q432.671 364.221 433.566 365.295Q434.461 366.369 435.301 367.485Q436.142 368.602 436.926 369.759Q437.71 370.916 438.436 372.111Q439.161 373.306 439.827 374.535Q440.492 375.764 441.096 377.025Q441.699 378.286 442.24 379.575Q442.78 380.864 443.255 382.179Q443.731 383.493 444.14 384.829Q444.55 386.166 444.893 387.521Q445.235 388.876 445.51 390.247Q445.785 391.617 445.992 393Q446.198 394.382 446.336 395.773C447.824 411.318 443.336 426.338 433.251 438.315C423.999 449.302 410.557 457.223 396.124 458.495C381.063 460.01 366.272 456.284 354.262 446.943Q353.141 446.066 352.063 445.136Q350.986 444.206 349.955 443.225Q348.925 442.243 347.943 441.213Q346.961 440.183 346.031 439.105Q345.101 438.028 344.224 436.907Q343.348 435.786 342.527 434.624Q341.706 433.461 340.942 432.26Q340.179 431.059 339.475 429.822Q338.771 428.585 338.128 427.315Q337.485 426.045 336.905 424.746Q336.325 423.446 335.808 422.12Q335.292 420.794 334.841 419.444Q334.39 418.094 334.006 416.724Q333.621 415.354 333.303 413.966Q332.986 412.579 332.736 411.178Q332.487 409.777 332.306 408.365Q332.135 406.98 332.033 405.589Q331.931 404.197 331.898 402.803Q331.865 401.408 331.901 400.013Q331.937 398.618 332.042 397.227Q332.147 395.836 332.32 394.452Q332.494 393.067 332.736 391.693Q332.977 390.319 333.287 388.959Q333.596 387.598 333.973 386.255Q334.349 384.911 334.792 383.588Q335.234 382.265 335.741 380.965Q336.248 379.666 336.819 378.393Q337.39 377.12 338.024 375.876Q338.657 374.633 339.351 373.423Q340.045 372.212 340.798 371.038Q341.55 369.863 342.361 368.727Q343.171 367.591 344.036 366.497C354.05 353.824 367.839 346.515 383.789 344.687Z"/>
	<path fill="#FEFEFE" d="M404.275 389.843C405.198 389.813 406.823 389.857 407.656 390.318C408.91 391.012 409.032 391.536 409.466 392.795C408.883 398.694 390.367 415.267 385.512 420.154L377.328 412.176C375.11 410.012 372.754 408.095 372.177 404.882C371.909 403.392 372.248 402.498 373.107 401.309C373.66 401.105 374.362 400.719 374.962 400.775C379.147 401.168 382.698 405.993 385.503 408.828C391.612 402.463 397.606 395.609 404.275 389.843Z"/>
	<path d="M574.541 492.75L649.685 492.619C663.274 492.582 677.303 491.728 690.822 492.658C692.449 492.77 693.742 492.78 695.047 493.782C695.715 495.452 695.806 497.207 695.871 498.989C696.644 520.45 695.98 542.171 695.919 563.659C695.897 571.184 697.309 585.996 695.42 592.48L695.062 592.411C692.603 594.473 660.168 593.573 654.625 593.583L570.401 593.633C562.542 593.655 538.927 594.727 533.236 593.269L533.817 592.993L532.936 592.734C532.29 590.53 532.05 588.293 531.972 586.005C531.655 576.777 530.912 498.964 532.623 494.083C536.392 491.787 567.977 492.775 574.541 492.75Z"/>
	<path fill="#FEFEFE" d="M686.204 499.238C687.006 499.234 687.666 499.317 688.453 499.444C689.167 500.497 689.317 500.811 689.394 502.111C689.921 510.96 689.359 520.232 689.361 529.13L689.388 587.017C640.243 587.548 591.028 587.026 541.875 587.103C540.664 587.122 539.779 587.246 538.693 586.629C537.689 577.029 538.482 566.594 538.498 556.887L538.525 499.47L686.204 499.238Z"/>
	<path d="M629.562 513.073Q630.529 513 631.498 512.971C635.523 512.854 637.682 514.112 640.538 516.857C641.163 518.698 641.68 520.583 642.237 522.446Q650.451 525.597 658.486 529.178C659.804 528.35 661.416 527.469 662.953 527.157C665.599 526.619 668.876 527.487 671.012 529.103Q671.36 529.364 671.679 529.659Q671.998 529.954 672.286 530.279Q672.574 530.605 672.828 530.958Q673.081 531.311 673.297 531.688Q673.514 532.065 673.691 532.462Q673.868 532.859 674.004 533.272Q674.141 533.684 674.234 534.109Q674.328 534.533 674.378 534.965C674.734 537.867 673.913 541.226 672.03 543.495C670.542 545.288 668.419 546.328 666.099 546.479Q665.55 546.513 665.001 546.488Q664.452 546.463 663.909 546.381Q663.366 546.298 662.834 546.158Q662.302 546.018 661.789 545.823Q661.275 545.627 660.785 545.378Q660.295 545.13 659.834 544.83Q659.373 544.531 658.946 544.184Q658.52 543.838 658.132 543.448C655.717 541.045 655.015 538.181 655.001 534.87C655 534.677 655.003 534.484 655.004 534.291C653.462 532.443 643.948 529.631 641.148 528.589C639.615 529.825 637.989 531.19 636.221 532.073C633.342 533.51 630.705 532.743 627.783 531.894L614.229 546.194C614.752 549.207 615.522 552.598 614.069 555.469C612.657 558.26 609.053 561.055 606.065 561.911C604.392 562.389 602.736 562.215 601.218 561.364C598.233 559.692 595.521 556.06 594.602 552.785C594.087 550.953 594.03 550.654 592.355 549.54L585.165 545.495C579.648 548.015 548.24 566.047 546.033 566.223C544.689 566.331 544.256 565.489 543.367 564.628C543.135 563.793 542.842 563.357 543.137 562.494C543.695 560.862 545.001 559.842 546.386 558.902C551.322 555.554 557.183 553.082 562.445 550.237C569.902 546.205 577.153 541.759 584.726 537.953C589.401 540.066 593.863 542.868 598.307 545.431C599.577 544.064 600.979 542.776 602.755 542.103C605.12 541.207 607.202 542.03 609.362 543.044C613.719 537.771 618.422 532.757 623.01 527.684C622.274 524.792 621.871 522.171 622.935 519.279C624.116 516.07 626.632 514.512 629.562 513.073Z"/>
	<path d="M325.984 496.511L490.1 496.485Q490.537 560.721 490.108 624.957C435.271 625.595 380.396 624.29 325.557 625.01C325.569 582.195 325.248 539.317 325.984 496.511Z"/>
	<path fill="#FEFEFE" d="M355.225 573.084L387.327 573.058C393.043 573.068 399.285 572.583 404.911 573.476C406.269 573.691 407.157 573.942 408.191 574.905C408.864 576.099 409.145 577.15 408.775 578.501C408.343 580.077 407.672 580.588 406.417 581.471C396.669 582.015 386.723 581.655 376.954 581.663C370.287 581.668 362.878 582.297 356.3 581.357C354.838 581.149 354.046 580.735 352.934 579.786C352.561 578.978 352.263 578.625 352.331 577.701C352.499 575.409 353.547 574.444 355.225 573.084Z"/>
	<path fill="#FEFEFE" d="M354.763 547.998C361.451 547.672 368.265 547.933 374.964 547.933L412.649 547.893L444.114 547.861C449.558 547.858 455.139 547.579 460.565 547.974C461.98 548.076 463.299 548.234 464.476 549.125C465.49 549.893 465.966 551.008 465.937 552.266C465.889 554.307 464.856 555.29 463.43 556.506C445.481 557.456 427.052 556.633 409.062 556.627C391.941 556.621 374.327 557.471 357.254 556.453C355.668 556.359 354.338 556.321 353.002 555.351C352.378 554.312 352.097 553.952 352.159 552.693C352.258 550.655 353.336 549.33 354.763 547.998Z"/>
	<path fill="#FEFEFE" d="M355.247 522.568C376.846 522.281 398.48 522.513 420.083 522.518C432.966 522.521 446.115 521.926 458.95 522.643C460.756 522.743 462.961 522.781 464.456 523.923C465.428 524.666 465.92 525.816 465.909 527.024C465.891 529.124 464.954 530.19 463.409 531.44C443.68 531.951 423.816 531.492 404.077 531.478C389 531.467 373.63 532.074 358.583 531.348C356.162 531.231 354.421 531.27 352.698 529.379C352.233 528.116 352.1 527.321 352.407 526.028C352.844 524.186 353.751 523.518 355.247 522.568Z"/>
</svg>
