<svg xmlns="http://www.w3.org/2000/svg" xmlns:xlink="http://www.w3.org/1999/xlink" version="1.1" x="0px" y="0px" viewBox="0 0 64 80" style="enable-background:new 0 0 64 64;" xml:space="preserve"><path d="M62,48V2H2v46h24v8h-8v6h28v-6h-8v-8H62z M4,4h56v34h-2V6H6v32H4V4z M16,10H8V8h8V10z M8,12h8v2H8V12z M8,16h8v2H8V16z   M8,20h8v2H8V20z M8,24h8v2H8V24z M8,28h8v10H8V28z M18,8h38v30H18V8z M44,58v2H20v-2H44z M28,56v-8h8v8H28z M4,46v-6h56v6H4z"/><circle cx="32" cy="43" r="1"/><path d="M22,13v2c0,0.6-0.4,1-1,1h-1v2h1c0.6,0,1,0.4,1,1v2c0,1.7,1.3,3,3,3h1v-2h-1c-0.6,0-1-0.4-1-1v-2.6c0-0.3-0.1-0.5-0.3-0.7  L23,17l0.7-0.7c0.2-0.2,0.3-0.4,0.3-0.7V13c0-0.6,0.4-1,1-1h1v-2h-1C23.3,10,22,11.3,22,13z"/><path d="M52,27v-2c0-1.7-1.3-3-3-3h-1v2h1c0.6,0,1,0.4,1,1v2.6c0,0.3,0.1,0.5,0.3,0.7L51,29l-0.7,0.7c-0.2,0.2-0.3,0.4-0.3,0.7V33  c0,0.6-0.4,1-1,1h-1v2h1c1.7,0,3-1.3,3-3v-2c0-0.6,0.4-1,1-1h1v-2h-1C52.4,28,52,27.6,52,27z"/><rect x="28" y="12" width="18" height="2"/><rect x="28" y="16" width="18" height="2"/><rect x="28" y="20" width="14" height="2"/><rect x="28" y="24" width="18" height="2"/><rect x="28" y="28" width="18" height="2"/><rect x="28" y="32" width="14" height="2"/><text x="0" y="79" fill="#000000" font-size="5px" font-weight="bold" font-family="'Helvetica Neue', Helvetica, Arial-Unicode, Arial, Sans-serif">Created by I Putu Kharismayadi</text><text x="0" y="84" fill="#000000" font-size="5px" font-weight="bold" font-family="'Helvetica Neue', Helvetica, Arial-Unicode, Arial, Sans-serif">from the Noun Project</text></svg>