<?xml version="1.0" encoding="utf-8" ?>
<svg xmlns="http://www.w3.org/2000/svg" xmlns:xlink="http://www.w3.org/1999/xlink" width="1024" height="1024">
	<path fill="#FEFEFE" d="M0 0L1024 0L1024 1024L0 1024L0 0Z"/>
	<path fill="#010101" d="M547.491 55.2481L700.458 55.2219L741.071 55.2405C752.796 55.2474 764.999 54.5376 776.523 56.976C789.648 59.7536 801.778 66.7589 811.311 76.124C837.959 102.305 832.382 130.802 832.851 164.318C841.124 160.22 850.134 156.396 857.849 151.313C858.528 142.523 857.06 133.624 856.977 124.818Q857.262 124.307 857.562 123.804C860.637 118.692 864.417 116.709 870.02 115.353C878.53 117.351 887.434 126.914 895.308 131.526C903.194 127.579 909.526 121.243 917.245 117.098C918.995 117.122 920.81 117.234 922.513 117.656C927.219 118.823 929.985 122.293 932.457 126.169C932.727 135.006 931.949 143.892 931.988 152.75C938.569 158.431 948.438 160.841 954.279 166.98C957.214 170.065 958.319 174.661 958.023 178.833C957.301 189.015 938.973 192.945 932.02 199.083C931.879 199.207 931.741 199.335 931.602 199.462C931.799 209.21 933.026 218.875 932.456 228.647C930.709 231.441 928.206 234.004 925.184 235.399C915.203 240.009 902.179 224.929 892.083 221.286C891.905 221.222 891.725 221.162 891.546 221.1C884.755 224.846 871.389 235.19 863.984 234.676C860.944 234.465 857.925 232.965 855.967 230.621C850.786 224.421 855.363 205.28 856.036 196.894C848.942 191.659 840.594 188.513 833.525 183.214L833.488 327.608C870.81 327.301 905.93 339.942 933.083 365.894Q934.237 367.018 935.364 368.17Q936.49 369.322 937.588 370.501Q938.686 371.68 939.755 372.886Q940.823 374.091 941.862 375.323Q942.901 376.554 943.91 377.811Q944.918 379.068 945.895 380.348Q946.873 381.629 947.818 382.934Q948.764 384.238 949.678 385.565Q950.591 386.892 951.472 388.241Q952.353 389.591 953.2 390.961Q954.048 392.331 954.861 393.722Q955.675 395.112 956.454 396.523Q957.233 397.933 957.978 399.361Q958.723 400.79 959.432 402.237Q960.141 403.683 960.815 405.147Q961.489 406.61 962.127 408.09Q962.764 409.569 963.366 411.064Q963.967 412.559 964.532 414.068Q965.096 415.577 965.624 417.099Q966.151 418.622 966.641 420.157Q967.131 421.691 967.583 423.238Q968.036 424.784 968.45 426.341Q968.864 427.898 969.24 429.465Q969.616 431.031 969.954 432.607Q970.292 434.182 970.59 435.765Q970.889 437.348 971.15 438.938Q971.41 440.528 971.631 442.124Q971.852 443.72 972.034 445.321Q972.215 446.922 972.358 448.527Q972.501 450.132 972.604 451.739Q972.708 453.347 972.771 454.957Q972.835 456.567 972.86 458.178C973.557 494.139 959.944 527.08 934.927 552.786C907.443 581.028 873.64 592.385 835.008 592.896L835.031 682.933C870.414 685.583 904.008 697.219 929.769 722.593C956.93 749.346 972.355 783.942 972.52 822.299Q972.531 824.103 972.498 825.907Q972.465 827.711 972.387 829.513Q972.309 831.316 972.186 833.116Q972.063 834.916 971.896 836.712Q971.728 838.509 971.516 840.301Q971.304 842.092 971.047 843.878Q970.791 845.664 970.49 847.443Q970.19 849.222 969.845 850.993Q969.5 852.764 969.111 854.526Q968.723 856.287 968.29 858.039Q967.858 859.791 967.383 861.531Q966.907 863.272 966.388 865Q965.87 866.728 965.308 868.442Q964.747 870.157 964.143 871.857Q963.539 873.557 962.893 875.242Q962.247 876.927 961.56 878.595Q960.872 880.263 960.143 881.913Q959.415 883.564 958.645 885.196Q957.876 886.828 957.066 888.44Q956.256 890.052 955.407 891.644Q954.557 893.236 953.669 894.806Q952.78 896.376 951.852 897.923Q950.925 899.471 949.959 900.995Q948.994 902.519 947.99 904.019Q946.987 905.518 945.947 906.993Q944.907 908.467 943.831 909.915Q942.755 911.363 941.643 912.784Q940.531 914.204 939.384 915.597Q938.237 916.99 937.056 918.354Q935.874 919.718 934.66 921.052Q933.445 922.386 932.198 923.689Q930.95 924.993 929.671 926.265C909.182 946.754 883.059 961.573 854.408 966.657C841.517 968.945 828.765 968.742 815.738 968.737L779.838 968.693L656.055 968.531L195.75 968.623L132.991 968.589C123.356 968.587 108.668 969.732 99.574 967.706C94.685 966.617 89.8389 963.991 86.2227 960.523C78.286 952.911 76.4035 944.511 76.2881 933.829C75.6036 870.433 76.5489 806.973 76.41 743.569L76.224 683.614C76.1399 672.526 75.0304 660.257 76.497 649.295C77.3397 642.996 80.4714 637.341 84.9184 632.863Q85.6454 632.139 86.4211 631.468Q87.1969 630.797 88.0177 630.182Q88.8386 629.567 89.7004 629.011Q90.5622 628.455 91.4608 627.96Q92.3594 627.466 93.2904 627.036Q94.2214 626.605 95.1803 626.241Q96.1391 625.877 97.1211 625.58Q98.103 625.284 99.1033 625.057C107.722 623.159 124.017 624.417 133.394 624.414L206.798 624.277C207.245 610.821 206.924 597.243 206.935 583.773Q207.03 544.027 206.635 504.283C202.21 504.803 197.788 505.529 193.375 506.155C191.167 512.125 188.606 517.508 185.437 523.036C189.019 528.421 192.579 533.86 195.484 539.645C190.303 545.335 183.561 551.325 177.142 555.574Q169.742 550.942 162.589 545.936C156.812 549.285 151.516 551.525 145.114 553.433C144.546 559.566 144.236 565.973 142.721 571.949C136.307 572.453 121.835 572.746 115.975 571.307C113.357 567.722 113.553 558.297 113.029 553.9C106.583 552.242 101.023 549.486 95.4429 545.914C90.4128 548.759 85.817 552.365 80.8419 555.334C74.6939 549.927 68.0316 544.588 62.8754 538.199C65.1314 532.634 68.1505 527.717 71.4678 522.727C68.5388 517.422 66.443 511.763 64.2164 506.14C58.9481 504.633 52.2274 504.562 47.4352 502.174C45.779 497.541 45.8842 482.206 47.3269 477.494C51.6756 474.821 58.7235 474.568 63.7461 473.805C65.9619 466.933 68.1856 460.572 71.7702 454.276C69.0107 449.231 65.4485 444.231 63.4568 438.849C68.4495 432.368 75.3591 425.89 81.6774 420.712C86.4022 423.797 90.767 427.609 95.1865 431.118C100.786 428.094 106.511 425.724 112.485 423.569C112.729 419.671 111.42 408.133 114.018 405.338C119.869 403.527 135.479 403.735 141.415 405.424C143.698 407.673 142.931 418.966 143.449 422.618L143.566 423.41C150.46 425.641 156.602 428.235 162.963 431.705C167.211 427.651 171.374 423.226 176.75 420.699C182.963 425.213 192.924 434.346 196.88 440.796C193.683 445.74 189.159 450.079 185.163 454.388C188.612 460.214 190.861 466.61 193.249 472.918C197.652 473.576 202.102 473.903 206.535 474.297L206.917 363.887C201.708 363.795 184.63 365.324 180.99 362.773C179.721 361.004 179.147 359.339 178.792 357.188C178.021 352.528 178.483 347.347 178.489 342.61L178.396 318.725C168.127 315.266 158.592 311.352 149.164 305.963C144.891 310.242 120.363 336.289 117.328 336.434C115.444 336.524 114.221 336.058 112.871 334.805C107.459 329.779 102.444 324.076 97.2619 318.793C92.3102 313.746 86.7115 308.731 82.287 303.226C81.327 302.031 79.0539 299.172 79.1903 297.625C79.5262 293.814 105.81 269.236 110.319 264.809C106.191 256.336 102.577 247.789 100.02 238.699C93.1623 238.833 59.5256 240.457 55.7594 237.346C54.0831 235.961 53.5508 233.341 53.3607 231.281C52.8861 226.138 53.3732 220.6 53.3407 215.408C53.2908 207.434 52.4757 198.621 53.444 190.734C53.6786 188.823 54.1002 186.694 55.473 185.258C57.6768 182.952 93.4293 184.053 99.1652 184.082C101.874 174.516 105.489 165.481 109.618 156.453C103.559 149.957 85.3832 132.665 81.9419 125.999C82.0871 123.496 83.9251 120.91 85.3787 118.935C88.8357 114.239 109.121 89.4937 112.393 86.8778C113.294 86.1576 114.422 85.7966 115.554 85.6519C116.849 85.4864 118.119 85.6101 119.254 86.3084C122.566 88.3446 125.448 91.6679 128.233 94.3749C134.869 100.827 141.413 107.991 148.765 113.611L149.391 114.086C157.996 109.267 166.466 105.745 175.709 102.39C175.947 91.6076 174.621 74.4067 175.947 64.5199C176.306 61.8383 177.117 59.5673 179.437 57.9912C180.61 57.1951 182.076 56.8129 183.474 56.6892C189.796 56.1296 222.707 55.8768 228.129 56.9279C230.662 57.419 232.125 59.8672 233.472 61.8183C233.705 75.1066 233.521 88.431 233.538 101.723C244.234 104.385 253.659 109.58 263.139 115.016C273.539 103.263 281.669 89.194 292.642 78.0874C303.456 67.1419 317.792 60.2995 332.773 57.234C344.742 54.7848 357.05 55.323 369.2 55.3098L408.124 55.3013L547.491 55.2481Z"/>
	<path fill="#FEFEFE" d="M295.871 672.422C306.041 671.96 316.354 672.273 326.543 672.269Q351.247 672.178 375.95 672.47L375.991 682.127L295.901 682.061L295.871 672.422Z"/>
	<path fill="#FEFEFE" d="M168.806 657.099C172.075 657.029 175.109 657.573 178.053 659.055Q178.719 659.388 179.349 659.786Q179.978 660.184 180.564 660.644Q181.15 661.104 181.686 661.62Q182.223 662.137 182.705 662.705Q183.187 663.273 183.609 663.886Q184.031 664.5 184.389 665.153Q184.747 665.806 185.038 666.492Q185.328 667.177 185.548 667.889Q185.79 668.682 185.953 669.495Q186.117 670.308 186.2 671.133Q186.284 671.958 186.286 672.788Q186.289 673.617 186.211 674.442Q186.133 675.268 185.975 676.082Q185.816 676.896 185.579 677.691Q185.343 678.486 185.03 679.253Q184.716 680.021 184.33 680.755C181.853 685.418 178.01 687.566 173.186 689.127C169.565 689.524 166.154 689.139 162.934 687.31C159.177 685.177 156.546 681.471 155.525 677.296Q155.335 676.513 155.222 675.716Q155.11 674.918 155.076 674.113Q155.043 673.308 155.089 672.504Q155.135 671.7 155.26 670.904Q155.385 670.108 155.587 669.328Q155.79 668.548 156.068 667.793Q156.346 667.037 156.698 666.312Q157.049 665.587 157.47 664.9C160.109 660.552 163.986 658.316 168.806 657.099Z"/>
	<path fill="#FEFEFE" d="M125.981 657.125C129.37 657.115 132.25 657.616 135.223 659.304Q135.919 659.703 136.572 660.17Q137.225 660.637 137.827 661.168Q138.43 661.698 138.976 662.286Q139.522 662.874 140.006 663.514Q140.491 664.154 140.908 664.84Q141.326 665.525 141.672 666.249Q142.019 666.973 142.291 667.728Q142.563 668.483 142.758 669.262Q142.953 670.036 143.069 670.825Q143.185 671.614 143.221 672.411Q143.256 673.208 143.211 674.004Q143.167 674.801 143.042 675.588Q142.916 676.376 142.713 677.147Q142.509 677.919 142.228 678.665Q141.947 679.412 141.593 680.126Q141.238 680.841 140.813 681.516C138.056 685.906 134.218 687.903 129.351 689.073C125.356 689.205 122.011 688.763 118.548 686.603Q117.867 686.179 117.232 685.688Q116.598 685.196 116.016 684.643Q115.435 684.089 114.914 683.479Q114.392 682.87 113.935 682.21Q113.478 681.55 113.091 680.847Q112.704 680.144 112.391 679.405Q112.078 678.666 111.841 677.899Q111.605 677.132 111.448 676.345Q111.282 675.546 111.199 674.734Q111.115 673.922 111.115 673.106Q111.114 672.29 111.197 671.479Q111.279 670.667 111.444 669.867Q111.608 669.068 111.853 668.29Q112.099 667.511 112.422 666.762Q112.745 666.013 113.142 665.3Q113.54 664.588 114.008 663.919C116.964 659.763 121.119 658.002 125.981 657.125Z"/>
	<path fill="#FEFEFE" d="M108.342 823.544L161.694 823.531L161.585 841.801Q134.959 841.9 108.334 841.623C108.228 835.603 108.329 829.565 108.342 823.544Z"/>
	<path fill="#FEFEFE" d="M220.838 321.26L221.921 321.216C223.436 323.418 222.565 348.14 222.546 352.543L190.875 352.643L189.87 352.187C188.612 345.428 189.637 329.111 189.685 321.422C200.214 321.525 210.283 321.93 220.838 321.26Z"/>
	<path fill="#FEFEFE" d="M116.306 99.2568C123.615 104.32 132.888 114.494 139.565 120.818C131.478 128.221 123.658 135.631 116.882 144.295C116.359 144.964 116.011 145.228 115.322 145.693C111.579 143.355 99.0455 128.966 95.2097 124.767C101.784 115.914 109.455 107.901 116.306 99.2568Z"/>
	<path fill="#FEFEFE" d="M64.5384 195.346C75.5137 195.146 86.5309 195.337 97.5099 195.356C96.0281 205.93 96.5137 216.254 97.3612 226.84C95.9178 228.193 68.5167 227.548 64.6312 227.537L64.5384 195.346Z"/>
	<path fill="#FEFEFE" d="M315.251 193.509L346.442 193.598C347.328 202.735 347.185 218.417 346.469 227.647L315.437 227.617C316.964 216.089 316.148 205.012 315.251 193.509Z"/>
	<path fill="#FEFEFE" d="M297.113 274.474C304.726 282.034 311.698 290.347 319.177 298.067C311.02 305.676 303.239 313.804 295.378 321.722L294.785 321.528L295.012 321.817C293.636 320.997 276.372 302.578 273.681 299.636C282.202 291.714 289.745 283.476 297.113 274.474Z"/>
	<path fill="#FEFEFE" d="M116.186 275.387C118.569 276.514 121.211 280.669 123.03 282.775C128.17 288.728 133.392 294.292 139.296 299.506C131.486 306.935 124.405 315.103 116.661 322.604C108.235 315.736 100.891 306.396 93.6152 298.294Q104.425 286.372 116.186 275.387Z"/>
	<path fill="#FEFEFE" d="M187.391 67.6666Q204.853 67.578 222.314 67.7587C222.358 76.9981 223.387 90.4342 221.975 99.1531C210.203 98.012 199.061 98.2931 187.35 99.6772Q187.158 83.6714 187.391 67.6666Z"/>
	<path fill="#FEFEFE" d="M291.998 98.4047C295.32 100.946 298.397 104.531 301.354 107.506Q311.589 117.703 321.438 128.274C314.343 135.291 307.93 143.074 301.399 150.611C300.97 150.96 300.477 151.205 299.998 151.48C296.305 148.326 293.886 143.003 290.642 139.283C285.166 133.001 278.89 127.335 273.096 121.335C279.713 114.069 285.741 105.994 291.998 98.4047Z"/>
	<path fill="#FEFEFE" d="M694.011 85.1253C698.952 84.7767 703.434 85.408 707.774 87.9461Q708.284 88.2492 708.779 88.5771Q709.273 88.905 709.751 89.2571Q710.229 89.6091 710.689 89.9843Q711.149 90.3595 711.589 90.7571Q712.03 91.1546 712.45 91.5734Q712.871 91.9923 713.27 92.4314Q713.669 92.8705 714.046 93.3289Q714.423 93.7873 714.777 94.2637Q715.131 94.7402 715.461 95.2335Q715.791 95.7269 716.096 96.236Q716.401 96.7451 716.68 97.2687Q716.96 97.7922 717.213 98.329Q717.466 98.8657 717.692 99.4144Q717.919 99.963 718.117 100.522Q718.316 101.081 718.487 101.65Q718.658 102.218 718.801 102.794Q718.94 103.365 719.05 103.942Q719.16 104.519 719.24 105.101Q719.32 105.683 719.37 106.268Q719.419 106.853 719.439 107.441Q719.458 108.028 719.447 108.615Q719.437 109.202 719.395 109.788Q719.354 110.374 719.283 110.958Q719.212 111.541 719.11 112.119Q719.009 112.698 718.878 113.271Q718.747 113.843 718.587 114.408Q718.426 114.973 718.237 115.53Q718.048 116.086 717.83 116.631Q717.612 117.177 717.367 117.71Q717.121 118.244 716.848 118.764Q716.576 119.285 716.276 119.79Q715.977 120.296 715.652 120.785C711.749 126.646 706.244 129.225 699.598 130.682C694.309 131.174 689.383 130.559 684.721 127.796Q684.217 127.494 683.729 127.168Q683.241 126.841 682.771 126.49Q682.3 126.138 681.848 125.764Q681.396 125.389 680.963 124.992Q680.531 124.595 680.119 124.176Q679.707 123.757 679.317 123.318Q678.927 122.879 678.56 122.421Q678.193 121.963 677.85 121.486Q677.506 121.01 677.188 120.516Q676.869 120.023 676.576 119.514Q676.283 119.006 676.016 118.483Q675.749 117.96 675.509 117.424Q675.269 116.888 675.056 116.34Q674.844 115.793 674.66 115.235Q674.475 114.678 674.319 114.112Q674.164 113.545 674.037 112.972Q673.918 112.428 673.825 111.878Q673.733 111.328 673.668 110.775Q673.602 110.222 673.564 109.666Q673.526 109.11 673.515 108.552Q673.504 107.995 673.521 107.438Q673.537 106.881 673.581 106.326Q673.625 105.77 673.695 105.217Q673.766 104.665 673.864 104.116Q673.962 103.567 674.086 103.024Q674.211 102.481 674.362 101.945Q674.513 101.408 674.69 100.88Q674.867 100.351 675.07 99.8322Q675.273 99.3131 675.501 98.8046Q675.729 98.2961 675.981 97.7993Q676.234 97.3026 676.51 96.8188Q676.787 96.335 677.087 95.8653C681.066 89.5882 687.047 86.7619 694.011 85.1253Z"/>
	<path fill="#FEFEFE" d="M559.924 85.1117C565.137 84.6984 569.803 85.0299 574.509 87.6233Q575.031 87.9101 575.537 88.2231Q576.044 88.5361 576.534 88.8744Q577.024 89.2127 577.496 89.5755Q577.969 89.9383 578.422 90.3247Q578.875 90.711 579.308 91.1199Q579.741 91.5288 580.152 91.9592Q580.564 92.3896 580.953 92.8403Q581.342 93.2911 581.708 93.761Q582.074 94.231 582.415 94.7189Q582.757 95.2069 583.073 95.7115Q583.389 96.2162 583.679 96.7363Q583.969 97.2564 584.232 97.7906Q584.495 98.3247 584.731 98.8716Q584.967 99.4184 585.175 99.9766Q585.382 100.535 585.561 101.103Q585.74 101.671 585.89 102.247C587.471 108.297 586.721 114.838 583.383 120.172C579.83 125.852 574.631 129.041 568.228 130.5C562.807 130.805 557.907 130.712 552.977 128.052Q552.46 127.772 551.957 127.466Q551.455 127.16 550.968 126.83Q550.481 126.5 550.012 126.146Q549.542 125.792 549.09 125.415Q548.639 125.038 548.207 124.639Q547.774 124.24 547.362 123.82Q546.95 123.401 546.56 122.961Q546.169 122.521 545.801 122.063Q545.432 121.604 545.087 121.128Q544.742 120.652 544.421 120.159Q544.1 119.666 543.803 119.158Q543.507 118.65 543.236 118.128Q542.966 117.605 542.721 117.07Q542.477 116.535 542.259 115.989Q542.042 115.443 541.852 114.886Q541.661 114.329 541.499 113.764C539.911 108.026 540.951 101.644 543.917 96.5254C547.49 90.3567 553.191 86.8793 559.924 85.1117Z"/>
	<path fill="#FEFEFE" d="M629.138 85.1976C634.458 85.024 639.461 86.1779 643.828 89.3642Q644.306 89.7173 644.766 90.0939Q645.226 90.4705 645.666 90.8697Q646.106 91.269 646.526 91.6898Q646.946 92.1106 647.344 92.552Q647.742 92.9934 648.118 93.4542Q648.493 93.9151 648.845 94.3941Q649.197 94.8732 649.524 95.3694Q649.851 95.8655 650.153 96.3775Q650.455 96.8894 650.731 97.4159Q651.007 97.9424 651.256 98.482Q651.505 99.0217 651.727 99.5732Q651.949 100.125 652.143 100.687Q652.336 101.248 652.502 101.819Q652.667 102.39 652.803 102.969Q652.94 103.547 653.047 104.132Q653.154 104.717 653.232 105.306C654.035 111.462 652.041 117.786 648.127 122.569C643.664 128.022 637.983 130.105 631.201 130.828C626.262 131.235 621.05 129.744 617.004 126.912Q616.522 126.573 616.057 126.211Q615.593 125.849 615.147 125.464Q614.701 125.079 614.274 124.673Q613.848 124.266 613.442 123.839Q613.037 123.412 612.653 122.965Q612.269 122.518 611.908 122.052Q611.547 121.587 611.21 121.104Q610.873 120.621 610.56 120.122Q610.247 119.622 609.959 119.108Q609.672 118.594 609.41 118.066Q609.148 117.539 608.913 116.998Q608.678 116.458 608.471 115.907Q608.263 115.356 608.083 114.795Q607.902 114.234 607.75 113.665Q607.598 113.096 607.475 112.52Q607.352 111.943 607.257 111.362C606.318 105.21 608.254 98.7726 612.044 93.8873C616.435 88.2273 622.228 85.9366 629.138 85.1976Z"/>
	<path fill="#FEFEFE" d="M108.13 903.682C133.335 903.125 158.689 903.645 183.908 903.631C221.284 903.609 258.687 903.279 296.06 903.677L295.989 921.985L108.15 922Q107.97 912.841 108.13 903.682Z"/>
	<path fill="#FEFEFE" d="M194.747 823.523L385.464 823.521C385.574 828.909 386.653 836.693 385.337 841.796C363.738 842.223 342.089 841.962 320.482 841.954L194.788 841.708L194.747 823.523Z"/>
	<path fill="#FEFEFE" d="M124.165 453.617C132.463 452.632 140.424 454.323 147.437 458.91C155.22 463.999 161.158 472.447 163 481.598C164.853 490.806 162.621 500.819 157.385 508.57C151.944 516.626 143.543 521.569 134.109 523.44C125.118 524.406 117.215 523.348 109.59 518.202C101.802 512.945 95.6742 504.502 93.904 495.193C92.1511 485.975 94.5619 476.325 99.8237 468.632C105.591 460.201 114.296 455.523 124.165 453.617Z"/>
	<path fill="#FEFEFE" d="M868.47 126.346C870.665 127.367 872.582 129.109 874.504 130.568C880.992 135.492 887.111 140.813 895.008 143.253C905.248 140.848 913.363 133.001 921.911 127.201C921.576 135.317 919.044 148.642 921.493 156.083C924.162 164.191 934.83 168.188 941.753 171.841C943.596 172.813 946.65 174.121 947.291 176.17C941.542 182.88 930.606 183.996 924.199 190.334C917.231 197.227 921.417 216.293 921.408 225.417C913.623 224.469 905.829 213.684 897.762 210.986C886.477 207.211 874.892 219.025 865.297 223.687L864.643 224.001C865.159 217.1 868.156 199.603 866.617 194.099C864.031 184.853 848.344 180.918 841.996 175.734C840.923 174.858 840.985 174.272 840.873 173.013C842.429 170.773 860.608 163.193 865.092 159.497C866.446 158.381 867.988 157.016 868.552 155.291C870.301 149.942 867.712 133.606 868.47 126.346Z"/>
	<path fill="#FEFEFE" d="M141.893 863.749L385.501 863.597L385.481 882.195C374.42 882.592 363.317 882.44 352.25 882.473L108.301 882.472Q108.221 873.178 108.322 863.884L141.893 863.749Z"/>
	<path fill="#FEFEFE" d="M521.721 777.527L695.437 777.815Q692.438 788.276 690.125 798.91L665.938 815.651C651.374 825.213 635.546 837.358 620.664 845.698C616.223 843.415 612.07 840.243 607.939 837.428L581.707 819.283L545.716 794.754C537.74 789.352 528.645 784.19 521.721 777.527Z"/>
	<path fill="#FEFEFE" d="M511.874 785.443C520.221 789.567 535.318 801.08 543.564 806.816L592.726 840.334C598.976 844.621 611.059 854.805 617.974 856.001C620.694 856.471 623.604 856.339 626.16 855.235C633.233 852.18 640.132 846.524 646.562 842.199Q667.621 828.082 688.447 813.623C688.222 837.249 690.047 856.507 698.48 878.891C702.319 888.271 707.471 896.794 712.479 905.567L579.976 905.887L541.433 905.942C534.948 905.955 528.042 906.453 521.598 905.787C518.948 905.513 516.666 904.861 514.774 902.881C512.692 900.703 512.318 897.916 512.006 895.041C510.768 883.624 511.71 870.072 511.7 858.359Q511.545 821.9 511.874 785.443Z"/>
	<path fill="#FEFEFE" d="M263.797 305.96C266.469 308.629 269.045 311.406 271.654 314.138C272.162 327.486 271.88 340.937 271.888 354.296L271.967 420.995L271.862 624.414C256.676 624.727 241.442 624.504 226.25 624.527L218.405 624.507L218.163 363.693C222.735 363.772 227.806 364.573 231.901 362.2C235.283 357.541 234.017 326.626 234.035 318.945C244.706 315.607 254 311.298 263.797 305.96Z"/>
	<path fill="#FEFEFE" d="M198.354 131.689C198.496 131.666 198.638 131.638 198.781 131.62C216.759 129.328 237.21 136.233 251.564 146.823Q253.13 147.979 254.637 149.211Q256.145 150.443 257.589 151.747Q259.034 153.052 260.413 154.426Q261.792 155.8 263.102 157.24Q264.412 158.68 265.65 160.182Q266.887 161.685 268.049 163.247Q269.211 164.808 270.295 166.425Q271.379 168.042 272.383 169.71Q273.386 171.378 274.306 173.094Q275.226 174.809 276.06 176.568Q276.895 178.327 277.642 180.124Q278.389 181.922 279.047 183.754Q279.705 185.586 280.272 187.448Q280.839 189.31 281.314 191.198Q281.789 193.086 282.17 194.995Q282.552 196.904 282.839 198.829C285.823 218.688 280.902 240.122 268.938 256.308C255.707 274.21 237.553 285.075 215.597 288.382C195.574 290.563 176.036 285.995 159.861 273.659Q159.081 273.052 158.317 272.426Q157.552 271.8 156.804 271.156Q156.055 270.511 155.323 269.848Q154.59 269.185 153.874 268.504Q153.158 267.824 152.459 267.125Q151.76 266.427 151.079 265.712Q150.397 264.996 149.734 264.264Q149.07 263.532 148.425 262.784Q147.78 262.036 147.153 261.272Q146.527 260.508 145.919 259.729Q145.312 258.95 144.724 258.156Q144.136 257.362 143.567 256.554Q142.999 255.746 142.451 254.924Q141.903 254.102 141.375 253.266Q140.848 252.431 140.341 251.583Q139.834 250.735 139.348 249.875Q138.863 249.014 138.398 248.142Q137.934 247.27 137.491 246.387Q137.049 245.504 136.628 244.61Q136.207 243.716 135.809 242.812Q135.411 241.908 135.035 240.994Q134.659 240.08 134.305 239.158Q133.952 238.235 133.622 237.304Q133.291 236.373 132.984 235.434Q132.677 234.495 132.393 233.548Q132.109 232.602 131.849 231.649Q131.588 230.696 131.351 229.737Q131.114 228.778 130.901 227.813Q130.688 226.848 130.499 225.879Q130.31 224.909 130.145 223.935Q129.98 222.961 129.839 221.983Q129.698 221.005 129.581 220.024Q129.455 219.05 129.353 218.072Q129.251 217.095 129.173 216.116Q129.095 215.136 129.042 214.155Q128.988 213.174 128.959 212.192Q128.929 211.21 128.924 210.227Q128.919 209.244 128.938 208.262Q128.957 207.28 129 206.298Q129.043 205.316 129.111 204.336Q129.178 203.356 129.27 202.378Q129.362 201.399 129.477 200.424Q129.593 199.448 129.733 198.475Q129.873 197.503 130.036 196.534Q130.2 195.565 130.388 194.6Q130.575 193.636 130.786 192.676Q130.998 191.717 131.233 190.763Q131.467 189.809 131.726 188.861Q131.984 187.913 132.266 186.971Q132.548 186.03 132.852 185.096Q133.157 184.162 133.485 183.235Q133.813 182.309 134.163 181.391Q134.514 180.473 134.887 179.564Q135.26 178.655 135.655 177.756Q136.05 176.856 136.468 175.967Q136.885 175.077 137.324 174.198Q137.764 173.319 138.224 172.451Q138.685 171.584 139.167 170.727Q139.649 169.871 140.152 169.027Q140.655 168.183 141.179 167.352Q141.702 166.52 142.246 165.702Q142.79 164.884 143.355 164.079Q143.919 163.275 144.502 162.484Q145.086 161.694 145.689 160.918C158.682 144.28 177.559 134.326 198.354 131.689Z"/>
	<path fill="#010101" d="M240.045 176.787C242.309 177.639 251.635 188.78 254.009 191.318C243.438 203.435 231.295 214.649 219.993 226.115C213.444 232.758 205.079 242.6 198.019 247.924L177.885 225.775L162.581 209.262L176.487 195.111C183.791 202.835 191.672 210.072 199.162 217.624C205.83 212.181 211.616 205.475 217.625 199.325C225.029 191.748 232.646 184.377 240.045 176.787Z"/>
	<path fill="#FEFEFE" d="M827.382 731.568C830.255 731.426 833.39 731.863 835.909 733.329C841.861 736.792 848.078 744.46 853.15 749.442L887.09 782.841C896.167 791.74 906.267 800.073 914.722 809.539C917.038 812.132 918.965 815.15 919.911 818.518C921.459 824.028 920.182 829.905 917.277 834.732C912.88 842.041 899.504 853.3 893.012 859.867Q876.238 877.037 859.115 893.858C853.504 899.444 847.825 906.036 841.554 910.83C838.746 912.977 835.817 914.063 832.431 914.868C832.301 914.887 832.171 914.907 832.04 914.924L831.388 915.004C826.777 915.615 822.541 914.673 818.465 912.474C811.528 908.732 797.304 892.277 790.797 885.832Q774.476 869.888 758.478 853.62C753.506 848.594 748.107 843.691 743.554 838.293C741.606 835.985 740.267 833.399 739.442 830.493C737.653 824.192 739.095 817.929 742.353 812.387C747.161 804.211 756.075 797.06 762.83 790.334Q782.225 770.651 802.357 751.723C807.948 746.387 813.274 740.444 819.297 735.605C821.906 733.509 824.135 732.389 827.382 731.568Z"/>
	<path fill="#010101" d="M809.098 754.395C812.148 755.66 871.148 815.528 878.712 822.921C866.664 835.342 854.045 847.254 841.637 859.317C832.654 868.212 817.202 884.99 807.44 891.618C805.92 890.995 804.451 890.226 802.976 889.503C804 858.175 803.429 826.667 803.43 795.321C803.43 786.572 802.397 765.032 804.083 757.376C805.354 755.811 807.297 755.197 809.098 754.395Z"/>
	<path fill="#FEFEFE" d="M109.339 717.235C140.655 716.314 172.204 717.017 203.541 716.992L385.034 716.962L385.026 758.603C385.015 769.207 385.21 779.9 384.572 790.486C344.677 790.934 304.762 790.582 264.864 790.588L109.19 790.573C108.441 766.304 108.586 741.488 109.339 717.235Z"/>
	<path fill="#FEFEFE" d="M452.434 728.75L724.5 728.564C714.523 740.204 706.247 752.562 699.995 766.609L569.742 766.666L535.934 766.665C529.055 766.668 521.558 766.119 514.767 767.341C511.321 767.961 508.285 769.869 505.814 772.32C501.46 776.638 500.596 781.203 500.476 787.06C499.977 811.444 500.436 835.942 500.451 860.338C500.457 871.198 499.34 891.266 501.242 900.99C501.92 904.457 504.459 908.13 506.92 910.586C509.908 913.57 513.89 915.792 518.047 916.617C525.652 918.128 545.275 917.06 554 917.043L632.608 917.051C662.347 917.028 692.114 916.743 721.85 917.106C736.394 934.254 754.14 948.165 775.149 956.437L538.61 956.374C495.748 956.36 452.782 957.031 409.936 956.109C412.906 952.153 415.486 947.658 416.186 942.698C417.222 935.353 416.575 927.139 416.568 919.702L416.546 877.326L416.653 728.903C428.574 728.724 440.511 728.8 452.434 728.75Z"/>
	<path fill="#FEFEFE" d="M832.669 339.712C860.918 337.292 894.538 348.907 916.413 366.609Q917.561 367.541 918.686 368.5Q919.811 369.459 920.912 370.445Q922.013 371.432 923.09 372.444Q924.167 373.457 925.219 374.496Q926.271 375.535 927.298 376.599Q928.324 377.663 929.324 378.751Q930.324 379.84 931.298 380.952Q932.271 382.065 933.218 383.201Q934.164 384.337 935.082 385.496Q936 386.654 936.89 387.835Q937.78 389.015 938.64 390.217Q939.501 391.419 940.333 392.642Q941.164 393.864 941.965 395.107Q942.767 396.349 943.537 397.61Q944.308 398.872 945.048 400.152Q945.788 401.432 946.497 402.729Q947.206 404.026 947.883 405.341Q948.559 406.655 949.204 407.985Q949.849 409.316 950.461 410.661Q951.073 412.007 951.652 413.367Q952.232 414.727 952.778 416.101Q953.324 417.475 953.836 418.862Q954.349 420.248 954.827 421.647Q955.306 423.046 955.75 424.456Q956.195 425.866 956.605 427.286Q957.015 428.707 957.39 430.137Q957.765 431.566 958.106 433.005Q958.446 434.444 958.751 435.89Q959.057 437.337 959.327 438.79Q959.597 440.244 959.832 441.703Q960.066 443.163 960.266 444.628Q960.465 446.093 960.628 447.562Q960.79 449.02 960.916 450.481Q961.042 451.942 961.132 453.406Q961.222 454.87 961.275 456.335Q961.329 457.801 961.347 459.267Q961.365 460.734 961.346 462.2Q961.328 463.667 961.274 465.132Q961.219 466.598 961.129 468.061Q961.038 469.525 960.911 470.986Q960.785 472.448 960.622 473.905Q960.46 475.363 960.262 476.816Q960.063 478.269 959.829 479.717Q959.595 481.164 959.325 482.606Q959.056 484.048 958.751 485.482Q958.446 486.917 958.105 488.343Q957.765 489.77 957.39 491.187Q957.015 492.605 956.605 494.013Q956.195 495.421 955.75 496.819Q955.305 498.216 954.826 499.603Q954.348 500.989 953.835 502.363Q953.322 503.737 952.775 505.098Q952.229 506.458 951.649 507.806Q951.069 509.153 950.456 510.485Q949.843 511.817 949.198 513.134Q948.552 514.451 947.874 515.752Q947.197 517.052 946.487 518.336Q945.777 519.619 945.036 520.885Q944.296 522.151 943.524 523.398Q942.752 524.645 941.949 525.872Q941.147 527.1 940.315 528.307Q939.482 529.515 938.621 530.701Q937.759 531.888 936.868 533.053Q935.977 534.218 935.058 535.361Q934.093 536.561 933.098 537.736Q932.104 538.911 931.08 540.061Q930.056 541.211 929.004 542.335Q927.953 543.46 926.873 544.557Q925.793 545.655 924.687 546.725Q923.58 547.796 922.447 548.838Q921.314 549.881 920.156 550.895Q918.997 551.909 917.814 552.894Q916.63 553.879 915.423 554.834Q914.215 555.789 912.984 556.713Q911.753 557.638 910.499 558.532Q909.246 559.425 907.97 560.288Q906.695 561.15 905.398 561.98Q904.102 562.81 902.785 563.608Q901.468 564.406 900.131 565.17Q898.795 565.935 897.44 566.666Q896.085 567.397 894.712 568.094Q893.34 568.791 891.95 569.454Q890.56 570.117 889.155 570.744Q887.749 571.372 886.328 571.965Q884.907 572.558 883.472 573.115Q882.036 573.672 880.588 574.193Q879.139 574.714 877.678 575.199Q876.216 575.684 874.743 576.133Q873.271 576.581 871.787 576.992Q870.303 577.404 868.81 577.779Q867.317 578.153 865.814 578.49Q864.312 578.827 862.802 579.127Q861.292 579.427 859.775 579.689Q858.258 579.951 856.734 580.175Q855.211 580.399 853.683 580.585Q852.154 580.771 850.622 580.919Q848.885 581.081 847.145 581.213C817.355 583.437 784.811 572.259 762.273 552.692Q761.144 551.723 760.039 550.726Q758.934 549.729 757.854 548.705Q756.775 547.682 755.721 546.631Q754.667 545.581 753.639 544.504Q752.612 543.428 751.611 542.326Q750.611 541.225 749.638 540.099Q748.666 538.973 747.721 537.823Q746.777 536.673 745.861 535.5Q744.945 534.327 744.059 533.132Q743.173 531.936 742.317 530.719Q741.461 529.502 740.635 528.265Q739.809 527.027 739.015 525.769Q738.22 524.51 737.457 523.233Q736.693 521.956 735.962 520.66Q735.231 519.364 734.532 518.05Q733.833 516.736 733.168 515.406Q732.502 514.075 731.869 512.728Q731.236 511.381 730.637 510.019Q730.038 508.657 729.473 507.28Q728.908 505.904 728.378 504.514Q727.847 503.123 727.351 501.72Q726.855 500.317 726.395 498.903Q725.934 497.488 725.508 496.062Q725.083 494.636 724.693 493.2Q724.302 491.764 723.948 490.319Q723.594 488.874 723.276 487.42Q722.958 485.966 722.676 484.505Q722.394 483.044 722.148 481.577Q721.903 480.109 721.694 478.636Q721.485 477.162 721.312 475.684Q721.14 474.206 721.004 472.725Q720.869 471.243 720.77 469.758Q720.664 468.211 720.596 466.661Q720.528 465.112 720.497 463.561Q720.467 462.01 720.475 460.459Q720.483 458.908 720.529 457.358Q720.575 455.808 720.659 454.259Q720.742 452.71 720.864 451.164Q720.986 449.618 721.146 448.075Q721.305 446.532 721.503 444.994Q721.7 443.456 721.935 441.923Q722.17 440.39 722.443 438.863Q722.715 437.336 723.025 435.816Q723.335 434.296 723.682 432.785Q724.029 431.273 724.413 429.771Q724.797 428.268 725.218 426.775Q725.639 425.282 726.096 423.8Q726.553 422.318 727.047 420.848Q727.54 419.377 728.07 417.919Q728.599 416.461 729.164 415.017Q729.729 413.573 730.329 412.142Q730.929 410.712 731.564 409.297Q732.199 407.882 732.868 406.483Q733.538 405.084 734.241 403.702Q734.945 402.32 735.682 400.955Q736.419 399.591 737.19 398.244Q737.96 396.898 738.764 395.572Q739.567 394.245 740.402 392.938Q741.238 391.631 742.105 390.346Q742.973 389.06 743.871 387.796Q744.77 386.531 745.699 385.29Q746.628 384.048 747.588 382.829Q748.547 381.611 749.536 380.416Q750.525 379.221 751.543 378.051C772.225 354.507 801.751 341.773 832.669 339.712Z"/>
	<path fill="#010101" d="M830.826 372.701C830.954 372.677 831.081 372.645 831.211 372.631C854.97 370.032 881.18 379.153 899.971 393.45C917.17 406.535 928.739 427.13 931.631 448.495C934.92 472.796 927.678 495.718 912.802 514.988C898.531 533.474 875.745 547.018 852.517 549.931Q851.569 550.091 850.615 550.207Q849.503 550.332 848.388 550.43Q847.274 550.529 846.157 550.6Q845.041 550.672 843.923 550.717Q842.805 550.761 841.686 550.779Q840.567 550.797 839.448 550.788Q838.33 550.779 837.211 550.743Q836.093 550.707 834.976 550.644Q833.859 550.581 832.743 550.492Q831.628 550.402 830.515 550.286Q829.402 550.169 828.293 550.026Q827.183 549.883 826.077 549.713Q824.971 549.543 823.87 549.347Q822.768 549.151 821.672 548.928Q820.575 548.706 819.484 548.457Q818.393 548.208 817.309 547.933Q816.224 547.658 815.147 547.357Q814.069 547.056 812.999 546.729Q811.929 546.402 810.867 546.049Q809.805 545.697 808.752 545.319Q807.699 544.941 806.655 544.538Q805.611 544.135 804.577 543.707Q803.543 543.279 802.52 542.826Q801.497 542.373 800.485 541.896Q799.473 541.419 798.473 540.918Q797.472 540.416 796.484 539.891Q795.496 539.366 794.521 538.817Q793.546 538.268 792.585 537.696Q791.623 537.124 790.676 536.529Q789.728 535.934 788.795 535.316Q787.862 534.698 786.944 534.059Q786.026 533.419 785.124 532.757Q784.222 532.095 783.336 531.412C764.258 516.451 752.641 494.608 749.974 470.622C747.41 447.568 753.565 424.267 768.246 406.165Q768.969 405.286 769.713 404.426Q770.457 403.565 771.222 402.723Q771.987 401.881 772.772 401.057Q773.557 400.234 774.362 399.43Q775.167 398.627 775.992 397.843Q776.817 397.059 777.66 396.295Q778.504 395.532 779.365 394.789Q780.227 394.047 781.107 393.325Q781.987 392.604 782.884 391.904Q783.781 391.205 784.696 390.527Q785.61 389.85 786.54 389.195Q787.47 388.54 788.416 387.908Q789.362 387.276 790.324 386.668Q791.285 386.059 792.261 385.474Q793.237 384.889 794.227 384.329Q795.216 383.768 796.22 383.231Q797.223 382.695 798.239 382.183Q799.255 381.671 800.283 381.184Q801.312 380.698 802.352 380.236Q803.391 379.775 804.442 379.339Q805.493 378.903 806.555 378.493Q807.616 378.082 808.687 377.698Q809.758 377.314 810.838 376.957Q811.918 376.599 813.006 376.268Q814.094 375.937 815.191 375.632Q816.287 375.328 817.39 375.05Q818.494 374.772 819.603 374.522Q820.713 374.271 821.829 374.048Q822.944 373.825 824.065 373.629Q825.186 373.433 826.311 373.265Q827.436 373.096 828.565 372.955Q829.694 372.814 830.826 372.701Z"/>
	<path fill="#FEFEFE" d="M885.444 506.034L903.978 506.011C898.195 515.278 889.29 521.74 880.27 527.565C876.281 529.913 872.228 532.094 867.924 533.805C875.747 525.479 880.92 516.469 885.444 506.034Z"/>
	<path fill="#FEFEFE" d="M871.593 390.387C882.744 393.345 899.996 407.603 905.96 417.503L885.609 417.466C882.103 407.926 877.851 398.449 871.593 390.387Z"/>
	<path fill="#FEFEFE" d="M776.144 505.532L795.615 505.535C799.474 516.329 804.988 525.297 812.786 533.665C809.785 533.112 806.933 531.516 804.246 530.11C792.558 523.996 783.919 516.097 776.144 505.532Z"/>
	<path fill="#FEFEFE" d="M810.441 390.071C809.964 392.609 806.437 396.611 804.994 398.964C801.444 404.75 798.482 410.775 795.629 416.927C789.021 417.048 782.396 416.949 775.786 416.944L775.743 416.317C783.057 404.454 797.411 394.569 810.441 390.071Z"/>
	<path fill="#FEFEFE" d="M847.479 505.695Q860.467 505.718 873.452 505.955C870.676 512.494 866.583 518.138 862.141 523.635C857.78 528.482 853.243 532.218 847.508 535.329C847.058 525.521 847.268 515.51 847.479 505.695Z"/>
	<path fill="#FEFEFE" d="M847.592 387.99C851.027 388.661 853.754 390.085 856.487 392.247C862.683 397.148 871.467 409.262 872.353 417.198C864.071 417.489 855.726 417.282 847.437 417.276C847.437 407.519 847.318 397.744 847.592 387.99Z"/>
	<path fill="#FEFEFE" d="M808.287 505.845C817.313 505.532 826.429 505.801 835.465 505.806L835.522 535.469C822.98 529.841 813.624 518.246 808.287 505.845Z"/>
	<path fill="#FEFEFE" d="M835.35 387.5C836.662 391.499 835.664 411.522 835.646 417.334L808.795 417.282C808.777 415.558 809.58 414.069 810.256 412.52C815.147 401.314 823.918 391.968 835.35 387.5Z"/>
	<path fill="#FEFEFE" d="M762.335 467.499C770.869 467.389 779.418 467.5 787.953 467.503C788.16 476.475 789.732 485.257 791.39 494.047C784.171 494.287 776.911 494.145 769.687 494.153C765.709 485.671 763.123 476.851 762.335 467.499Z"/>
	<path fill="#FEFEFE" d="M893.088 467.491L920.01 467.497C919.161 475.784 917.239 482.916 913.848 490.523C913.342 491.592 912.909 492.655 912.061 493.507C910.69 494.885 892.447 494.129 889.655 494.099C891.864 485.229 892.849 476.605 893.088 467.491Z"/>
	<path fill="#FEFEFE" d="M767.798 428.952L791.812 429.088C790.988 433.79 788.566 453.711 787.559 456.005L786.516 456.283L761.88 456.149C762.638 446.672 764.543 437.891 767.798 428.952Z"/>
	<path fill="#FEFEFE" d="M888.958 429.507L913.361 429.48C916.541 437.991 920.273 446.991 919.375 456.247L893.162 456.184C892.588 447.102 890.888 438.373 888.958 429.507Z"/>
	<path fill="#FEFEFE" d="M847.57 429.428C857.378 429.034 867.282 429.357 877.099 429.442C878.946 438.31 880.625 447.053 881.614 456.066C870.293 456.342 858.912 456.143 847.584 456.168L847.57 429.428Z"/>
	<path fill="#FEFEFE" d="M847.573 467.581L881.492 467.583C881.309 475.864 880.159 483.85 878.097 491.865L877.452 493.406C874.292 495.227 852.581 494.127 847.578 494.101L847.573 467.581Z"/>
	<path fill="#FEFEFE" d="M799.594 467.561C811.614 467.371 823.662 467.528 835.684 467.516C835.699 476.258 836.339 485.475 835.487 494.16L803.849 494.326C801.368 485.522 800.282 476.65 799.594 467.561Z"/>
	<path fill="#FEFEFE" d="M803.717 429.167L836.003 429.283C836.045 437.909 836.588 446.877 835.844 455.458C834.725 456.329 834.017 456.127 832.625 456.172L799.552 456.088C800.258 446.899 801.7 438.144 803.717 429.167Z"/>
	<path fill="#FEFEFE" d="M308.4 159.129L625.729 159.287L753.826 159.101L795.7 159.067C804.528 159.052 813.43 158.793 822.246 159.254C823.043 215.688 822.411 272.218 822.416 328.661C804.344 331.138 787.002 336.862 771.38 346.391C742.094 364.253 721.052 394.904 713.255 428.094C705.116 462.743 709.721 500.293 728.678 530.741Q730.138 533.124 731.701 535.44Q733.264 537.757 734.927 540.004Q736.589 542.25 738.348 544.422Q740.106 546.594 741.958 548.688Q743.81 550.781 745.751 552.792Q747.692 554.802 749.718 556.727Q751.745 558.651 753.854 560.485Q755.962 562.319 758.149 564.06Q760.335 565.8 762.596 567.444Q764.856 569.088 767.185 570.631Q769.515 572.175 771.91 573.616Q774.304 575.057 776.76 576.392Q779.215 577.727 781.726 578.954Q784.237 580.181 786.799 581.297Q789.361 582.413 791.969 583.417Q794.577 584.421 797.227 585.31C805.956 588.309 814.978 590.257 823.955 592.35L823.68 682.486C788.619 686.159 763.102 695.899 735.14 717.769C722.37 717.106 709.401 717.555 696.612 717.563L627.909 717.575L416.639 717.496L416.708 668.223C426.06 667.934 435.487 668.163 444.846 668.134L508.625 668.151C575.75 668.562 642.937 667.093 710.052 668.231L710.059 656.893C694.65 656.766 679.243 657.046 663.833 656.834L663.807 553.745L615.388 553.918C614.757 588.16 615.387 622.483 615.157 656.737C603.796 657.216 592.36 656.972 580.989 656.983L580.643 577.609L531.923 577.714C531.051 604.026 532.149 630.493 531.63 656.838C519.456 657.181 507.207 656.921 495.024 656.915L495.036 596.512L446.206 596.52L446.12 656.813C436.325 656.995 426.505 656.839 416.708 656.829C416.752 647.469 417.214 639.607 410.543 632.107L410.514 616.568L363.154 616.509L363.005 624.442L283.442 624.499L283.313 326.189C286.658 329.228 289.223 335.454 293.948 336.352C295.78 336.701 296.477 336.281 297.897 335.198C303.962 330.571 309.451 324.15 314.898 318.765C320.077 313.644 326.33 308.437 330.77 302.694C332.174 300.877 333.272 299.101 333.552 296.797C331.897 292.991 308.581 269.58 303.422 263.519C307.215 255.756 310.099 247.562 313.113 239.476C319.892 239.5 351.863 240.543 355.762 238.71C356.848 237.109 357.272 235.624 357.605 233.721C358.906 226.29 358.021 217.472 358.008 209.905C357.997 203.186 358.538 195.975 357.77 189.318C357.493 186.925 357.009 184.686 355.602 182.703C350.545 180.773 319.852 181.873 312.353 181.862C310.597 175.07 308.187 168.507 305.703 161.956L308.4 159.129Z"/>
	<path fill="#010101" d="M491.936 471.058C500.395 470.483 509.119 470.874 517.609 470.881C524.742 470.887 532.302 470.391 539.37 471.194C541.305 471.414 543.036 472.108 544.129 473.808C545.127 475.361 545.134 477.462 544.603 479.179C543.918 481.398 542.58 482.219 540.665 483.295C540.022 483.384 539.402 483.47 538.753 483.494C530.312 483.813 521.751 483.55 513.299 483.555C507.568 483.559 501.153 484.126 495.527 483.195C493.178 482.806 489.719 481.824 488.068 479.973C487.321 479.135 486.915 478.308 487.075 477.173C487.406 474.814 490.043 472.309 491.936 471.058Z"/>
	<path fill="#010101" d="M597.686 442.171C610.601 441.555 623.72 441.986 636.656 441.964C644.516 441.951 653.317 441.167 661.085 442.132C662.914 442.359 665.219 443.045 666.252 444.731C667.164 446.22 667.274 447.723 666.82 449.372C666.115 451.933 664.685 453.073 662.436 454.304C656.423 454.697 600.707 455.198 597.555 454.233Q597.278 454.147 597.011 454.033Q596.744 453.919 596.49 453.779Q596.236 453.638 595.998 453.471Q595.76 453.305 595.541 453.115Q595.321 452.925 595.123 452.714Q594.924 452.502 594.748 452.271Q594.572 452.041 594.421 451.793Q594.27 451.545 594.145 451.283C593.25 449.411 593.425 447.441 594.153 445.545C594.871 443.672 595.927 442.983 597.686 442.171Z"/>
	<path fill="#010101" d="M597.752 471.127C610.767 470.715 623.915 471.11 636.942 471.132C644.905 471.145 654.046 470.326 661.898 471.538C663.769 471.827 665.544 472.838 666.516 474.508C667.302 475.859 667.354 477.401 666.917 478.864C666.163 481.389 664.699 482.404 662.439 483.55C654.424 483.921 600.771 484.238 597.492 483.2C595.804 482.667 594.342 481.608 593.604 479.962C592.839 478.258 592.855 476.149 593.587 474.435C594.389 472.557 595.983 471.85 597.752 471.127Z"/>
	<path fill="#010101" d="M491.767 442.06C499.804 441.396 567.738 441.353 570.832 442.253C572.03 442.602 573.152 443.662 573.693 444.767C574.514 446.446 574.49 448.835 573.892 450.584C573.262 452.425 571.849 453.159 570.232 453.997L523.911 454.176C514.85 454.224 505.696 454.533 496.647 454.179C493.9 454.072 490.44 453.94 488.616 451.533C487.599 450.19 487.376 448.502 487.715 446.882C488.246 444.348 489.681 443.327 491.767 442.06Z"/>
	<path fill="#010101" d="M491.469 412.573C504.303 411.796 517.603 412.466 530.482 412.472L606.742 412.571L644.009 412.673C649.83 412.685 656.704 411.956 662.398 413.067C664.034 413.387 665.67 414.404 666.425 415.931C667.05 417.197 666.996 418.618 666.594 419.933C665.922 422.129 664.641 422.963 662.671 423.961C661.779 424.043 660.901 424.122 660.005 424.15C648.355 424.509 636.637 424.311 624.977 424.368L547.858 424.474L510.67 424.503C504.841 424.505 498.326 425.071 492.579 424.339C491.217 424.165 489.573 423.463 488.664 422.38C487.593 421.104 487.284 419.694 487.534 418.082C487.958 415.339 489.282 414.117 491.469 412.573Z"/>
	<path fill="#010101" d="M406.278 407.172C415.535 405.909 426.254 408.988 433.948 414.092C443.029 420.117 449.78 429.951 451.815 440.689Q452.008 441.685 452.152 442.689Q452.296 443.694 452.39 444.704Q452.484 445.714 452.528 446.728Q452.571 447.741 452.565 448.756Q452.558 449.77 452.501 450.783Q452.444 451.796 452.337 452.805Q452.231 453.814 452.074 454.817Q451.917 455.819 451.711 456.812Q451.504 457.806 451.249 458.788Q450.994 459.77 450.69 460.738Q450.387 461.706 450.035 462.658Q449.684 463.609 449.286 464.543Q448.888 465.476 448.445 466.388Q448.001 467.301 447.513 468.19Q447.025 469.079 446.493 469.943Q445.961 470.807 445.387 471.644C438.166 482.147 428.419 487.543 416.104 489.894C405.156 491.21 394.448 488.671 385.55 482.058Q384.75 481.454 383.98 480.811Q383.21 480.168 382.473 479.488Q381.735 478.809 381.032 478.094Q380.329 477.378 379.661 476.63Q378.994 475.881 378.364 475.101Q377.734 474.321 377.143 473.51Q376.552 472.7 376.001 471.862Q375.451 471.024 374.942 470.159Q374.433 469.295 373.967 468.407Q373.501 467.519 373.079 466.609Q372.657 465.7 372.28 464.77Q371.903 463.841 371.572 462.894Q371.241 461.948 370.956 460.986Q370.672 460.024 370.435 459.049Q370.198 458.075 370.009 457.09Q369.82 456.105 369.68 455.112C368.036 443.711 370.449 432.615 377.52 423.431C384.857 413.901 394.455 408.722 406.278 407.172Z"/>
	<path fill="#010101" d="M335.897 368.528C350.437 368.026 365.143 368.456 379.699 368.441L470.123 368.493L713.125 368.457L713.101 379.696C675.012 380.513 636.735 379.783 598.63 379.806L342.466 379.523Q341.997 447.85 342.265 516.171L353.792 516.163L597.864 516.151C634.891 516.144 671.949 515.832 708.972 516.245L708.963 527.507L446.669 527.646L371.872 527.61C362.526 527.623 344.898 528.621 336.813 527.298C335.188 527.032 332.912 525.91 332.058 524.43C330.791 522.232 330.78 518.485 330.702 515.961C330.349 504.608 330.613 493.174 330.612 481.815L330.554 420.156C330.541 412.064 329.497 378.681 330.949 373.614C331.666 371.112 333.772 369.754 335.897 368.528Z"/>
	<path fill="#010101" d="M532.1 194.207C546.945 193.777 561.895 194.101 576.75 194.085L663.698 194.061L737.413 194.046C750.654 194.035 764.038 193.633 777.265 194.105C779.931 194.2 783.724 194.331 785.975 195.834C787.944 197.149 789.098 199.836 789.593 202.058C790.979 208.28 790.034 227.946 790.042 235.822L790.067 273.371C790.067 280.536 790.359 287.832 789.885 294.975C789.754 296.954 789.587 298.577 788.434 300.259C786.545 303.014 783.834 303.803 780.696 304.334L609.084 304.41L559.677 304.419C550.714 304.43 541.394 304.936 532.47 304.25C530.119 304.069 528.311 303.6 526.395 302.176C524.168 300.521 523.103 298.838 522.722 296.095C522.045 291.222 522.409 286.059 522.424 281.135L522.516 254.552L522.447 222.448C522.425 216.638 522.091 210.589 522.529 204.805C522.712 202.384 523.084 199.4 524.688 197.456C526.631 195.101 529.22 194.595 532.1 194.207Z"/>
	<path fill="#FEFEFE" d="M558.083 266.719L616.075 266.732C622.132 266.748 629.957 265.582 635.776 266.899C637.467 267.282 639.268 268.003 640.097 269.651C640.803 271.054 640.612 273.019 639.803 274.34C639.007 275.641 637.885 276.028 636.543 276.5L579.645 276.554C573.911 276.561 561.437 277.531 556.608 276.21C555.413 275.884 554.436 275.137 553.853 274.021C553.206 272.784 553.121 270.645 553.747 269.387C554.605 267.663 556.386 267.184 558.083 266.719Z"/>
	<path fill="#FEFEFE" d="M555.731 227.055Q556.614 227.004 557.499 226.986C589.2 226.356 621.057 226.806 652.768 226.947Q666.414 227.023 680.059 226.95C684.791 226.934 689.86 226.545 694.544 227.076C696.982 227.353 698.953 227.942 700.739 229.66C701.256 230.757 701.345 231.526 701.163 232.706C700.878 234.566 699.862 235.404 698.462 236.458C670.431 237.048 642.27 236.543 614.229 236.549L579.075 236.546C572.461 236.543 565.72 236.801 559.122 236.385C557.498 236.283 555.658 236.28 554.371 235.147C553.585 234.455 553.141 233.521 553.128 232.454C553.101 230.089 554.099 228.642 555.731 227.055Z"/>
	<path fill="#FEFEFE" d="M586.986 247.25L718.5 247.455C723.941 247.476 749.802 246.731 752.757 247.742C754.659 248.392 756.722 249.83 757.421 251.808C757.786 252.84 757.694 253.888 757.029 254.781C756.035 256.114 754.095 256.736 752.535 256.994C746.12 258.053 731.251 257.154 723.75 257.185L610.389 257.111L572.081 257.034C567.766 257.024 563.397 257.333 559.096 257.218C558 257.189 556.458 257.128 555.472 256.582C554.25 255.904 553.694 255.06 553.337 253.728C552.921 252.178 553.438 250.202 554.45 248.984C555.014 248.305 555.879 247.651 556.751 247.439C560.859 246.443 581.165 247.255 586.986 247.25Z"/>
</svg>
